<?xml version="1.0" encoding="UTF-8" standalone="no"?>
<svg
   width="16"
   height="16"
   version="1.1"
   id="svg4"
   sodipodi:docname="accessories-calculator-symbolic.svg"
   inkscape:version="1.1.1 (3bf5ae0d25, 2021-09-20)"
   xmlns:inkscape="http://www.inkscape.org/namespaces/inkscape"
   xmlns:sodipodi="http://sodipodi.sourceforge.net/DTD/sodipodi-0.dtd"
   xmlns="http://www.w3.org/2000/svg"
   xmlns:svg="http://www.w3.org/2000/svg">
  <defs
     id="defs8" />
  <sodipodi:namedview
     id="namedview6"
     pagecolor="#505050"
     bordercolor="#ffffff"
     borderopacity="1"
     inkscape:pageshadow="0"
     inkscape:pageopacity="0"
     inkscape:pagecheckerboard="1"
     showgrid="false"
     inkscape:zoom="46.0625"
     inkscape:cx="4.7218453"
     inkscape:cy="7.761194"
     inkscape:current-layer="g830" />
  <g
     id="g944"
     transform="translate(29.933848,4.1279706)">
    <g
       id="g850"
       transform="matrix(0.5,0,0,0.5,-30.183848,-4.6279706)">
      <g
         id="g830"
         transform="translate(0,0.5)">
        <g
           id="g849">
          <path
             id="path4"
             style="opacity:0.5;fill:#4c5263;fill-opacity:1;stroke-width:0.5"
             d="M 1.5 0.75 C 1.0845 0.75 0.75 1.0845 0.75 1.5 L 0.75 7.75 L 0.75 14 C 0.75 14.4155 1.0845 14.75 1.5 14.75 L 7.25 14.75 L 7.75 14.75 L 11.261719 14.75 L 13.253906 14.339844 C 13.660848 14.255944 13.852053 13.882115 13.978516 13.486328 L 14.75 11.074219 L 14.75 7.75 L 14.75 1.5 C 14.75 1.0845 14.4155 0.75 14 0.75 L 8.25 0.75 L 1.5 0.75 z M 4.25 2.75 L 4.75 2.75 L 4.75 4.25 L 6.25 4.25 L 6.25 4.75 L 4.75 4.75 L 4.75 6.25 L 4.25 6.25 L 4.25 4.75 L 2.75 4.75 L 2.75 4.25 L 4.25 4.25 L 4.25 2.75 z M 9.75 4.25 L 12.75 4.25 L 12.75 4.75 L 9.75 4.75 L 9.75 4.25 z M 2.9257812 9.5722656 L 4.25 10.896484 L 5.5722656 9.5722656 L 5.9277344 9.9277344 L 4.6035156 11.25 L 5.9277344 12.572266 L 5.5722656 12.927734 L 4.25 11.603516 L 2.9257812 12.927734 L 2.5742188 12.572266 L 3.8964844 11.25 L 2.5742188 9.9277344 L 2.9257812 9.5722656 z M 9.75 10.25 L 12.75 10.25 L 12.75 10.75 L 9.75 10.75 L 9.75 10.25 z M 9.75 11.75 L 12.75 11.75 L 12.75 12.25 L 9.75 12.25 L 9.75 11.75 z "
             transform="matrix(2,0,0,2,0.5,0.5)" />
          <path
             id="circle16"
             style="fill:#4c5263;fill-opacity:1;stroke-width:0.5"
             d="M 11.25 7.25 A 4 4 0 0 0 7.25 11.25 A 4 4 0 0 0 11.25 15.25 A 4 4 0 0 0 15.25 11.25 A 4 4 0 0 0 11.25 7.25 z M 9.75 10.25 L 12.75 10.25 L 12.75 10.75 L 9.75 10.75 L 9.75 10.25 z M 9.75 11.75 L 12.75 11.75 L 12.75 12.25 L 9.75 12.25 L 9.75 11.75 z "
             transform="matrix(2,0,0,2,0.5,0.5)" />
        </g>
      </g>
    </g>
  </g>
</svg>
