<?xml version="1.0" encoding="UTF-8" standalone="no"?>
<svg
   width="16"
   height="16.035"
   version="1.1"
   id="svg8"
   sodipodi:docname="accessories-character-map-symbolic.svg"
   inkscape:version="1.1.1 (3bf5ae0d25, 2021-09-20)"
   xmlns:inkscape="http://www.inkscape.org/namespaces/inkscape"
   xmlns:sodipodi="http://sodipodi.sourceforge.net/DTD/sodipodi-0.dtd"
   xmlns="http://www.w3.org/2000/svg"
   xmlns:svg="http://www.w3.org/2000/svg">
  <defs
     id="defs12" />
  <sodipodi:namedview
     id="namedview10"
     pagecolor="#505050"
     bordercolor="#ffffff"
     borderopacity="1"
     inkscape:pageshadow="0"
     inkscape:pageopacity="0"
     inkscape:pagecheckerboard="1"
     showgrid="false"
     inkscape:zoom="45.961959"
     inkscape:cx="8.0066214"
     inkscape:cy="8.0066214"
     inkscape:current-layer="g6" />
  <g
     fill="#4c5263"
     id="g6">
    <path
       d="m 4.5,2.49994 c 0,0 -2,0 -2,2 v 7 c 0,0 0,2 2,2 l 7,0.03516 c 0,0 2,0 2,-2 v -7 c 0,-2 -2,-2 -2,-2 l -7,-0.0352 z m 7.36328,2.06055 0.31641,0.94922 -3,1 -0.31641,-0.94922 z m -0.77539,2.95313 0.0234,0.002 c 0.36741,0.0283 0.72246,0.14366 0.99805,0.39258 0.27556,0.24891 0.43554,0.63055 0.43554,1.0332 v 0.004 L 12.5,11.5351 c 0,1 -1,1 -1,1 l -2.49024,1.4e-4 C 8.5349,12.54934 8.10989,12.35624 7.8496,12.05282 7.58928,11.74939 7.48298,11.36752 7.49608,11.00008 7.50918,10.63265 7.64039,10.26359 7.9121,9.97665 8.18381,9.68971 8.61061,9.51186 9.07616,9.54696 h 2.46094 l 0.008,-0.60547 c 0,-0.17187 -0.0405,-0.23052 -0.10742,-0.29102 C 11.37198,8.59117 11.2416,8.53106 11.0412,8.51376 l -2.87891,0.0449 -0.0137,-1 2.93945,-0.0449 z m -2.08594,3.03125 c -0.20015,-0.0151 -0.28468,0.0361 -0.36328,0.11914 -0.0786,0.083 -0.13758,0.22557 -0.14258,0.37304 -0.005,0.14748 0.0416,0.28394 0.11133,0.36524 0.0697,0.0813 0.15297,0.13981 0.37305,0.13281 h 0.008 2.51953 l 0.0137,-0.98828 H 9.01975 l -0.0176,-0.002 z"
       id="path4" />
  </g>
</svg>
