<?xml version="1.0" encoding="UTF-8" standalone="no"?>
<svg
   width="16"
   height="16"
   version="1.1"
   id="svg8"
   sodipodi:docname="accessories-dictionary-symbolic.svg"
   inkscape:version="1.1.1 (3bf5ae0d25, 2021-09-20)"
   xmlns:inkscape="http://www.inkscape.org/namespaces/inkscape"
   xmlns:sodipodi="http://sodipodi.sourceforge.net/DTD/sodipodi-0.dtd"
   xmlns="http://www.w3.org/2000/svg"
   xmlns:svg="http://www.w3.org/2000/svg">
  <defs
     id="defs12" />
  <sodipodi:namedview
     id="namedview10"
     pagecolor="#505050"
     bordercolor="#ffffff"
     borderopacity="1"
     inkscape:pageshadow="0"
     inkscape:pageopacity="0"
     inkscape:pagecheckerboard="1"
     showgrid="false"
     inkscape:zoom="46.0625"
     inkscape:cx="5.8290366"
     inkscape:cy="7.7829037"
     inkscape:current-layer="svg8" />
  <path
     id="rect2"
     style="fill:#4c5263;stroke-width:0.499997;fill-opacity:1;opacity:0.6"
     d="M 1.6992188 1 C 1.3114243 1 1 1.3114189 1 1.6992188 L 1 14.300781 C 1 14.688581 1.3114243 15 1.6992188 15 L 8 15 L 14.300781 15 C 14.349256 15 14.395757 14.995622 14.441406 14.986328 C 14.760954 14.921269 15 14.640106 15 14.300781 L 15 1.6992188 C 15 1.3114189 14.688776 1 14.300781 1 L 8 1 L 1.6992188 1 z " />
  <path
     fill="#c2352a"
     d="m 6.3999229,0.500005 c -0.3999943,0 -0.3999943,0.3428499 -0.3999943,0.3428499 V 6.499853 L 6.9999143,5.9998532 7.9999,6.499853 V 0.8428549 C 7.9999,0.5 7.5999007,0.5 7.5999007,0.5 Z"
     id="path10"
     style="fill:#4c5263;stroke-width:0.499997;fill-opacity:1" />
</svg>
