<?xml version="1.0" encoding="UTF-8" standalone="no"?>
<svg
   width="16"
   height="16.035"
   version="1.1"
   id="svg8"
   sodipodi:docname="accessories-character-map-symbolic.svg"
   inkscape:version="1.1.1 (3bf5ae0d25, 2021-09-20)"
   xmlns:inkscape="http://www.inkscape.org/namespaces/inkscape"
   xmlns:sodipodi="http://sodipodi.sourceforge.net/DTD/sodipodi-0.dtd"
   xmlns="http://www.w3.org/2000/svg"
   xmlns:svg="http://www.w3.org/2000/svg">
  <defs
     id="defs12" />
  <sodipodi:namedview
     id="namedview10"
     pagecolor="#505050"
     bordercolor="#ffffff"
     borderopacity="1"
     inkscape:pageshadow="0"
     inkscape:pageopacity="0"
     inkscape:pagecheckerboard="1"
     showgrid="false"
     inkscape:zoom="45.961959"
     inkscape:cx="7.4300575"
     inkscape:cy="7.6476288"
     inkscape:current-layer="g830" />
  <g
     fill="#4c5263"
     id="g6">
    <g
       id="g830"
       transform="matrix(0.49999993,0,0,0.49999993,2.5000007,2.6359217)">
      <g
         id="g1175">
        <path
           id="rect3552"
           style="display:inline;fill:#4c5263;fill-opacity:1;stroke:none;stroke-width:1;enable-background:new"
           d="m -1.3984393,-3.2368438 c -0.8864,0 -1.6015627,0.7151626 -1.6015627,1.6015628 v 24.796879 c 0,0.8864 0.7151627,1.601562 1.6015627,1.601562 H 23.39844 c 0.8864,0 1.601562,-0.715162 1.601562,-1.601562 V -1.635281 c 0,-0.8864002 -0.715162,-1.6015628 -1.601562,-1.6015628 z M 11.699219,4.7631573 h 1.890625 l 2.707033,3.5898444 h -1.468751 z m 3.203126,4.7109383 c 1.55488,10e-6 2.716514,0.4047073 3.484374,1.2109374 0.76784,0.806251 1.152334,2.0299 1.152344,3.66797 v 6.132813 h -1.765624 v -1.632813 c -0.40313,0.652671 -0.906334,1.135679 -1.507814,1.449219 -0.601478,0.30714 -1.336801,0.460938 -2.207031,0.460938 -1.10058,0 -1.976236,-0.307594 -2.628906,-0.921874 -0.64627,-0.620681 -0.96875,-1.447787 -0.96875,-2.484377 0,-1.20936 0.400791,-2.123992 1.207031,-2.738281 0.81264,-0.61427 2.022817,-0.917969 3.628908,-0.917969 h 2.476562 v -0.175781 c -10e-6,-0.81263 -0.267198,-1.437387 -0.804688,-1.878907 -0.5311,-0.4479 -1.279894,-0.671865 -2.246094,-0.671875 -0.61428,1e-5 -1.214595,0.07159 -1.796875,0.21875 -0.58229,0.14718 -1.142198,0.369723 -1.679688,0.664063 v -1.632813 c 0.64627,-0.2495403 1.274933,-0.4330979 1.882813,-0.5546879 0.60788,-0.1279601 1.197547,-0.1953025 1.773438,-0.1953125 z m 1.11328,5.6054694 c -1.426919,10e-6 -2.414563,0.165858 -2.964843,0.492188 -0.5503,0.32634 -0.824219,0.880928 -0.824219,1.667968 0,0.62708 0.203761,1.12888 0.613281,1.5 0.41591,0.36473 0.981147,0.546877 1.691407,0.546877 0.979,0 1.762872,-0.348003 2.351562,-1.039063 0.59507,-0.69746 0.890616,-1.621658 0.890626,-2.773438 v -0.394532 z" />
      </g>
    </g>
  </g>
</svg>
