<?xml version="1.0" encoding="UTF-8" standalone="no"?>
<svg
   width="32"
   height="32"
   version="1"
   id="svg12"
   sodipodi:docname="audio-headphones.svg"
   inkscape:version="1.1.1 (3bf5ae0d25, 2021-09-20)"
   xmlns:inkscape="http://www.inkscape.org/namespaces/inkscape"
   xmlns:sodipodi="http://sodipodi.sourceforge.net/DTD/sodipodi-0.dtd"
   xmlns="http://www.w3.org/2000/svg"
   xmlns:svg="http://www.w3.org/2000/svg">
  <defs
     id="defs16" />
  <sodipodi:namedview
     id="namedview14"
     pagecolor="#505050"
     bordercolor="#ffffff"
     borderopacity="1"
     inkscape:pageshadow="0"
     inkscape:pageopacity="0"
     inkscape:pagecheckerboard="1"
     showgrid="false"
     inkscape:zoom="23.03125"
     inkscape:cx="16"
     inkscape:cy="15.97829"
     inkscape:current-layer="svg12" />
  <path
     fill="#4f4f4f"
     d="m16 1.0002c-7.732 0-14 6.268-14 14v9c0 3.5696 2.5419 4.541 4 4.8066v-13.807c0-5.54 4.46-10 10-10s10 4.46 10 10v13.812c1.458-0.268 4-1.242 4-4.812v-9c0-7.732-6.268-14-14-14z"
     id="path2"
     style="fill:#37474f" />
  <path
     fill="#8e8e8e"
     d="m6 17v14h5v-14zm15 0v14h5v-14z"
     id="path4"
     style="fill:#455a64" />
  <path
     fill="#fff"
     opacity=".1"
     d="m16 1.0002c-7.732 0-14 6.268-14 14v1c0-7.732 6.268-14 14-14s14 6.268 14 14v-1c0-7.732-6.268-14-14-14z"
     id="path6" />
  <path
     fill="#fff"
     opacity=".1"
     d="m6 17v1h5v-1zm15 0v1h5v-1z"
     id="path8" />
  <path
     opacity=".2"
     d="m16 5c-5.54 0-10 4.46-10 10v1c0-5.54 4.46-10 10-10s10 4.46 10 10v-1c0-5.54-4.46-10-10-10zm-14 19v1c0 3.5696 2.5419 4.541 4 4.8066v-1c-1.4581-0.266-4-1.237-4-4.807zm28 0c0 3.5696-2.5419 4.5451-4 4.8125v1c1.458-0.267 4-1.242 4-4.812v-1zm-24 7v1h5v-1h-5zm15 0v1h5v-1h-5z"
     id="path10" />
</svg>
