<?xml version="1.0" encoding="UTF-8" standalone="no"?>
<svg
   width="32"
   height="32"
   version="1"
   id="svg48"
   sodipodi:docname="camera-video.svg"
   inkscape:version="1.1.1 (3bf5ae0d25, 2021-09-20)"
   xmlns:inkscape="http://www.inkscape.org/namespaces/inkscape"
   xmlns:sodipodi="http://sodipodi.sourceforge.net/DTD/sodipodi-0.dtd"
   xmlns="http://www.w3.org/2000/svg"
   xmlns:svg="http://www.w3.org/2000/svg">
  <defs
     id="defs52" />
  <sodipodi:namedview
     id="namedview50"
     pagecolor="#505050"
     bordercolor="#ffffff"
     borderopacity="1"
     inkscape:pageshadow="0"
     inkscape:pageopacity="0"
     inkscape:pagecheckerboard="1"
     showgrid="false"
     inkscape:zoom="23.03125"
     inkscape:cx="11.354138"
     inkscape:cy="15.97829"
     inkscape:current-layer="svg48" />
  <rect
     style="opacity:0.2"
     width="22"
     height="28"
     x="6"
     y="3"
     rx="4.125"
     ry="4.2"
     id="rect2" />
  <rect
     style="opacity:0.2"
     width="3"
     height="18"
     x="3"
     y="8"
     rx=".75"
     ry=".692"
     id="rect4" />
  <rect
     style="fill:#4f4f4f"
     width="22"
     height="28"
     x="6"
     y="2"
     rx="4.125"
     ry="4.2"
     id="rect6" />
  <circle
     style="opacity:0.2"
     cx="-6.5"
     cy="-24.5"
     r="1.5"
     transform="matrix(0,-1,-1,0,0,0)"
     id="circle8" />
  <circle
     style="fill:#f44336"
     cx="-5.5"
     cy="-24.5"
     r="1.5"
     transform="matrix(0,-1,-1,0,0,0)"
     id="circle10" />
  <circle
     style="opacity:0.4"
     cx="-15"
     cy="-17"
     r="6"
     transform="matrix(0,-1,-1,0,0,0)"
     id="circle12" />
  <circle
     style="opacity:0.2"
     cx="-16"
     cy="17"
     r="4"
     transform="rotate(-90)"
     id="circle14" />
  <circle
     style="fill:#673ab7"
     cx="-15"
     cy="17"
     r="4"
     transform="rotate(-90)"
     id="circle16" />
  <circle
     style="opacity:0.2"
     cx="-16"
     cy="-17"
     r="2"
     transform="matrix(0,-1,-1,0,0,0)"
     id="circle18" />
  <circle
     style="fill:#7e57c2"
     cx="-15"
     cy="-17"
     r="2"
     transform="matrix(0,-1,-1,0,0,0)"
     id="circle20" />
  <rect
     style="fill:#3f3f3f"
     width="3"
     height="18"
     x="3"
     y="7"
     rx=".75"
     ry=".692"
     id="rect22" />
  <circle
     style="opacity:0.5"
     cx="8.5"
     cy="25.5"
     r=".5"
     id="circle24" />
  <circle
     style="opacity:0.5"
     cx="10.5"
     cy="25.5"
     r=".5"
     id="circle26" />
  <circle
     style="opacity:0.5"
     cx="12.5"
     cy="25.5"
     r=".5"
     id="circle28" />
  <circle
     style="opacity:0.5"
     cx="14.5"
     cy="25.5"
     r=".5"
     id="circle30" />
  <circle
     style="opacity:0.5"
     cx="9.5"
     cy="27.5"
     r=".5"
     id="circle32" />
  <circle
     style="opacity:0.5"
     cx="11.5"
     cy="27.5"
     r=".5"
     id="circle34" />
  <circle
     style="opacity:0.5"
     cx="13.5"
     cy="27.5"
     r=".5"
     id="circle36" />
  <path
     style="fill:#ffffff;opacity:0.1"
     d="M 10.125 2 C 7.83975 2 6 3.8724189 6 6.1992188 L 6 7.1992188 C 6 4.8724189 7.83975 3 10.125 3 L 23.875 3 C 26.16025 3 28 4.8724189 28 7.1992188 L 28 6.1992188 C 28 3.8724189 26.16025 2 23.875 2 L 10.125 2 z"
     id="path38" />
  <path
     style="opacity:0.1;fill:#ffffff"
     d="M 3.75 7 C 3.3345 7 3 7.3078678 3 7.6914062 L 3 8.6914062 C 3 8.3078678 3.3345 8 3.75 8 L 5.25 8 C 5.6655 8 6 8.3078678 6 8.6914062 L 6 7.6914062 C 6 7.3078678 5.6655 7 5.25 7 L 3.75 7 z"
     id="path40" />
  <path
     style="fill:#ffffff;opacity:0.2"
     d="M 24.5 4 A 1.5 1.5 0 0 0 23 5.5 A 1.5 1.5 0 0 0 23.087891 6 A 1.5 1.5 0 0 1 24.5 5 A 1.5 1.5 0 0 1 25.912109 6 A 1.5 1.5 0 0 0 26 5.5 A 1.5 1.5 0 0 0 24.5 4 z"
     id="path42" />
  <path
     style="fill:#ffffff;opacity:0.1"
     d="M 17 11 A 4 4 0 0 0 13 15 A 4 4 0 0 0 13.035156 15.494141 A 4 4 0 0 1 17 12 A 4 4 0 0 1 20.964844 15.505859 A 4 4 0 0 0 21 15 A 4 4 0 0 0 17 11 z"
     id="path44" />
  <path
     style="fill:#ffffff;opacity:0.2"
     d="M 17 13 A 2 2 0 0 0 15 15 A 2 2 0 0 0 15.064453 15.496094 A 2 2 0 0 1 17 14 A 2 2 0 0 1 18.935547 15.503906 A 2 2 0 0 0 19 15 A 2 2 0 0 0 17 13 z"
     id="path46" />
</svg>
