<?xml version="1.0" encoding="UTF-8" standalone="no"?>
<svg
   width="32"
   height="32"
   version="1"
   id="svg26"
   sodipodi:docname="blueman-camera.svg"
   inkscape:version="1.1.1 (3bf5ae0d25, 2021-09-20)"
   xmlns:inkscape="http://www.inkscape.org/namespaces/inkscape"
   xmlns:sodipodi="http://sodipodi.sourceforge.net/DTD/sodipodi-0.dtd"
   xmlns="http://www.w3.org/2000/svg"
   xmlns:svg="http://www.w3.org/2000/svg">
  <defs
     id="defs30" />
  <sodipodi:namedview
     id="namedview28"
     pagecolor="#505050"
     bordercolor="#ffffff"
     borderopacity="1"
     inkscape:pageshadow="0"
     inkscape:pageopacity="0"
     inkscape:pagecheckerboard="1"
     showgrid="false"
     inkscape:zoom="23.03125"
     inkscape:cx="16"
     inkscape:cy="15.97829"
     inkscape:current-layer="svg26" />
  <path
     style="opacity:0.2"
     d="M 11.135259,4.7206961 9.2378908,7 H 4.8 C 3.26,7 2,8.2281111 2,9.7558889 V 26.222222 C 2,27.75 3.26,29 4.8,29 H 27.2 C 28.74,29 30,27.75 30,26.222222 V 9.7558889 C 30,8.2281111 28.739981,7.0075956 27.2,7 H 22.762109 L 20.839061,4.6928552 C 20.2,4 20.2,4 19.5,4 h -7 c -0.7,0 -0.7,0 -1.364741,0.7206961 z"
     id="path2" />
  <path
     style="fill:#455a64"
     d="M 11.135259,3.7206961 9.2378908,6 H 4.8 C 3.26,6 2,7.2281111 2,8.7558889 V 25.222222 C 2,26.75 3.26,28 4.8,28 H 27.2 C 28.74,28 30,26.75 30,25.222222 V 8.7558889 C 30,7.2281111 28.739981,6.0075956 27.2,6 H 22.762109 L 20.839061,3.6928552 C 20.2,3 20.2,3 19.5,3 h -7 c -0.7,0 -0.7,0 -1.364741,0.7206961 z"
     id="path4" />
  <path
     style="opacity:0.2"
     d="M 11.135259,3.7206961 9.2378908,6 H 4.8 C 3.26,6 2,7.2281111 2,8.7558889 V 10 H 30 V 8.7558889 C 30,7.2281111 28.739981,6.0075956 27.2,6 H 22.762109 L 20.839061,3.6928552 C 20.2,3 20.2,3 19.5,3 h -7 c -0.7,0 -0.7,0 -1.364741,0.7206961 z"
     id="path6" />
  <circle
     style="opacity:0.1"
     cx="27.5"
     cy="9.5"
     r="1.5"
     id="circle8" />
  <circle
     style="fill:#eceff1"
     cx="27.5"
     cy="8.5"
     r="1.5"
     id="circle10" />
  <circle
     style="fill:#37474f"
     cx="16"
     cy="-17"
     r="9"
     transform="scale(1,-1)"
     id="circle12" />
  <circle
     style="opacity:0.2"
     cx="16"
     cy="-18"
     r="7"
     transform="scale(1,-1)"
     id="circle14" />
  <circle
     style="fill:#673ab7"
     cx="16"
     cy="-17"
     r="7"
     transform="scale(1,-1)"
     id="circle16" />
  <circle
     style="opacity:0.2"
     cx="16"
     cy="18"
     r="4"
     id="circle18" />
  <circle
     style="fill:#9575cd"
     cx="16"
     cy="17"
     r="4"
     id="circle20" />
  <path
     style="fill:#ffffff;opacity:0.1"
     d="M 12.5 3 C 11.8 3 11.799507 3.000007 11.134766 3.7207031 L 9.2382812 6 L 4.8007812 6 C 3.2607812 6 2 7.2280816 2 8.7558594 L 2 9.7558594 C 2 8.2280816 3.2607812 7 4.8007812 7 L 9.2382812 7 L 11.134766 4.7207031 C 11.799507 4.000007 11.8 4 12.5 4 L 19.5 4 C 20.2 4 20.200783 4.0005042 20.839844 4.6933594 L 22.761719 7 L 27.199219 7 C 28.7392 7.0075956 30 8.2280816 30 9.7558594 L 30 8.7558594 C 30 7.2280816 28.7392 6.0075956 27.199219 6 L 22.761719 6 L 20.839844 3.6933594 C 20.200783 3.0005042 20.2 3 19.5 3 L 12.5 3 z"
     id="path22" />
  <path
     style="fill:#ffffff;opacity:0.2"
     d="M 15.939453 13 A 4 4 0 0 0 12 17 A 4 4 0 0 0 12.03125 17.496094 A 4 4 0 0 1 16 14 A 4 4 0 0 1 19.96875 17.503906 A 4 4 0 0 0 20 17 A 4 4 0 0 0 16 13 A 4 4 0 0 0 15.939453 13 z"
     id="path24" />
</svg>
