<?xml version="1.0" encoding="UTF-8" standalone="no"?>
<svg
   width="32"
   height="32"
   version="1"
   id="svg198"
   sodipodi:docname="cpu.svg"
   inkscape:version="1.1.1 (3bf5ae0d25, 2021-09-20)"
   xmlns:inkscape="http://www.inkscape.org/namespaces/inkscape"
   xmlns:sodipodi="http://sodipodi.sourceforge.net/DTD/sodipodi-0.dtd"
   xmlns="http://www.w3.org/2000/svg"
   xmlns:svg="http://www.w3.org/2000/svg">
  <defs
     id="defs202" />
  <sodipodi:namedview
     id="namedview200"
     pagecolor="#505050"
     bordercolor="#ffffff"
     borderopacity="1"
     inkscape:pageshadow="0"
     inkscape:pageopacity="0"
     inkscape:pagecheckerboard="1"
     showgrid="false"
     inkscape:zoom="23.03125"
     inkscape:cx="16"
     inkscape:cy="15.97829"
     inkscape:current-layer="svg198" />
  <rect
     style="opacity:0.2"
     width="28"
     height="28"
     x="-31"
     y="-30"
     rx="1.4"
     ry="1.4"
     transform="matrix(0,-1,-1,0,0,0)"
     id="rect2" />
  <rect
     style="fill:#43a047"
     width="28"
     height="28"
     x="-30"
     y="-30"
     rx="1.4"
     ry="1.4"
     transform="matrix(0,-1,-1,0,0,0)"
     id="rect4" />
  <rect
     style="opacity:0.2"
     width="10"
     height="10"
     x="11"
     y="12"
     rx="2.4"
     ry="2.4"
     id="rect6" />
  <rect
     style="fill:#37474f"
     width="10"
     height="10"
     x="11"
     y="11"
     rx="2.4"
     ry="2.4"
     id="rect8" />
  <g
     style="opacity:0.2"
     transform="translate(0,1)"
     id="g100">
    <circle
       cx="8"
       cy="8"
       r="1"
       id="circle10" />
    <circle
       cx="11"
       cy="8"
       r="1"
       id="circle12" />
    <circle
       cx="14"
       cy="8"
       r="1"
       id="circle14" />
    <circle
       cx="18"
       cy="8"
       r="1"
       id="circle16" />
    <circle
       cx="21"
       cy="8"
       r="1"
       id="circle18" />
    <circle
       cx="24"
       cy="8"
       r="1"
       id="circle20" />
    <circle
       cx="24"
       cy="11"
       r="1"
       id="circle22" />
    <circle
       cx="24"
       cy="14"
       r="1"
       id="circle24" />
    <circle
       cx="24"
       cy="18"
       r="1"
       id="circle26" />
    <circle
       cx="24"
       cy="21"
       r="1"
       id="circle28" />
    <circle
       cx="24"
       cy="24"
       r="1"
       id="circle30" />
    <circle
       cx="21"
       cy="24"
       r="1"
       id="circle32" />
    <circle
       cx="18"
       cy="24"
       r="1"
       id="circle34" />
    <circle
       cx="14"
       cy="24"
       r="1"
       id="circle36" />
    <circle
       cx="11"
       cy="24"
       r="1"
       id="circle38" />
    <circle
       cx="8"
       cy="24"
       r="1"
       id="circle40" />
    <circle
       cx="8"
       cy="21"
       r="1"
       id="circle42" />
    <circle
       cx="8"
       cy="18"
       r="1"
       id="circle44" />
    <circle
       cx="8"
       cy="14"
       r="1"
       id="circle46" />
    <circle
       cx="8"
       cy="11"
       r="1"
       id="circle48" />
    <circle
       cx="11"
       cy="5"
       r="1"
       id="circle50" />
    <circle
       cx="14"
       cy="5"
       r="1"
       id="circle52" />
    <circle
       cx="18"
       cy="5"
       r="1"
       id="circle54" />
    <circle
       cx="21"
       cy="5"
       r="1"
       id="circle56" />
    <circle
       cx="27"
       cy="11"
       r="1"
       id="circle58" />
    <circle
       cx="27"
       cy="14"
       r="1"
       id="circle60" />
    <circle
       cx="27"
       cy="18"
       r="1"
       id="circle62" />
    <circle
       cx="27"
       cy="21"
       r="1"
       id="circle64" />
    <circle
       cx="21"
       cy="27"
       r="1"
       id="circle66" />
    <circle
       cx="18"
       cy="27"
       r="1"
       id="circle68" />
    <circle
       cx="14"
       cy="27"
       r="1"
       id="circle70" />
    <circle
       cx="11"
       cy="27"
       r="1"
       id="circle72" />
    <circle
       cx="5"
       cy="21"
       r="1"
       id="circle74" />
    <circle
       cx="5"
       cy="18"
       r="1"
       id="circle76" />
    <circle
       cx="5"
       cy="14"
       r="1"
       id="circle78" />
    <circle
       cx="5"
       cy="11"
       r="1"
       id="circle80" />
    <circle
       cx="27"
       cy="8"
       r="1"
       id="circle82" />
    <circle
       cx="27"
       cy="5"
       r="1"
       id="circle84" />
    <circle
       cx="24"
       cy="5"
       r="1"
       id="circle86" />
    <circle
       cx="24"
       cy="27"
       r="1"
       id="circle88" />
    <circle
       cx="27"
       cy="27"
       r="1"
       id="circle90" />
    <circle
       cx="27"
       cy="24"
       r="1"
       id="circle92" />
    <circle
       cx="5"
       cy="24"
       r="1"
       id="circle94" />
    <circle
       cx="5"
       cy="27"
       r="1"
       id="circle96" />
    <circle
       cx="5"
       cy="8"
       r="1"
       id="circle98" />
  </g>
  <g
     style="fill:#f9ce1d"
     id="g192">
    <circle
       cx="8"
       cy="8"
       r="1"
       id="circle102"
       style="fill:#f9ce1d" />
    <circle
       cx="11"
       cy="8"
       r="1"
       id="circle104"
       style="fill:#f9ce1d" />
    <circle
       cx="14"
       cy="8"
       r="1"
       id="circle106"
       style="fill:#f9ce1d" />
    <circle
       cx="18"
       cy="8"
       r="1"
       id="circle108"
       style="fill:#f9ce1d" />
    <circle
       cx="21"
       cy="8"
       r="1"
       id="circle110"
       style="fill:#f9ce1d" />
    <circle
       cx="24"
       cy="8"
       r="1"
       id="circle112"
       style="fill:#f9ce1d" />
    <circle
       cx="24"
       cy="11"
       r="1"
       id="circle114"
       style="fill:#f9ce1d" />
    <circle
       cx="24"
       cy="14"
       r="1"
       id="circle116"
       style="fill:#f9ce1d" />
    <circle
       cx="24"
       cy="18"
       r="1"
       id="circle118"
       style="fill:#f9ce1d" />
    <circle
       cx="24"
       cy="21"
       r="1"
       id="circle120"
       style="fill:#f9ce1d" />
    <circle
       cx="24"
       cy="24"
       r="1"
       id="circle122"
       style="fill:#f9ce1d" />
    <circle
       cx="21"
       cy="24"
       r="1"
       id="circle124"
       style="fill:#f9ce1d" />
    <circle
       cx="18"
       cy="24"
       r="1"
       id="circle126"
       style="fill:#f9ce1d" />
    <circle
       cx="14"
       cy="24"
       r="1"
       id="circle128"
       style="fill:#f9ce1d" />
    <circle
       cx="11"
       cy="24"
       r="1"
       id="circle130"
       style="fill:#f9ce1d" />
    <circle
       cx="8"
       cy="24"
       r="1"
       id="circle132"
       style="fill:#f9ce1d" />
    <circle
       cx="8"
       cy="21"
       r="1"
       id="circle134"
       style="fill:#f9ce1d" />
    <circle
       cx="8"
       cy="18"
       r="1"
       id="circle136"
       style="fill:#f9ce1d" />
    <circle
       cx="8"
       cy="14"
       r="1"
       id="circle138"
       style="fill:#f9ce1d" />
    <circle
       cx="8"
       cy="11"
       r="1"
       id="circle140"
       style="fill:#f9ce1d" />
    <circle
       cx="11"
       cy="5"
       r="1"
       id="circle142"
       style="fill:#f9ce1d" />
    <circle
       cx="14"
       cy="5"
       r="1"
       id="circle144"
       style="fill:#f9ce1d" />
    <circle
       cx="18"
       cy="5"
       r="1"
       id="circle146"
       style="fill:#f9ce1d" />
    <circle
       cx="21"
       cy="5"
       r="1"
       id="circle148"
       style="fill:#f9ce1d" />
    <circle
       cx="27"
       cy="11"
       r="1"
       id="circle150"
       style="fill:#f9ce1d" />
    <circle
       cx="27"
       cy="14"
       r="1"
       id="circle152"
       style="fill:#f9ce1d" />
    <circle
       cx="27"
       cy="18"
       r="1"
       id="circle154"
       style="fill:#f9ce1d" />
    <circle
       cx="27"
       cy="21"
       r="1"
       id="circle156"
       style="fill:#f9ce1d" />
    <circle
       cx="21"
       cy="27"
       r="1"
       id="circle158"
       style="fill:#f9ce1d" />
    <circle
       cx="18"
       cy="27"
       r="1"
       id="circle160"
       style="fill:#f9ce1d" />
    <circle
       cx="14"
       cy="27"
       r="1"
       id="circle162"
       style="fill:#f9ce1d" />
    <circle
       cx="5"
       cy="24"
       r="1"
       id="circle164"
       style="fill:#f9ce1d" />
    <circle
       cx="5"
       cy="21"
       r="1"
       id="circle166"
       style="fill:#f9ce1d" />
    <circle
       cx="5"
       cy="18"
       r="1"
       id="circle168"
       style="fill:#f9ce1d" />
    <circle
       cx="5"
       cy="14"
       r="1"
       id="circle170"
       style="fill:#f9ce1d" />
    <circle
       cx="5"
       cy="11"
       r="1"
       id="circle172"
       style="fill:#f9ce1d" />
    <circle
       cx="27"
       cy="24"
       r="1"
       id="circle174"
       style="fill:#f9ce1d" />
    <circle
       cx="27"
       cy="27"
       r="1"
       id="circle176"
       style="fill:#f9ce1d" />
    <circle
       cx="24"
       cy="27"
       r="1"
       id="circle178"
       style="fill:#f9ce1d" />
    <circle
       cx="27"
       cy="8"
       r="1"
       id="circle180"
       style="fill:#f9ce1d" />
    <circle
       cx="27"
       cy="5"
       r="1"
       id="circle182"
       style="fill:#f9ce1d" />
    <circle
       cx="24"
       cy="5"
       r="1"
       id="circle184"
       style="fill:#f9ce1d" />
    <circle
       cx="5"
       cy="27"
       r="1"
       id="circle186"
       style="fill:#f9ce1d" />
    <circle
       cx="11"
       cy="27"
       r="1"
       id="circle188"
       style="fill:#f9ce1d" />
    <circle
       cx="5"
       cy="8"
       r="1"
       id="circle190"
       style="fill:#f9ce1d" />
  </g>
  <path
     style="fill:#ffffff;opacity:0.1"
     d="M 3.4004 2 C 2.6248 2 2 2.6248 2 3.4004 L 2 4.4004 C 2 3.6248 2.6248 3 3.4004 3 L 28.6 3 C 29.375 3 30 3.6248 30 4.4004 L 30 3.4004 C 30 2.6248 29.375 2 28.6 2 L 3.4004 2 z"
     id="path194" />
  <path
     style="fill:#ffffff;opacity:0.1"
     d="M 13.4 11 C 12.071 11 11 12.071 11 13.4 L 11 14.4 C 11 13.071 12.071 12 13.4 12 L 18.6 12 C 19.929 12 21 13.071 21 14.4 L 21 13.4 C 21 12.071 19.929 11 18.6 11 L 13.4 11 z"
     id="path196" />
</svg>
