<?xml version="1.0" encoding="UTF-8" standalone="no"?>
<svg
   width="32"
   height="32"
   version="1"
   id="svg10"
   sodipodi:docname="drive-removable-media.svg"
   inkscape:version="1.1.1 (3bf5ae0d25, 2021-09-20)"
   xmlns:inkscape="http://www.inkscape.org/namespaces/inkscape"
   xmlns:sodipodi="http://sodipodi.sourceforge.net/DTD/sodipodi-0.dtd"
   xmlns="http://www.w3.org/2000/svg"
   xmlns:svg="http://www.w3.org/2000/svg">
  <defs
     id="defs14" />
  <sodipodi:namedview
     id="namedview12"
     pagecolor="#505050"
     bordercolor="#ffffff"
     borderopacity="1"
     inkscape:pageshadow="0"
     inkscape:pageopacity="0"
     inkscape:pagecheckerboard="1"
     showgrid="false"
     inkscape:zoom="23.03125"
     inkscape:cx="16"
     inkscape:cy="15.97829"
     inkscape:current-layer="svg10" />
  <rect
     style="opacity:0.2"
     width="28"
     height="22"
     x="-31"
     y="-27"
     rx="2"
     ry="2"
     transform="matrix(0,-1,-1,0,0,0)"
     id="rect2" />
  <rect
     style="fill:#455a64"
     width="28"
     height="22"
     x="-30"
     y="-27"
     rx="2"
     ry="2"
     transform="matrix(0,-1,-1,0,0,0)"
     id="rect4" />
  <path
     style="opacity:.5"
     d="m11 16h10v2h-10zm5-8 5 6h-10z"
     id="path6" />
  <path
     style="fill:#ffffff;opacity:0.2"
     d="m7 2c-1.108 0-2 0.892-2 2v1c0-1.108 0.892-2 2-2h18c1.108 0 2 0.892 2 2v-1c0-1.108-0.892-2-2-2h-18z"
     id="path8" />
</svg>
