<?xml version="1.0" encoding="UTF-8" standalone="no"?>
<svg
   width="32"
   height="32"
   version="1"
   id="svg22"
   sodipodi:docname="drive-harddisk-ieee1394.svg"
   inkscape:version="1.1.1 (3bf5ae0d25, 2021-09-20)"
   xmlns:inkscape="http://www.inkscape.org/namespaces/inkscape"
   xmlns:sodipodi="http://sodipodi.sourceforge.net/DTD/sodipodi-0.dtd"
   xmlns="http://www.w3.org/2000/svg"
   xmlns:svg="http://www.w3.org/2000/svg">
  <defs
     id="defs26" />
  <sodipodi:namedview
     id="namedview24"
     pagecolor="#505050"
     bordercolor="#ffffff"
     borderopacity="1"
     inkscape:pageshadow="0"
     inkscape:pageopacity="0"
     inkscape:pagecheckerboard="1"
     showgrid="false"
     inkscape:zoom="23.03125"
     inkscape:cx="16"
     inkscape:cy="15.97829"
     inkscape:current-layer="svg22" />
  <rect
     style="opacity:0.2"
     width="28"
     height="22"
     x="-31"
     y="-27"
     rx="2"
     ry="2"
     transform="matrix(0,-1,-1,0,0,0)"
     id="rect2" />
  <rect
     style="fill:#546e7a"
     width="28"
     height="22"
     x="-30"
     y="-27"
     rx="2"
     ry="2"
     transform="matrix(0,-1,-1,0,0,0)"
     id="rect4" />
  <path
     style="fill:#ffffff;opacity:0.2"
     d="m7 2c-1.108 0-2 0.892-2 2v1c0-1.108 0.892-2 2-2h18c1.108 0 2 0.892 2 2v-1c0-1.108-0.892-2-2-2h-18z"
     id="path6" />
  <g
     style="opacity:0.5"
     id="g20">
    <rect
       width="4"
       height="1.5"
       x="14"
       y="20"
       id="rect8" />
    <rect
       width="4"
       height="1.5"
       x="14"
       y="22.5"
       id="rect10" />
    <path
       d="M 16,12 A 3.5,3.5 0 0 0 12.5,15.5 3.5,3.5 0 0 0 16,19 3.5,3.5 0 0 0 19.5,15.5 3.5,3.5 0 0 0 16,12 Z M 16,14 A 1.5,1.5 0 0 1 17.5,15.5 1.5,1.5 0 0 1 16,17 1.5,1.5 0 0 1 14.5,15.5 1.5,1.5 0 0 1 16,14 Z"
       id="path12" />
    <rect
       width="4"
       height="4"
       x="-24.25"
       y="4.85"
       transform="rotate(-135)"
       id="rect14" />
    <rect
       width="4"
       height="1.5"
       x="-2.35"
       y="-17.75"
       transform="rotate(135)"
       id="rect16" />
    <rect
       width="4"
       height="1.5"
       x="-2.35"
       y="-15.25"
       transform="rotate(135)"
       id="rect18" />
  </g>
</svg>
