<?xml version="1.0" encoding="UTF-8" standalone="no"?>
<svg
   width="32"
   height="32"
   version="1"
   id="svg10"
   sodipodi:docname="drive-optical.svg"
   inkscape:version="1.1.1 (3bf5ae0d25, 2021-09-20)"
   xmlns:inkscape="http://www.inkscape.org/namespaces/inkscape"
   xmlns:sodipodi="http://sodipodi.sourceforge.net/DTD/sodipodi-0.dtd"
   xmlns="http://www.w3.org/2000/svg"
   xmlns:svg="http://www.w3.org/2000/svg">
  <defs
     id="defs14" />
  <sodipodi:namedview
     id="namedview12"
     pagecolor="#505050"
     bordercolor="#ffffff"
     borderopacity="1"
     inkscape:pageshadow="0"
     inkscape:pageopacity="0"
     inkscape:pagecheckerboard="1"
     showgrid="false"
     inkscape:zoom="23.03125"
     inkscape:cx="16"
     inkscape:cy="15.97829"
     inkscape:current-layer="svg10" />
  <rect
     style="opacity:0.2"
     width="28"
     height="28"
     x="-31"
     y="-30"
     rx="1.25"
     ry="1.25"
     transform="matrix(0,-1,-1,0,0,0)"
     id="rect2" />
  <rect
     style="fill:#546e7a"
     width="28"
     height="28"
     x="-30"
     y="-30"
     rx="1.25"
     ry="1.25"
     transform="matrix(0,-1,-1,0,0,0)"
     id="rect4" />
  <path
     style="opacity:0.5"
     d="M 16 6 A 10 10 0 0 0 6 16 A 10 10 0 0 0 16 26 A 10 10 0 0 0 26 16 A 10 10 0 0 0 16 6 z M 16 12 A 3.9999996 3.9999996 0 0 1 20 16 A 3.9999996 3.9999996 0 0 1 16 20 A 3.9999996 3.9999996 0 0 1 12 16 A 3.9999996 3.9999996 0 0 1 16 12 z"
     id="path6" />
  <path
     style="fill:#ffffff;opacity:0.2"
     d="M 3.25 2 C 2.5575 2 2 2.5575 2 3.25 L 2 4.25 C 2 3.5575 2.5575 3 3.25 3 L 28.75 3 C 29.442 3 30 3.5575 30 4.25 L 30 3.25 C 30 2.5575 29.442 2 28.75 2 L 3.25 2 z"
     id="path8" />
</svg>
