<?xml version="1.0" encoding="UTF-8" standalone="no"?>
<svg
   width="32"
   height="32"
   version="1"
   id="svg34"
   sodipodi:docname="drive-multidisk.svg"
   inkscape:version="1.1.1 (3bf5ae0d25, 2021-09-20)"
   xmlns:inkscape="http://www.inkscape.org/namespaces/inkscape"
   xmlns:sodipodi="http://sodipodi.sourceforge.net/DTD/sodipodi-0.dtd"
   xmlns="http://www.w3.org/2000/svg"
   xmlns:svg="http://www.w3.org/2000/svg">
  <defs
     id="defs38" />
  <sodipodi:namedview
     id="namedview36"
     pagecolor="#505050"
     bordercolor="#ffffff"
     borderopacity="1"
     inkscape:pageshadow="0"
     inkscape:pageopacity="0"
     inkscape:pagecheckerboard="1"
     showgrid="false"
     inkscape:zoom="23.03125"
     inkscape:cx="16"
     inkscape:cy="15.97829"
     inkscape:current-layer="g16" />
  <g
     id="g16">
    <rect
       style="fill:#4f4f4f"
       width="3"
       height="2"
       x="24"
       y="14"
       id="rect2" />
    <rect
       style="fill:#4f4f4f"
       width="3"
       height="2"
       x="5"
       y="14"
       id="rect4" />
    <rect
       style="opacity:0.2"
       width="10"
       height="28"
       x="-15"
       y="-30"
       rx="2"
       ry="2"
       transform="matrix(0,-1,-1,0,0,0)"
       id="rect6" />
    <rect
       style="fill:#546e7a"
       width="10"
       height="28"
       x="-14"
       y="-30"
       rx="2"
       ry="2"
       transform="matrix(0,-1,-1,0,0,0)"
       id="rect8" />
    <circle
       style="opacity:0.2"
       cx="24.5"
       cy="10.5"
       r="1.5"
       id="circle10" />
    <circle
       style="fill:#76ff03"
       cx="24.5"
       cy="9.5"
       r="1.5"
       id="circle12" />
    <path
       style="fill:#ffffff;opacity:0.2"
       d="M 4 4 C 2.892 4 2 4.892 2 6 L 2 7 C 2 5.892 2.892 5 4 5 L 28 5 C 29.108 5 30 5.892 30 7 L 30 6 C 30 4.892 29.108 4 28 4 L 4 4 z"
       id="path14" />
  </g>
  <g
     id="g32">
    <rect
       style="fill:#4f4f4f"
       width="3"
       height="2"
       x="24"
       y="26"
       id="rect18" />
    <rect
       style="fill:#4f4f4f"
       width="3"
       height="2"
       x="5"
       y="26"
       id="rect20" />
    <rect
       style="opacity:0.2"
       width="10"
       height="28"
       x="-27"
       y="-30"
       rx="2"
       ry="2"
       transform="matrix(0,-1,-1,0,0,0)"
       id="rect22" />
    <rect
       style="fill:#546e7a"
       width="10"
       height="28"
       x="-26"
       y="-30"
       rx="2"
       ry="2"
       transform="matrix(0,-1,-1,0,0,0)"
       id="rect24" />
    <circle
       style="opacity:0.2"
       cx="24.5"
       cy="22.5"
       r="1.5"
       id="circle26" />
    <circle
       style="fill:#76ff03"
       cx="24.5"
       cy="21.5"
       r="1.5"
       id="circle28" />
    <path
       style="opacity:0.2;fill:#ffffff"
       d="M 4,16 C 2.892,16 2,16.892 2,18 V 19 C 2,17.892 2.892,17 4,17 H 28 C 29.108,17 30,17.892 30,19 V 18 C 30,16.892 29.108,16 28,16 Z"
       id="path30" />
  </g>
</svg>
