<?xml version="1.0" encoding="UTF-8" standalone="no"?>
<svg
   width="32"
   height="32"
   version="1"
   id="svg30"
   sodipodi:docname="gnome-dev-media-cf.svg"
   inkscape:version="1.1.1 (3bf5ae0d25, 2021-09-20)"
   xmlns:inkscape="http://www.inkscape.org/namespaces/inkscape"
   xmlns:sodipodi="http://sodipodi.sourceforge.net/DTD/sodipodi-0.dtd"
   xmlns="http://www.w3.org/2000/svg"
   xmlns:svg="http://www.w3.org/2000/svg">
  <defs
     id="defs34" />
  <sodipodi:namedview
     id="namedview32"
     pagecolor="#505050"
     bordercolor="#ffffff"
     borderopacity="1"
     inkscape:pageshadow="0"
     inkscape:pageopacity="0"
     inkscape:pagecheckerboard="1"
     showgrid="false"
     inkscape:zoom="23.03125"
     inkscape:cx="16"
     inkscape:cy="15.97829"
     inkscape:current-layer="svg30" />
  <path
     style="opacity:0.2"
     d="M 10,3 5,8 V 29.75 C 5,30.443 5.557,31 6.25,31 H 25.75 C 26.442,31 27,30.443 27,29.75 V 4.25 C 27,3.5575 26.442,3 25.75,3 Z"
     id="path2" />
  <path
     style="fill:#546e7a"
     d="M 10,2 5,7 V 28.75 C 5,29.443 5.557,30 6.25,30 H 25.75 C 26.442,30 27,29.443 27,28.75 V 3.25 C 27,2.5575 26.442,2 25.75,2 Z"
     id="path4" />
  <rect
     style="opacity:0.4;fill:#000000"
     width="16"
     height="10"
     x="8"
     y="-26"
     rx="1.25"
     ry="1.25"
     transform="scale(1,-1)"
     id="rect6" />
  <g
     style="fill:#f9ce1d"
     id="g26">
    <rect
       width="1"
       height="4"
       x="24"
       y="5"
       id="rect8"
       style="fill:#f9ce1d" />
    <rect
       width="1"
       height="4"
       x="22"
       y="5"
       id="rect10"
       style="fill:#f9ce1d" />
    <rect
       width="1"
       height="4"
       x="20"
       y="5"
       id="rect12"
       style="fill:#f9ce1d" />
    <rect
       width="1"
       height="4"
       x="18"
       y="5"
       id="rect14"
       style="fill:#f9ce1d" />
    <rect
       width="1"
       height="4"
       x="16"
       y="5"
       id="rect16"
       style="fill:#f9ce1d" />
    <rect
       width="1"
       height="4"
       x="14"
       y="5"
       id="rect18"
       style="fill:#f9ce1d" />
    <rect
       width="1"
       height="4"
       x="12"
       y="5"
       id="rect20"
       style="fill:#f9ce1d" />
    <rect
       width="1"
       height="4"
       x="10"
       y="5"
       id="rect22"
       style="fill:#f9ce1d" />
    <rect
       width="1"
       height="2"
       x="8"
       y="7"
       id="rect24"
       style="fill:#f9ce1d" />
  </g>
  <path
     style="opacity:0.1;fill:#ffffff"
     d="M 10,2 5,7 V 8 L 10,3 H 25.75 C 26.442,3 27,3.5575 27,4.25 V 3.25 C 27,2.5575 26.442,2 25.75,2 Z"
     id="path28" />
</svg>
