<?xml version="1.0" encoding="UTF-8" standalone="no"?>
<svg
   width="32"
   height="32"
   version="1"
   id="svg18"
   sodipodi:docname="media-floppy.svg"
   inkscape:version="1.1.1 (3bf5ae0d25, 2021-09-20)"
   xmlns:inkscape="http://www.inkscape.org/namespaces/inkscape"
   xmlns:sodipodi="http://sodipodi.sourceforge.net/DTD/sodipodi-0.dtd"
   xmlns="http://www.w3.org/2000/svg"
   xmlns:svg="http://www.w3.org/2000/svg">
  <defs
     id="defs22" />
  <sodipodi:namedview
     id="namedview20"
     pagecolor="#505050"
     bordercolor="#ffffff"
     borderopacity="1"
     inkscape:pageshadow="0"
     inkscape:pageopacity="0"
     inkscape:pagecheckerboard="1"
     showgrid="false"
     inkscape:zoom="23.03125"
     inkscape:cx="16"
     inkscape:cy="15.97829"
     inkscape:current-layer="svg18" />
  <rect
     style="opacity:0.2"
     width="26"
     height="26"
     x="-30"
     y="-29"
     rx="1.25"
     ry="1.25"
     transform="matrix(0,-1,-1,0,0,0)"
     id="rect2" />
  <rect
     style="fill:#37474f"
     width="26"
     height="26"
     x="-29"
     y="-29"
     rx="1.25"
     ry="1.25"
     transform="matrix(0,-1,-1,0,0,0)"
     id="rect4" />
  <rect
     style="opacity:0.2"
     width="20"
     height="12"
     x="6"
     y="16"
     rx="1.25"
     ry="1.25"
     id="rect6" />
  <rect
     style="fill:#ffffff"
     width="20"
     height="12"
     x="6"
     y="15"
     rx="1.25"
     ry="1.25"
     id="rect8" />
  <path
     style="fill:#2196f3"
     d="M 6,24 V 25.75 C 6,26.442 6.5575,27 7.25,27 H 24.75 C 25.442,27 26,26.442 26,25.75 V 24 Z"
     id="path10" />
  <path
     style="opacity:0.2"
     d="M 10,4 V 12.75 C 10,13.443 10.557,14 11.25,14 H 24.75 C 25.442,14 26,13.443 26,12.75 V 4 Z M 20,6 H 23 C 23.554,6 24,6.446 24,7 V 11 C 24,11.554 23.554,12 23,12 H 20 C 19.446,12 19,11.554 19,11 V 7 C 19,6.446 19.446,6 20,6 Z"
     id="path12" />
  <path
     style="fill:#cfd8dc"
     d="M 10,3 V 11.75 C 10,12.443 10.557,13 11.25,13 H 24.75 C 25.442,13 26,12.443 26,11.75 V 3 Z M 20,5 H 23 C 23.554,5 24,5.446 24,6 V 10 C 24,10.554 23.554,11 23,11 H 20 C 19.446,11 19,10.554 19,10 V 6 C 19,5.446 19.446,5 20,5 Z"
     id="path14" />
  <path
     style="fill:#ffffff;opacity:0.1"
     d="M 4.25 3 C 3.5575 3 3 3.5575 3 4.25 L 3 5.25 C 3 4.5575 3.5575 4 4.25 4 L 27.75 4 C 28.442 4 29 4.5575 29 5.25 L 29 4.25 C 29 3.5575 28.442 3 27.75 3 L 4.25 3 z"
     id="path16" />
</svg>
