<?xml version="1.0" encoding="UTF-8" standalone="no"?>
<svg
   width="32"
   height="32"
   version="1"
   id="svg30"
   sodipodi:docname="printer.svg"
   inkscape:version="1.1.1 (3bf5ae0d25, 2021-09-20)"
   xmlns:inkscape="http://www.inkscape.org/namespaces/inkscape"
   xmlns:sodipodi="http://sodipodi.sourceforge.net/DTD/sodipodi-0.dtd"
   xmlns="http://www.w3.org/2000/svg"
   xmlns:svg="http://www.w3.org/2000/svg">
  <defs
     id="defs34" />
  <sodipodi:namedview
     id="namedview32"
     pagecolor="#505050"
     bordercolor="#ffffff"
     borderopacity="1"
     inkscape:pageshadow="0"
     inkscape:pageopacity="0"
     inkscape:pagecheckerboard="1"
     showgrid="false"
     inkscape:zoom="23.03125"
     inkscape:cx="16"
     inkscape:cy="15.97829"
     inkscape:current-layer="svg30" />
  <rect
     style="opacity:0.2"
     width="12"
     height="28"
     x="-23"
     y="-30"
     rx="1.412"
     ry="1.4"
     transform="matrix(0,-1,-1,0,0,0)"
     id="rect2" />
  <path
     style="opacity:0.2"
     d="M 5,19 5,29.588235 C 5,30.370353 5.61325,31 6.375,31 l 19.25,0 C 26.38675,31 27,30.370353 27,29.588235 L 27,19 5,19 Z"
     id="path4" />
  <path
     style="fill:#eceff1"
     d="M 6.375,2 C 5.61325,2 5,2.6371429 5,3.4285714 L 5,12 27,12 27,3.4285714 C 27,2.6371429 26.38675,2 25.625,2 L 6.375,2 Z"
     id="path6" />
  <rect
     style="fill:#455a64"
     width="12"
     height="28"
     x="-22"
     y="-30"
     rx="1.412"
     ry="1.4"
     transform="matrix(0,-1,-1,0,0,0)"
     id="rect8" />
  <rect
     style="opacity:0.2"
     width="24"
     height="2"
     x="4"
     y="17"
     id="rect10" />
  <rect
     style="opacity:0.2"
     width="3"
     height="3"
     x="4"
     y="13"
     rx="1.5"
     ry="1.5"
     id="rect12" />
  <rect
     style="fill:#76ff03"
     height="3"
     x="4"
     y="12"
     rx="1.5"
     ry="1.5"
     id="rect14"
     width="3" />
  <path
     style="fill:#eceff1"
     d="M 5,18 5,28.588235 C 5,29.370353 5.61325,30 6.375,30 l 19.25,0 C 26.38675,30 27,29.370353 27,28.588235 L 27,18 5,18 Z"
     id="path16" />
  <path
     style="opacity:0.5;fill-rule:evenodd;fill:#000000"
     d="m 8,26 14,0 0,2 -14,0 z"
     id="path18" />
  <path
     style="opacity:0.5;fill-rule:evenodd;fill:#000000"
     d="m 8,23 11,0 0,2 -11,0 z"
     id="path20" />
  <path
     style="opacity:0.5;fill-rule:evenodd;fill:#000000"
     d="m 8,20 16,0 0,2 -16,0 z"
     id="path22" />
  <path
     style="fill:#ffffff;opacity:0.2"
     d="M 5.125 12 C 4.50175 12 4 12.50175 4 13.125 L 4 13.875 C 4 13.919347 4.020447 13.957021 4.0253906 14 C 4.0899247 13.438945 4.5460966 13 5.125 13 L 5.875 13 C 6.4539034 13 6.9100753 13.438945 6.9746094 14 C 6.979553 13.957021 7 13.919347 7 13.875 L 7 13.125 C 7 12.50175 6.49825 12 5.875 12 L 5.125 12 z"
     id="path24" />
  <path
     style="fill:#ffffff;opacity:0.1"
     d="M 3.4003906 10 C 2.6247906 10 2 10.629992 2 11.412109 L 2 12.412109 C 2 11.629992 2.6247906 11 3.4003906 11 L 28.599609 11 C 29.375209 11 30 11.629992 30 12.412109 L 30 11.412109 C 30 10.629992 29.375209 10 28.599609 10 L 3.4003906 10 z"
     id="path26" />
  <path
     style="fill:#ffffff;opacity:0.2"
     d="M 6.375 2 C 5.61325 2 5 2.6363059 5 3.4277344 L 5 4.4277344 C 5 3.6363059 5.61325 3 6.375 3 L 25.625 3 C 26.38675 3 27 3.6363059 27 4.4277344 L 27 3.4277344 C 27 2.6363059 26.38675 2 25.625 2 L 6.375 2 z"
     id="path28" />
</svg>
