<?xml version="1.0" encoding="UTF-8" standalone="no"?>
<svg
   width="32"
   height="32"
   version="1.1"
   id="svg18"
   sodipodi:docname="video-television.svg"
   inkscape:version="1.1.1 (3bf5ae0d25, 2021-09-20)"
   xmlns:inkscape="http://www.inkscape.org/namespaces/inkscape"
   xmlns:sodipodi="http://sodipodi.sourceforge.net/DTD/sodipodi-0.dtd"
   xmlns="http://www.w3.org/2000/svg"
   xmlns:svg="http://www.w3.org/2000/svg">
  <defs
     id="defs22" />
  <sodipodi:namedview
     id="namedview20"
     pagecolor="#505050"
     bordercolor="#ffffff"
     borderopacity="1"
     inkscape:pageshadow="0"
     inkscape:pageopacity="0"
     inkscape:pagecheckerboard="1"
     showgrid="false"
     inkscape:zoom="23.03125"
     inkscape:cx="16"
     inkscape:cy="15.97829"
     inkscape:current-layer="svg18" />
  <path
     style="opacity:0.2"
     d="M 5.75,24.800781 C 5.3345,24.800781 5,25.1122 5,25.5 v 2.800781 C 5,28.688581 5.3345,29 5.75,29 h 1.5 C 7.6655,29 8,28.688581 8,28.300781 V 25.5 C 8,25.1122 7.6655,24.800781 7.25,24.800781 Z m 19,0 C 24.3345,24.800781 24,25.1122 24,25.5 v 2.800781 C 24,28.688581 24.3345,29 24.75,29 h 1.5 C 26.6655,29 27,28.688581 27,28.300781 V 25.5 c 0,-0.3878 -0.3345,-0.699219 -0.75,-0.699219 z"
     id="path2" />
  <path
     style="opacity:0.2"
     d="M 3.4003906,6 C 2.6247906,6 2,6.6247906 2,7.4003906 V 24 25.599609 C 2,26.375209 2.6247906,27 3.4003906,27 H 28.599609 C 29.375209,27 30,26.375209 30,25.599609 V 24 7.4003906 C 30,6.6247906 29.375209,6 28.599609,6 Z"
     id="path4" />
  <rect
     style="fill:#607d8b"
     width="4.2"
     height="3"
     x="-28"
     y="-27"
     rx=".7"
     ry=".75"
     transform="matrix(0,-1,-1,0,0,0)"
     id="rect6" />
  <rect
     style="fill:#607d8b"
     width="4.2"
     height="3"
     x="-28"
     y="-8"
     rx=".7"
     ry=".75"
     transform="matrix(0,-1,-1,0,0,0)"
     id="rect8" />
  <path
     style="fill:#37474f"
     d="m 2,23 v 1.6 C 2,25.3756 2.6244,26 3.4,26 H 28.6 C 29.3756,26 30,25.3756 30,24.6 V 23 Z"
     id="path10" />
  <path
     style="fill:#1a1a1a"
     d="M 3.4,5 C 2.6244,5 2,5.6244 2,6.4 V 23 H 30 V 6.4 C 30,5.6244 29.3756,5 28.6,5 Z"
     id="path12" />
  <rect
     style="opacity:0.1;fill:#ffffff"
     width="28"
     height="1"
     x="2"
     y="23"
     id="rect14" />
  <path
     style="fill:#ffffff;opacity:0.1"
     d="M 3.4003906 5 C 2.6247906 5 2 5.6247906 2 6.4003906 L 2 7.4003906 C 2 6.6247906 2.6247906 6 3.4003906 6 L 28.599609 6 C 29.375209 6 30 6.6247906 30 7.4003906 L 30 6.4003906 C 30 5.6247906 29.375209 5 28.599609 5 L 3.4003906 5 z"
     id="path16" />
</svg>
