<?xml version="1.0" encoding="UTF-8" standalone="no"?>
<svg
   width="16"
   height="16"
   version="1.1"
   id="svg6"
   sodipodi:docname="start-here-symbolic.svg"
   inkscape:version="1.1.1 (3bf5ae0d25, 2021-09-20)"
   xmlns:inkscape="http://www.inkscape.org/namespaces/inkscape"
   xmlns:sodipodi="http://sodipodi.sourceforge.net/DTD/sodipodi-0.dtd"
   xmlns="http://www.w3.org/2000/svg"
   xmlns:svg="http://www.w3.org/2000/svg">
  <defs
     id="defs10" />
  <sodipodi:namedview
     id="namedview8"
     pagecolor="#505050"
     bordercolor="#ffffff"
     borderopacity="1"
     inkscape:pageshadow="0"
     inkscape:pageopacity="0"
     inkscape:pagecheckerboard="1"
     showgrid="false"
     inkscape:zoom="46.0625"
     inkscape:cx="8"
     inkscape:cy="8"
     inkscape:current-layer="svg6" />
  <path
     id="path1033"
     style="opacity:1;fill:#4c5263;fill-opacity:1;stroke-width:1.11603;stroke-linecap:round;paint-order:markers fill stroke"
     d="M 8 0 A 8 8 0 0 0 0 8 A 8 8 0 0 0 8 16 A 8 8 0 0 0 16 8 A 8 8 0 0 0 8 0 z M 4 5 A 1 1 0 0 1 5 6 A 1 1 0 0 1 4 7 A 1 1 0 0 1 3 6 A 1 1 0 0 1 4 5 z M 8 5 A 1 1 0 0 1 9 6 A 1 1 0 0 1 8 7 A 1 1 0 0 1 7 6 A 1 1 0 0 1 8 5 z M 12 5 A 1 1 0 0 1 13 6 A 1 1 0 0 1 12 7 A 1 1 0 0 1 11 6 A 1 1 0 0 1 12 5 z M 4 9 A 1 1 0 0 1 5 10 A 1 1 0 0 1 4 11 A 1 1 0 0 1 3 10 A 1 1 0 0 1 4 9 z M 8 9 A 1 1 0 0 1 9 10 A 1 1 0 0 1 8 11 A 1 1 0 0 1 7 10 A 1 1 0 0 1 8 9 z M 12 9 A 1 1 0 0 1 13 10 A 1 1 0 0 1 12 11 A 1 1 0 0 1 11 10 A 1 1 0 0 1 12 9 z " />
</svg>
