<?xml version="1.0" encoding="UTF-8" standalone="no"?>
<svg
   width="16"
   height="16"
   version="1.1"
   id="svg6"
   sodipodi:docname="call-stop-symbolic.svg"
   inkscape:version="1.1.1 (3bf5ae0d25, 2021-09-20)"
   xmlns:inkscape="http://www.inkscape.org/namespaces/inkscape"
   xmlns:sodipodi="http://sodipodi.sourceforge.net/DTD/sodipodi-0.dtd"
   xmlns="http://www.w3.org/2000/svg"
   xmlns:svg="http://www.w3.org/2000/svg">
  <defs
     id="defs10" />
  <sodipodi:namedview
     id="namedview8"
     pagecolor="#505050"
     bordercolor="#ffffff"
     borderopacity="1"
     inkscape:pageshadow="0"
     inkscape:pageopacity="0"
     inkscape:pagecheckerboard="1"
     showgrid="false"
     inkscape:zoom="46.0625"
     inkscape:cx="8.0108548"
     inkscape:cy="7.9891452"
     inkscape:current-layer="svg6" />
  <path
     d="m 8.14473,4.3020619 c -2.67808,-0.0394 -5.25808,1.00686 -7.15234,2.90039 l -0.70117,0.70117 c -0.38825,0.38825 -0.38825,1.0141 0,1.40235 l 2.10351,2.1015601 c 0.38823,0.38824 1.01214,0.38824 1.40039,0 l 1.20508,-1.20312 v -2.2578201 0 l 0.19727,-0.082 c 1.78668,-0.78535 3.82153,-0.7818 5.60546,0.01 l 0.19727,0.0723 v 0 2.2578201 l 0.50391,0.50195 0.70117,0.70117 c 0.38825,0.38824 1.01216,0.38824 1.40039,0 l 2.10351,-2.1015601 c 0.38825,-0.38825 0.38825,-1.0141 0,-1.40235 l -0.70117,-0.70117 c -1.82342,-1.8227 -4.28535,-2.8631 -6.86328,-2.90039 z"
     fill="#f44336"
     id="path4" />
</svg>
