<?xml version="1.0" encoding="UTF-8" standalone="no"?>
<svg
   width="16"
   height="16"
   version="1.1"
   id="svg4"
   sodipodi:docname="format-text-bold-symbolic.svg"
   inkscape:version="1.1.1 (3bf5ae0d25, 2021-09-20)"
   xmlns:inkscape="http://www.inkscape.org/namespaces/inkscape"
   xmlns:sodipodi="http://sodipodi.sourceforge.net/DTD/sodipodi-0.dtd"
   xmlns="http://www.w3.org/2000/svg"
   xmlns:svg="http://www.w3.org/2000/svg">
  <defs
     id="defs8" />
  <sodipodi:namedview
     id="namedview6"
     pagecolor="#505050"
     bordercolor="#ffffff"
     borderopacity="1"
     inkscape:pageshadow="0"
     inkscape:pageopacity="0"
     inkscape:pagecheckerboard="1"
     showgrid="false"
     inkscape:zoom="16.285553"
     inkscape:cx="10.837827"
     inkscape:cy="17.592279"
     inkscape:current-layer="svg4" />
  <g
     id="g837"
     transform="translate(-23.174475,13.54875)"
     style="fill:#4c5263;fill-opacity:1">
    <path
       d="m 34.399475,-5.75875 c 0.97,-0.67 1.65,-1.77 1.65,-2.79 0,-2.26 -1.75,-4 -4,-4 h -6.25 v 14 h 7.04 c 2.09,0 3.71,-1.7 3.71,-3.79 0,-1.52 -0.86,-2.82 -2.15,-3.42 z m -5.6,-4.29 h 3 c 0.83,0 1.5,0.67 1.5,1.5 0,0.83 -0.67,1.5 -1.5,1.5 h -3 z m 3.5,9 h -3.5 v -3 h 3.5 c 0.83,0 1.5,0.67 1.5,1.5 0,0.83 -0.67,1.5 -1.5,1.5 z"
       id="path827"
       style="fill:#4c5263;fill-opacity:1" />
  </g>
</svg>
