<?xml version="1.0" encoding="UTF-8" standalone="no"?>
<svg
   width="16"
   height="16"
   version="1.1"
   id="svg8"
   sodipodi:docname="format-text-strikethrough-symbolic.svg"
   inkscape:version="1.1.1 (3bf5ae0d25, 2021-09-20)"
   xmlns:inkscape="http://www.inkscape.org/namespaces/inkscape"
   xmlns:sodipodi="http://sodipodi.sourceforge.net/DTD/sodipodi-0.dtd"
   xmlns="http://www.w3.org/2000/svg"
   xmlns:svg="http://www.w3.org/2000/svg">
  <defs
     id="defs12" />
  <sodipodi:namedview
     id="namedview10"
     pagecolor="#505050"
     bordercolor="#ffffff"
     borderopacity="1"
     inkscape:pageshadow="0"
     inkscape:pageopacity="0"
     inkscape:pagecheckerboard="1"
     showgrid="false"
     inkscape:zoom="16.285553"
     inkscape:cx="-2.7324832"
     inkscape:cy="5.0044355"
     inkscape:current-layer="g933" />
  <g
     id="g933"
     transform="scale(0.66666667)">
    <g
       id="g919"
       transform="translate(0,1.4949999)"
       style="fill:#4c5263;fill-opacity:1">
      <g
         id="g917"
         style="fill:#4c5263;fill-opacity:1">
        <g
           id="g915"
           style="fill:#4c5263;fill-opacity:1">
          <path
             d="M 6.85,7.08 C 6.85,4.37 9.45,3 12.24,3 c 1.64,0 3,0.49 3.9,1.28 0.77,0.65 1.46,1.73 1.46,3.24 h -3.01 c 0,-0.31 -0.05,-0.59 -0.15,-0.85 -0.29,-0.86 -1.2,-1.28 -2.25,-1.28 -1.86,0 -2.34,1.02 -2.34,1.7 0,0.48 0.25,0.88 0.74,1.21 C 10.97,8.55 11.36,8.78 12,9 H 7.39 C 7.18,8.66 6.85,8.11 6.85,7.08 Z M 21,12 V 10 H 3 v 2 h 9.62 c 1.15,0.45 1.96,0.75 1.96,1.97 0,1 -0.81,1.67 -2.28,1.67 -1.54,0 -2.93,-0.54 -2.93,-2.51 H 6.4 c 0,0.55 0.08,1.13 0.24,1.58 0.81,2.29 3.29,3.3 5.67,3.3 2.27,0 5.3,-0.89 5.3,-4.05 0,-0.3 -0.01,-1.16 -0.48,-1.94 H 21 Z"
             id="path913"
             style="fill:#4c5263;fill-opacity:1" />
        </g>
      </g>
    </g>
  </g>
</svg>
