<?xml version="1.0" encoding="UTF-8" standalone="no"?>
<!-- Created with Inkscape (http://www.inkscape.org/) -->

<svg
   width="256"
   height="256"
   viewBox="0 0 67.733334 67.733333"
   version="1.1"
   id="svg5"
   inkscape:version="1.1.1 (3bf5ae0d25, 2021-09-20)"
   sodipodi:docname="9icons.svg"
   inkscape:export-filename="/home/vlad/.icons/papier/artwork/9icons.png"
   inkscape:export-xdpi="270"
   inkscape:export-ydpi="270"
   xmlns:inkscape="http://www.inkscape.org/namespaces/inkscape"
   xmlns:sodipodi="http://sodipodi.sourceforge.net/DTD/sodipodi-0.dtd"
   xmlns:xlink="http://www.w3.org/1999/xlink"
   xmlns="http://www.w3.org/2000/svg"
   xmlns:svg="http://www.w3.org/2000/svg"
   xmlns:rdf="http://www.w3.org/1999/02/22-rdf-syntax-ns#">
  <sodipodi:namedview
     id="namedview7"
     pagecolor="#ffffff"
     bordercolor="#000000"
     borderopacity="1"
     inkscape:pageshadow="0"
     inkscape:pageopacity="0"
     inkscape:pagecheckerboard="true"
     inkscape:document-units="px"
     showgrid="false"
     borderlayer="false"
     inkscape:showpageshadow="true"
     units="px"
     width="1920px"
     showguides="true"
     inkscape:guide-bbox="true"
     inkscape:zoom="0.9650698"
     inkscape:cx="304.12308"
     inkscape:cy="241.43331"
     inkscape:current-layer="layer1" />
  <defs
     id="defs2">
    <clipPath
       clipPathUnits="userSpaceOnUse"
       id="clipPath4168">
      <path
         id="path4170"
         d="m 94.5,254 c -0.831,0 -1.5,0.669 -1.5,1.5 v 25 c 0,0.831 0.669,1.5 1.5,1.5 h 19 c 0.831,0 1.5,-0.669 1.5,-1.5 V 262 l -8,-8 z"
         style="fill:#e1e1e1;fill-opacity:1;stroke:none"
         inkscape:connector-curvature="0" />
    </clipPath>
    <linearGradient
       inkscape:collect="always"
       xlink:href="#linearGradient4090"
       id="linearGradient4741"
       gradientUnits="userSpaceOnUse"
       gradientTransform="matrix(0.69896544,0,0,0.69963726,-92.839319,-166.13713)"
       x1="148"
       y1="262"
       x2="154"
       y2="255" />
    <linearGradient
       inkscape:collect="always"
       id="linearGradient4090">
      <stop
         style="stop-color:#000000;stop-opacity:1;"
         offset="0"
         id="stop4092" />
      <stop
         style="stop-color:#000000;stop-opacity:0;"
         offset="1"
         id="stop4094" />
    </linearGradient>
    <linearGradient
       inkscape:collect="always"
       xlink:href="#linearGradient4090"
       id="linearGradient4743"
       gradientUnits="userSpaceOnUse"
       gradientTransform="matrix(0.69896544,0,0,0.69963726,-92.839319,-166.13713)"
       x1="163"
       y1="251"
       x2="177"
       y2="256" />
    <linearGradient
       inkscape:collect="always"
       xlink:href="#linearGradient4090"
       id="linearGradient4745"
       gradientUnits="userSpaceOnUse"
       gradientTransform="matrix(0.69896544,0,0,0.69963726,-92.839319,-166.13713)"
       x1="168"
       y1="266"
       x2="159.74709"
       y2="271.01068" />
    <clipPath
       clipPathUnits="userSpaceOnUse"
       id="clipPath5590">
      <circle
         r="160"
         cy="28.000134"
         cx="464.00006"
         id="circle5592"
         style="opacity:1;fill:#2095f2;fill-opacity:1;stroke:none;stroke-width:2;stroke-miterlimit:4;stroke-dasharray:none;stroke-opacity:1" />
    </clipPath>
    <filter
       inkscape:collect="always"
       id="filter4528"
       x="-0.12"
       width="1.24"
       y="-0.12"
       height="1.24">
      <feGaussianBlur
         inkscape:collect="always"
         stdDeviation="0.4"
         id="feGaussianBlur4530" />
    </filter>
    <clipPath
       clipPathUnits="userSpaceOnUse"
       id="clipPath4168-2">
      <path
         id="path4170-6"
         d="m 94.5,254 c -0.831,0 -1.5,0.669 -1.5,1.5 v 25 c 0,0.831 0.669,1.5 1.5,1.5 h 19 c 0.831,0 1.5,-0.669 1.5,-1.5 V 262 l -8,-8 z"
         style="fill:#e1e1e1;fill-opacity:1;stroke:none"
         inkscape:connector-curvature="0" />
    </clipPath>
    <clipPath
       clipPathUnits="userSpaceOnUse"
       id="clipPath4403">
      <path
         sodipodi:nodetypes="cccccssscsscccc"
         id="path4405"
         d="m 159.99999,237.99999 -19.08983,14.32423 c -0.0411,0.0267 -0.0783,0.0583 -0.1172,0.0879 l -0.0234,0.0176 v 0.003 c -0.46558,0.36557 -0.76954,0.92787 -0.76954,1.56837 l 2e-5,17.4274 c 0,2.85714 2.25294,2.85714 2.85714,2.85714 h 34.28572 c 0,0 2.85714,0 2.85714,-2.85714 l -3e-5,-17.42739 c 0,-0.65501 -0.31697,-1.22937 -0.80077,-1.59375 l 0.009,-0.0114 -19.20721,-14.39455 z"
         style="fill:#fe9700;fill-opacity:1;stroke:none"
         inkscape:connector-curvature="0" />
    </clipPath>
    <clipPath
       clipPathUnits="userSpaceOnUse"
       id="clipPath4446">
      <path
         id="path4448"
         d="m 160,238 -19.08984,14.32422 c -0.0411,0.0267 -0.0783,0.0583 -0.11719,0.0879 l -0.0234,0.0176 v 0.002 C 140.30396,252.7972 140,253.35949 140,254 v 24 c 0,1.108 0.892,2 2,2 h 36 c 1.108,0 2,-0.892 2,-2 v -24 c 0,-0.65501 -0.31697,-1.22937 -0.80078,-1.59375 l 0.008,-0.0117 z"
         style="fill:#fe9700;fill-opacity:1;stroke:none"
         inkscape:connector-curvature="0" />
    </clipPath>
    <clipPath
       clipPathUnits="userSpaceOnUse"
       id="clipPath941">
      <path
         id="path939"
         d="m 160,238 -19.08984,14.32422 c -0.0411,0.0267 -0.0783,0.0583 -0.11719,0.0879 l -0.0234,0.0176 v 0.002 C 140.30396,252.7972 140,253.35949 140,254 v 24 c 0,1.108 0.892,2 2,2 h 36 c 1.108,0 2,-0.892 2,-2 v -24 c 0,-0.65501 -0.31697,-1.22937 -0.80078,-1.59375 l 0.008,-0.0117 z"
         style="fill:#fe9700;fill-opacity:1;stroke:none"
         inkscape:connector-curvature="0" />
    </clipPath>
    <clipPath
       clipPathUnits="userSpaceOnUse"
       id="clipPath4168-1">
      <path
         id="path4170-7"
         d="m 94.5,254 c -0.831,0 -1.5,0.669 -1.5,1.5 v 25 c 0,0.831 0.669,1.5 1.5,1.5 h 19 c 0.831,0 1.5,-0.669 1.5,-1.5 V 262 l -8,-8 z"
         style="fill:#e1e1e1;fill-opacity:1;stroke:none"
         inkscape:connector-curvature="0" />
    </clipPath>
  </defs>
  <g
     inkscape:label="Strat 1"
     inkscape:groupmode="layer"
     id="layer1">
    <g
       id="g1410"
       transform="translate(0.54683968,0.08368168)">
      <g
         id="g1399"
         transform="matrix(0.52916668,0,0,0.52916668,3.6864942,4.1496522)">
        <path
           sodipodi:nodetypes="csccccccssc"
           inkscape:connector-curvature="0"
           id="path4811"
           d="M 29.999717,27.000172 V 9.0017229 c 0,-1.9998277 -1.999924,-1.9998277 -1.999924,-1.9998277 L 18.002405,7.0261931 15.00252,10.025935 4.0029405,9.999637 c -1.9999206,0 -1.9999206,1.999828 -1.9999206,1.999828 l -0.00223,15.000707 c 0,0 7e-6,1.999828 1.9999235,1.999828 H 27.999796 c 1.994054,0 1.999924,-1.999828 1.999924,-1.999828 z"
           style="display:inline;opacity:0.1;fill:#000000;fill-opacity:1;stroke:none;stroke-width:0.999938;enable-background:new" />
        <path
           sodipodi:nodetypes="csccccccssc"
           inkscape:connector-curvature="0"
           id="path4809"
           d="M 2.00023,22.998837 V 5.0003877 C 2.00023,3.00056 4.0001536,3.00056 4.0001536,3.00056 L 15.00252,3 l 2.999326,2.9991816 9.995158,-9.999e-4 c 1.999923,0 1.999923,1.9998277 1.999923,1.9998277 l 0.002,15.0008276 c 0,0 -10e-6,1.999828 -1.999924,1.999828 H 3.9999236 C 2.0058698,24.998665 2,22.998837 2,22.998837 Z"
           style="display:inline;fill:#78909c;fill-opacity:1;stroke:none;stroke-width:0.999938;enable-background:new" />
        <path
           style="display:inline;fill:#90a4ae;fill-opacity:1;stroke:none;stroke-width:0.999938;enable-background:new"
           d="M 29.999717,26.000258 V 8.0018091 c 0,-1.9998277 -1.999924,-1.9998277 -1.999924,-1.9998277 L 18.002405,6.0262793 15.00252,9.0260208 4.0029405,8.9997231 c -1.9999206,0 -1.9999206,1.9998279 -1.9999206,1.9998279 l -0.00223,15.000707 c 0,0 7e-6,1.999828 1.9999235,1.999828 H 27.999796 c 1.994054,0 1.999924,-1.999828 1.999924,-1.999828 z"
           id="path4807"
           inkscape:connector-curvature="0"
           sodipodi:nodetypes="csccccccssc" />
        <path
           style="display:inline;opacity:0.1;fill:#ffffff;fill-opacity:1;stroke:none;stroke-width:0.999938;enable-background:new"
           d="M 28.000076,6.0028013 18.002408,6.0262393 15.002523,9.0259808 4.0029435,9.000583 c -1.9999206,0 -1.9999236,1.999828 -1.9999236,1.999828 v 0.999914 c 0,0 3e-6,-1.999828 1.9999236,-1.999828 l 10.9995795,0.0254 2.999885,-2.9997417 9.997668,-0.023398 c 0,0 1.999924,0 1.999924,1.9998278 V 8.002669 C 30,6.0028413 28.000076,6.0028413 28.000076,6.0028413 Z"
           id="path4815"
           inkscape:connector-curvature="0" />
      </g>
    </g>
    <g
       id="g1499"
       transform="matrix(0.52916668,0,0,0.52916668,25.4,4.2333339)">
      <circle
         style="fill:#2196f3"
         cx="16"
         cy="16"
         r="14"
         id="circle2" />
      <path
         style="fill:#ffffff"
         d="m 17,9 v 3 h -4.24 c -2.058,0 -3.9594,1.054 -4.9883,2.706 -1.0289,1.651 -1.0289,3.986 0,5.638 C 8.7512,21.911 10.521,22.911 12.473,23 11,22.863 10,21.715 10,20.344 10,18.87 11.169,17.982 12.76,18 H 17 v 3.011 L 25,15 Z"
         id="path4" />
    </g>
    <g
       id="g1651"
       transform="matrix(2,0,0,2,-49.263476,-11.532976)">
      <g
         id="g1640"
         transform="matrix(0.26458334,0,0,0.26458334,47.915073,8.1737224)">
        <rect
           ry="1.5"
           rx="1.5"
           y="-30"
           x="-27.500008"
           height="28"
           width="24.000015"
           id="rect4520"
           style="display:inline;fill:#d50000;fill-opacity:1;stroke:none;enable-background:new"
           transform="matrix(0,-1,-1,0,0,0)" />
        <path
           inkscape:connector-curvature="0"
           id="path4534"
           d="m 2.0000005,26.000008 v 1 c 0,0.831 0.669,1.5 1.5,1.5 H 28.5 c 0.831001,0 1.5,-0.669 1.5,-1.5 v -1 c 0,0.831 -0.668999,1.5 -1.5,1.5 H 3.5000005 c -0.831,0 -1.5,-0.669 -1.5,-1.5 z"
           style="display:inline;opacity:0.2;fill:#000000;fill-opacity:1;stroke:none;enable-background:new" />
        <path
           style="display:inline;opacity:0.1;fill:#ffffff;fill-opacity:1;stroke:none;enable-background:new"
           d="m 2.0000005,6.0000077 v -1 c 0,-0.831 0.669,-1.5 1.5,-1.5 H 28.5 c 0.831001,0 1.5,0.669 1.5,1.5 v 1 c 0,-0.831 -0.668999,-1.5 -1.5,-1.5 H 3.5000005 c -0.831,0 -1.5,0.669 -1.5,1.5 z"
           id="path4544"
           inkscape:connector-curvature="0" />
        <path
           sodipodi:nodetypes="ccccc"
           style="color:#bebebe;display:inline;overflow:visible;visibility:visible;fill:#ffffff;fill-opacity:1;fill-rule:nonzero;stroke:none;stroke-width:2;marker:none;enable-background:accumulate"
           d="m 11.000001,12.500008 h 4 v 1 h -4 z"
           id="path4045-0"
           inkscape:connector-curvature="0" />
        <path
           sodipodi:nodetypes="ccccc"
           inkscape:connector-curvature="0"
           id="path4409"
           d="m 6.0000005,7.5000077 h 1 v 6.0000003 h -1 z"
           style="display:inline;fill:#ffffff;fill-opacity:1;stroke:none;stroke-width:2;stroke-miterlimit:4;stroke-dasharray:none;stroke-opacity:1;enable-background:new" />
        <path
           sodipodi:nodetypes="ccccc"
           inkscape:connector-curvature="0"
           id="path4411"
           d="m 8.0000005,7.5000077 h 1 v 6.0000003 h -1 z"
           style="display:inline;fill:#ffffff;fill-opacity:1;stroke:none;stroke-width:2;stroke-miterlimit:4;stroke-dasharray:none;stroke-opacity:1;enable-background:new" />
        <path
           inkscape:connector-curvature="0"
           id="path4413"
           d="m 5.0000005,11.500008 h 5.0000005 v 1 H 5.0000005 Z"
           style="color:#bebebe;display:inline;overflow:visible;visibility:visible;fill:#ffffff;fill-opacity:1;fill-rule:nonzero;stroke:none;stroke-width:2;marker:none;enable-background:accumulate"
           sodipodi:nodetypes="ccccc" />
        <path
           sodipodi:nodetypes="ccccc"
           style="color:#bebebe;display:inline;overflow:visible;visibility:visible;fill:#ffffff;fill-opacity:1;fill-rule:nonzero;stroke:none;stroke-width:2;marker:none;enable-background:accumulate"
           d="m 5.0000005,8.5000077 h 5.0000005 v 1 H 5.0000005 Z"
           id="path4415"
           inkscape:connector-curvature="0" />
      </g>
    </g>
    <g
       id="g2572"
       transform="matrix(0.52916668,0,0,0.5287567,4.2333339,25.40082)">
      <path
         inkscape:connector-curvature="0"
         id="rect3388"
         d="M 7,2 C 7,2 5,2 5,4 v 24 c 0,0 0,2 2,2 h 18 c 2,0 2,-2 2,-2 V 10 L 19.75,9.25 C 18.92158,9.25 19,2 19,2 Z"
         style="display:inline;fill:#ececec;fill-opacity:1;stroke:none;enable-background:new"
         sodipodi:nodetypes="cscssccccc" />
      <path
         transform="translate(-88,-251.97829)"
         clip-path="url(#clipPath4168)"
         style="display:inline;opacity:0.1;fill:#000000;fill-opacity:1;stroke:none;enable-background:new"
         d="m 107,254 v 7 c 0,0 0,2 2,2 h 6 v -1 z"
         id="path4110"
         inkscape:connector-curvature="0"
         sodipodi:nodetypes="ccsccc" />
      <path
         style="display:inline;fill:#f2f2f2;fill-opacity:1;stroke:none;enable-background:new"
         d="m 19,2.02171 v 6 c 0,0 0.0854,2 2,2 h 6 z"
         id="path4172"
         inkscape:connector-curvature="0"
         sodipodi:nodetypes="ccscc" />
      <path
         style="display:inline;opacity:0.2;fill:#ffffff;fill-opacity:1;stroke:none;enable-background:new"
         d="m 7,2.02171 c 0,0 -2,0 -2,2 v 1 c 0,-2 2,-2 2,-2 h 12 c -0.003,-0.55035 0,-1 0,-1 z"
         id="path4742"
         inkscape:connector-curvature="0"
         sodipodi:nodetypes="csccccc" />
      <path
         style="display:inline;opacity:0.05;fill:#000000;fill-opacity:1;stroke:none;enable-background:new"
         d="m 5,27.02171 v 1 c 0,0 0,2 2,2 h 18 c 2,0 2,-2 2,-2 v -1 c 0,0 0,2 -2,2 H 7 c -2,0 -2,-2 -2,-2 z"
         id="path4771" />
      <g
         id="g1224"
         transform="translate(0.23338,-2.3609)">
        <g
           id="g4638"
           style="display:inline;enable-background:new"
           transform="translate(-96.23338,1572.3609)">
          <path
             style="opacity:1;fill:#3776ab;fill-opacity:1;stroke:none;stroke-width:2;stroke-linecap:round;stroke-linejoin:round;stroke-miterlimit:4;stroke-dasharray:none;stroke-opacity:1"
             d="m 110.33301,-1559 c -1.29267,0 -2.33301,0.892 -2.33301,2 v 1 h -1 c -1.108,0 -2,1.0403 -2,2.333 v 3.334 c 0,1.2927 0.892,2.333 2,2.333 h 9 v -9 c 0,-1.108 -1.04034,-2 -2.33301,-2 z"
             id="path4264"
             inkscape:connector-curvature="0"
             sodipodi:nodetypes="sscsssccsss" />
          <path
             sodipodi:nodetypes="sscsssccccccsss"
             inkscape:connector-curvature="0"
             id="path4274"
             d="m 113.66699,-1545 c 1.29267,0 2.33301,-0.892 2.33301,-2 v -1 h 1 c 1.108,0 2,-1.0403 2,-2.333 v -3.334 c 0,-1.2927 -0.892,-2.333 -2,-2.333 h -1 v 2 c 0,2 -2,2 -2,2 h -4 c -2,0 -2,2 -2,2 v 3 c 0,1.108 1.04034,2 2.33301,2 z"
             style="opacity:1;fill:#ffd343;fill-opacity:1;stroke:none;stroke-width:2;stroke-linecap:round;stroke-linejoin:round;stroke-miterlimit:4;stroke-dasharray:none;stroke-opacity:1" />
        </g>
        <circle
           style="display:inline;fill:#ffffff;fill-opacity:1;stroke:none;stroke-width:2;stroke-linecap:round;stroke-linejoin:round;stroke-miterlimit:4;stroke-dasharray:none;stroke-opacity:1;enable-background:new"
           id="path4279"
           cx="13.26662"
           cy="14.860901"
           r="0.5" />
        <circle
           r="0.5"
           cy="25.860901"
           cx="18.266621"
           id="circle4281"
           style="display:inline;fill:#ffffff;fill-opacity:1;stroke:none;stroke-width:2;stroke-linecap:round;stroke-linejoin:round;stroke-miterlimit:4;stroke-dasharray:none;stroke-opacity:1;enable-background:new" />
      </g>
    </g>
    <g
       id="g1369"
       transform="matrix(0.52881222,0,0,0.52916668,23.816847,25.518627)">
      <path
         style="display:inline;fill:#1e88e5;fill-opacity:1;stroke:none;enable-background:new"
         d="m 18.995152,1.7758219 c -4.90421,0 -9.1920101,2.51422 -11.6855501,6.31836 -0.0881,5.6998801 5.3469001,11.8740401 7.9726601,14.8574201 -0.48309,-0.89235 0.0781,-5.78095 0.0781,-6.87109 0,-3.48838 0.17134,-4.82109 3.63477,-5.20899 l 9.77539,-1.0957001 h 2.88477 c -0.0469,-0.0988 -0.0895,-0.19909 -0.13868,-0.29688 h -0.0977 l 0.0703,-0.008 c -2.29358,-4.575 -7.01302,-7.69512 -12.49406,-7.69512 z"
         id="path4729"
         inkscape:connector-curvature="0"
         sodipodi:nodetypes="sccsccccccs" />
      <path
         style="display:inline;fill:#42a5f5;fill-opacity:1;stroke:none;enable-background:new"
         d="m 6.9028329,22.805192 c 2.452109,4.25125 6.7716391,6.71117 11.3097191,6.97063 4.83906,-2.66995 7.4039,-6.0642 6.15135,-10.67425 -0.53052,0.86495 -2.82862,-0.75968 -3.77179,-0.21464 -1.49875,0.86615 -1.32385,2.3309 -2.8686,1.92512 -1.56604,-0.41123 -2.81208,-0.19871 -3.72464,-1.69862 L 7.3143619,8.1266419 C 4.5027679,12.402522 4.1623159,18.053912 6.9028329,22.805192 Z"
         id="path4731"
         inkscape:connector-curvature="0"
         sodipodi:nodetypes="sccssscs" />
      <path
         style="display:inline;fill:#90caf9;fill-opacity:1;stroke:none;enable-background:new"
         d="m 18.995152,9.7758219 c 0.21416,0.0669 0.59298,1.7647701 1,2.0000001 1.61294,0.93211 3.64517,1.31662 4.00195,3 0.31082,1.46656 0.93434,2.74971 0.123,4.15625 l -5.88477,10.81836 c 5.10525,0.29932 10.16378,-2.23114 12.9043,-6.98242 2.39311,-4.14896 2.41613,-8.98452 0.51563,-12.9921901 h -2.66011 -1 c 0,0 -9.21416,-0.0669 -9,0 z"
         id="path4733"
         inkscape:connector-curvature="0"
         sodipodi:nodetypes="zcsccscccz" />
      <path
         inkscape:connector-curvature="0"
         id="path4735"
         d="m 13.859752,18.854432 5.1354,-3.08588 L 7.2920019,8.0597419 Z"
         style="display:inline;opacity:0.2;fill:url(#linearGradient4741);fill-opacity:1;stroke:none;enable-background:new"
         sodipodi:nodetypes="cccc" />
      <path
         style="display:inline;opacity:0.1;fill:url(#linearGradient4743);fill-opacity:1;stroke:none;enable-background:new"
         d="M 18.995152,9.7758219 V 15.768552 L 31.655312,9.7758219 Z"
         id="path4737"
         inkscape:connector-curvature="0"
         sodipodi:nodetypes="cccc" />
      <path
         style="display:inline;opacity:0.2;fill:url(#linearGradient4745);fill-opacity:1;stroke:none;enable-background:new"
         d="m 24.151352,18.869572 -5.1562,-3.10102 -0.81805,13.99938 z"
         id="path4739"
         inkscape:connector-curvature="0"
         sodipodi:nodetypes="cccc" />
      <rect
         transform="matrix(0,-1,-1,0,0,0)"
         style="display:inline;fill:#ffffff;fill-opacity:1;stroke:none;stroke-width:1.00033;enable-background:new"
         id="rect8495"
         width="12"
         height="12.008043"
         x="-21.775822"
         y="-25.008537"
         rx="6"
         ry="6.0040216" />
      <rect
         ry="5.0033512"
         rx="5"
         y="-24.007868"
         x="-20.775822"
         height="10.006702"
         width="10"
         id="rect8499"
         style="display:inline;fill:#1976d2;fill-opacity:1;stroke:none;stroke-width:1.00034;enable-background:new"
         transform="matrix(0,-1,-1,0,0,0)" />
      <path
         inkscape:connector-curvature="0"
         style="display:inline;opacity:0.2;fill:#000000;fill-opacity:1;stroke:none;stroke-width:2;stroke-linecap:round;stroke-linejoin:round;stroke-miterlimit:4;stroke-dasharray:none;stroke-opacity:1;enable-background:new"
         d="m 32.973672,15.189882 a 14,14 0 0 1 -13.97852,13.58594 14,14 0 0 1 -13.9785201,-13.41406 14,14 0 0 0 -0.0215,0.41406 14,14 0 0 0 14.0000001,14 14,14 0 0 0 14,-14 14,14 0 0 0 -0.0215,-0.58594 z"
         id="path4772" />
    </g>
    <g
       id="g984"
       transform="matrix(0.52916643,0,0,0.52916643,45.222576,21.275808)">
      <path
         style="display:inline;opacity:0.2;fill:#000000;fill-opacity:1;stroke:none;enable-background:new"
         d="m 18.540033,12.293755 v 6 h -6 l -6,6 h 6 v 6 l 6,6 v -6 h 6 l 6,-6 h -6 v -6 z"
         id="path4594"
         inkscape:connector-curvature="0" />
      <path
         style="display:inline;fill:#fec006;fill-opacity:1;stroke:none;enable-background:new"
         d="m 12.540023,17.293765 c 3.216281,1.33657 4.697467,3.61956 6,6 H 6.540022 Z"
         id="path4398"
         inkscape:connector-curvature="0"
         sodipodi:nodetypes="cccc" />
      <path
         inkscape:connector-curvature="0"
         id="path4400"
         d="m 24.540023,17.293765 c -1.407619,3.54019 -3.73653,4.68502 -6,6 v -12 z"
         style="display:inline;fill:#f34235;fill-opacity:1;stroke:none;enable-background:new"
         sodipodi:nodetypes="cccc" />
      <path
         style="display:inline;fill:#4bae4f;fill-opacity:1;stroke:none;enable-background:new"
         d="m 12.540023,29.293765 6,6 v -12 c -2.591524,1.2113 -4.46598,3.37869 -6,6 z"
         id="path4402"
         inkscape:connector-curvature="0"
         sodipodi:nodetypes="cccc" />
      <path
         inkscape:connector-curvature="0"
         id="path4404"
         d="m 24.540023,29.293765 c -2.760517,-1.32398 -4.829846,-3.26236 -6,-6 h 12 z"
         style="display:inline;fill:#2095f2;fill-opacity:1;stroke:none;enable-background:new"
         sodipodi:nodetypes="cccc" />
      <path
         style="display:inline;fill:#9c27b0;fill-opacity:1;stroke:none;enable-background:new"
         d="m 18.540023,23.293765 6,-6 v 6 z"
         id="path4406"
         inkscape:connector-curvature="0" />
      <path
         inkscape:connector-curvature="0"
         id="path4408"
         d="m 18.540023,23.293765 -6,6 v -6 z"
         style="display:inline;fill:#1ea362;fill-opacity:1;stroke:none;enable-background:new" />
      <path
         style="display:inline;fill:#3e50b4;fill-opacity:1;stroke:none;enable-background:new"
         d="m 24.540023,29.293765 -6,-6 v 6 z"
         id="path4410"
         inkscape:connector-curvature="0" />
      <path
         inkscape:connector-curvature="0"
         id="path4412"
         d="m 12.540023,17.293765 6,6 v -6 z"
         style="display:inline;fill:#fe9700;fill-opacity:1;stroke:none;enable-background:new" />
      <path
         style="display:inline;opacity:0.2;fill:#000000;fill-opacity:1;stroke:none;enable-background:new"
         d="m 18.540033,20.918755 -1.125,2.25 -2.25,1.125 2.25,1.125 1.125,2.25 1.125,-2.25 2.25,-1.125 -2.25,-1.125 z"
         id="path4619"
         inkscape:connector-curvature="0" />
      <path
         inkscape:connector-curvature="0"
         style="display:inline;fill:#ffffff;fill-opacity:1;stroke:none;enable-background:new"
         d="m 18.540023,19.918765 -1.125,2.25 -2.25,1.125 3.375,0.42857 3.375,-0.42857 -2.25,-1.125 z"
         id="path4414"
         sodipodi:nodetypes="ccccccc" />
      <path
         inkscape:connector-curvature="0"
         style="display:inline;fill:#ebebeb;fill-opacity:1;stroke:none;enable-background:new"
         d="m 15.165023,23.293765 2.25,1.125 1.125,2.25 v -3.375 z"
         id="path4416" />
      <path
         id="path4418"
         d="m 21.915023,23.293765 -2.25,1.125 -1.125,2.25 v -3.375 z"
         style="display:inline;fill:#dfdfdf;fill-opacity:1;stroke:none;enable-background:new"
         inkscape:connector-curvature="0" />
    </g>
    <g
       id="g4591"
       transform="matrix(0.52916668,0,0,0.52916668,4.2333334,46.566667)">
      <path
         inkscape:connector-curvature="0"
         style="display:inline;fill:#4fc3f7;fill-opacity:1;stroke:none;enable-background:new"
         d="M 3.5,3.5 C 2.669,3.5 2,4.169 2,5 V 21.5 H 30 V 5 C 30,4.169 29.331,3.5 28.5,3.5 Z M 29.59375,27 c -0.25305,0.25267 -0.6122,0.40475 -1,0.40625 L 3.5,27.5 h 25 c 0.43994,0 0.81985,-0.20022 1.09375,-0.5 z"
         id="rect4255-6" />
      <path
         style="display:inline;opacity:0.2;fill:#ffffff;fill-opacity:1;stroke:none;enable-background:new"
         d="M 3.5,3.5 C 2.669,3.5 2,4.169 2,5 V 6 C 2,5.169 2.669,4.5 3.5,4.5 h 25 C 29.331,4.5 30,5.169 30,6 V 5 C 30,4.169 29.331,3.5 28.5,3.5 Z"
         id="rect4091"
         inkscape:connector-curvature="0" />
      <path
         style="color:#000000;display:inline;overflow:visible;visibility:visible;opacity:0.2;fill:#000000;fill-opacity:1;fill-rule:evenodd;stroke:none;stroke-width:14;marker:none;filter:url(#filter4528);enable-background:new"
         d="m 23,8 c 2.20914,0 4,1.79086 4,4 0,2.20914 -1.79086,4 -4,4 -2.20914,0 -4,-1.79086 -4,-4 0,-2.20914 1.79086,-4 4,-4 z"
         id="path4526"
         inkscape:connector-curvature="0"
         sodipodi:nodetypes="sssss" />
      <path
         sodipodi:nodetypes="sssss"
         inkscape:connector-curvature="0"
         id="path4495"
         d="m 23,7 c 2.20914,0 4,1.79086 4,4 0,2.20914 -1.79086,4 -4,4 -2.20914,0 -4,-1.79086 -4,-4 0,-2.20914 1.79086,-4 4,-4 z"
         style="color:#000000;display:inline;overflow:visible;visibility:visible;fill:#ffeb3b;fill-opacity:1;fill-rule:evenodd;stroke:none;stroke-width:14;marker:none;enable-background:new" />
      <path
         id="path4106"
         d="M 3.5,28.5 C 2.669,28.5 2,27.831 2,27 v -1 c 0,0.831 0.669,1.5 1.5,1.5 h 25 c 0.831,0 1.5,-0.669 1.5,-1.5 v 1 c 0,0.831 -0.669,1.5 -1.5,1.5 z"
         style="display:inline;opacity:0.2;fill:#000000;fill-opacity:1;stroke:none;enable-background:new"
         inkscape:connector-curvature="0" />
      <ellipse
         style="fill:#9ccc65;stroke-width:79.476;stroke-linecap:round;paint-order:markers fill stroke"
         id="path1543"
         cx="10"
         cy="21"
         rx="8"
         ry="3.5" />
      <path
         style="fill:#9ccc65;stroke-width:73.5805;stroke-linecap:round;paint-order:markers fill stroke"
         id="ellipse2253"
         sodipodi:type="arc"
         sodipodi:cx="30"
         sodipodi:cy="21.5"
         sodipodi:rx="8"
         sodipodi:ry="4"
         sodipodi:start="1.5707963"
         sodipodi:end="4.712389"
         sodipodi:arc-type="slice"
         d="m 30,25.5 a 8,4 0 0 1 -6.928203,-2 8,4 0 0 1 0,-4 A 8,4 0 0 1 30,17.5 v 4 z" />
      <path
         style="fill:#689f38;stroke-width:79.476;stroke-linecap:round;paint-order:markers fill stroke"
         id="ellipse2591"
         sodipodi:type="arc"
         sodipodi:cx="-2"
         sodipodi:cy="21.5"
         sodipodi:rx="8"
         sodipodi:ry="3.5"
         sodipodi:start="1.5707963"
         sodipodi:end="4.712389"
         sodipodi:arc-type="slice"
         d="m -2,25 a 8,3.5 0 0 1 -6.9282032,-1.75 8,3.5 0 0 1 0,-3.5 A 8,3.5 0 0 1 -2,18 v 3.5 z"
         transform="scale(-1,1)" />
      <path
         style="fill:#689f38;stroke-width:73.5805;stroke-linecap:round;paint-order:markers fill stroke"
         id="path3338"
         sodipodi:type="arc"
         sodipodi:cx="30"
         sodipodi:cy="21.5"
         sodipodi:rx="8"
         sodipodi:ry="3"
         sodipodi:start="1.5707963"
         sodipodi:end="4.712389"
         sodipodi:arc-type="slice"
         d="m 30,24.5 a 8,3 0 0 1 -6.928203,-1.5 8,3 0 0 1 0,-3 A 8,3 0 0 1 30,18.5 v 3 z" />
      <ellipse
         style="fill:#7cb342;stroke-width:94.992;stroke-linecap:round;paint-order:markers fill stroke"
         id="ellipse1709"
         cx="16"
         cy="22"
         rx="10"
         ry="4" />
      <path
         style="display:inline;fill:#8bc34a;fill-opacity:1;stroke:none;enable-background:new"
         d="M 2,21.5 V 26 c 0,0 0,1.50598 1.5,1.5 L 28.6,27.4 C 29.3756,27.397 30,26.7756 30,26 v -4.5 z"
         id="path4497"
         inkscape:connector-curvature="0"
         sodipodi:nodetypes="ccssscc" />
      <ellipse
         style="fill:#8bc34a;stroke-width:67.1695;stroke-linecap:round;paint-order:markers fill stroke"
         id="ellipse1981"
         cx="20"
         cy="22"
         rx="8"
         ry="2.5" />
    </g>
    <g
       id="g4954"
       transform="matrix(0.52916668,0,0,0.5287567,25.4,46.56749)">
      <path
         inkscape:connector-curvature="0"
         id="rect3388-1"
         d="M 7,2 C 7,2 5,2 5,4 v 24 c 0,0 0,2 2,2 h 18 c 2,0 2,-2 2,-2 V 10 L 19.75,9.25 C 18.92158,9.25 19,2 19,2 Z"
         style="display:inline;fill:#ececec;fill-opacity:1;stroke:none;enable-background:new"
         sodipodi:nodetypes="cscssccccc" />
      <path
         transform="translate(-88,-251.97829)"
         clip-path="url(#clipPath4168-2)"
         style="display:inline;opacity:0.1;fill:#000000;fill-opacity:1;stroke:none;enable-background:new"
         d="m 107,254 v 7 c 0,0 0,2 2,2 h 6 v -1 z"
         id="path4110-8"
         inkscape:connector-curvature="0"
         sodipodi:nodetypes="ccsccc" />
      <path
         style="display:inline;fill:#f2f2f2;fill-opacity:1;stroke:none;enable-background:new"
         d="m 19,2.02171 v 6 c 0,0 0.0854,2 2,2 h 6 z"
         id="path4172-7"
         inkscape:connector-curvature="0"
         sodipodi:nodetypes="ccscc" />
      <path
         style="display:inline;opacity:0.2;fill:#ffffff;fill-opacity:1;stroke:none;enable-background:new"
         d="m 7,2.02171 c 0,0 -2,0 -2,2 v 1 c 0,-2 2,-2 2,-2 h 12 c -0.003,-0.55035 0,-1 0,-1 z"
         id="path4742-9"
         inkscape:connector-curvature="0"
         sodipodi:nodetypes="csccccc" />
      <path
         style="display:inline;opacity:0.05;fill:#000000;fill-opacity:1;stroke:none;enable-background:new"
         d="m 5,27.02171 v 1 c 0,0 0,2 2,2 h 18 c 2,0 2,-2 2,-2 v -1 c 0,0 0,2 -2,2 H 7 c -2,0 -2,-2 -2,-2 z"
         id="path4771-2" />
      <path
         sodipodi:nodetypes="cccccccccccccccccccc"
         inkscape:connector-curvature="0"
         id="path11875-3-1"
         d="m 9,25 v -1 h 10 v 1 z m 0,-3 v -1 h 14 v 1 z m 0,-3 v -1 h 14 v 1 z m 0,-3 v -1 h 14 v 1 z"
         style="display:inline;fill:#b3b3b3;fill-opacity:1;stroke:none;stroke-width:0;stroke-linecap:butt;stroke-linejoin:miter;stroke-miterlimit:4;stroke-dasharray:none;stroke-dashoffset:0;stroke-opacity:1;enable-background:new" />
    </g>
    <g
       id="g5350"
       transform="matrix(0.52429258,0,0,0.520197,46.644655,46.710185)">
      <path
         inkscape:connector-curvature="0"
         id="path4397-9"
         d="m 13.124908,30.249681 c -0.29681,-0.0323 -0.5395,-0.26891 -0.59375,-0.5625 l -0.59375,-3 c -1.06029,-0.41466 -2.0630902,-0.98753 -2.9375002,-1.6875 l -2.9062501,0.96875 c -0.30225,0.10422 -0.68136,-0.006 -0.84375,-0.28125 l -2.6875,-4.6875 c 0.01904,-0.0215 0.04057,-0.0436 0.0625,-0.0625 l 0.3125,-0.28125 2.3125,4.03125 c 0.16239,0.27545 0.5415,0.38547 0.84375,0.28125 l 2.9062501,-0.96875 c 0.87441,0.69997 1.8772102,1.27284 2.9375002,1.6875 l 0.59375,3 c 0.0542,0.29359 0.29694,0.5302 0.59375,0.5625 0.0218,5.1e-4 0.0406,5.1e-4 0.0625,0 h 5.625 c 0.31933,-0.004 0.59635,-0.2488 0.65625,-0.5625 l 0.59375,-3 c 1.06029,-0.41466 2.06309,-0.98753 2.9375,-1.6875 l 2.90625,0.96875 c 0.30224,0.10422 0.68136,-0.006 0.84375,-0.28125 l 2.3125,-4.03125 0.3125,0.28125 c 0.0219,0.0189 0.0435,0.041 0.0625,0.0625 l -2.6875,4.6875 c -0.16239,0.2754 -0.54151,0.38547 -0.84375,0.28125 l -2.90625,-0.96875 c -0.87441,0.69997 -1.87721,1.27284 -2.9375,1.6875 l -0.59375,3 c -0.0599,0.3137 -0.33692,0.55816 -0.65625,0.5625 h -5.625 c -0.0219,5.1e-4 -0.0407,5.1e-4 -0.0625,0 z M 2.4061577,20.593431 c -0.01685,-0.0926 -0.01947,-0.15743 0,-0.25 -0.01419,0.0788 -0.01174,0.17122 0,0.25 z m 27.1875003,0 c 0.0118,-0.0788 0.0142,-0.17115 0,-0.25 0.0195,0.0926 0.0169,0.15743 0,0.25 z M 4.8436577,16.999681 c -0.006,-0.082 0.005,-0.1671 0,-0.25 0.008,-0.16951 0.0203,-0.33388 0.0312,-0.5 0.0143,0.21861 0.0299,0.43823 0.0625,0.65625 l -0.0937,0.0937 z m 22.3125003,0 -0.0937,-0.0937 c 0.0326,-0.21802 0.0482,-0.43764 0.0625,-0.65625 0.0109,0.16612 0.0228,0.33049 0.0312,0.5 -0.005,0.0829 0.006,0.16804 0,0.25 z m -22.3125003,-2.5 -2.21875,-1.9375 c -0.02193,-0.0189 -0.04342,-0.041 -0.0625,-0.0625 l 0.375,-0.65625 2,1.75 c -0.0454,0.303 -0.0712,0.59845 -0.0937,0.90625 z m 22.3125003,0 c -0.0226,-0.3078 -0.0484,-0.60325 -0.0937,-0.90625 l 2,-1.75 0.375,0.65625 c -0.0191,0.0215 -0.0406,0.0436 -0.0625,0.0625 l -2.21875,1.9375 z"
         style="display:inline;opacity:0.1;fill:#000000;fill-opacity:1;stroke:none;enable-background:new" />
      <path
         style="display:inline;fill:#00897b;fill-opacity:1;stroke:none;enable-background:new"
         d="m 13.134418,1.2504413 c -0.29681,0.0323 -0.55825,0.27515 -0.6125,0.56874 l -0.59061,2.9968299 c -1.06029,0.41466 -2.0568002,0.98438 -2.9312102,1.68435 l -2.9093401,-0.98436 c -0.30225,-0.10422 -0.66885,0.0308 -0.83124,0.30625 l -2.799961,4.8561898 c -0.15772,0.2793 -0.0901,0.66583 0.15312,0.87499 l 2.318721,2.03434 c -0.0816,0.54547 -0.13125,1.09426 -0.13125,1.66248 0,0.56822 0.0496,1.117 0.13125,1.66247 l -2.318721,2.03435 c -0.24319,0.20916 -0.31084,0.59569 -0.15312,0.87499 l 2.799961,4.85619 c 0.16239,0.2754 0.52899,0.41046 0.83124,0.30624 l 2.9093401,-0.98436 c 0.87441,0.69997 1.8709202,1.2697 2.9312102,1.68436 l 0.59061,2.99683 c 0.0599,0.3137 0.35879,0.56439 0.67812,0.56874 h 5.59993 c 0.31933,-0.004 0.61824,-0.25504 0.67811,-0.56874 l 0.59062,-2.99683 c 1.06029,-0.41466 2.0568,-0.98439 2.93121,-1.68436 l 2.90934,0.98436 c 0.30224,0.10422 0.66885,-0.0308 0.83124,-0.30624 l 2.79996,-4.85619 c 0.15771,-0.2793 0.0901,-0.66583 -0.15312,-0.87499 l -2.31872,-2.03435 c 0.0816,-0.54547 0.13124,-1.09425 0.13124,-1.66247 0,-0.56822 -0.0497,-1.11701 -0.13124,-1.66248 l 2.31872,-2.03434 c 0.24319,-0.20916 0.31083,-0.59569 0.15312,-0.87499 l -2.79996,-4.8561897 c -0.16239,-0.2754 -0.529,-0.41047 -0.83124,-0.30625 l -2.90934,0.9843599 c -0.87441,-0.6999699 -1.87092,-1.2696899 -2.93121,-1.68435 l -0.59062,-2.9968299 c -0.0599,-0.3137 -0.35878,-0.5644 -0.67811,-0.56874 h -5.59993 c -0.0219,-5.1e-4 -0.0438,-5.1e-4 -0.0656,0 z"
         id="path4321"
         inkscape:connector-curvature="0" />
      <path
         sodipodi:nodetypes="sssss"
         inkscape:connector-curvature="0"
         style="display:inline;opacity:0.2;fill:#000000;fill-opacity:1;stroke:none;enable-background:new"
         d="m 15.999998,10.250031 c 3.31374,0 6.00004,2.6863 6.00004,6.00003 0,3.31372 -2.6863,6.00003 -6.00004,6.00003 -3.31373,0 -6.0000302,-2.68631 -6.0000302,-6.00003 0,-3.31373 2.6863002,-6.00003 6.0000302,-6.00003 z"
         id="path4450" />
      <rect
         style="opacity:0.2"
         width="6"
         height="11"
         x="13"
         y="19.750021"
         rx="2.4000001"
         ry="2.75"
         id="rect2-2" />
      <rect
         style="fill:#e4e4e4"
         width="6"
         height="11"
         x="13"
         y="18.750021"
         rx="2.4000001"
         ry="2.75"
         id="rect8" />
      <rect
         style="opacity:0.4"
         width="2"
         height="8.3999996"
         x="15"
         y="19.350021"
         rx="1"
         ry="1"
         id="rect10" />
      <path
         style="opacity:0.2"
         d="m 19,10.44338 v 5.207032 L 16,17.84963 13,15.650412 V 10.44924 c -2.429797,1.155454 -3.9965359,3.596794 -4,6.300781 0,3.865993 3.134007,7 7,7 3.865993,0 7,-3.134007 7,-7 -0.0014,-2.706046 -1.568317,-5.150382 -4,-6.306641 z"
         id="path12-28" />
      <path
         style="fill:#ffffff"
         d="M 19,9.4433807 V 14.650412 L 16,16.84963 13,14.650412 V 9.4492401 c -2.429797,1.1554539 -3.9965359,3.5967939 -4,6.3007809 0,3.865993 3.134007,7 7,7 3.865993,0 7,-3.134007 7,-7 -0.0014,-2.706046 -1.568317,-5.150382 -4,-6.3066403 z"
         id="path14-9" />
      <path
         style="display:inline;opacity:0.1;fill:#ffffff;fill-opacity:1;stroke:none;enable-background:new"
         d="m 13.124908,1.2503613 c -0.29681,0.0323 -0.5395,0.2689099 -0.59375,0.5624999 l -0.59375,3 c -1.06029,0.41466 -2.0630902,0.98753 -2.9375002,1.6875 l -2.9062501,-0.96875 c -0.30225,-0.10422 -0.68136,0.006 -0.84375,0.28125 l -2.6875,4.6874998 c 0.01904,0.0215 0.04057,0.0436 0.0625,0.0625 l 0.3125,0.28125 2.3125,-4.0312498 c 0.16239,-0.27545 0.5415,-0.38547 0.84375,-0.28125 l 2.9062501,0.96875 c 0.87441,-0.69997 1.8772102,-1.27284 2.9375002,-1.6875 l 0.59375,-3 c 0.0542,-0.29359 0.29694,-0.5301999 0.59375,-0.5625 0.0218,-5.1e-4 0.0406,-5.1e-4 0.0625,0 h 5.625 c 0.31933,0.004 0.59635,0.2488 0.65625,0.5625 l 0.59375,3 c 1.06029,0.41466 2.06309,0.98753 2.9375,1.6875 l 2.90625,-0.96875 c 0.30224,-0.10422 0.68136,0.006 0.84375,0.28125 l 2.3125,4.0312498 0.3125,-0.28125 c 0.0219,-0.0189 0.0435,-0.041 0.0625,-0.0625 l -2.6875,-4.6874998 c -0.16239,-0.2754 -0.54151,-0.38547 -0.84375,-0.28125 l -2.90625,0.96875 c -0.87441,-0.69997 -1.87721,-1.27284 -2.9375,-1.6875 l -0.59375,-3 c -0.0599,-0.3137 -0.33692,-0.55816 -0.65625,-0.5625 h -5.625 c -0.0219,-5.1e-4 -0.0407,-5.1e-4 -0.0625,1e-7 z M 2.4061577,10.906611 c -0.01685,0.0926 -0.01947,0.15743 0,0.25 -0.01419,-0.0788 -0.01174,-0.17122 0,-0.25 z m 27.1875003,0 c 0.0118,0.0788 0.0142,0.17115 0,0.25 0.0195,-0.0926 0.0169,-0.15743 0,-0.25 z m -24.7500003,3.59375 c -0.006,0.082 0.005,0.1671 0,0.25 0.008,0.16951 0.0203,0.33388 0.0312,0.5 0.0143,-0.21861 0.0299,-0.43823 0.0625,-0.65625 l -0.0937,-0.0937 z m 22.3125003,0 -0.0937,0.0937 c 0.0326,0.21802 0.0482,0.43764 0.0625,0.65625 0.0109,-0.16612 0.0228,-0.33049 0.0312,-0.5 -0.005,-0.0829 0.006,-0.16804 0,-0.25 z m -22.3125003,2.5 -2.21875,1.9375 c -0.02193,0.0189 -0.04342,0.041 -0.0625,0.0625 l 0.375,0.65625 2,-1.75 c -0.0454,-0.303 -0.0712,-0.59845 -0.0937,-0.90625 z m 22.3125003,0 c -0.0226,0.3078 -0.0484,0.60325 -0.0937,0.90625 l 2,1.75 0.375,-0.65625 c -0.0191,-0.0215 -0.0406,-0.0436 -0.0625,-0.0625 l -2.21875,-1.9375 z"
         id="path4360-7"
         inkscape:connector-curvature="0" />
    </g>
  </g>
  <metadata
     id="metadata2277">
    <rdf:RDF />
  </metadata>
  <inkscape:templateinfo>
    <inkscape:name>HD</inkscape:name>
    <inkscape:date>2022-02-13</inkscape:date>
  </inkscape:templateinfo>
</svg>
