<?xml version="1.0" encoding="UTF-8" standalone="no"?>
<svg
   width="32"
   height="32"
   version="1"
   id="svg12"
   sodipodi:docname="goldendict.svg"
   inkscape:version="1.1.1 (3bf5ae0d25, 2021-09-20)"
   xmlns:inkscape="http://www.inkscape.org/namespaces/inkscape"
   xmlns:sodipodi="http://sodipodi.sourceforge.net/DTD/sodipodi-0.dtd"
   xmlns="http://www.w3.org/2000/svg"
   xmlns:svg="http://www.w3.org/2000/svg">
  <defs
     id="defs16" />
  <sodipodi:namedview
     id="namedview14"
     pagecolor="#505050"
     bordercolor="#ffffff"
     borderopacity="1"
     inkscape:pageshadow="0"
     inkscape:pageopacity="0"
     inkscape:pagecheckerboard="1"
     showgrid="false"
     inkscape:zoom="23.03125"
     inkscape:cx="16"
     inkscape:cy="15.97829"
     inkscape:current-layer="svg12" />
  <rect
     fill="#e4e4e4"
     width="28"
     height="28"
     x="2"
     y="2"
     rx="1.4"
     ry="1.4"
     id="rect2"
     style="fill:#ffffff" />
  <path
     opacity=".1"
     d="m30 28.6v-25.2c0-0.7756-0.624-1.4-1.4-1.4h-12.6v28h12.6c0.7756 0 1.4-0.6244 1.4-1.4z"
     id="path4"
     style="fill:#000000" />
  <path
     fill="#fff"
     opacity=".2"
     d="m3.4004 2c-0.7756 0-1.4004 0.6248-1.4004 1.4004v1c0-0.7756 0.6248-1.4004 1.4004-1.4004h25.2c0.775 0 1.4 0.6248 1.4 1.4004v-1c0-0.7756-0.625-1.4004-1.4-1.4004h-25.2z"
     id="path6" />
  <path
     opacity=".2"
     d="m2 28.6v1c0 0.775 0.6248 1.4 1.4004 1.4h25.2c0.775 0 1.4-0.625 1.4-1.4v-1c0 0.775-0.625 1.4-1.4 1.4h-25.2c-0.7752 0-1.4-0.625-1.4-1.4z"
     id="path8" />
  <path
     fill="#c2352a"
     d="m12.8 1c-0.8 0-0.8 0.6857-0.8 0.6857v11.314l2-1 2 1v-11.314c0-0.68571-0.80001-0.68571-0.80001-0.68571z"
     id="path10"
     style="fill:#f44336" />
</svg>
