<?xml version="1.0" encoding="UTF-8" standalone="no"?>
<svg
   width="32"
   height="32"
   version="1"
   id="svg24"
   sodipodi:docname="accessories-camera.svg"
   inkscape:version="1.1.1 (3bf5ae0d25, 2021-09-20)"
   xmlns:inkscape="http://www.inkscape.org/namespaces/inkscape"
   xmlns:sodipodi="http://sodipodi.sourceforge.net/DTD/sodipodi-0.dtd"
   xmlns="http://www.w3.org/2000/svg"
   xmlns:svg="http://www.w3.org/2000/svg">
  <defs
     id="defs28" />
  <sodipodi:namedview
     id="namedview26"
     pagecolor="#505050"
     bordercolor="#ffffff"
     borderopacity="1"
     inkscape:pageshadow="0"
     inkscape:pageopacity="0"
     inkscape:pagecheckerboard="1"
     showgrid="false"
     inkscape:zoom="23.03125"
     inkscape:cx="16"
     inkscape:cy="15.97829"
     inkscape:current-layer="svg24" />
  <path
     style="opacity:0.2"
     d="m 16,24.7 c 0,0 8,2.1 8,3.5 v 1.4 C 24,30.3756 23.405333,31 22.666667,31 H 9.3333333 C 8.5946667,31 8,30.3756 8,29.6 v -1.4 c 0,-1.4 8,-3.5 8,-3.5 z"
     id="path2" />
  <path
     style="fill:#3f3f3f"
     d="m 16,23.7 c 0,0 8,2.1 8,3.5 v 1.4 C 24,29.3756 23.405333,30 22.666667,30 H 9.3333333 C 8.5946667,30 8,29.3756 8,28.6 v -1.4 c 0,-1.4 8,-3.5 8,-3.5 z"
     id="path4" />
  <circle
     style="opacity:0.2"
     cx="16"
     cy="15"
     r="13"
     id="circle6" />
  <circle
     style="fill:#4f4f4f"
     cx="16"
     cy="14"
     r="13"
     id="circle8" />
  <circle
     style="fill:#2f2f2f"
     cx="16"
     cy="-14"
     r="9"
     transform="scale(1,-1)"
     id="circle10" />
  <circle
     style="opacity:0.2"
     cx="16"
     cy="-15"
     r="7"
     transform="scale(1,-1)"
     id="circle12" />
  <circle
     style="fill:#673ab7"
     cx="16"
     cy="-14"
     r="7"
     transform="scale(1,-1)"
     id="circle14" />
  <circle
     style="opacity:0.2"
     cx="16"
     cy="15"
     r="4"
     id="circle16" />
  <circle
     style="fill:#9575cd"
     cx="16"
     cy="14"
     r="4"
     id="circle18" />
  <path
     style="opacity:0.2;fill:#ffffff"
     d="M 15.939453,10 A 4,4 0 0 0 12,14 4,4 0 0 0 12.03125,14.496094 4,4 0 0 1 16,11 4,4 0 0 1 19.96875,14.503906 4,4 0 0 0 20,14 4,4 0 0 0 16,10 4,4 0 0 0 15.93945,10 Z"
     id="path20" />
  <path
     style="fill:#ffffff;opacity:0.1"
     d="M 15.892578 1 A 13 13 0 0 0 3 14 A 13 13 0 0 0 3.0097656 14.503906 A 13 13 0 0 1 16 2 A 13 13 0 0 1 28.990234 14.496094 A 13 13 0 0 0 29 14 A 13 13 0 0 0 16 1 A 13 13 0 0 0 15.892578 1 z"
     id="path22" />
</svg>
