<?xml version="1.0" encoding="UTF-8" standalone="no"?>
<svg
   width="32"
   height="32"
   version="1"
   id="svg26"
   sodipodi:docname="gnome-character-map.svg"
   inkscape:version="1.1.1 (3bf5ae0d25, 2021-09-20)"
   xmlns:inkscape="http://www.inkscape.org/namespaces/inkscape"
   xmlns:sodipodi="http://sodipodi.sourceforge.net/DTD/sodipodi-0.dtd"
   xmlns="http://www.w3.org/2000/svg"
   xmlns:svg="http://www.w3.org/2000/svg">
  <defs
     id="defs30" />
  <sodipodi:namedview
     id="namedview28"
     pagecolor="#505050"
     bordercolor="#ffffff"
     borderopacity="1"
     inkscape:pageshadow="0"
     inkscape:pageopacity="0"
     inkscape:pagecheckerboard="1"
     showgrid="false"
     inkscape:zoom="23.03125"
     inkscape:cx="16.108548"
     inkscape:cy="15.97829"
     inkscape:current-layer="g830" />
  <g
     id="g830"
     transform="translate(5,5.236842)">
    <rect
       ry="1.6"
       rx="1.6"
       y="-25.000002"
       x="-2.7367961"
       height="28"
       width="27.999908"
       id="rect1064"
       style="display:inline;fill:#000000;fill-opacity:0.2;stroke:none;enable-background:new"
       transform="rotate(90)" />
    <rect
       ry="1.6"
       rx="1.6"
       y="-25.000002"
       x="-3.7367511"
       height="28"
       width="27.999908"
       id="rect3552"
       style="display:inline;fill:#eceff1;fill-opacity:1;stroke:none;enable-background:new"
       transform="rotate(90)" />
    <path
       id="path3559"
       style="font-style:normal;font-weight:normal;font-size:medium;line-height:125%;font-family:Sans;letter-spacing:0px;word-spacing:0px;display:inline;fill:#455a64;fill-opacity:1;stroke:none;enable-background:new"
       d="m 16.017388,14.581143 c -1.42692,10e-6 -2.41552,0.16317 -2.9658,0.4895 -0.5503,0.32634 -0.82544,0.88303 -0.82544,1.67007 0,0.62708 0.20476,1.12618 0.61428,1.4973 0.41591,0.36473 0.979,0.54709 1.68926,0.54709 0.979,0 1.76284,-0.34553 2.35153,-1.03659 0.59507,-0.69746 0.89261,-1.62207 0.89262,-2.77385 v -0.39352 h -1.75645 m 3.5225,-0.72945 v 6.13317 h -1.76605 v -1.63167 c -0.40313,0.65267 -0.90542,1.13577 -1.5069,1.44931 -0.60148,0.30714 -1.33733,0.4607 -2.20756,0.4607 -1.10058,0 -1.9772,-0.30713 -2.62987,-0.92141 -0.64627,-0.62068 -0.96941,-1.44931 -0.96941,-2.4859 0,-1.20936 0.40312,-2.12117 1.20936,-2.73546 0.81264,-0.61427 2.02199,-0.92141 3.62808,-0.92141 h 2.4763 v -0.17277 c -10e-6,-0.81263 -0.26875,-1.4397 -0.80624,-1.88122 -0.5311,-0.4479 -1.27975,-0.67186 -2.24595,-0.67187 -0.61428,10e-6 -1.21256,0.0736 -1.79484,0.22076 -0.58229,0.14718 -1.14217,0.36793 -1.67966,0.66227 V 9.7245127 c 0.64627,-0.24954 1.27334,-0.4351 1.88122,-0.55669 0.60788,-0.12796 1.19976,-0.19195 1.77565,-0.19196 1.55488,10e-6 2.71624,0.40313 3.4841,1.2093603 0.76784,0.80625 1.15176,2.0284 1.15177,3.66647 m -5.95081,-9.5884807 2.70666,3.58968 h -1.46851 l -3.12897,-3.58968 h 1.89082"
       inkscape:connector-curvature="0" />
    <path
       style="display:inline;opacity:0.4;fill:#ffffff;fill-opacity:1;stroke:none;enable-background:new"
       d="m 24.999998,-1.6430463 v -0.5 c 0,-0.8864 -0.70736,-1.59375 -1.59375,-1.59375 H -1.4062518 c -0.8864,0 -1.59375,0.70735 -1.59375,1.59375 v 0.5 c 0,-0.8864 0.70735,-1.59375 1.59375,-1.59375 H 23.406248 c 0.88639,0 1.59375,0.70735 1.59375,1.59375 z"
       id="rect4380"
       inkscape:connector-curvature="0" />
  </g>
</svg>
