<?xml version="1.0" encoding="UTF-8" standalone="no"?>
<svg
   width="32"
   height="32"
   version="1.1"
   id="svg14"
   sodipodi:docname="accessories-ebook-reader.svg"
   inkscape:version="1.1.1 (3bf5ae0d25, 2021-09-20)"
   xmlns:inkscape="http://www.inkscape.org/namespaces/inkscape"
   xmlns:sodipodi="http://sodipodi.sourceforge.net/DTD/sodipodi-0.dtd"
   xmlns="http://www.w3.org/2000/svg"
   xmlns:svg="http://www.w3.org/2000/svg">
  <defs
     id="defs18" />
  <sodipodi:namedview
     id="namedview16"
     pagecolor="#505050"
     bordercolor="#ffffff"
     borderopacity="1"
     inkscape:pageshadow="0"
     inkscape:pageopacity="0"
     inkscape:pagecheckerboard="1"
     showgrid="false"
     inkscape:zoom="23.03125"
     inkscape:cx="16"
     inkscape:cy="15.97829"
     inkscape:current-layer="svg14" />
  <rect
     style="opacity:0.2"
     width="22"
     height="28"
     x="5"
     y="3"
     rx="1.5"
     ry="1.5"
     id="rect2" />
  <rect
     style="fill:#2196f3"
     width="22"
     height="28"
     x="5"
     y="2"
     rx="1.5"
     ry="1.5"
     id="rect4" />
  <path
     style="opacity:0.2"
     d="M 19,3 V 17 L 21,15 23,17 V 3 Z"
     id="path6" />
  <path
     fill="#d8d8d8"
     d="m19 2v14l2-2 2 2v-14h-4z"
     id="path8" />
  <path
     style="opacity:0.2"
     d="M 6.5 2 C 5.669 2 5 2.669 5 3.5 L 5 28.5 C 5 29.331 5.669 30 6.5 30 L 9 30 L 9 2 L 6.5 2 z"
     id="path10" />
  <path
     style="opacity:0.2;fill:#ffffff"
     d="M 6.5 2 C 5.669 2 5 2.669 5 3.5 L 5 4.5 C 5 3.669 5.669 3 6.5 3 L 25.5 3 C 26.331 3 27 3.669 27 4.5 L 27 3.5 C 27 2.669 26.331 2 25.5 2 L 6.5 2 z"
     id="path12" />
</svg>
