<?xml version="1.0" encoding="UTF-8" standalone="no"?>
<svg
   width="32"
   height="32"
   version="1"
   id="svg26"
   sodipodi:docname="gnome-character-map.svg"
   inkscape:version="1.1.1 (3bf5ae0d25, 2021-09-20)"
   xmlns:inkscape="http://www.inkscape.org/namespaces/inkscape"
   xmlns:sodipodi="http://sodipodi.sourceforge.net/DTD/sodipodi-0.dtd"
   xmlns="http://www.w3.org/2000/svg"
   xmlns:svg="http://www.w3.org/2000/svg">
  <defs
     id="defs30" />
  <sodipodi:namedview
     id="namedview28"
     pagecolor="#505050"
     bordercolor="#ffffff"
     borderopacity="1"
     inkscape:pageshadow="0"
     inkscape:pageopacity="0"
     inkscape:pagecheckerboard="1"
     showgrid="false"
     inkscape:zoom="23.03125"
     inkscape:cx="16.043419"
     inkscape:cy="15.97829"
     inkscape:current-layer="g830" />
  <g
     id="g830"
     transform="translate(5,5.236842)">
    <rect
       style="fill:#eceff1;stroke-width:0.948678"
       width="18.049999"
       height="18"
       x="1.263158"
       y="-20"
       rx="1.425"
       ry="1.4210526"
       transform="rotate(90)"
       id="rect14" />
    <path
       style="opacity:0.2;fill:#ffffff;stroke-width:0.948678"
       d="M 3.4210526,1.263158 C 2.6337895,1.263158 2,1.8987082 2,2.6881591 V 3.6381583 C 2,2.848708 2.6337895,2.2131579 3.4210526,2.2131579 H 18.578946 C 19.366212,2.2131579 20,2.848708 20,3.6381583 V 2.6881591 C 20,1.8987082 19.366212,1.263158 18.578946,1.263158 Z"
       id="path18" />
    <path
       style="opacity:0.2;stroke-width:0.948678"
       d="m 13.637474,14.599302 c -1.0422,9e-6 -1.764191,0.116259 -2.166157,0.348772 -0.401922,0.232523 -0.602878,0.629157 -0.602878,1.18997 0,0.446795 0.149553,0.517205 0.448655,0.781646 0.303764,0.259872 0.715026,0.389803 1.233758,0.389803 0.715026,0 1.287474,-0.246191 1.717485,-0.738568 0.434615,-0.496943 0.651929,-0.870565 0.65194,-1.691174 v -0.280384 h -1.282831 m 2.573052,-0.51965 v 4.283279 h -1.289841 v -1.361187 c -0.293685,0.465499 -0.661263,0.809399 -1.099896,1.032649 -0.439579,0.219449 -0.976737,0.3287 -1.612421,0.3287 -0.804316,0 -1.44379,-0.2185 -1.921263,-0.65645 -0.4717907,-0.442701 -0.7076833,-0.747446 -0.7076833,-1.485597 0,-0.861669 0.2944228,-1.511353 0.8832783,-1.949019 0.593526,-0.437664 1.478364,-0.594976 2.649789,-0.656507 h 1.808621 v -0.123101 c -10e-6,-0.578997 -0.196285,-0.930884 -0.588845,-1.245429 -0.3879,-0.319124 -0.934683,-0.478705 -1.640371,-0.478705 -0.448644,9e-6 -0.885608,0.05244 -1.310872,0.157292 -0.425282,0.10486 -0.834206,0.547356 -1.226748,0.75707 v -1.447815 c 0.472017,-0.177801 0.930004,-0.310005 1.373969,-0.396645 0.443973,-0.09117 0.876268,-0.136761 1.296851,-0.136772 1.135612,1.1e-5 1.983886,0.287234 2.544633,0.861669 0.560804,0.574457 0.841207,1.35031 0.841216,2.517481 m -4.345578,-7.1166547 1.976871,2.849021 H 12.769694 L 10.484641,6.9642589 h 1.380979"
       id="path20" />
    <path
       style="fill:#263238;stroke-width:0.948678"
       d="m 13.637474,13.649463 c -1.0422,10e-6 -1.764191,0.11626 -2.166157,0.348773 -0.401922,0.232522 -0.602878,0.629156 -0.602878,1.189969 0,0.446796 0.149553,0.517205 0.448655,0.781646 0.303764,0.259872 0.715026,0.389804 1.233758,0.389804 0.715026,0 1.287474,-0.246192 1.717485,-0.738568 0.434615,-0.496945 0.651929,-0.870564 0.65194,-1.691174 v -0.280385 h -1.282831 m 2.573052,-0.519649 v 4.283279 H 14.920657 V 16.05197 c -0.293685,0.4655 -0.661263,0.8094 -1.099896,1.032649 -0.439579,0.21945 -0.976737,0.3287 -1.612421,0.3287 -0.804316,0 -1.44379,-0.218501 -1.921263,-0.656448 -0.4717907,-0.442702 -0.7076833,-0.747448 -0.7076833,-1.485597 0,-0.861669 0.2944228,-1.511354 0.8832783,-1.94902 0.593526,-0.437665 1.478364,-0.594977 2.649789,-0.656506 h 1.808621 v -0.123101 c -10e-6,-0.578998 -0.196285,-0.930885 -0.588845,-1.245431 -0.3879,-0.319124 -0.934683,-0.478704 -1.640371,-0.478704 -0.448644,9e-6 -0.885608,0.05243 -1.310872,0.15729 -0.425282,0.104862 -0.834206,0.547358 -1.226748,0.75707 v -1.447814 c 0.472017,-0.177802 0.930004,-0.3100049 1.373969,-0.3966449 0.443973,-0.091171 0.876268,-0.1367617 1.296851,-0.1367707 1.135612,9e-6 1.983886,0.2872336 2.544633,0.8616686 0.560804,0.574456 0.841207,1.35031 0.841216,2.51748 M 11.865337,6.0141365 13.842208,8.8631569 H 12.769694 L 10.484641,6.0144215 h 1.380979"
       id="path22" />
    <path
       style="opacity:0.2;stroke-width:0.948678"
       d="m 2,17.888157 v 0.950002 c 0,0.789449 0.6337895,1.424999 1.4210526,1.424999 H 18.578946 C 19.366212,20.263158 20,19.627608 20,18.838159 v -0.950002 c 0,0.789452 -0.633788,1.425001 -1.421054,1.425001 H 3.4210526 C 2.6337895,19.313158 2,18.677609 2,17.888157 Z"
       id="path24" />
  </g>
</svg>
