<?xml version="1.0" encoding="UTF-8" standalone="no"?>
<svg
   width="32"
   height="32"
   version="1.1"
   id="svg18"
   sodipodi:docname="applications-other.svg"
   inkscape:version="1.1.1 (3bf5ae0d25, 2021-09-20)"
   xmlns:inkscape="http://www.inkscape.org/namespaces/inkscape"
   xmlns:sodipodi="http://sodipodi.sourceforge.net/DTD/sodipodi-0.dtd"
   xmlns="http://www.w3.org/2000/svg"
   xmlns:svg="http://www.w3.org/2000/svg">
  <defs
     id="defs22" />
  <sodipodi:namedview
     id="namedview20"
     pagecolor="#505050"
     bordercolor="#ffffff"
     borderopacity="1"
     inkscape:pageshadow="0"
     inkscape:pageopacity="0"
     inkscape:pagecheckerboard="1"
     showgrid="false"
     inkscape:zoom="23.03125"
     inkscape:cx="16"
     inkscape:cy="16.02171"
     inkscape:current-layer="svg18" />
  <circle
     style="opacity:0.2"
     cx="16"
     cy="17"
     r="14"
     id="circle2" />
  <circle
     style="fill:#00796b"
     cx="16"
     cy="16"
     r="14"
     id="circle4" />
  <path
     style="opacity:0.2"
     d="m 8,14 a 3,3 0 0 0 -3,3 3,3 0 0 0 3,3 3,3 0 0 0 3,-3 3,3 0 0 0 -3,-3 z m 8,0 a 3,3 0 0 0 -3,3 3,3 0 0 0 3,3 3,3 0 0 0 3,-3 3,3 0 0 0 -3,-3 z m 8,0 a 3,3 0 0 0 -3,3 3,3 0 0 0 3,3 3,3 0 0 0 3,-3 3,3 0 0 0 -3,-3 z"
     id="path6" />
  <circle
     style="fill:#cfd8dc"
     cx="16"
     cy="16"
     r="3"
     id="circle8" />
  <circle
     style="fill:#cfd8dc"
     cx="24"
     cy="16"
     r="3"
     id="circle10" />
  <circle
     style="fill:#cfd8dc"
     cx="8"
     cy="16"
     r="3"
     id="circle12" />
  <path
     style="fill:#ffffff;opacity:0.1"
     d="M 16 2 A 14 14 0 0 0 2 16 A 14 14 0 0 0 2.0214844 16.585938 A 14 14 0 0 1 16 3 A 14 14 0 0 1 29.978516 16.414062 A 14 14 0 0 0 30 16 A 14 14 0 0 0 16 2 z"
     id="path14" />
  <path
     style="opacity:0.2;fill:#ffffff"
     d="M 8 13 A 3 3 0 0 0 5 16 A 3 3 0 0 0 5.0429688 16.486328 A 3 3 0 0 1 8 14 A 3 3 0 0 1 10.957031 16.513672 A 3 3 0 0 0 11 16 A 3 3 0 0 0 8 13 z M 16 13 A 3 3 0 0 0 13 16 A 3 3 0 0 0 13.042969 16.486328 A 3 3 0 0 1 16 14 A 3 3 0 0 1 18.957031 16.513672 A 3 3 0 0 0 19 16 A 3 3 0 0 0 16 13 z M 24 13 A 3 3 0 0 0 21 16 A 3 3 0 0 0 21.042969 16.486328 A 3 3 0 0 1 24 14 A 3 3 0 0 1 26.957031 16.513672 A 3 3 0 0 0 27 16 A 3 3 0 0 0 24 13 z"
     id="path16" />
  <path
     style="opacity:0.2"
     d="m 8,14 a 3,3 0 0 0 -3,3 3,3 0 0 0 3,3 3,3 0 0 0 3,-3 3,3 0 0 0 -3,-3 z m 8,0 a 3,3 0 0 0 -3,3 3,3 0 0 0 3,3 3,3 0 0 0 3,-3 3,3 0 0 0 -3,-3 z m 8,0 a 3,3 0 0 0 -3,3 3,3 0 0 0 3,3 3,3 0 0 0 3,-3 3,3 0 0 0 -3,-3 z"
     id="path1116" />
  <circle
     style="fill:#cfd8dc"
     cx="16"
     cy="16"
     r="3"
     id="circle1118" />
  <circle
     style="fill:#cfd8dc"
     cx="24"
     cy="16"
     r="3"
     id="circle1120" />
  <circle
     style="fill:#cfd8dc"
     cx="8"
     cy="16"
     r="3"
     id="circle1122" />
  <path
     style="opacity:0.2;fill:#ffffff"
     d="M 8 13 A 3 3 0 0 0 5 16 A 3 3 0 0 0 5.0429688 16.486328 A 3 3 0 0 1 8 14 A 3 3 0 0 1 10.957031 16.513672 A 3 3 0 0 0 11 16 A 3 3 0 0 0 8 13 z M 16 13 A 3 3 0 0 0 13 16 A 3 3 0 0 0 13.042969 16.486328 A 3 3 0 0 1 16 14 A 3 3 0 0 1 18.957031 16.513672 A 3 3 0 0 0 19 16 A 3 3 0 0 0 16 13 z M 24 13 A 3 3 0 0 0 21 16 A 3 3 0 0 0 21.042969 16.486328 A 3 3 0 0 1 24 14 A 3 3 0 0 1 26.957031 16.513672 A 3 3 0 0 0 27 16 A 3 3 0 0 0 24 13 z"
     id="path1124" />
</svg>
