<?xml version="1.0" encoding="UTF-8" standalone="no"?>
<svg
   width="32"
   height="32"
   version="1.1"
   id="svg28"
   sodipodi:docname="applications-accessories.svg"
   inkscape:version="1.1.1 (3bf5ae0d25, 2021-09-20)"
   xmlns:inkscape="http://www.inkscape.org/namespaces/inkscape"
   xmlns:sodipodi="http://sodipodi.sourceforge.net/DTD/sodipodi-0.dtd"
   xmlns="http://www.w3.org/2000/svg"
   xmlns:svg="http://www.w3.org/2000/svg">
  <defs
     id="defs32" />
  <sodipodi:namedview
     id="namedview30"
     pagecolor="#505050"
     bordercolor="#ffffff"
     borderopacity="1"
     inkscape:pageshadow="0"
     inkscape:pageopacity="0"
     inkscape:pagecheckerboard="1"
     showgrid="false"
     inkscape:zoom="23.03125"
     inkscape:cx="16.043419"
     inkscape:cy="15.97829"
     inkscape:current-layer="svg28" />
  <path
     style="opacity:0.2"
     d="m 2,3.00004 v 22 c 0,2 2,2 2,2 h 26 z m 5,10.87109 9.48242,8.12891 H 7 Z"
     id="path2" />
  <path
     style="fill:#4caf50"
     d="m 2,2.00004 v 22 c 0,2 2,2 2,2 h 26 z m 5,10.87109 9.48242,8.12891 H 7 Z"
     id="path4" />
  <path
     style="opacity:0.2;fill:#ffffff"
     d="m 2,2.00004 v 1 l 26.83398,23 H 30 Z m 5,19 v 1 h 9.48242 l -1.16601,-1 z"
     id="path6" />
  <path
     style="opacity:0.2;fill-rule:evenodd"
     d="m 14.05566,11.99997 c 0.52496,0.019 1.00169,0.31134 1.25684,0.7705 l 7.5,13.5 L 23,29.99997 20.1875,27.72947 14,16.59079 v -4.58496 c 0.019,0 0.0366,-0.006 0.0557,-0.006 z"
     id="path8" />
  <path
     style="fill:#999999;fill-rule:evenodd"
     d="m 14.05566,10.99997 c 0.52496,0.019 1.00169,0.31134 1.25684,0.7705 l 7.5,13.5 L 23,28.99997 20.1875,26.72947 14,15.59079 v -4.58496 c 0.019,0 0.0366,-0.006 0.0557,-0.006 z"
     id="path10" />
  <path
     style="opacity:0.2"
     d="m 13.94434,11.99997 c -0.52496,0.019 -1.00169,0.31134 -1.25684,0.77051 l -7.5,13.5 L 5,29.99997 7.8125,27.72946 8.86719,25.83396 A 12,12 0 0 0 14,26.99997 a 12,12 0 0 0 12,-12 h -3 a 9,9 0 0 1 -9,9 9,9 0 0 1 -3.6709,-0.7998 L 14,16.59079 v -4.58495 c -0.019,0 -0.0366,-0.006 -0.0557,-0.006 z"
     id="path12" />
  <path
     style="fill:#ececec"
     d="m 13.94434,10.99997 c -0.52496,0.019 -1.00169,0.31134 -1.25684,0.77051 l -7.5,13.5 L 5,28.99997 7.8125,26.72946 8.86719,24.83396 A 12,12 0 0 0 14,25.99997 a 12,12 0 0 0 12,-12 h -3 a 9,9 0 0 1 -9,9 9,9 0 0 1 -3.6709,-0.7998 L 14,15.59079 v -4.58495 c -0.019,0 -0.0366,-0.006 -0.0557,-0.006 z"
     id="path14" />
  <path
     style="opacity:0.2"
     d="m 12,5.99997 v 3 h -1 c -2,0 -2,2 -2,2 v 5 c 0,0 2.5,2.50002 3.5,3.50003 0.8992,0.69992 2.39217,0.75609 3.16496,-0.16495 L 19,15.99997 v -5 c 0,0 0,-2 -2,-2 h -1 v -3 z"
     id="path16" />
  <path
     style="opacity:0.2;fill:#ffffff"
     d="m 13.94336,10.99997 c -0.52419,0.0197 -1.00103,0.31288 -1.25586,0.77148 l -7.5,13.5 L 5,28.99997 l 0.0527,-0.043 0.13477,-2.68555 7.5,-13.5 c 0.25483,-0.4586 0.73167,-0.75183 1.25586,-0.77148 h 0.002 c 0.0184,3.8e-4 0.0363,0.006 0.0547,0.006 v -1 c -0.0183,0 -0.0363,-0.005 -0.0547,-0.006 h -0.002 z m 9.05664,3 a 9,9 0 0 1 -9,9 9,9 0 0 1 -3.2168,-0.61914 l -0.45508,0.82031 A 9,9 0 0 0 14,23.99997 a 9,9 0 0 0 9,-9 h 2.95312 a 12,12 0 0 0 0.0469,-1 h -3 z"
     id="path18" />
  <path
     style="fill:#37474f"
     d="m 12,4.99997 v 3 h -1 c -2,0 -2,2 -2,2 v 5 c 0,0 2.5,2.50002 3.5,3.50003 0.8992,0.69992 2.39217,0.75609 3.16496,-0.16495 L 19,14.99997 v -5 c 0,0 0,-2 -2,-2 h -1 v -3 z"
     id="path20" />
  <circle
     style="opacity:0.2"
     cx="14"
     cy="13"
     r="2"
     id="circle22" />
  <circle
     style="fill:#f2f2f2"
     cx="14"
     cy="12"
     r="2"
     id="circle24" />
  <path
     style="opacity:0.1;fill:#ffffff"
     d="m 12,4.99997 v 1 h 4 v -1 z m -1,3 c -2,0 -2,2 -2,2 v 1 c 0,0 0,-2 2,-2 h 1 v -1 z m 5,0 v 1 h 1 c 2,0 2,2 2,2 v -1 c 0,0 0,-2 -2,-2 z"
     id="path26" />
</svg>
