<?xml version="1.0" encoding="UTF-8" standalone="no"?>
<svg
   width="32"
   height="32"
   version="1.1"
   id="svg34"
   sodipodi:docname="applications-engineering.svg"
   inkscape:version="1.1.1 (3bf5ae0d25, 2021-09-20)"
   xmlns:inkscape="http://www.inkscape.org/namespaces/inkscape"
   xmlns:sodipodi="http://sodipodi.sourceforge.net/DTD/sodipodi-0.dtd"
   xmlns="http://www.w3.org/2000/svg"
   xmlns:svg="http://www.w3.org/2000/svg">
  <defs
     id="defs38" />
  <sodipodi:namedview
     id="namedview36"
     pagecolor="#505050"
     bordercolor="#ffffff"
     borderopacity="1"
     inkscape:pageshadow="0"
     inkscape:pageopacity="0"
     inkscape:pagecheckerboard="1"
     showgrid="false"
     inkscape:zoom="23.03125"
     inkscape:cx="16"
     inkscape:cy="15.97829"
     inkscape:current-layer="svg34" />
  <path
     style="display:inline;opacity:0.2;fill:#000000;fill-opacity:1;stroke:none;stroke-width:8;stroke-linecap:butt;stroke-linejoin:round;stroke-miterlimit:4;stroke-dasharray:none;stroke-opacity:1;enable-background:new"
     d="m 14.5,28 c 1,0 1,1 1,1 v 2 h -14 v -2 c 0,-1 1,-1 1,-1 z"
     id="path4246"
     inkscape:connector-curvature="0"
     sodipodi:nodetypes="scccccs" />
  <path
     style="color:#000000;font-style:normal;font-variant:normal;font-weight:normal;font-stretch:normal;font-size:medium;line-height:normal;font-family:sans-serif;text-indent:0;text-align:start;text-decoration:none;text-decoration-line:none;text-decoration-style:solid;text-decoration-color:#000000;letter-spacing:normal;word-spacing:normal;text-transform:none;writing-mode:lr-tb;direction:ltr;baseline-shift:baseline;text-anchor:start;white-space:normal;clip-rule:nonzero;display:inline;overflow:visible;visibility:visible;isolation:auto;mix-blend-mode:normal;color-interpolation:sRGB;color-interpolation-filters:linearRGB;solid-color:#000000;solid-opacity:1;fill:#636e73;fill-opacity:1;fill-rule:evenodd;stroke:none;stroke-width:6;stroke-linecap:butt;stroke-linejoin:miter;stroke-miterlimit:4;stroke-dasharray:none;stroke-dashoffset:0;stroke-opacity:1;color-rendering:auto;image-rendering:auto;shape-rendering:auto;text-rendering:auto;enable-background:accumulate"
     d="m 16.37891,2.8789102 -8,7.9999998 4.24218,4.24218 8,-7.9999998 z"
     id="path4727"
     inkscape:connector-curvature="0" />
  <rect
     transform="scale(-1,1)"
     ry="0"
     y="11"
     x="-12.5"
     height="17"
     width="8"
     id="rect4729"
     style="display:inline;fill:#636e73;fill-opacity:1;stroke:none;stroke-width:8;stroke-linecap:butt;stroke-linejoin:round;stroke-miterlimit:4;stroke-dasharray:none;stroke-opacity:1;enable-background:new" />
  <path
     style="display:inline;fill:#828b8f;fill-opacity:1;stroke:none;stroke-width:8;stroke-linecap:butt;stroke-linejoin:round;stroke-miterlimit:4;stroke-dasharray:none;stroke-opacity:1;enable-background:new"
     d="m 12.5,26 c 1,0 1,1 1,1 v 2 h -10 v -2 c 0,-1 1,-1 1,-1 z"
     id="path4766"
     inkscape:connector-curvature="0"
     sodipodi:nodetypes="scccccs" />
  <path
     sodipodi:nodetypes="scccccs"
     inkscape:connector-curvature="0"
     id="path4733"
     d="m 14.5,27 c 1,0 1,1 1,1 v 2 h -14 v -2 c 0,-1 1,-1 1,-1 z"
     style="display:inline;fill:#3b4245;fill-opacity:1;stroke:none;stroke-width:8;stroke-linecap:butt;stroke-linejoin:round;stroke-miterlimit:4;stroke-dasharray:none;stroke-opacity:1;enable-background:new" />
  <path
     style="color:#000000;font-style:normal;font-variant:normal;font-weight:normal;font-stretch:normal;font-size:medium;line-height:normal;font-family:sans-serif;text-indent:0;text-align:start;text-decoration:none;text-decoration-line:none;text-decoration-style:solid;text-decoration-color:#000000;letter-spacing:normal;word-spacing:normal;text-transform:none;writing-mode:lr-tb;direction:ltr;baseline-shift:baseline;text-anchor:start;white-space:normal;clip-rule:nonzero;display:inline;overflow:visible;visibility:visible;isolation:auto;mix-blend-mode:normal;color-interpolation:sRGB;color-interpolation-filters:linearRGB;solid-color:#000000;solid-opacity:1;fill:#636e73;fill-opacity:1;fill-rule:evenodd;stroke:none;stroke-width:4;stroke-linecap:square;stroke-linejoin:miter;stroke-miterlimit:4;stroke-dasharray:none;stroke-dashoffset:0;stroke-opacity:1;color-rendering:auto;image-rendering:auto;shape-rendering:auto;text-rendering:auto;enable-background:accumulate"
     d="m 18.5,2.1718802 -2.82812,2.82812 1.41406,1.41406 4,3.9999998 1.41406,1.41406 2.82812,-2.8281198 -1.41406,-1.41406 -4,-4 z"
     id="path4735"
     inkscape:connector-curvature="0" />
  <rect
     y="1.9999999"
     x="-22.5"
     height="8"
     width="8"
     id="rect4737"
     style="display:inline;opacity:0.2;fill:#000000;fill-opacity:1;stroke:none;stroke-width:8;stroke-linecap:butt;stroke-linejoin:round;stroke-miterlimit:4;stroke-dasharray:none;stroke-opacity:1;enable-background:new"
     ry="4"
     transform="scale(-1,1)" />
  <rect
     ry="6"
     style="display:inline;opacity:0.2;fill:#000000;fill-opacity:1;stroke:none;stroke-width:8;stroke-linecap:butt;stroke-linejoin:round;stroke-miterlimit:4;stroke-dasharray:none;stroke-opacity:1;enable-background:new"
     id="rect4739"
     width="12"
     height="12"
     x="-14.5"
     y="10"
     transform="scale(-1,1)" />
  <rect
     transform="scale(-1,1)"
     y="9"
     x="-14.5"
     height="12"
     width="12"
     id="rect4741"
     style="display:inline;fill:#828b8f;fill-opacity:1;stroke:none;stroke-width:8;stroke-linecap:butt;stroke-linejoin:round;stroke-miterlimit:4;stroke-dasharray:none;stroke-opacity:1;enable-background:new"
     ry="6" />
  <rect
     transform="scale(-1,1)"
     ry="4"
     style="display:inline;fill:#3b4245;fill-opacity:1;stroke:none;stroke-width:8;stroke-linecap:butt;stroke-linejoin:round;stroke-miterlimit:4;stroke-dasharray:none;stroke-opacity:1;enable-background:new"
     id="rect4743"
     width="8"
     height="8"
     x="-12.5"
     y="11" />
  <rect
     transform="scale(-1,1)"
     y="12"
     x="-11.5"
     height="6"
     width="6"
     id="rect4745"
     style="display:inline;opacity:0.1;fill:#ffffff;fill-opacity:1;stroke:none;stroke-width:8;stroke-linecap:butt;stroke-linejoin:round;stroke-miterlimit:4;stroke-dasharray:none;stroke-opacity:1;enable-background:new"
     ry="3" />
  <rect
     transform="scale(-1,1)"
     ry="4"
     style="display:inline;fill:#828b8f;fill-opacity:1;stroke:none;stroke-width:8;stroke-linecap:butt;stroke-linejoin:round;stroke-miterlimit:4;stroke-dasharray:none;stroke-opacity:1;enable-background:new"
     id="rect4747"
     width="8"
     height="8"
     x="-22.5"
     y="0.99999988" />
  <path
     sodipodi:nodetypes="cccccc"
     inkscape:connector-curvature="0"
     id="path4749"
     d="m 24.5,16 -2,-1 v -4 l 2,-1.9999998 h 4 L 29.5,11"
     style="display:inline;fill:none;fill-rule:evenodd;stroke:#3f3f3f;stroke-width:2;stroke-linecap:round;stroke-linejoin:miter;stroke-miterlimit:4;stroke-dasharray:none;stroke-opacity:1;enable-background:new" />
  <rect
     transform="scale(-1,1)"
     y="3"
     x="-20.5"
     height="4"
     width="4"
     id="rect4751"
     style="display:inline;fill:#3b4245;fill-opacity:1;stroke:none;stroke-width:8;stroke-linecap:butt;stroke-linejoin:round;stroke-miterlimit:4;stroke-dasharray:none;stroke-opacity:1;enable-background:new"
     ry="2" />
  <path
     style="display:inline;opacity:0.2;fill:#f9f9f9;fill-opacity:1;stroke:none;stroke-width:8;stroke-linecap:butt;stroke-linejoin:round;stroke-miterlimit:4;stroke-dasharray:none;stroke-opacity:1;enable-background:new"
     d="m 8.5,9.0000002 c -3.324,0 -6,2.6759998 -6,5.9999998 0,0.16884 0.01185,0.33477 0.02539,0.5 C 2.778462,12.41229 5.34484,10 8.5,10 c 3.15516,0 5.72154,2.41229 5.97461,5.5 0.0135,-0.16523 0.0254,-0.33116 0.0254,-0.5 0,-3.324 -2.676,-5.9999998 -6,-5.9999998 z"
     id="rect4768"
     inkscape:connector-curvature="0" />
  <path
     style="display:inline;opacity:0.2;fill:#f9f9f9;fill-opacity:1;stroke:none;stroke-width:8;stroke-linecap:butt;stroke-linejoin:round;stroke-miterlimit:4;stroke-dasharray:none;stroke-opacity:1;enable-background:new"
     d="m 18.5,1.0000002 c -2.216,0 -4,1.784 -4,4 0,0.17126 0.0281,0.33452 0.0488,0.5 0.24699,-1.97567 1.90643,-3.5 3.95117,-3.5 2.04474,0 3.70418,1.52433 3.95117,3.5 0.0207,-0.16548 0.0488,-0.32874 0.0488,-0.5 0,-2.216 -1.784,-4 -4,-4 z"
     id="rect4770"
     inkscape:connector-curvature="0" />
  <path
     style="display:inline;opacity:0.1;fill:#ffffff;fill-opacity:1;stroke:none;stroke-width:8;stroke-linecap:butt;stroke-linejoin:round;stroke-miterlimit:4;stroke-dasharray:none;stroke-opacity:1;enable-background:new"
     d="m 2.5,27 c 0,0 -1,0 -1,1 v 1 c 0,-1 1,-1 1,-1 h 12 c 1,0 1,1 1,1 v -1 c 0,0 0,-1 -1,-1 z"
     id="path4778"
     inkscape:connector-curvature="0" />
</svg>
