<?xml version="1.0" encoding="UTF-8" standalone="no"?>
<svg
   width="32"
   height="32"
   version="1"
   id="svg46"
   sodipodi:docname="applications-multimedia.svg"
   inkscape:version="1.1.1 (3bf5ae0d25, 2021-09-20)"
   xmlns:inkscape="http://www.inkscape.org/namespaces/inkscape"
   xmlns:sodipodi="http://sodipodi.sourceforge.net/DTD/sodipodi-0.dtd"
   xmlns="http://www.w3.org/2000/svg"
   xmlns:svg="http://www.w3.org/2000/svg">
  <defs
     id="defs50" />
  <sodipodi:namedview
     id="namedview48"
     pagecolor="#505050"
     bordercolor="#ffffff"
     borderopacity="1"
     inkscape:pageshadow="0"
     inkscape:pageopacity="0"
     inkscape:pagecheckerboard="1"
     showgrid="false"
     inkscape:zoom="23.03125"
     inkscape:cx="16"
     inkscape:cy="15.97829"
     inkscape:current-layer="svg46" />
  <path
     inkscape:connector-curvature="0"
     id="path4465"
     d="m 12.500005,21.47829 c -0.831,0 -1.5,-0.669 -1.5,-1.5 v -1 c 0,0.831 0.669,1.5 1.5,1.5 h 16 c 0.831,0 1.5,-0.669 1.5,-1.5 v 1 c 0,0.831 -0.669,1.5 -1.5,1.5 z"
     style="display:inline;opacity:0.2;fill:#000000;fill-opacity:1;stroke:none;enable-background:new" />
  <path
     inkscape:connector-curvature="0"
     id="path4467"
     d="m 3.500005,30.47829 c -0.831,0 -1.5,-0.669 -1.5,-1.5 v -1 c 0,0.831 0.669,1.5 1.5,1.5 h 16 c 0.831,0 1.5,-0.669 1.5,-1.5 v 1 c 0,0.831 -0.669,1.5 -1.5,1.5 z"
     style="display:inline;opacity:0.2;fill:#000000;fill-opacity:1;stroke:none;enable-background:new" />
  <rect
     ry="1.5"
     rx="1.5"
     y="-30.000008"
     x="1.478292"
     height="19"
     width="19"
     id="rect4468"
     style="display:inline;fill:#6a1b9a;fill-opacity:1;stroke:none;enable-background:new"
     transform="rotate(90)" />
  <path
     style="color:#000000;font-style:normal;font-variant:normal;font-weight:normal;font-stretch:normal;font-size:medium;line-height:normal;font-family:sans-serif;text-indent:0;text-align:start;text-decoration:none;text-decoration-line:none;text-decoration-style:solid;text-decoration-color:#000000;letter-spacing:normal;word-spacing:normal;text-transform:none;writing-mode:lr-tb;direction:ltr;baseline-shift:baseline;text-anchor:start;white-space:normal;clip-rule:nonzero;display:inline;overflow:visible;visibility:visible;isolation:auto;mix-blend-mode:normal;color-interpolation:sRGB;color-interpolation-filters:linearRGB;solid-color:#000000;solid-opacity:1;fill:#d1c4e9;fill-opacity:1;fill-rule:nonzero;stroke:none;stroke-width:1.17115;stroke-linecap:butt;stroke-linejoin:round;stroke-miterlimit:4;stroke-dasharray:none;stroke-dashoffset:0;stroke-opacity:1;color-rendering:auto;image-rendering:auto;shape-rendering:auto;text-rendering:auto;enable-background:accumulate"
     d="m 16.452665,6.4601 c -0.24524,-1.3e-4 -0.44409,0.1991 -0.44396,0.44482 v 9.10984 c -8e-5,0.33795 0.36131,0.55243 0.65706,0.38996 l 8.33455,-4.55493 c 0.30749,-0.16869 0.30749,-0.61122 0,-0.77991 l -7.50139,-4.09972 -0.83316,-0.45519 c -0.0653,-0.0359 -0.13859,-0.0548 -0.2131,-0.0548 z"
     id="path4362"
     inkscape:connector-curvature="0"
     sodipodi:nodetypes="ccccccccc" />
  <rect
     transform="rotate(90)"
     style="display:inline;fill:#fb8c00;fill-opacity:1;stroke:none;enable-background:new"
     id="rect4474"
     width="19.000002"
     height="19.000002"
     x="10.478292"
     y="-21"
     rx="1.5"
     ry="1.5" />
  <path
     style="display:inline;opacity:0.2;fill:#ffffff;fill-opacity:1;stroke:none;enable-background:new"
     d="m 12.500005,1.47829 c -0.831,0 -1.5,0.669 -1.5,1.5 v 1 c 0,-0.831 0.669,-1.5 1.5,-1.5 h 16 c 0.831,0 1.5,0.669 1.5,1.5 v -1 c 0,-0.831 -0.669,-1.5 -1.5,-1.5 z"
     id="rect4576"
     inkscape:connector-curvature="0" />
  <path
     style="display:inline;opacity:0.2;fill:#ffffff;fill-opacity:1;stroke:none;enable-background:new"
     d="m 3.500005,10.47829 c -0.831,0 -1.5,0.669 -1.5,1.5 v 1 c 0,-0.831 0.669,-1.5 1.5,-1.5 h 16 c 0.831,0 1.5,0.669 1.5,1.5 v -1 c 0,-0.831 -0.669,-1.5 -1.5,-1.5 z"
     id="rect4578"
     inkscape:connector-curvature="0" />
  <g
     id="g4991"
     inkscape:label="places"
     style="display:inline;fill:#fff3e0;fill-opacity:1;enable-background:new"
     transform="matrix(0.5,0,0,0.5,-234.5,-73.02171)">
    <path
       style="fill:#fff3e0;fill-opacity:1;stroke:none"
       d="m 109,507 v 0.5 l -1e-5,5.76953 c -0.30389,-0.17609 -0.64878,-0.26905 -1,-0.26953 -1.10457,0 -2,0.89543 -2,2 0,1.10457 0.89543,2 2,2 1.10457,0 2,-0.89543 2,-2 l 1e-5,-5 h 5.00001 l -1e-5,3.26953 c -0.30389,-0.17609 -0.64878,-0.26905 -1,-0.26953 -1.10457,0 -2,0.89543 -2,2 0,1.10457 0.89543,2 2,2 1.10457,0 2,-0.89543 2,-2 l 1e-5,-8 h -0.5 z"
       transform="matrix(2,0,0,2,269,-837)"
       id="path4993"
       inkscape:connector-curvature="0"
       sodipodi:nodetypes="ccccsssccccsssccc" />
  </g>
</svg>
