<?xml version="1.0" encoding="UTF-8" standalone="no"?>
<svg
   width="32"
   height="32"
   version="1"
   id="svg20"
   sodipodi:docname="com.calibre_ebook.calibre.ebook-viewer.svg"
   inkscape:version="1.1.1 (3bf5ae0d25, 2021-09-20)"
   xmlns:inkscape="http://www.inkscape.org/namespaces/inkscape"
   xmlns:sodipodi="http://sodipodi.sourceforge.net/DTD/sodipodi-0.dtd"
   xmlns="http://www.w3.org/2000/svg"
   xmlns:svg="http://www.w3.org/2000/svg">
  <defs
     id="defs24" />
  <sodipodi:namedview
     id="namedview22"
     pagecolor="#505050"
     bordercolor="#ffffff"
     borderopacity="1"
     inkscape:pageshadow="0"
     inkscape:pageopacity="0"
     inkscape:pagecheckerboard="1"
     showgrid="false"
     inkscape:zoom="23.03125"
     inkscape:cx="16"
     inkscape:cy="15.97829"
     inkscape:current-layer="svg20" />
  <path
     fill="#009587"
     d="m6.5 2c-0.831 0-1.5 0.669-1.5 1.5v25c0 0.831 0.669 1.5 1.5 1.5h19c0.831 0 1.5-0.669 1.5-1.5v-25c0-0.831-0.669-1.5-1.5-1.5h-19z"
     id="path2"
     style="fill:#2196f3" />
  <path
     opacity=".2"
     d="m6.5 2c-0.831 0-1.5 0.669-1.5 1.5v25c0 0.831 0.669 1.5 1.5 1.5h2.5v-28z"
     id="path4" />
  <path
     opacity=".2"
     d="m19 3v14l2-2 2 2v-14h-4z"
     id="path6" />
  <path
     fill="#d8d8d8"
     d="m19 2v14l2-2 2 2v-14h-4z"
     id="path8" />
  <path
     fill="#fff"
     opacity=".2"
     d="m6.5 2c-0.831 0-1.5 0.669-1.5 1.5v1c0-0.831 0.669-1.5 1.5-1.5h19c0.831 0 1.5 0.669 1.5 1.5v-1c0-0.831-0.669-1.5-1.5-1.5h-19z"
     id="path10" />
  <path
     opacity=".2"
     d="m5 28.5v1c0 0.831 0.669 1.5 1.5 1.5h19c0.831 0 1.5-0.669 1.5-1.5v-1c0 0.831-0.669 1.5-1.5 1.5h-19c-0.831 0-1.5-0.669-1.5-1.5z"
     id="path12" />
  <circle
     fill="#c03630"
     cx="24"
     cy="23"
     r="8"
     id="circle14"
     style="fill:#f44336" />
  <path
     fill="#fff"
     fill-rule="evenodd"
     d="m24 19.75c-0.96927 0.0095-1.945 0.2309-2.7893 0.70939-0.33651 0.21919-0.74047 0.50229-1.0449 0.78752-0.479 0.469-0.889 1.016-1.166 1.629 0.75934 1.6751 2.4287 2.9028 4.2651 3.0842 1.2046 0.13636 2.4653-0.07179 3.5242-0.66786 0.3365-0.21919 0.74047-0.50229 1.0449-0.78752 0.479-0.47 0.889-1.017 1.166-1.629-0.759-1.675-2.429-2.903-4.265-3.084-0.244-0.029-0.49-0.042-0.735-0.042zm0 1.2503c1.0044-0.02225 1.8939 0.87633 1.875 1.8754 0.03219 1.1042-1.0681 2.0572-2.1558 1.851-1.0985-0.12898-1.8701-1.3614-1.5088-2.4053 0.231-0.768 0.985-1.33 1.79-1.321zm0 1.2503a0.625 0.62514 0 0 0 -0.625 0.626 0.625 0.62514 0 0 0 0.625 0.625 0.625 0.62514 0 0 0 0.625 -0.625 0.625 0.62514 0 0 0 -0.625 -0.625z"
     id="path16" />
  <path
     fill-rule="evenodd"
     opacity=".2"
     d="m31.979 23.424a8 8 0 0 1 -7.979 7.576 8 8 0 0 1 -7.979 -7.424 8 8 0 0 0 -0.021 0.424 8 8 0 0 0 8 8 8 8 0 0 0 8 -8 8 8 0 0 0 -0.021 -0.576z"
     id="path18" />
</svg>
