<?xml version="1.0" encoding="UTF-8" standalone="no"?>
<svg
   width="32"
   height="32"
   version="1"
   id="svg48"
   sodipodi:docname="chromium-app-list.svg"
   inkscape:version="1.1.1 (3bf5ae0d25, 2021-09-20)"
   xmlns:inkscape="http://www.inkscape.org/namespaces/inkscape"
   xmlns:sodipodi="http://sodipodi.sourceforge.net/DTD/sodipodi-0.dtd"
   xmlns="http://www.w3.org/2000/svg"
   xmlns:svg="http://www.w3.org/2000/svg">
  <defs
     id="defs52" />
  <sodipodi:namedview
     id="namedview50"
     pagecolor="#505050"
     bordercolor="#ffffff"
     borderopacity="1"
     inkscape:pageshadow="0"
     inkscape:pageopacity="0"
     inkscape:pagecheckerboard="1"
     showgrid="false"
     inkscape:zoom="23.03125"
     inkscape:cx="16"
     inkscape:cy="15.97829"
     inkscape:current-layer="svg48" />
  <rect
     fill="#69a2f5"
     width="28"
     height="28"
     x="2"
     y="2"
     rx="14"
     ry="14"
     id="rect2"
     style="fill:#2196f3" />
  <path
     fill="#fff"
     opacity=".1"
     d="m16 2c-7.756 0-14 6.244-14 14 0 0.169 0.0195 0.333 0.0254 0.5 0.2637-7.5206 6.3874-13.5 13.975-13.5 7.5872 0 13.711 5.9794 13.975 13.5 0.006-0.16736 0.0254-0.33116 0.0254-0.5 0-7.756-6.244-14-14-14z"
     id="path4" />
  <path
     opacity=".2"
     d="m2.0254 16.5c-0.0059 0.167-0.0254 0.331-0.0254 0.5 0 7.756 6.244 14 14 14s14-6.244 14-14c0-0.16884-0.01952-0.33264-0.02539-0.5-0.264 7.521-6.388 13.5-13.975 13.5-7.5872 0-13.711-5.979-13.975-13.5z"
     id="path6" />
  <g
     style="opacity:0.2"
     transform="translate(0,1)"
     id="g26">
    <rect
       width="4"
       height="4"
       x="14"
       y="14"
       rx="1.3"
       ry="1.3"
       id="rect8" />
    <rect
       width="4"
       height="4"
       x="20"
       y="14"
       rx="1.3"
       ry="1.3"
       id="rect10" />
    <rect
       width="4"
       height="4"
       x="8"
       y="14"
       rx="1.3"
       ry="1.3"
       id="rect12" />
    <rect
       width="4"
       height="4"
       x="14"
       y="8"
       rx="1.3"
       ry="1.3"
       id="rect14" />
    <rect
       width="4"
       height="4"
       x="20"
       y="8"
       rx="1.3"
       ry="1.3"
       id="rect16" />
    <rect
       width="4"
       height="4"
       x="8"
       y="8"
       rx="1.3"
       ry="1.3"
       id="rect18" />
    <rect
       width="4"
       height="4"
       x="14"
       y="20"
       rx="1.3"
       ry="1.3"
       id="rect20" />
    <rect
       width="4"
       height="4"
       x="20"
       y="20"
       rx="1.3"
       ry="1.3"
       id="rect22" />
    <rect
       width="4"
       height="4"
       x="8"
       y="20"
       rx="1.3"
       ry="1.3"
       id="rect24" />
  </g>
  <g
     id="g46">
    <rect
       style="fill:#ffffff"
       width="4"
       height="4"
       x="14"
       y="14"
       rx="1.3"
       ry="1.3"
       id="rect28" />
    <rect
       style="fill:#ffffff"
       width="4"
       height="4"
       x="20"
       y="14"
       rx="1.3"
       ry="1.3"
       id="rect30" />
    <rect
       style="fill:#ffffff"
       width="4"
       height="4"
       x="8"
       y="14"
       rx="1.3"
       ry="1.3"
       id="rect32" />
    <rect
       style="fill:#ffffff"
       width="4"
       height="4"
       x="14"
       y="8"
       rx="1.3"
       ry="1.3"
       id="rect34" />
    <rect
       style="fill:#ffffff"
       width="4"
       height="4"
       x="20"
       y="8"
       rx="1.3"
       ry="1.3"
       id="rect36" />
    <rect
       style="fill:#ffffff"
       width="4"
       height="4"
       x="8"
       y="8"
       rx="1.3"
       ry="1.3"
       id="rect38" />
    <rect
       style="fill:#ffffff"
       width="4"
       height="4"
       x="14"
       y="20"
       rx="1.3"
       ry="1.3"
       id="rect40" />
    <rect
       style="fill:#ffffff"
       width="4"
       height="4"
       x="20"
       y="20"
       rx="1.3"
       ry="1.3"
       id="rect42" />
    <rect
       style="fill:#ffffff"
       width="4"
       height="4"
       x="8"
       y="20"
       rx="1.3"
       ry="1.3"
       id="rect44" />
  </g>
</svg>
