<?xml version="1.0" encoding="UTF-8" standalone="no"?>
<svg
   width="32"
   height="32"
   version="1"
   id="svg30"
   sodipodi:docname="cinnamon-virtual-keyboard.svg"
   inkscape:version="1.1.1 (3bf5ae0d25, 2021-09-20)"
   xmlns:inkscape="http://www.inkscape.org/namespaces/inkscape"
   xmlns:sodipodi="http://sodipodi.sourceforge.net/DTD/sodipodi-0.dtd"
   xmlns="http://www.w3.org/2000/svg"
   xmlns:svg="http://www.w3.org/2000/svg">
  <defs
     id="defs34" />
  <sodipodi:namedview
     id="namedview32"
     pagecolor="#505050"
     bordercolor="#ffffff"
     borderopacity="1"
     inkscape:pageshadow="0"
     inkscape:pageopacity="0"
     inkscape:pagecheckerboard="1"
     showgrid="false"
     inkscape:zoom="23.03125"
     inkscape:cx="16"
     inkscape:cy="15.97829"
     inkscape:current-layer="svg30" />
  <rect
     style="opacity:0.2"
     width="29"
     height="20"
     x="2"
     y="6"
     rx="1.45"
     ry="1.45"
     id="rect2" />
  <rect
     style="fill:#37474f"
     width="29"
     height="20"
     x="2"
     y="5"
     rx="1.45"
     ry="1.45"
     id="rect4" />
  <path
     style="opacity:0.1"
     d="M 5.75,9 C 5.3345,9 5,9.3345 5,9.75 v 1.5 C 5,11.6655 5.3345,12 5.75,12 h 1.5 C 7.6655,12 8,11.6655 8,11.25 V 9.75 C 8,9.3345 7.6655,9 7.25,9 Z m 5,0 C 10.3345,9 10,9.3345 10,9.75 v 1.5 c 0,0.4155 0.3345,0.75 0.75,0.75 h 1.5 C 12.6655,12 13,11.6655 13,11.25 V 9.75 C 13,9.3345 12.6655,9 12.25,9 Z m 5,0 C 15.3345,9 15,9.3345 15,9.75 v 1.5 c 0,0.4155 0.3345,0.75 0.75,0.75 h 1.5 C 17.6655,12 18,11.6655 18,11.25 V 9.75 C 18,9.3345 17.6655,9 17.25,9 Z m 5,0 C 20.3345,9 20,9.3345 20,9.75 v 1.5 c 0,0.4155 0.3345,0.75 0.75,0.75 h 1.5 C 22.6655,12 23,11.6655 23,11.25 V 9.75 C 23,9.3345 22.6655,9 22.25,9 Z m 5,0 C 25.3345,9 25,9.3345 25,9.75 v 1.5 c 0,0.4155 0.3345,0.75 0.75,0.75 h 1.5 C 27.6655,12 28,11.6655 28,11.25 V 9.75 C 28,9.3345 27.6655,9 27.25,9 Z m -17,6 C 8.3345,15 8,15.3345 8,15.75 v 1.5 C 8,17.6655 8.3345,18 8.75,18 h 1.5 C 10.6655,18 11,17.6655 11,17.25 v -1.5 C 11,15.3345 10.6655,15 10.25,15 Z m 5,0 C 13.3345,15 13,15.3345 13,15.75 v 1.5 c 0,0.4155 0.3345,0.75 0.75,0.75 h 1.5 C 15.6655,18 16,17.6655 16,17.25 v -1.5 C 16,15.3345 15.6655,15 15.25,15 Z m 5,0 C 18.3345,15 18,15.3345 18,15.75 v 1.5 c 0,0.4155 0.3345,0.75 0.75,0.75 h 1.5 C 20.6655,18 21,17.6655 21,17.25 v -1.5 C 21,15.3345 20.6655,15 20.25,15 Z m 5,0 C 23.3345,15 23,15.3345 23,15.75 v 1.5 c 0,0.4155 0.3345,0.75 0.75,0.75 h 1.5 C 25.6655,18 26,17.6655 26,17.25 v -1.5 C 26,15.3345 25.6655,15 25.25,15 Z m -16,6 C 7.3345,21 7,21.3345 7,21.75 v 1.5 C 7,23.6655 7.3345,24 7.75,24 h 18.5 C 26.6655,24 27,23.6655 27,23.25 v -1.5 C 27,21.3345 26.6655,21 26.25,21 Z"
     id="path6" />
  <rect
     style="fill:#78909c"
     width="3"
     height="3"
     x="5"
     y="8"
     rx=".75"
     ry=".75"
     id="rect8" />
  <rect
     style="fill:#78909c"
     width="3"
     height="3"
     x="10"
     y="8"
     rx=".75"
     ry=".75"
     id="rect10" />
  <rect
     style="fill:#78909c"
     width="3"
     height="3"
     x="15"
     y="8"
     rx=".75"
     ry=".75"
     id="rect12" />
  <rect
     style="fill:#78909c"
     width="3"
     height="3"
     x="8"
     y="14"
     rx=".75"
     ry=".75"
     id="rect14" />
  <rect
     style="fill:#78909c"
     width="3"
     height="3"
     x="13"
     y="14"
     rx=".75"
     ry=".75"
     id="rect16" />
  <rect
     style="fill:#78909c"
     width="3"
     height="3"
     x="18"
     y="14"
     rx=".75"
     ry=".75"
     id="rect18" />
  <rect
     style="fill:#78909c"
     width="3"
     height="3"
     x="23"
     y="14"
     rx=".75"
     ry=".75"
     id="rect20" />
  <rect
     style="fill:#78909c"
     width="20"
     height="3"
     x="7"
     y="20"
     rx=".75"
     ry=".75"
     id="rect22" />
  <rect
     style="fill:#78909c"
     width="3"
     height="3"
     x="20"
     y="8"
     rx=".75"
     ry=".75"
     id="rect24" />
  <rect
     style="fill:#78909c"
     width="3"
     height="3"
     x="25"
     y="8"
     rx=".75"
     ry=".75"
     id="rect26" />
  <path
     style="fill:#ffffff;opacity:0.2"
     d="M 3.4492188 5 C 2.6459188 5 2 5.6459187 2 6.4492188 L 2 7.4492188 C 2 6.6459187 2.6459188 6 3.4492188 6 L 29.550781 6 C 30.354081 6 31 6.6459187 31 7.4492188 L 31 6.4492188 C 31 5.6459187 30.354081 5 29.550781 5 L 3.4492188 5 z"
     id="path28" />
</svg>
