<?xml version="1.0" encoding="UTF-8" standalone="no"?>
<svg
   width="32"
   height="32"
   version="1"
   id="svg30"
   sodipodi:docname="cs-applets.svg"
   inkscape:version="1.1.1 (3bf5ae0d25, 2021-09-20)"
   xmlns:inkscape="http://www.inkscape.org/namespaces/inkscape"
   xmlns:sodipodi="http://sodipodi.sourceforge.net/DTD/sodipodi-0.dtd"
   xmlns="http://www.w3.org/2000/svg"
   xmlns:svg="http://www.w3.org/2000/svg">
  <defs
     id="defs34" />
  <sodipodi:namedview
     id="namedview32"
     pagecolor="#505050"
     bordercolor="#ffffff"
     borderopacity="1"
     inkscape:pageshadow="0"
     inkscape:pageopacity="0"
     inkscape:pagecheckerboard="1"
     showgrid="false"
     inkscape:zoom="23.03125"
     inkscape:cx="16"
     inkscape:cy="15.97829"
     inkscape:current-layer="svg30" />
  <rect
     style="fill:#26a69a"
     width="22"
     height="28"
     x="-27"
     y="-30"
     rx="1.5"
     ry="1.5"
     transform="matrix(0,-1,-1,0,0,0)"
     id="rect2" />
  <rect
     style="opacity:0.2;fill:#000000"
     width="18"
     height="24"
     x="-25"
     y="-28"
     rx="0"
     ry="0"
     transform="matrix(0,-1,-1,0,0,0)"
     id="rect4" />
  <rect
     style="fill:#263238;stroke-width:0.755906;stroke-linecap:round;paint-order:markers fill stroke"
     id="rect1640"
     width="24"
     height="2"
     x="4"
     y="23" />
  <path
     fill="#fff"
     opacity=".1"
     d="m3.5 4.9994c-0.831 0-1.5 0.669-1.5 1.5v1c0-0.831 0.669-1.5 1.5-1.5h25c0.831 0 1.5 0.669 1.5 1.5v-1c0-0.831-0.669-1.5-1.5-1.5h-25z"
     id="path16" />
  <path
     opacity=".2"
     d="m2 25.5v1c0 0.831 0.669 1.5 1.5 1.5h25c0.831 0 1.5-0.669 1.5-1.5v-1c0 0.831-0.669 1.5-1.5 1.5h-25c-0.831 0-1.5-0.669-1.5-1.5z"
     id="path28" />
  <g
     id="g2028"
     transform="translate(1.49999)">
    <g
       opacity="0.2"
       transform="matrix(0.66667,0,0,0.66667,-1.66675,0.99988)"
       id="g14">
      <path
         d="m 26,30 h 4 c 0.554,0 1,0.446 1,1 v 4 c 0,0.554 -0.446,1 -1,1 h -4 c -0.554,0 -1,-0.446 -1,-1 v -4 c 0,-0.554 0.446,-1 1,-1 z"
         id="path10" />
    </g>
    <g
       fill="#ffffff"
       transform="matrix(0.66667,0,0,0.66667,-1.66675,0)"
       id="g26">
      <path
         d="m 26,30 h 4 c 0.554,0 1,0.446 1,1 v 4 c 0,0.554 -0.446,1 -1,1 h -4 c -0.554,0 -1,-0.446 -1,-1 v -4 c 0,-0.554 0.446,-1 1,-1 z"
         id="path22" />
    </g>
    <g
       opacity="0.2"
       transform="matrix(0.66667,0,0,0.66667,-11.66675,0.99988)"
       id="g1822">
      <path
         d="m 26,30 h 4 c 0.554,0 1,0.446 1,1 v 4 c 0,0.554 -0.446,1 -1,1 h -4 c -0.554,0 -1,-0.446 -1,-1 v -4 c 0,-0.554 0.446,-1 1,-1 z"
         id="path1820" />
    </g>
    <g
       fill="#ffffff"
       transform="matrix(0.66667,0,0,0.66667,-11.66675,0)"
       id="g1826">
      <path
         d="m 26,30 h 4 c 0.554,0 1,0.446 1,1 v 4 c 0,0.554 -0.446,1 -1,1 h -4 c -0.554,0 -1,-0.446 -1,-1 v -4 c 0,-0.554 0.446,-1 1,-1 z"
         id="path1824" />
    </g>
    <g
       opacity="0.2"
       transform="matrix(0.66667,0,0,0.66667,-6.66675,0.99988)"
       id="g1830">
      <path
         d="m 26,30 h 4 c 0.554,0 1,0.446 1,1 v 4 c 0,0.554 -0.446,1 -1,1 h -4 c -0.554,0 -1,-0.446 -1,-1 v -4 c 0,-0.554 0.446,-1 1,-1 z"
         id="path1828" />
    </g>
    <g
       fill="#ffffff"
       transform="matrix(0.66667,0,0,0.66667,-6.66675,0)"
       id="g1834">
      <path
         d="m 26,30 h 4 c 0.554,0 1,0.446 1,1 v 4 c 0,0.554 -0.446,1 -1,1 h -4 c -0.554,0 -1,-0.446 -1,-1 v -4 c 0,-0.554 0.446,-1 1,-1 z"
         id="path1832" />
    </g>
    <g
       opacity="0.2"
       transform="matrix(0.66667,0,0,0.66667,3.33325,0.99988)"
       id="g1838">
      <path
         d="m 26,30 h 4 c 0.554,0 1,0.446 1,1 v 4 c 0,0.554 -0.446,1 -1,1 h -4 c -0.554,0 -1,-0.446 -1,-1 v -4 c 0,-0.554 0.446,-1 1,-1 z"
         id="path1836" />
    </g>
    <g
       fill="#ffffff"
       transform="matrix(0.66667,0,0,0.66667,3.33325,0)"
       id="g1842">
      <path
         d="m 26,30 h 4 c 0.554,0 1,0.446 1,1 v 4 c 0,0.554 -0.446,1 -1,1 h -4 c -0.554,0 -1,-0.446 -1,-1 v -4 c 0,-0.554 0.446,-1 1,-1 z"
         id="path1840" />
    </g>
  </g>
</svg>
