<?xml version="1.0" encoding="UTF-8" standalone="no"?>
<svg
   width="32"
   height="32"
   version="1.1"
   id="svg20"
   sodipodi:docname="cs-color.svg"
   inkscape:version="1.1.1 (3bf5ae0d25, 2021-09-20)"
   xmlns:inkscape="http://www.inkscape.org/namespaces/inkscape"
   xmlns:sodipodi="http://sodipodi.sourceforge.net/DTD/sodipodi-0.dtd"
   xmlns="http://www.w3.org/2000/svg"
   xmlns:svg="http://www.w3.org/2000/svg">
  <defs
     id="defs24" />
  <sodipodi:namedview
     id="namedview22"
     pagecolor="#505050"
     bordercolor="#ffffff"
     borderopacity="1"
     inkscape:pageshadow="0"
     inkscape:pageopacity="0"
     inkscape:pagecheckerboard="1"
     showgrid="false"
     inkscape:zoom="23.03125"
     inkscape:cx="16"
     inkscape:cy="16"
     inkscape:current-layer="svg20" />
  <circle
     cx="20.5"
     cy="11.5"
     r="8.5"
     style="opacity:0.2"
     id="circle2" />
  <circle
     cx="20.5"
     cy="10.5"
     r="8.5"
     style="fill:#ff1744"
     id="circle4" />
  <circle
     cx="10.5"
     cy="16.5"
     r="8.5"
     style="opacity:0.2"
     id="circle6" />
  <path
     d="M 20.5,2 A 8.5,8.5 0 0 0 12,10.5 8.5,8.5 0 0 0 12.021484,11.085938 8.5,8.5 0 0 1 20.5,3 8.5,8.5 0 0 1 28.978516,10.914062 8.5,8.5 0 0 0 29,10.5 8.5,8.5 0 0 0 20.5,2 Z"
     style="opacity:0.2;fill:#ffffff"
     id="path8" />
  <circle
     cx="10.5"
     cy="15.5"
     r="8.5"
     style="fill:#64dd17"
     id="circle10" />
  <circle
     cx="20.5"
     cy="22.5"
     r="8.5"
     style="opacity:0.2"
     id="circle12" />
  <path
     d="M 10.5,7 A 8.5,8.5 0 0 0 2,15.5 8.5,8.5 0 0 0 2.0214844,16.085938 8.5,8.5 0 0 1 10.5,8 8.5,8.5 0 0 1 18.978516,15.914062 8.5,8.5 0 0 0 19,15.5 8.5,8.5 0 0 0 10.5,7 Z"
     style="opacity:0.2;fill:#ffffff"
     id="path14" />
  <circle
     cx="20.5"
     cy="21.5"
     r="8.5"
     style="fill:#2962ff"
     id="circle16" />
  <path
     d="M 20.5,13 A 8.5,8.5 0 0 0 12,21.5 8.5,8.5 0 0 0 12.021484,22.085938 8.5,8.5 0 0 1 20.5,14 8.5,8.5 0 0 1 28.978516,21.914062 8.5,8.5 0 0 0 29,21.5 8.5,8.5 0 0 0 20.5,13 Z"
     style="opacity:0.2;fill:#ffffff"
     id="path18" />
  <path
     id="circle869"
     style="fill:#00e5ff"
     d="M 18.685547 13.216797 A 8.5 8.5 0 0 0 12 21.5 A 8.5 8.5 0 0 0 12.318359 23.78125 A 8.5 8.5 0 0 0 19 15.5 A 8.5 8.5 0 0 0 18.685547 13.216797 z " />
  <path
     id="circle874"
     style="fill:#ff4081"
     d="M 20.5 13 A 8.5 8.5 0 0 0 14.027344 16 A 8.5 8.5 0 0 0 20.5 19 A 8.5 8.5 0 0 0 26.976562 15.998047 A 8.5 8.5 0 0 0 20.5 13 z " />
  <path
     id="circle879"
     style="fill:#ffff00"
     d="M 12.652344 7.2773438 A 8.5 8.5 0 0 0 12 10.5 A 8.5 8.5 0 0 0 18.351562 18.708984 A 8.5 8.5 0 0 0 19 15.5 A 8.5 8.5 0 0 0 12.652344 7.2773438 z " />
  <path
     id="path1280"
     style="fill:#ffffff"
     d="M 18.675781 13.21875 A 8.5 8.5 0 0 0 14.214844 15.802734 A 8.5 8.5 0 0 0 14.160156 15.861328 A 8.5 8.5 0 0 0 14.048828 15.998047 A 8.5 8.5 0 0 0 14.275391 16.261719 A 8.5 8.5 0 0 0 14.472656 16.470703 A 8.5 8.5 0 0 0 14.990234 16.949219 A 8.5 8.5 0 0 0 15.121094 17.060547 A 8.5 8.5 0 0 0 15.763672 17.537109 A 8.5 8.5 0 0 0 15.849609 17.597656 A 8.5 8.5 0 0 0 16.580078 18.025391 A 8.5 8.5 0 0 0 16.640625 18.058594 A 8.5 8.5 0 0 0 18.351562 18.708984 A 8.5 8.5 0 0 0 18.628906 17.933594 A 8.5 8.5 0 0 0 18.830078 17.142578 A 8.5 8.5 0 0 0 18.832031 17.136719 A 8.5 8.5 0 0 0 18.84375 17.058594 A 8.5 8.5 0 0 0 18.955078 16.328125 A 8.5 8.5 0 0 0 18.955078 16.322266 A 8.5 8.5 0 0 0 19 15.5 A 8.5 8.5 0 0 0 18.953125 14.648438 A 8.5 8.5 0 0 0 18.910156 14.337891 A 8.5 8.5 0 0 0 18.822266 13.810547 A 8.5 8.5 0 0 0 18.738281 13.443359 A 8.5 8.5 0 0 0 18.675781 13.21875 z " />
</svg>
