<?xml version="1.0" encoding="UTF-8" standalone="no"?>
<svg
   width="32"
   height="32"
   version="1"
   id="svg30"
   sodipodi:docname="cs-login.svg"
   inkscape:version="1.1.1 (3bf5ae0d25, 2021-09-20)"
   xmlns:inkscape="http://www.inkscape.org/namespaces/inkscape"
   xmlns:sodipodi="http://sodipodi.sourceforge.net/DTD/sodipodi-0.dtd"
   xmlns="http://www.w3.org/2000/svg"
   xmlns:svg="http://www.w3.org/2000/svg">
  <defs
     id="defs34" />
  <sodipodi:namedview
     id="namedview32"
     pagecolor="#505050"
     bordercolor="#ffffff"
     borderopacity="1"
     inkscape:pageshadow="0"
     inkscape:pageopacity="0"
     inkscape:pagecheckerboard="1"
     showgrid="false"
     inkscape:zoom="23.03125"
     inkscape:cx="16"
     inkscape:cy="15.97829"
     inkscape:current-layer="svg30" />
  <rect
     fill="#4f4f4f"
     width="23"
     height="28"
     x="-28"
     y="-30"
     rx="1.438"
     ry="1.4"
     transform="matrix(0,-1,-1,0,0,0)"
     id="rect2"
     style="fill:#455a64" />
  <g
     opacity="0.2"
     transform="translate(0,4)"
     id="g8">
    <rect
       width="20"
       height="5"
       x="6"
       y="18"
       rx="1.3329999"
       ry="1.25"
       id="rect6" />
  </g>
  <rect
     fill="#ffffff"
     width="20"
     height="5"
     x="6"
     y="21"
     rx="1.3329999"
     ry="1.25"
     id="rect12" />
  <path
     fill="#fff"
     opacity=".1"
     d="m3.4004 5c-0.7756 0-1.4004 0.6411-1.4004 1.4375v1c0-0.7964 0.6248-1.4375 1.4004-1.4375h25.2c0.775 0 1.4 0.6411 1.4 1.4375v-1c0-0.7964-0.625-1.4375-1.4-1.4375h-25.2z"
     id="path14" />
  <path
     opacity=".2"
     d="m2 26.562v1c0 0.797 0.6248 1.438 1.4004 1.438h25.2c0.775 0 1.4-0.641 1.4-1.438v-1c0 0.797-0.625 1.438-1.4 1.438h-25.2c-0.7752 0-1.4-0.641-1.4-1.438z"
     id="path16" />
  <circle
     fill="#ff4f4f"
     cx="8.5"
     cy="23.5"
     r="1.5"
     id="circle20"
     style="fill:#1a1a1a" />
  <circle
     fill="#ff4f4f"
     cx="13.5"
     cy="23.5"
     r="1.5"
     id="circle24"
     style="fill:#1a1a1a" />
  <circle
     fill="#ff4f4f"
     cx="18.5"
     cy="23.5"
     r="1.5"
     id="circle28"
     style="fill:#1a1a1a" />
  <g
     id="g1462"
     transform="translate(0,2)">
    <ellipse
       style="opacity:0.2;fill:#00100f;stroke-width:0.5"
       cx="16"
       cy="11.5"
       id="circle2"
       rx="6.9999995"
       ry="7" />
    <ellipse
       style="fill:#009688;stroke-width:0.5"
       cx="16"
       cy="11"
       id="circle4"
       rx="6.9999995"
       ry="7" />
    <g
       style="opacity:0.2"
       transform="matrix(0.49999998,0,0,0.49999998,8.0000003,3.500001)"
       id="g10">
      <path
         d="m 16,6 c -2.2096,0 -4,1.7912 -4,4 0,2.2088 1.7904,4 4,4 2.2096,0 4,-1.7912 4,-4 0,-2.2088 -1.7904,-4 -4,-4 z"
         id="path6" />
      <path
         d="m 16,16.000001 c -6.9993,0.0042 -7,4.430769 -7,4.430769 v 1.8 c 0,0 1.292299,2.76923 7,2.76923 5.707701,0 7,-2.76923 7,-2.76923 v -1.8 c 0,0 0,-4.433538 -6.9986,-4.430769 z"
         id="path8" />
    </g>
    <g
       id="g16"
       transform="matrix(0.49999998,0,0,0.49999998,8.0000003,3.000001)">
      <path
         style="fill:#ffffff"
         d="m 16,6 c -2.2096,0 -4,1.7912 -4,4 0,2.2088 1.7904,4 4,4 2.2096,0 4,-1.7912 4,-4 0,-2.2088 -1.7904,-4 -4,-4 z"
         id="path12" />
      <path
         style="fill:#ffffff"
         d="m 16,16.000001 c -6.9993,0.0042 -7,4.430769 -7,4.430769 v 1.8 c 0,0 1.292299,2.76923 7,2.76923 5.707701,0 7,-2.76923 7,-2.76923 v -1.8 c 0,0 0,-4.433538 -6.9986,-4.430769 z"
         id="path14-3" />
    </g>
    <path
       style="opacity:0.2;fill:#ffffff;stroke-width:0.5"
       d="M 16.000001,4.000001 A 6.9999998,6.9999998 0 0 0 9.0000012,11 6.9999998,6.9999998 0 0 0 9.0107432,11.292969 6.9999998,6.9999998 0 0 1 16.000001,4.500001 6.9999998,6.9999998 0 0 1 22.989259,11.207031 6.9999998,6.9999998 0 0 0 22.999999,11 a 6.9999998,6.9999998 0 0 0 -7,-6.999999 z"
       id="path18" />
  </g>
</svg>
