<?xml version="1.0" encoding="UTF-8" standalone="no"?>
<svg
   width="32"
   height="32"
   version="1"
   id="svg12"
   sodipodi:docname="preferences-desktop-gestures-screenedges.svg"
   inkscape:version="1.1.1 (3bf5ae0d25, 2021-09-20)"
   xmlns:inkscape="http://www.inkscape.org/namespaces/inkscape"
   xmlns:sodipodi="http://sodipodi.sourceforge.net/DTD/sodipodi-0.dtd"
   xmlns="http://www.w3.org/2000/svg"
   xmlns:svg="http://www.w3.org/2000/svg">
  <defs
     id="defs16">
    <clipPath
       clipPathUnits="userSpaceOnUse"
       id="clipPath1821">
      <path
         fill="#1e88e5"
         d="M 3.4,5 C 3.4,5 2,5 2,6.375 v 19.25 C 2,26.387 2.6244,27 3.4,27 H 28.6 C 29.376,27 30,26.387 30,25.625 V 6.375 C 30,5.6132 29.376,5 28.6,5 Z"
         id="path1823"
         style="fill:#009688" />
    </clipPath>
  </defs>
  <sodipodi:namedview
     id="namedview14"
     pagecolor="#505050"
     bordercolor="#ffffff"
     borderopacity="1"
     inkscape:pageshadow="0"
     inkscape:pageopacity="0"
     inkscape:pagecheckerboard="1"
     showgrid="false"
     inkscape:zoom="16"
     inkscape:cx="12.65625"
     inkscape:cy="8.0625"
     inkscape:current-layer="svg12" />
  <path
     fill="#1e88e5"
     d="m3.4 5s-1.4 0-1.4 1.375v19.25c0 0.762 0.6244 1.375 1.4 1.375h25.2c0.776 0 1.4-0.613 1.4-1.375v-19.25c0-0.7618-0.624-1.375-1.4-1.375h-25.2z"
     id="path2"
     style="fill:#009688" />
  <path
     fill="#fff"
     fill-rule="evenodd"
     opacity=".4"
     d="m30 20.126c-1.8449-0.03376-3.6258 0.67559-4.9424 1.9685-1.317 1.294-2.058 3.061-2.058 4.906h5.6c0.09915 0 0.216-0.02252 0.32949-0.04163 0.615-0.145 1.071-0.683 1.071-1.333v-5.4987z"
     id="path4" />
  <path
     fill="#fff"
     opacity=".1"
     d="m3.4004 5s-1.4004 0-1.4004 1.375v1c0-1.375 1.4004-1.375 1.4004-1.375h25.2c0.775 0 1.4 0.6132 1.4 1.375v-1c0-0.7618-0.625-1.375-1.4-1.375h-25.2z"
     id="path8" />
  <path
     opacity=".2"
     d="m2 25.625v1c0 0.762 0.6248 1.375 1.4004 1.375h25.2c0.775 0 1.4-0.613 1.4-1.375v-1c0 0.762-0.625 1.375-1.4 1.375h-25.2c-0.7752 0-1.4-0.613-1.4-1.375z"
     id="path10" />
  <g
     id="g1817"
     clip-path="url(#clipPath1821)">
    <path
       fill="#ffffff"
       fill-rule="evenodd"
       opacity="0.4"
       d="M 2,15.801886 C 4.8991286,15.855314 7.6976858,14.7396 9.7666286,12.708214 11.834942,10.676829 13,7.8993286 13,5.0002 H 4.2 C 4.0441944,5.0002 3.8605714,5.035582 3.68223,5.065616 2.7159586,5.293944 2.0000158,6.1400012 2.0000158,7.1609582 V 15.80193 Z"
       id="path1798"
       style="stroke-width:1.57142" />
    <path
       fill="#ffffff"
       fill-rule="evenodd"
       opacity="0.4"
       d="M 2,13.837943 C 4.3720143,13.881657 6.6617429,12.9688 8.3545143,11.306757 10.046771,9.6447143 11,7.3722143 11,5.0002 H 3.8 C 3.6725227,5.0002 3.5222857,5.029149 3.37637,5.053722 2.5857843,5.240536 2.0000129,5.9327646 2.0000129,6.7680931 v 7.0698859 z"
       id="path1796"
       style="stroke-width:1.28571" />
    <path
       fill="#fff"
       fill-rule="evenodd"
       opacity=".4"
       d="m2 11.874c1.8449 0.034 3.6258-0.676 4.9424-1.9687 1.3162-1.2927 2.0576-3.0602 2.0576-4.9051h-5.6c-0.099149 0-0.216 0.022516-0.32949 0.041628-0.6149 0.1453-1.0705 0.6837-1.0705 1.3334v5.4988z"
       id="path6" />
    <path
       fill="#ffffff"
       fill-rule="evenodd"
       opacity="0.4"
       d="M 2,9.9100572 C 3.3177857,9.9343428 4.5898572,9.4272 5.5302857,8.5038429 6.4704285,7.5804857 7,6.3179857 7,5.0002 H 3 C 2.929179,5.0002 2.8457143,5.016282 2.76465,5.029934 2.3254357,5.1337198 2.0000071,5.5182913 2.0000071,5.9823627 v 3.9277144 z"
       id="path1792"
       style="stroke-width:0.714286" />
    <path
       fill="#ffffff"
       fill-rule="evenodd"
       opacity="0.4"
       d="M 2,7.9461143 C 2.7906715,7.9606856 3.5539144,7.6564 4.1181714,7.1023858 4.6822571,6.5483715 5,5.7908714 5,5.0002 H 2.6 C 2.557508,5.0002 2.507429,5.00984 2.45879,5.018041 2.1952615,5.080312 2.0000042,5.3110553 2.0000042,5.5894982 v 2.3566286 z"
       id="path1794"
       style="stroke-width:0.428571" />
  </g>
</svg>
