<?xml version="1.0" encoding="UTF-8" standalone="no"?>
<svg
   width="32"
   height="32"
   version="1.1"
   id="svg10"
   sodipodi:docname="cs-panel.svg"
   inkscape:version="1.1.1 (3bf5ae0d25, 2021-09-20)"
   xmlns:inkscape="http://www.inkscape.org/namespaces/inkscape"
   xmlns:sodipodi="http://sodipodi.sourceforge.net/DTD/sodipodi-0.dtd"
   xmlns="http://www.w3.org/2000/svg"
   xmlns:svg="http://www.w3.org/2000/svg">
  <defs
     id="defs14" />
  <sodipodi:namedview
     id="namedview12"
     pagecolor="#505050"
     bordercolor="#ffffff"
     borderopacity="1"
     inkscape:pageshadow="0"
     inkscape:pageopacity="0"
     inkscape:pagecheckerboard="1"
     showgrid="false"
     inkscape:zoom="23.03125"
     inkscape:cx="16"
     inkscape:cy="15.97829"
     inkscape:current-layer="svg10" />
  <path
     fill="#1e88e5"
     d="m3.4004 4c-0.7756 0-1.4004 0.6192-1.4004 1.3887v20.612h28v-20.611c0-0.7695-0.625-1.3887-1.4-1.3887h-25.2z"
     id="path2"
     style="fill:#00897b" />
  <path
     fill="#253951"
     d="m3.4 29c-0.7756 0-1.4-0.619-1.4-1.389v-1.611h28v1.6111c0 0.77-0.624 1.389-1.4 1.389z"
     id="path4"
     style="fill:#263238" />
  <path
     fill="#fff"
     opacity=".1"
     d="m3.4004 4c-0.7756 0-1.4004 0.6192-1.4004 1.3887v1c0-0.7695 0.6248-1.3887 1.4004-1.3887h25.2c0.775 0 1.4 0.6192 1.4 1.3887v-1c0-0.7695-0.625-1.3887-1.4-1.3887h-25.2z"
     id="path6" />
  <path
     opacity=".2"
     d="m2 27.611v1c0 0.77 0.6248 1.389 1.4004 1.389h25.2c0.775 0 1.4-0.619 1.4-1.389v-1c0 0.77-0.625 1.389-1.4 1.389h-25.2c-0.7752 0-1.4-0.619-1.4-1.389z"
     id="path8" />
</svg>
