<?xml version="1.0" encoding="UTF-8" standalone="no"?>
<svg
   width="32"
   height="32"
   version="1.1"
   id="svg40"
   sodipodi:docname="distributor-logo-raspbian.svg"
   inkscape:version="1.1.1 (3bf5ae0d25, 2021-09-20)"
   xmlns:inkscape="http://www.inkscape.org/namespaces/inkscape"
   xmlns:sodipodi="http://sodipodi.sourceforge.net/DTD/sodipodi-0.dtd"
   xmlns="http://www.w3.org/2000/svg"
   xmlns:svg="http://www.w3.org/2000/svg">
  <defs
     id="defs44" />
  <sodipodi:namedview
     id="namedview42"
     pagecolor="#505050"
     bordercolor="#ffffff"
     borderopacity="1"
     inkscape:pageshadow="0"
     inkscape:pageopacity="0"
     inkscape:pagecheckerboard="1"
     showgrid="false"
     inkscape:zoom="23.03125"
     inkscape:cx="16"
     inkscape:cy="15.97829"
     inkscape:current-layer="g34" />
  <path
     style="opacity:0.2"
     d="M 11.907408,2 C 8.5453458,2 5.7253976,3.100659 5.7253974,6.4806327 c -1e-7,1.5755946 0.5968376,3.1859711 1.5697446,4.4607743 0.3824577,0.400733 0.3589941,0.649805 0.2417157,1.116257 -0.2083829,0.762207 -0.5169078,1.671756 -0.7996281,2.340311 -1.9587488,1.901822 -2.3878482,5.270403 -0.6323953,7.454954 0.6929256,1.123087 0.4463979,2.76026 1.3870526,3.87357 0.9380298,1.331097 2.3610096,2.49516 4.0248421,2.632496 C 12.660316,29.960269 14.567606,30.953477 16.5,31 c 1.932394,-0.04652 3.839683,-1.039731 4.983271,-2.641005 1.663832,-0.137336 3.086812,-1.301399 4.024842,-2.632496 0.940655,-1.11331 0.694126,-2.750483 1.387053,-3.87357 1.755453,-2.184551 1.326353,-5.553132 -0.632396,-7.454954 C 25.98005,13.72942 25.671524,12.819871 25.463142,12.057664 25.345863,11.591212 25.322399,11.34214 25.704858,10.941407 26.677765,9.6666038 27.274602,8.0562273 27.274602,6.4806327 27.274602,3.100659 24.454654,2 21.092591,2 19.824443,2 17.9375,3.1573902 16.5,3.1573902 15.0625,3.1573902 13.175556,2 11.907408,2 Z"
     id="path2" />
  <path
     style="fill:#3f3f3f"
     d="M 11.907408,1 C 8.5453458,1 5.7253976,2.100659 5.7253974,5.4806327 c -1e-7,1.5755946 0.5968376,3.1859711 1.5697446,4.4607742 0.3824577,0.4007331 0.3589941,0.6498051 0.2417157,1.1162571 -0.2083829,0.762207 -0.5169078,1.671756 -0.7996281,2.340311 -1.9587488,1.901822 -2.3878482,5.270403 -0.6323953,7.454954 0.6929256,1.123087 0.4463979,2.76026 1.3870526,3.87357 0.9380298,1.331097 2.3610096,2.49516 4.0248421,2.632496 C 12.660316,28.960269 14.567606,29.953477 16.5,30 c 1.932394,-0.04652 3.839683,-1.039731 4.983271,-2.641005 1.663832,-0.137336 3.086812,-1.301399 4.024842,-2.632496 0.940655,-1.11331 0.694126,-2.750483 1.387053,-3.87357 1.755453,-2.184551 1.326353,-5.553132 -0.632396,-7.454954 C 25.98005,12.72942 25.671524,11.819871 25.463142,11.057664 25.345863,10.591212 25.322399,10.34214 25.704858,9.9414069 26.677765,8.6666038 27.274602,7.0562273 27.274602,5.4806327 27.274602,2.100659 24.454654,1 21.092591,1 19.824443,1 17.9375,2.1573902 16.5,2.1573902 15.0625,2.1573902 13.175556,1 11.907408,1 Z"
     id="path4" />
  <g
     transform="matrix(0.03346795,0,0,0.03405742,7.0187222,3.3262269)"
     id="g34">
    <path
       style="fill:#8bc34a"
       d="m 107.39184,68.055583 c 67.94767,35.031357 107.44689,63.368967 129.08717,87.504467 -11.08235,44.41759 -68.89638,46.44464 -90.03559,45.19858 4.32842,-2.01474 7.93988,-4.42778 9.22051,-8.13574 -5.30449,-3.76981 -24.11289,-0.39719 -37.24363,-7.77416 5.04407,-1.04499 7.40348,-2.06302 9.76289,-5.78542 -12.40571,-3.9567 -25.76862,-7.36642 -33.627746,-13.92116 4.241253,0.0524 8.201156,0.9488 13.740366,-2.89271 -11.111694,-5.98819 -22.969108,-10.73351 -32.18139,-19.88738 5.745213,-0.14063 11.939452,-0.0568 13.740371,-2.16953 -10.17044,-6.30068 -18.751242,-13.30787 -25.853592,-20.97215 8.039979,0.97052 11.435284,0.13478 13.378782,-1.26556 -7.687795,-7.87419 -17.417559,-14.52319 -22.056911,-24.22644 5.969606,2.057484 11.431249,2.84506 15.36752,-0.180795 -2.612365,-5.893453 -13.805413,-9.369618 -20.248967,-23.141676 6.284359,0.609377 12.949606,1.371108 14.282753,0 C 61.802068,58.517346 56.796919,51.835885 51.887978,44.913906 65.338021,44.714177 85.715734,44.966253 84.792549,43.82914 l -8.31654,-8.497335 c 13.137617,-3.537241 26.580651,0.568164 36.339661,3.615887 4.38186,-3.457681 -0.0776,-7.82998 -5.42383,-12.294015 11.16496,1.490646 21.25382,4.057389 30.37345,7.593362 4.87238,-4.399329 -3.16389,-8.798658 -7.05098,-13.197987 17.24936,3.272568 24.55716,7.87068 31.81981,12.47481 5.26935,-5.050799 0.30166,-9.343299 -3.2543,-13.740371 13.00566,4.817048 19.70478,11.035551 26.75756,17.175463 2.39119,-3.227053 6.07494,-5.592408 1.62715,-13.378781 9.23416,5.322725 16.18926,11.59506 21.33374,18.621817 5.71336,-3.637941 3.40387,-8.613023 3.43509,-13.197987 9.59665,7.806516 15.68687,16.11395 23.14168,24.226443 1.50169,-1.093437 2.81661,-4.80171 3.97747,-10.666867 22.89539,22.211815 55.24591,78.158241 8.31654,100.340861 C 207.95028,109.95728 160.25292,86.016909 107.39184,68.055583 Z"
       id="path8" />
    <path
       style="fill:#8bc34a"
       d="M 467.92487,68.055583 C 399.9772,103.08694 360.47798,131.42455 338.8377,155.56005 c 11.08235,44.41759 68.89638,46.44464 90.03559,45.19858 -4.32842,-2.01474 -7.93988,-4.42778 -9.22051,-8.13574 5.30449,-3.76981 24.11289,-0.39719 37.24363,-7.77416 -5.04407,-1.04499 -7.40348,-2.06302 -9.76289,-5.78542 12.40571,-3.9567 25.76862,-7.36642 33.62775,-13.92116 -4.24126,0.0524 -8.20116,0.9488 -13.74037,-2.89271 11.11169,-5.98819 22.96911,-10.73351 32.18139,-19.88738 -5.74521,-0.14063 -11.93945,-0.0568 -13.74037,-2.16953 10.17044,-6.30068 18.75124,-13.30787 25.85359,-20.97215 -8.03998,0.97052 -11.43528,0.13478 -13.37878,-1.26556 7.68779,-7.87419 17.41756,-14.52319 22.05691,-24.22644 -5.96961,2.057484 -11.43125,2.84506 -15.36752,-0.180795 2.61237,-5.893453 13.80541,-9.369618 20.24897,-23.141676 -6.28436,0.609377 -12.94961,1.371108 -14.28276,0 2.92231,-11.888563 7.92746,-18.570024 12.8364,-25.492003 -13.45004,-0.199729 -33.82775,0.05235 -32.90457,-1.084766 l 8.31654,-8.497335 c -13.13762,-3.537241 -26.58065,0.568164 -36.33966,3.615887 -4.38186,-3.457681 0.0776,-7.82998 5.42383,-12.294015 -11.16496,1.490646 -21.25382,4.057389 -30.37345,7.593362 -4.87238,-4.399329 3.16389,-8.798658 7.05098,-13.197987 -17.24936,3.272568 -24.55716,7.87068 -31.81981,12.47481 -5.26935,-5.050799 -0.30166,-9.343299 3.2543,-13.740371 -13.00566,4.817048 -19.70478,11.035551 -26.75756,17.175463 -2.39119,-3.227053 -6.07494,-5.592408 -1.62715,-13.378781 -9.23416,5.322725 -16.18926,11.59506 -21.33374,18.621817 -5.71336,-3.637941 -3.40387,-8.613023 -3.43509,-13.197987 -9.59665,7.806516 -15.68687,16.11395 -23.14168,24.226443 -1.50169,-1.093437 -2.81661,-4.80171 -3.97747,-10.666867 -22.89539,22.211815 -55.24591,78.158241 -8.31654,100.340861 39.91877,-32.94716 87.61613,-56.887531 140.47721,-74.848857 z"
       id="path10" />
    <path
       style="fill:#d81b60"
       transform="matrix(1.131107,0,0,1.1280497,-43.139135,-68.310983)"
       d="m 365.2046,521.84937 a 71.956155,66.532319 0 1 1 -143.91231,0 71.956155,66.532319 0 1 1 143.91231,0 z"
       id="path12" />
    <path
       style="fill:#d81b60"
       transform="matrix(0.76741684,-1.1613112,2.171115,1.4224368,-560.88858,217.68859)"
       d="m 262.84091,276.64774 a 61.875,28.125 0 1 1 -123.75,0 61.875,28.125 0 1 1 123.75,0 z"
       id="path14" />
    <path
       style="fill:#d81b60"
       transform="matrix(-0.76741684,-1.1613112,-2.171115,1.4224368,1134.8288,213.68859)"
       d="m 262.84091,276.64774 a 61.875,28.125 0 1 1 -123.75,0 61.875,28.125 0 1 1 123.75,0 z"
       id="path16" />
    <path
       style="fill:#d81b60"
       d="M 72.910253,342.0878 C 109.32447,332.33088 85.201845,492.72431 55.576871,479.56357 22.990103,453.35089 12.493801,376.58814 72.910253,342.0878 Z"
       id="path18" />
    <path
       style="fill:#d81b60"
       d="m 493.67828,340.0878 c -36.41422,-9.75692 -12.2916,150.63651 17.33338,137.47577 32.58677,-26.21268 43.08307,-102.97543 -17.33338,-137.47577 z"
       id="path20" />
    <path
       style="fill:#d81b60"
       d="m 369.97158,220.6534 c 62.83486,-10.61013 115.11594,26.72229 113.01138,94.85796 -2.06693,26.12112 -136.15872,-90.96907 -113.01138,-94.85796 z"
       id="path22" />
    <path
       style="fill:#d81b60"
       d="M 196.35975,218.6534 C 133.52489,208.04327 81.24381,245.37569 83.34837,313.51136 85.4153,339.63248 219.50709,222.54229 196.35975,218.6534 Z"
       id="path24" />
    <path
       style="fill:#d81b60"
       d="m 286.61932,202.75568 c -37.50259,-0.97548 -73.49548,27.83418 -73.58158,44.54443 -0.10462,20.30426 29.6512,41.09266 73.83726,41.62035 45.12305,0.32321 73.91561,-16.64049 74.0611,-37.59409 0.16484,-23.73996 -41.03879,-48.93744 -74.31678,-48.57069 z"
       id="path26" />
    <path
       style="fill:#d81b60"
       d="m 288.90937,619.11675 c 32.69744,-1.42711 76.57083,10.53196 76.6568,26.39598 0.5427,15.4052 -39.78969,50.21055 -78.82634,49.53765 -40.42729,1.74391 -80.06908,-33.11559 -79.54951,-45.19859 -0.60506,-17.71593 49.226,-31.54796 81.71905,-30.73504 z"
       id="path28" />
    <path
       style="fill:#d81b60"
       d="m 168.13874,525.10369 c 23.2791,28.04573 33.89066,77.31899 14.46355,91.84353 -18.37917,11.08784 -63.01228,6.52162 -94.736237,-39.05157 -21.395052,-38.24168 -18.637584,-77.15663 -3.615887,-88.58924 22.464424,-13.68429 57.173424,4.79902 83.888574,35.79728 z"
       id="path30" />
    <path
       style="fill:#d81b60"
       d="m 405.0209,516.21177 c -25.18682,29.50165 -39.21227,83.30951 -20.83785,100.6428 17.56828,13.46361 64.7292,11.58162 99.56566,-36.75574 25.29599,-32.46471 16.82013,-86.68225 2.37077,-101.07511 -21.46408,-16.60213 -52.27691,4.64489 -81.09858,37.18805 z"
       id="path32" />
  </g>
  <path
     style="opacity:0.1;fill:#ffffff"
     d="M 11.908203 1 C 8.5461409 1 5.7246096 2.1004951 5.7246094 5.4804688 C 5.7246094 5.655308 5.7356031 5.8306696 5.75 6.0058594 C 6.0067891 2.9999947 8.7103148 2 11.908203 2 C 13.176351 2 15.0625 3.1582031 16.5 3.1582031 C 17.9375 3.1582031 19.823649 2 21.091797 2 C 24.289686 2 26.993211 2.9999947 27.25 6.0058594 C 27.264397 5.8306696 27.275391 5.655308 27.275391 5.4804688 C 27.275391 2.100495 24.45386 1 21.091797 1 C 19.823649 1 17.9375 2.1582031 16.5 2.1582031 C 15.0625 2.1582031 13.176351 1 11.908203 1 z M 7.4941406 11.197266 C 7.2872799 11.930383 7.0027803 12.768352 6.7363281 13.398438 C 5.4991412 14.599668 4.8790146 16.384299 5.0273438 18.087891 C 5.1463535 16.711071 5.7404754 15.365348 6.7363281 14.398438 C 7.0190484 13.729883 7.3287265 12.820801 7.5371094 12.058594 C 7.6273796 11.699561 7.6573574 11.467012 7.4941406 11.197266 z M 25.505859 11.197266 C 25.342642 11.467012 25.37262 11.699561 25.462891 12.058594 C 25.671273 12.820801 25.980952 13.729883 26.263672 14.398438 C 27.259525 15.365348 27.853646 16.711071 27.972656 18.087891 C 28.120985 16.384299 27.500859 14.599668 26.263672 13.398438 C 25.99722 12.768352 25.712719 11.930383 25.505859 11.197266 z"
     id="path36" />
</svg>
