<?xml version="1.0" encoding="UTF-8" standalone="no"?>
<svg
   width="32"
   height="32"
   version="1.1"
   id="svg12"
   sodipodi:docname="distributor-logo-linux-mint.svg"
   inkscape:version="1.1.1 (3bf5ae0d25, 2021-09-20)"
   xmlns:inkscape="http://www.inkscape.org/namespaces/inkscape"
   xmlns:sodipodi="http://sodipodi.sourceforge.net/DTD/sodipodi-0.dtd"
   xmlns="http://www.w3.org/2000/svg"
   xmlns:svg="http://www.w3.org/2000/svg">
  <defs
     id="defs16" />
  <sodipodi:namedview
     id="namedview14"
     pagecolor="#505050"
     bordercolor="#ffffff"
     borderopacity="1"
     inkscape:pageshadow="0"
     inkscape:pageopacity="0"
     inkscape:pagecheckerboard="1"
     showgrid="false"
     inkscape:zoom="16.285553"
     inkscape:cx="30.302932"
     inkscape:cy="16.640516"
     inkscape:current-layer="svg12" />
  <path
     id="path2509"
     style="fill:#000000;fill-opacity:0.2;stroke:none;stroke-width:1.84166"
     d="m 1.9999998,2.5000006 c 0,0 10e-7,10.1336344 0,13.9999994 -1e-6,7.731986 6.268013,14 14.0000002,14 h 14 v -14 C 30.000001,8.7680144 23.731987,2.5000006 16,2.5000006 Z" />
  <g
     id="g2743"
     transform="translate(0.00976614,-0.98437456)">
    <g
       transform="matrix(0.30064425,0,0,0.30064422,1.9902336,-58.806955)"
       id="layer1-0"
       inkscape:label="Calque 1"
       style="stroke:none">
      <path
         id="path1374-6"
         style="opacity:1;fill:#4caf50;fill-opacity:1;stroke:none;stroke-width:6.1257"
         d="m 93.133331,250.43332 c -2e-6,12.86027 0,46.56667 0,46.56667 L 2.2452521e-7,203.86666 c 0,0 35.29371477547479,-1e-5 46.56666577547479,-1e-5 25.718061,0 46.566668,20.84861 46.566665,46.56667 z"
         sodipodi:nodetypes="sccss" />
      <g
         style="stroke:none;stroke-opacity:1"
         id="layer3"
         inkscape:label="Layer 1"
         transform="matrix(0.26458333,0,0,0.26458333,-4.2333326,195.39998)" />
      <path
         id="path1139"
         style="opacity:1;fill:#388e3c;fill-opacity:1;stroke:none;stroke-width:6.1257"
         d="m 2.2452554e-7,250.43332 c 1.99999996e-6,-12.86027 0,-46.56667 0,-46.56667 L 93.133331,296.99998 c 0,0 -35.293715,1e-5 -46.566666,1e-5 C 20.848604,296.99999 -2.7754745e-6,276.15138 2.2452554e-7,250.43332 Z"
         sodipodi:nodetypes="sccss" />
    </g>
    <g
       id="g2747"
       transform="translate(0,0.48437515)">
      <path
         style="opacity:0.2"
         d="M 6.9901802,8 V 19.857422 C 6.9901802,22.682514 9.3076659,25 12.132758,25 h 7.714844 c 2.77699,0 5.06551,-2.240507 5.142578,-5 v -5.941406 c 1.43e-4,-0.01953 1.43e-4,-0.03906 0,-0.05859 0,-2.209139 -1.790861,-4 -4,-4 -0.02018,-1.527e-4 -0.04037,-1.527e-4 -0.06055,0 -0.888182,0.01397 -1.746447,0.323192 -2.43945,0.878902 C 17.780918,10.310388 16.899171,10.000399 15.99018,10 15.97,9.9998473 15.94981,9.9998473 15.92963,10 c -2.185458,0.03308 -3.939703,1.814292 -3.939453,4 v 6 h 3 V 17.871094 14 c 0,-0.552285 0.447715,-1 1,-1 0.552285,0 1,0.447715 1,1 V 17.873047 20 h 3 v -2.128906 -3.8125 c 1.43e-4,-0.01953 1.43e-4,-0.03906 0,-0.05859 0,-0.552285 0.447715,-1 1,-1 0.552285,0 1,0.447715 1,1 V 17.873047 19.5 c 0,1.5 -1,2.5 -2.642578,2.5 h -6.81445 C 10.99018,22 9.9901802,21 9.9901802,19.5 V 8 Z"
         id="path6" />
      <path
         style="fill:#ffffff"
         d="M 6.9901802,7 V 18.857422 C 6.9901802,21.682514 9.3076659,24 12.132758,24 h 7.714844 c 2.77699,0 5.06551,-2.240507 5.142578,-5 v -5.941406 c 1.43e-4,-0.01953 1.43e-4,-0.03906 0,-0.05859 0,-2.209139 -1.790861,-4 -4,-4 -0.02018,-1.527e-4 -0.04037,-1.527e-4 -0.06055,0 C 20.041448,9.013972 19.183183,9.3231955 18.49018,9.8789062 17.780918,9.310388 16.899171,9.0003987 15.99018,9 15.97,8.9998473 15.94981,8.9998473 15.92963,9 c -2.185458,0.033084 -3.939703,1.814292 -3.939453,4 v 6 h 3 V 16.871094 13 c 0,-0.552285 0.447715,-1 1,-1 0.552285,0 1,0.447715 1,1 V 16.873047 19 h 3 v -2.128906 -3.8125 c 1.43e-4,-0.01953 1.43e-4,-0.03906 0,-0.05859 0,-0.552285 0.447715,-1 1,-1 0.552285,0 1,0.447715 1,1 V 16.873047 18.5 c 0,1.5 -1,2.5 -2.642578,2.5 h -6.81445 C 10.99018,21 9.9901802,20 9.9901802,18.5 V 7 Z"
         id="path8" />
    </g>
  </g>
  <g
     style="stroke:none;stroke-opacity:1"
     id="g2511"
     inkscape:label="Layer 1"
     transform="matrix(0.07954546,0,0,0.07954545,28.717507,-0.56107968)" />
</svg>
