<?xml version="1.0" encoding="UTF-8" standalone="no"?>
<svg
   width="32"
   height="32"
   version="1"
   id="svg32"
   sodipodi:docname="xreader.svg"
   inkscape:version="1.1.1 (3bf5ae0d25, 2021-09-20)"
   xmlns:inkscape="http://www.inkscape.org/namespaces/inkscape"
   xmlns:sodipodi="http://sodipodi.sourceforge.net/DTD/sodipodi-0.dtd"
   xmlns="http://www.w3.org/2000/svg"
   xmlns:svg="http://www.w3.org/2000/svg">
  <defs
     id="defs36" />
  <sodipodi:namedview
     id="namedview34"
     pagecolor="#505050"
     bordercolor="#ffffff"
     borderopacity="1"
     inkscape:pageshadow="0"
     inkscape:pageopacity="0"
     inkscape:pagecheckerboard="1"
     showgrid="false"
     inkscape:zoom="23.03125"
     inkscape:cx="16"
     inkscape:cy="15.97829"
     inkscape:current-layer="svg32" />
  <path
     style="opacity:0.2"
     d="M 28,21 V 4.4 C 28,3.6244 27.356088,3 26.55625,3 H 6.44375 C 5.6439125,3 5,3.6244 5,4.4 V 29.6 C 5,30.3756 5.6439125,31 6.44375,31 H 18 Z"
     id="path2" />
  <path
     style="fill:#eceff1"
     d="M 28,20 V 3.4 C 28,2.6244 27.356088,2 26.55625,2 H 6.44375 C 5.6439125,2 5,2.6244 5,3.4 V 28.6 C 5,29.3756 5.6439125,30 6.44375,30 H 18 Z"
     id="path4" />
  <path
     style="opacity:0.3;fill:#455a64"
     d="m 7,24 v 2 h 13 v -2 z"
     id="path1160" />
  <path
     style="opacity:1;fill:#3f51b5"
     d="m 7,4 v 2 h 9 V 4 Z"
     id="path8" />
  <path
     style="opacity:0.3;fill:#455a64"
     d="m 7,20 v 2 h 13 v -2 z"
     id="path10" />
  <path
     style="fill:#ffffff"
     d="M 19.473214,20 C 18.657054,20 18,20.637142 18,21.428572 V 30 L 28,20 Z"
     id="path12" />
  <path
     style="opacity:0.3;fill:#455a64"
     d="m 7,8 v 2 h 9 V 8 Z"
     id="path14" />
  <path
     style="opacity:0.3;fill:#455a64"
     d="m 7,16 v 2 h 19 v -2 z"
     id="path16" />
  <path
     style="opacity:0.3;fill:#455a64"
     d="m 7,12 v 2 h 9 v -2 z"
     id="path18" />
  <rect
     style="opacity:0.1"
     width="8"
     height="10"
     x="18.189959"
     y="4.7917233"
     rx="1"
     ry="1"
     id="rect6" />
  <rect
     style="fill:#4fc3f7"
     width="8"
     height="10"
     x="18.189959"
     y="3.7917233"
     rx="1"
     ry="1"
     id="rect20" />
  <path
     style="fill:#4caf50"
     d="m 24.856626,8.45839 -2.666667,4 -2,-2.6666668 -2,2.5273438 v 0.472656 c 0,0.554 0.446,1 1,1 h 6 c 0.554,0 1,-0.446 1,-1 V 10.45839 Z"
     id="path22" />
  <circle
     style="opacity:0.2"
     cx="20.689959"
     cy="7.2917233"
     r="1.5"
     id="circle24" />
  <circle
     style="fill:#f9ce1d"
     cx="20.689959"
     cy="6.2917233"
     r="1.5"
     id="circle26" />
  <path
     style="opacity:0.2;fill:#ffffff"
     d="m 20.689959,4.7917232 a 1.5,1.5 0 0 0 -1.5,1.5 1.5,1.5 0 0 0 0.08594,0.4980469 1.5,1.5 0 0 1 1.414062,-0.9980469 1.5,1.5 0 0 1 1.414062,1.0019531 1.5,1.5 0 0 0 0.08594,-0.5019531 1.5,1.5 0 0 0 -1.5,-1.5 z"
     id="path30" />
  <path
     style="fill:#ffffff;opacity:0.2"
     d="M 6.4433594 2 C 5.6435219 2 5 2.6247906 5 3.4003906 L 5 4.4003906 C 5 3.6247906 5.6435219 3 6.4433594 3 L 26.556641 3 C 27.356479 3 28 3.6247906 28 4.4003906 L 28 3.4003906 C 28 2.6247906 27.356479 2 26.556641 2 L 6.4433594 2 z"
     id="path28" />
</svg>
