<?xml version="1.0" encoding="UTF-8" standalone="no"?>
<svg
   width="32"
   height="32"
   version="1"
   id="svg23"
   sodipodi:docname="firefox.svg"
   inkscape:version="1.1.1 (3bf5ae0d25, 2021-09-20)"
   xmlns:inkscape="http://www.inkscape.org/namespaces/inkscape"
   xmlns:sodipodi="http://sodipodi.sourceforge.net/DTD/sodipodi-0.dtd"
   xmlns="http://www.w3.org/2000/svg"
   xmlns:svg="http://www.w3.org/2000/svg">
  <defs
     id="defs27">
    <clipPath
       clipPathUnits="userSpaceOnUse"
       id="clipPath6093">
      <rect
         transform="matrix(0,-1,-1,0,0,0)"
         style="display:inline;fill:#2196f3;fill-opacity:1;stroke:none;enable-background:new"
         id="rect6095"
         width="447.68506"
         height="447.68506"
         x="-447.98389"
         y="-483.92737"
         rx="223.84253"
         ry="223.84253" />
    </clipPath>
  </defs>
  <sodipodi:namedview
     id="namedview25"
     pagecolor="#505050"
     bordercolor="#ffffff"
     borderopacity="1"
     inkscape:pageshadow="0"
     inkscape:pageopacity="0"
     inkscape:pagecheckerboard="1"
     showgrid="false"
     inkscape:zoom="5.6568543"
     inkscape:cx="37.918601"
     inkscape:cy="22.892582"
     inkscape:current-layer="g1036"
     showguides="false" />
  <g
     id="g1036"
     transform="translate(1.411126,9.1831799)">
    <rect
       ry="14"
       rx="14"
       y="-29.082241"
       x="-21.31682"
       height="28"
       width="28"
       id="rect7845"
       style="display:inline;opacity:0.2;fill:#000000;fill-opacity:1;stroke:none;enable-background:new"
       transform="matrix(0,-1,-1,0,0,0)" />
    <rect
       transform="matrix(0,-1,-1,0,0,0)"
       style="display:inline;fill:#0288d1;fill-opacity:1;stroke:none;enable-background:new"
       id="rect4255"
       width="28"
       height="28"
       x="-20.31682"
       y="-29.082241"
       rx="14"
       ry="14" />
    <g
       style="display:inline;enable-background:new"
       inkscape:groupmode="maskhelper"
       id="g8073"
       clip-path="url(#clipPath6093)"
       transform="matrix(0.06254397,0,0,0.06254397,-1.184496,-7.68318)">
      <g
         transform="matrix(1.5675676,0,0,1.5675676,-1030.1622,795.05406)"
         id="g8075"
         style="opacity:0.6;fill:#a5befb;stroke-width:0.637931">
        <path
           inkscape:connector-curvature="0"
           id="path8077"
           d="m 733.72415,-333.67241 h 25.51724 l 10.20689,10.2069 h 20.4138 l 10.20689,10.20689 v 20.41379 l -7.65517,7.65517 v 7.65518 l -15.31034,15.31034 v 10.2069 L 743.93104,-221.39655 744,-208 l -7.72413,-8.2931 v -33.17242 l 7.65517,-7.65517 L 744,-280 723.51725,-297.94827 v -25.51724 z"
           style="color:#000000;display:inline;overflow:visible;visibility:visible;opacity:0.2;fill:#000000;fill-opacity:1;fill-rule:nonzero;stroke:none;stroke-width:40.8276;stroke-linecap:butt;stroke-linejoin:miter;stroke-miterlimit:4;stroke-dasharray:none;stroke-dashoffset:0;stroke-opacity:1;marker:none;enable-background:accumulate"
           sodipodi:nodetypes="ccccccccccccccccccc" />
        <path
           style="color:#000000;display:inline;overflow:visible;visibility:visible;opacity:0.2;fill:#000000;fill-opacity:1;fill-rule:nonzero;stroke:none;stroke-width:64;stroke-linecap:butt;stroke-linejoin:miter;stroke-miterlimit:4;stroke-dasharray:none;stroke-dashoffset:0;stroke-opacity:1;marker:none;enable-background:accumulate"
           d="M -27.244141,30.917969 -52.324219,56 V 81.082031 118.70312 L -11.999993,156 v 40 l 44,44 h 24 l 40,40 v -48 l 24.000003,-24 h 16 l 24,-24 h 24 l -12,-12 L 196,144 172,120 h -36 l 1e-5,32 h -16 l -16,-16 v -16 l 24,-23.999997 h 20 L 148,80 124,56 H 84 v 24 l -19.999993,3e-6 -32,-32.000001 H 6.7944079e-6 Z M 200,152 188.00001,164 h 12 l 4,4 h 4 L 212,164 Z"
           transform="matrix(0.63793102,0,0,0.63793102,657.17242,-507.18965)"
           id="path8079"
           inkscape:connector-curvature="0"
           sodipodi:nodetypes="ccccccccccccccccccccccccccccccccccccccc" />
        <path
           sodipodi:nodetypes="ccccccccccccccccccc"
           inkscape:connector-curvature="0"
           id="path8081"
           d="m 881.72414,-374.5 h -30.62069 l -17.86206,17.86207 v 25.51724 l 12.75862,12.75862 h 17.86207 l 7.65517,7.65518 v 7.65517 l 5.10345,5.10345 v 30.62069 l 19.37931,20.48276 32,-32 -0.34483,-29.31035 25.51724,-25.51724 h -10.2069 l -25.51724,-25.51724 v -10.2069 h -30.62069 z"
           style="color:#000000;display:inline;overflow:visible;visibility:visible;opacity:0.2;fill:#000000;fill-opacity:1;fill-rule:nonzero;stroke:none;stroke-width:40.8276;stroke-linecap:butt;stroke-linejoin:miter;stroke-miterlimit:4;stroke-dasharray:none;stroke-dashoffset:0;stroke-opacity:1;marker:none;enable-background:accumulate" />
        <path
           style="color:#000000;display:inline;overflow:visible;visibility:visible;opacity:0.2;fill:#000000;fill-opacity:1;fill-rule:nonzero;stroke:none;stroke-width:64;stroke-linecap:butt;stroke-linejoin:miter;stroke-miterlimit:4;stroke-dasharray:none;stroke-dashoffset:0;stroke-opacity:1;marker:none;enable-background:accumulate"
           d="M 488.00001,48.000002 472,64 H 448 L 424,88 408.00001,72.000003 h -48 l -24,24 L 336,116 h 24 v -12 h 16 v 16 l -8,8 -32,0.54102 L 324,140 h -16 v 16 l -12,12 v 24 h 24 l 16,-16 h 24 16 l 16,16 h 20 l -12,-12 12,-12 h 12 l 12,12 h -12 l -12,12 11.7832,11.7832 L 424,216 h -15.99999 l 48,48 h 8 l 8,-8 L 488,240 472.00001,224 h 72 V 48.000002 Z M 360,176 h -7.99999 l -10e-6,8 16,16 h 8 v -8 z"
           transform="matrix(0.63793102,0,0,0.63793102,657.17242,-507.18965)"
           id="path8083"
           inkscape:connector-curvature="0"
           sodipodi:nodetypes="ccccccccccccccccccccccccccccccccccccccccccccccccc" />
        <path
           inkscape:connector-curvature="0"
           id="path8085"
           d="m 856.2069,-422.98275 v -7.65518 l 7.65518,-7.65517 v 15.31035 z"
           style="color:#000000;display:inline;overflow:visible;visibility:visible;opacity:0.2;fill:#000000;fill-opacity:1;fill-rule:nonzero;stroke:none;stroke-width:40.8276;stroke-linecap:butt;stroke-linejoin:miter;stroke-miterlimit:4;stroke-dasharray:none;stroke-dashoffset:0;stroke-opacity:1;marker:none;enable-background:accumulate"
           sodipodi:nodetypes="ccccc" />
        <path
           style="color:#000000;display:inline;overflow:visible;visibility:visible;opacity:0.2;fill:#000000;fill-opacity:1;fill-rule:nonzero;stroke:none;stroke-width:40.8276;stroke-linecap:butt;stroke-linejoin:miter;stroke-miterlimit:4;stroke-dasharray:none;stroke-dashoffset:0;stroke-opacity:1;marker:none;enable-background:accumulate"
           d="m 935.31035,-272.43103 v -16 l 10.2069,-9.51724 v 25.51724 z"
           id="path8087"
           inkscape:connector-curvature="0"
           sodipodi:nodetypes="ccccc" />
        <path
           inkscape:connector-curvature="0"
           id="path8089"
           d="m 805.17242,-435.74137 v -10.2069 l 15.31035,-15.31034 v -10.2069 l 10.20689,-10.2069 v -15.31034 l -10.20689,-10.2069 h -40.82759 l -17.86207,20.41379 15.31035,15.31035 v 16 l 17.86206,19.72414 z"
           style="color:#000000;display:inline;overflow:visible;visibility:visible;opacity:0.2;fill:#000000;fill-opacity:1;fill-rule:nonzero;stroke:none;stroke-width:40.8276;stroke-linecap:butt;stroke-linejoin:miter;stroke-miterlimit:4;stroke-dasharray:none;stroke-dashoffset:0;stroke-opacity:1;marker:none;enable-background:accumulate"
           sodipodi:nodetypes="ccccccccccccc" />
        <path
           inkscape:connector-curvature="0"
           id="path8091"
           d="m 743.93104,-481.67241 v -25.51724 h -51.03448 l 25.51724,25.51724 z"
           style="color:#000000;display:inline;overflow:visible;visibility:visible;opacity:0.2;fill:#000000;fill-opacity:1;fill-rule:nonzero;stroke:none;stroke-width:40.8276;stroke-linecap:butt;stroke-linejoin:miter;stroke-miterlimit:4;stroke-dasharray:none;stroke-dashoffset:0;stroke-opacity:1;marker:none;enable-background:accumulate"
           sodipodi:nodetypes="ccccc" />
        <path
           sodipodi:nodetypes="ccccc"
           style="color:#000000;display:inline;overflow:visible;visibility:visible;opacity:0.2;fill:#000000;fill-opacity:1;fill-rule:nonzero;stroke:none;stroke-width:40.8276;stroke-linecap:butt;stroke-linejoin:miter;stroke-miterlimit:4;stroke-dasharray:none;stroke-dashoffset:0;stroke-opacity:1;marker:none;enable-background:accumulate"
           d="m 817.93104,-440.84482 h 7.65518 l 7.65517,7.65517 -15.31035,10e-6 z"
           id="path8093"
           inkscape:connector-curvature="0" />
        <path
           inkscape:connector-curvature="0"
           id="path8095"
           d="m 749.03449,-356.63794 h -7.65518 l -7.65517,7.65517 15.31035,1e-5 z"
           style="color:#000000;display:inline;overflow:visible;visibility:visible;opacity:0.2;fill:#000000;fill-opacity:1;fill-rule:nonzero;stroke:none;stroke-width:40.8276;stroke-linecap:butt;stroke-linejoin:miter;stroke-miterlimit:4;stroke-dasharray:none;stroke-dashoffset:0;stroke-opacity:1;marker:none;enable-background:accumulate"
           sodipodi:nodetypes="ccccc" />
      </g>
    </g>
    <path
       style="display:inline;opacity:0.2;fill:#000000;fill-opacity:1;fill-rule:evenodd;stroke:none;stroke-width:1px;stroke-linecap:butt;stroke-linejoin:miter;stroke-opacity:1;enable-background:new"
       d="m 1.07443,-4.69295 0.002,7.00782 h 6.005862 v 3.0039 a 5.0051865,5.0051865 0 0 0 5.00586,-5.00586 H 7.082292 V 0.91252 L 1.074477,-4.69295 Z m 6.466792,10.2168 a 1.5016988,1.5016988 0 0 0 -1.44336,1.4043 c -0.14346,1.82664 0.72691,3.59208 2.26368,4.58984 1.53676,0.99777 3.5031,1.07554 5.11328,0.20117 1.61018,-0.87436 2.61719,-2.56617 2.61719,-4.39843 a 1.5016988,1.5016988 0 1 0 -3.00196,0 c 0,0.73671 -0.39945,1.4082 -1.04687,1.75976 -0.64742,0.35157 -1.42897,0.32113 -2.04688,-0.0801 C 9.378402,8.59921 9.034322,7.89891 9.092012,7.16446 A 1.5016988,1.5016988 0 0 0 7.541222,5.52383 Z"
       id="path8040"
       inkscape:connector-curvature="0" />
    <path
       style="display:inline;opacity:0.2;fill:#ffffff;fill-opacity:1;stroke:none;enable-background:new"
       d="m 15.082242,-7.68318 c -7.756,0 -14,6.244 -14,14 0,0.16884 0.01952,0.33264 0.02539,0.5 0.263743,-7.52057 6.38745,-13.5 13.97461,-13.5 7.58716,0 13.71087,5.97943 13.97461,13.5 0.006,-0.16736 0.0254,-0.33116 0.0254,-0.5 0,-7.756 -6.244,-14 -14,-14 z"
       id="rect7837"
       inkscape:connector-curvature="0" />
    <path
       inkscape:connector-curvature="0"
       id="path7675"
       d="m 8.584512,1.31534 -7.509669,-7.00822 0.0019,7.00822 z"
       style="display:inline;fill:#ef6c00;fill-opacity:1;fill-rule:evenodd;stroke:none;stroke-width:1px;stroke-linecap:butt;stroke-linejoin:miter;stroke-opacity:1;enable-background:new"
       sodipodi:nodetypes="cccc" />
    <path
       inkscape:connector-curvature="0"
       id="path7679"
       d="m 7.083022,4.31845 a 5.0051865,5.0051865 0 0 0 5.00519,-5.00519 h -5.00519 z"
       style="display:inline;fill:#ef6c00;fill-opacity:1;stroke:none;stroke-width:8;stroke-linecap:butt;stroke-linejoin:miter;stroke-miterlimit:4;stroke-dasharray:none;stroke-opacity:1;enable-background:new" />
    <path
       style="display:inline;fill:#f29312;fill-opacity:1;fill-rule:evenodd;stroke:none;stroke-width:1px;stroke-linecap:butt;stroke-linejoin:miter;stroke-opacity:1;enable-background:new"
       d="m 1.577384,1.31534 7.505218,-7.00822 0.003,7.00822 z"
       id="path7681"
       inkscape:connector-curvature="0"
       sodipodi:nodetypes="cccc" />
    <path
       style="display:inline;opacity:0.2;fill:#ffffff;fill-opacity:1;fill-rule:evenodd;stroke:none;stroke-width:1px;stroke-linecap:butt;stroke-linejoin:miter;stroke-opacity:1;enable-background:new"
       d="m 1.07443,-5.69295 v 1 L 7.082242,0.91252 V 0.31291 h 4.90039 c 0.0686,-0.32895 0.10397,-0.66397 0.10547,-1 h -5.00586 v 0.59961 z"
       id="path7978"
       inkscape:connector-curvature="0"
       sodipodi:nodetypes="ccccccccc" />
    <rect
       style="display:inline;fill:#f29312;fill-opacity:1;stroke:none;stroke-width:3;stroke-linecap:butt;stroke-linejoin:miter;stroke-miterlimit:4;stroke-dasharray:none;stroke-opacity:1;enable-background:new"
       id="rect7683"
       width="8.010253"
       height="7.0085559"
       x="1.0748415"
       y="-0.68803227" />
    <path
       sodipodi:nodetypes="ccccsccccsscccc"
       inkscape:connector-curvature="0"
       id="path7685"
       d="m 21.094242,-2.18949 c 2.37232,2.84873 3.29151,6.78484 2.51354,9.07007 -0.30486,-2.28328 -1.84695,-3.90664 -3.43778,-4.17482 1.79103,2.9662 1.06743,5.73118 -0.3618,7.51754 -1.64896,1.96513 -4.31894,2.68053 -6.72954,1.80314 -2.41061,-0.87739 -3.99606,-3.14237 -3.99606,-5.70768 h -0.53189 v -0.001 H 1.074843 c 0,5.87998 3.697189,11.16112 9.222559,13.17218 5.52537,2.01108 11.75256,0.34294 15.53214,-4.16138 3.77958,-4.50431 4.3416,-10.92722 1.40163,-16.01943 -0.59433,-0.90713 -2.44585,-2.43693 -2.44585,-2.43693 2.11243,2.94404 2.3575,6.01658 2.16982,7.73699 -0.43792,-2.50242 -1.85702,-5.35968 -5.8609,-6.79858 z"
       style="color:#000000;font-style:normal;font-variant:normal;font-weight:normal;font-stretch:normal;font-size:medium;line-height:normal;font-family:sans-serif;text-indent:0;text-align:start;text-decoration:none;text-decoration-line:none;text-decoration-style:solid;text-decoration-color:#000000;letter-spacing:normal;word-spacing:normal;text-transform:none;writing-mode:lr-tb;direction:ltr;baseline-shift:baseline;text-anchor:start;white-space:normal;clip-rule:nonzero;display:inline;overflow:visible;visibility:visible;isolation:auto;mix-blend-mode:normal;color-interpolation:sRGB;color-interpolation-filters:linearRGB;solid-color:#000000;solid-opacity:1;fill:#f29312;fill-opacity:1;fill-rule:nonzero;stroke:none;stroke-width:8;stroke-linecap:butt;stroke-linejoin:miter;stroke-miterlimit:4;stroke-dasharray:none;stroke-dashoffset:0;stroke-opacity:1;color-rendering:auto;image-rendering:auto;shape-rendering:auto;text-rendering:auto;enable-background:accumulate" />
    <path
       inkscape:connector-curvature="0"
       id="path7691"
       d="M 5.078722,-3.19046 A 5.0048499,5.0048499 0 0 0 0.073873,1.81439 h 5.004849 z"
       style="display:inline;fill:#f29312;fill-opacity:1;stroke:none;stroke-width:8;stroke-linecap:butt;stroke-linejoin:miter;stroke-miterlimit:4;stroke-dasharray:none;stroke-opacity:1;enable-background:new" />
    <path
       style="display:inline;fill:#f29312;fill-opacity:1;stroke:none;stroke-width:8;stroke-linecap:butt;stroke-linejoin:miter;stroke-miterlimit:4;stroke-dasharray:none;stroke-opacity:1;enable-background:new"
       d="M 5.078722,-0.68803 A 5.0048499,5.0048499 0 0 0 0.073873,4.31682 h 5.004849 z"
       id="path7693"
       inkscape:connector-curvature="0" />
    <path
       inkscape:connector-curvature="0"
       id="path7695"
       d="m 5.078722,-0.68803 a 5.0048499,5.0048499 0 0 1 5.00485,5.00485 h -5.00485 z"
       style="display:inline;fill:#f29312;fill-opacity:1;stroke:none;stroke-width:8;stroke-linecap:butt;stroke-linejoin:miter;stroke-miterlimit:4;stroke-dasharray:none;stroke-opacity:1;enable-background:new" />
    <path
       style="display:inline;fill:#f29312;fill-opacity:1;stroke:none;stroke-width:8;stroke-linecap:butt;stroke-linejoin:miter;stroke-miterlimit:4;stroke-dasharray:none;stroke-opacity:1;enable-background:new"
       d="m 5.078722,-3.19046 a 5.0048499,5.0048499 0 0 1 5.00485,5.00485 h -5.00485 z"
       id="path7697"
       inkscape:connector-curvature="0" />
    <path
       style="display:inline;opacity:0.2;fill:#ffffff;fill-opacity:1;fill-rule:evenodd;stroke:none;stroke-width:1px;stroke-linecap:butt;stroke-linejoin:miter;stroke-opacity:1;enable-background:new"
       d="m 9.082242,-5.69295 -2.83398,2.64649 A 5.0048499,5.0048499 0 0 0 5.078332,-3.19099 5.0048499,5.0048499 0 0 0 0.07443,1.81487 h 0.105468 a 5.0048499,5.0048499 0 0 1 4.898434,-4.00586 5.0048499,5.0048499 0 0 1 1.16993,0.14453 l 2.83398,-2.64649 z m 15.70312,2.56446 c 0.49063,0.68377 0.87059,1.37354 1.17774,2.05273 0.48864,0.46097 1.00291,0.9808 1.26758,1.38477 1.17177,2.02958 1.77807,4.27092 1.85547,6.51758 0.0943,-2.57702 -0.50968,-5.18659 -1.85547,-7.51758 -0.59433,-0.90713 -2.4453,-2.4375 -2.44532,-2.4375 z m -3.6914,0.93945 c 0.37285,0.44773 0.69597,0.92714 0.99609,1.41797 3.24395,1.52777 4.46608,4.09993 4.86524,6.38086 0.0473,-0.43382 0.0659,-0.95496 0.0351,-1.53711 -0.009,0.18707 -0.0173,0.3733 -0.0351,0.53711 -0.43792,-2.50242 -1.85745,-5.35993 -5.86133,-6.79883 z m -12.00977,1.01367 v 1 a 5.0048499,5.0048499 0 0 1 0.89649,1.99024 h 0.10351 a 5.0048499,5.0048499 0 0 0 -1,-2.99024 z m 11.08594,3.88086 c 0.23567,0.3903 0.42149,0.77664 0.57422,1.15821 1.37198,0.51578 2.59541,2.01134 2.86328,4.01757 0.22741,-0.66799 0.29287,-1.48544 0.23633,-2.36718 -0.0327,0.49289 -0.0986,0.9626 -0.23633,1.36718 -0.30486,-2.28328 -1.84667,-3.9076 -3.4375,-4.17578 z M 0.312711,2.81487 A 5.0048499,5.0048499 0 0 0 0.07443,4.31682 h 0.107421 a 5.0048499,5.0048499 0 0 1 0.56836,-1.50195 z m 9.093751,0 a 5.0048499,5.0048499 0 0 1 0.57422,1.50195 h 0.10351 A 5.0048499,5.0048499 0 0 0 9.849822,2.81487 Z m -0.32227,3.53125 v 0.97461 h -0.002 c 8.1e-4,2.56449 1.5861,4.82791 3.99609,5.70507 2.4106,0.87739 5.08151,0.1624 6.73047,-1.80273 0.91583,-1.14467 1.53038,-2.6937 1.39063,-4.4375 -0.11412,1.33381 -0.65417,2.51702 -1.39063,3.4375 -1.64896,1.96513 -4.31987,2.68012 -6.73047,1.80273 -2.40189,-0.87421 -3.98273,-3.12583 -3.99414,-5.67968 z"
       id="path7984"
       inkscape:connector-curvature="0" />
    <path
       style="color:#000000;font-style:normal;font-variant:normal;font-weight:normal;font-stretch:normal;font-size:medium;line-height:normal;font-family:sans-serif;text-indent:0;text-align:start;text-decoration:none;text-decoration-line:none;text-decoration-style:solid;text-decoration-color:#000000;letter-spacing:normal;word-spacing:normal;text-transform:none;writing-mode:lr-tb;direction:ltr;baseline-shift:baseline;text-anchor:start;white-space:normal;clip-rule:nonzero;display:inline;overflow:visible;visibility:visible;isolation:auto;mix-blend-mode:normal;color-interpolation:sRGB;color-interpolation-filters:linearRGB;solid-color:#000000;solid-opacity:1;fill:#f29312;fill-opacity:1;fill-rule:nonzero;stroke:none;stroke-width:3.0031;stroke-linecap:round;stroke-linejoin:miter;stroke-miterlimit:4;stroke-dasharray:none;stroke-dashoffset:0;stroke-opacity:1;color-rendering:auto;image-rendering:auto;shape-rendering:auto;text-rendering:auto;enable-background:accumulate"
       d="m 7.541222,4.52385 a 1.5016988,1.5016988 0 0 0 -1.44336,1.4043 c -0.14347,1.82664 0.72691,3.59208 2.26368,4.58984 1.53676,0.99777 3.5031,1.07554 5.11328,0.20117 1.61018,-0.87436 2.61719,-2.56617 2.61719,-4.39843 a 1.5016988,1.5016988 0 1 0 -3.00196,0 c 0,0.73671 -0.39945,1.4082 -1.04687,1.75976 -0.64742,0.35157 -1.42897,0.32111 -2.04688,-0.0801 C 9.378402,7.59921 9.034322,6.89891 9.092012,6.16446 A 1.5016988,1.5016988 0 0 0 7.541222,4.52383 Z"
       id="path7677"
       inkscape:connector-curvature="0" />
    <path
       style="display:inline;opacity:0.2;fill:#ffffff;fill-opacity:1;fill-rule:evenodd;stroke:none;stroke-width:1px;stroke-linecap:butt;stroke-linejoin:miter;stroke-opacity:1;enable-background:new"
       d="m 14.590052,4.7719 c -0.76646,0 -1.53194,0.51672 -1.5,1.54883 0,0.73671 -0.39945,1.4082 -1.04687,1.75976 -0.64742,0.35157 -1.42897,0.32115 -2.04688,-0.0801 C 9.421892,7.62745 9.098182,6.99387 9.099822,6.3168 h -0.18555 c 0.13518,0.25061 0.20656,0.53971 0.17774,0.84766 -0.0577,0.73445 0.28639,1.43475 0.90429,1.83593 0.61791,0.40123 1.39946,0.43163 2.04688,0.0801 0.64742,-0.35156 1.04687,-1.02305 1.04687,-1.75976 -0.051,-1.80308 2.53803,-2.14805 2.96094,-0.39453 0.0244,-0.19959 0.041,-0.40147 0.041,-0.60547 0.0319,-1.03211 -0.73549,-1.54883 -1.50196,-1.54883 z"
       id="path4620"
       sodipodi:nodetypes="cccccccccccccc" />
  </g>
</svg>
