<?xml version="1.0" encoding="UTF-8" standalone="no"?>
<svg
   width="32"
   height="32"
   version="1.1"
   id="svg16"
   sodipodi:docname="glade.svg"
   inkscape:version="1.1.1 (3bf5ae0d25, 2021-09-20)"
   xmlns:inkscape="http://www.inkscape.org/namespaces/inkscape"
   xmlns:sodipodi="http://sodipodi.sourceforge.net/DTD/sodipodi-0.dtd"
   xmlns="http://www.w3.org/2000/svg"
   xmlns:svg="http://www.w3.org/2000/svg">
  <defs
     id="defs20" />
  <sodipodi:namedview
     id="namedview18"
     pagecolor="#505050"
     bordercolor="#ffffff"
     borderopacity="1"
     inkscape:pageshadow="0"
     inkscape:pageopacity="0"
     inkscape:pagecheckerboard="1"
     showgrid="false"
     inkscape:zoom="23.03125"
     inkscape:cx="16.02171"
     inkscape:cy="16.02171"
     inkscape:current-layer="g1568" />
  <g
     transform="translate(0 -1020.4)"
     id="g14">
    <g
       transform="translate(0 1020.4)"
       id="g12">
      <g
         id="g1568"
         transform="translate(-1,1)">
        <path
           style="opacity:0.2"
           d="M 4,5 V 25.611111 C 4,26.381111 4.623875,27 5.4,27 H 30.6007 C 31.3763,27 32,26.38125 32,25.611111 V 5 Z"
           id="path2" />
        <rect
           style="opacity:0.2"
           width="22.4"
           height="2.8"
           x="6.7999997"
           y="18.549999"
           rx="1.066"
           ry="1.161"
           id="rect4" />
        <path
           style="fill:#eceff1"
           d="M 4,4 V 24.611111 C 4,25.381111 4.623875,26 5.4,26 H 30.6007 C 31.3763,26 32,25.38125 32,24.611111 V 4 Z"
           id="path6-3" />
        <path
           style="fill:#546e7a"
           d="m 5.4,1.0000001 c -0.77616,0 -1.4,0.6190972 -1.4,1.3885416 V 4 H 32 V 2.3885417 C 32,1.6190973 31.3763,1.0000001 30.6,1.0000001 Z"
           id="path8-6" />
        <rect
           style="opacity:0.2"
           width="22"
           height="2"
           x="7.000001"
           y="21"
           rx="1"
           ry="1"
           id="rect10" />
        <rect
           style="fill:#4caf50"
           width="13"
           height="2"
           x="7.000001"
           y="20"
           rx="1"
           ry="1"
           id="rect12" />
        <rect
           style="fill:#607d8b"
           width="8"
           height="2"
           x="20.999998"
           y="20"
           rx="1"
           ry="1"
           id="rect1116" />
        <path
           style="opacity:0.1;fill-rule:evenodd;stroke-width:0.714285"
           d="M 23,21.5 C 23,22.879999 21.879999,24 20.5,24 19.12,24 18,22.879999 18,21.5 18,20.12 19.12,19 20.5,19 c 1.379999,0 2.5,1.12 2.5,2.5 z"
           id="path14" />
        <path
           style="fill:#4caf50;fill-rule:evenodd;stroke-width:0.714286"
           d="M 23,20.5 C 23,21.879999 21.879999,23 20.5,23 19.12,23 18,21.879999 18,20.5 18,19.12 19.12,18 20.5,18 c 1.379999,0 2.5,1.12 2.5,2.5 z"
           id="path16" />
        <circle
           style="opacity:0.2"
           cx="8.500001"
           cy="9.5"
           r="1.5"
           id="circle18" />
        <circle
           style="fill:#4caf50"
           cx="8.500001"
           cy="8.5"
           r="1.5"
           id="circle20" />
        <rect
           style="opacity:0.1"
           width="3"
           height="3"
           x="13.000001"
           y="14"
           rx="0.5"
           ry="0.5"
           id="rect22" />
        <rect
           style="fill:#4caf50"
           width="3"
           height="3"
           x="13.000001"
           y="13"
           rx="0.5"
           ry="0.5"
           id="rect24" />
        <circle
           style="opacity:0.1"
           cx="8.500001"
           cy="15.5"
           r="1.5"
           id="circle26" />
        <circle
           style="fill:#ffffff"
           cx="8.500001"
           cy="14.5"
           r="1.5"
           id="circle28" />
        <rect
           style="opacity:0.2;fill:#000000;fill-opacity:1"
           width="3"
           height="3"
           x="13.000001"
           y="8"
           rx="0.5"
           ry="0.5"
           id="rect30" />
        <rect
           style="fill:#ffffff"
           width="3"
           height="3"
           x="13.000001"
           y="7"
           rx="0.5"
           ry="0.5"
           id="rect32" />
        <path
           style="opacity:0.1;fill:#ffffff"
           d="M 5.400391,1 C 4.624231,1 4,1.6192275 4,2.3886719 v 1 C 4,2.6192275 4.624231,2 5.400391,2 H 30.599609 C 31.375909,2 32,2.6192275 32,3.3886719 v -1 C 32,1.6192275 31.375909,1 30.599609,1 Z"
           id="path34" />
        <rect
           style="fill:#000000;fill-opacity:0.2"
           width="11"
           height="5"
           x="17.999998"
           y="10"
           rx="1.5"
           ry="1.5"
           id="rect2050" />
        <rect
           style="fill:#4caf50"
           width="11"
           height="5"
           x="17.999998"
           y="9"
           rx="1.5"
           ry="1.5"
           id="rect1844" />
        <path
           opacity="0.2"
           d="m 2,5 v 22 c 0,2 2,2 2,2 H 30 Z M 7,15.871 16.482,24 H 7 Z"
           id="path6" />
        <path
           fill="#689f38"
           d="m 2,4 v 22 c 0,2 2,2 2,2 H 30 Z M 7,14.871 16.482,23 H 7 Z"
           id="path8"
           style="fill:#f9ce1d;opacity:0.75" />
      </g>
    </g>
  </g>
</svg>
