<?xml version="1.0" encoding="UTF-8" standalone="no"?>
<svg
   width="32"
   height="32"
   version="1.1"
   id="svg20"
   sodipodi:docname="cs-screensaver.svg"
   inkscape:version="1.1.1 (3bf5ae0d25, 2021-09-20)"
   xmlns:inkscape="http://www.inkscape.org/namespaces/inkscape"
   xmlns:sodipodi="http://sodipodi.sourceforge.net/DTD/sodipodi-0.dtd"
   xmlns="http://www.w3.org/2000/svg"
   xmlns:svg="http://www.w3.org/2000/svg">
  <defs
     id="defs24" />
  <sodipodi:namedview
     id="namedview22"
     pagecolor="#505050"
     bordercolor="#ffffff"
     borderopacity="1"
     inkscape:pageshadow="0"
     inkscape:pageopacity="0"
     inkscape:pagecheckerboard="1"
     showgrid="false"
     inkscape:zoom="16.285553"
     inkscape:cx="13.048375"
     inkscape:cy="15.842262"
     inkscape:current-layer="svg20" />
  <rect
     style="opacity:0.2;stroke-width:1.10204"
     width="16"
     height="4"
     x="8"
     y="24.333876"
     rx="1.2646846"
     ry="1.5004877"
     id="rect2" />
  <rect
     style="opacity:0.2;stroke-width:0.612372"
     width="6"
     height="21"
     x="13"
     y="6.6661253"
     rx="0.46875"
     ry="1.25"
     id="rect1320" />
  <rect
     style="fill:#263238"
     width="16"
     height="4"
     x="8"
     y="23.666126"
     rx="1.25"
     ry="1.25"
     id="rect4" />
  <rect
     style="fill:#37474f"
     width="6"
     height="21"
     x="13"
     y="5.6661253"
     rx="1.25"
     ry="1.25"
     id="rect1322" />
  <rect
     style="opacity:0.2;stroke-width:0.948683"
     width="26"
     height="18"
     x="3"
     y="4.6661253"
     rx="1.25"
     ry="1.125"
     id="rect6" />
  <path
     style="fill:#455a64"
     d="m 3,18.666125 v 1.75 c 0,0.6925 0.5575,1.25 1.25,1.25 h 23.5 c 0.6925,0 1.25,-0.5575 1.25,-1.25 v -1.75 z"
     id="path8" />
  <path
     style="fill:#1a1a1a"
     d="m 4.25,3.6661253 c -0.6925,0 -1.25,0.5575 -1.25,1.25 V 20.666125 H 29 V 4.9161253 c 0,-0.6925 -0.5575,-1.25 -1.25,-1.25 z"
     id="path10" />
  <path
     style="opacity:0.1;fill:#ffffff"
     d="m 4.25,3.6661253 c -0.6925,0 -1.25,0.5575 -1.25,1.25 v 1 c 0,-0.6925 0.5575,-1.25 1.25,-1.25 h 23.5 c 0.692,0 1.25,0.5575 1.25,1.25 v -1 c 0,-0.6925 -0.558,-1.25 -1.25,-1.25 z"
     id="path14" />
  <path
     style="opacity:0.2"
     d="m 16,7.5 c -1.477333,0 -3,1.203419 -3,2.69922 V 11.5 H 12.666016 C 12.296682,11.5 12,11.801831 12,12.175781 v 3.648438 C 12,16.198169 12.296682,16.5 12.666016,16.5 h 6.667968 C 19.703318,16.5 20,16.198169 20,15.824219 V 12.175781 C 20,11.801831 19.703318,11.5 19.333984,11.5 H 19 V 10.19922 C 19,8.703419 17.477333,7.5 16,7.5 Z M 16,9 c 0.831,0 1.5,0.680825 1.5,1.527345 V 11.5 h -3 V 10.527345 C 14.5,9.680825 15.169,9.000001 16,9 Z"
     id="path16" />
  <path
     style="fill:#ffffff"
     d="m 16,7.5 c -1.477333,0 -3,1.203419 -3,2.699219 v 1.300782 H 12.666016 C 12.296682,11.500001 12,11.801832 12,12.175781 v 3.648438 C 12,16.198169 12.296682,16.5 12.666016,16.5 h 6.667968 C 19.703318,16.5 20,16.198169 20,15.824219 v -3.648438 c 0,-0.373949 -0.296682,-0.67578 -0.666016,-0.67578 H 19 V 10.199219 C 19,8.703419 17.477333,7.5 16,7.5 Z M 16,9 c 0.831,0 1.5,0.680824 1.5,1.527345 v 0.972656 h -3 V 10.527345 C 14.5,9.680824 15.169,9.000001 16,9 Z"
     id="path18" />
</svg>
