<?xml version="1.0" encoding="UTF-8" standalone="no"?>
<svg
   width="32"
   height="32"
   version="1"
   id="svg28"
   sodipodi:docname="gnome-subtitles.svg"
   inkscape:version="1.1.1 (3bf5ae0d25, 2021-09-20)"
   xmlns:inkscape="http://www.inkscape.org/namespaces/inkscape"
   xmlns:sodipodi="http://sodipodi.sourceforge.net/DTD/sodipodi-0.dtd"
   xmlns="http://www.w3.org/2000/svg"
   xmlns:svg="http://www.w3.org/2000/svg">
  <defs
     id="defs32" />
  <sodipodi:namedview
     id="namedview30"
     pagecolor="#505050"
     bordercolor="#ffffff"
     borderopacity="1"
     inkscape:pageshadow="0"
     inkscape:pageopacity="0"
     inkscape:pagecheckerboard="1"
     showgrid="false"
     inkscape:zoom="23.03125"
     inkscape:cx="16"
     inkscape:cy="15.97829"
     inkscape:current-layer="svg28" />
  <path
     fill="#2e8163"
     d="m3.5556 4c-0.8618 0-1.5556 0.8882-1.5556 1.75v17.5c0 0.862 0.6944 1.717 1.5556 1.75h12.944l3.5 4 3.5-4h4.9444c0.862 0 1.556-0.888 1.556-1.75v-17.5c0-0.8618-0.694-1.75-1.556-1.75z"
     id="path2"
     style="fill:#78909c" />
  <g
     fill="#ffffff"
     transform="translate(0,-1)"
     id="g12">
    <path
       d="m10 11v-1h12v1z"
       id="path4" />
    <path
       d="m10 14v-1h12v1z"
       id="path6" />
    <path
       d="m10 17v-1h12v1z"
       id="path8" />
    <path
       d="m10 20v-1h8v1z"
       id="path10" />
  </g>
  <path
     opacity=".2"
     d="m2 23.25v1c0 0.862 0.6936 1.717 1.5547 1.75h12.945l3.5 4 3.5-4h4.945c0.862 0 1.555-0.888 1.555-1.75v-1c0 0.862-0.693 1.75-1.555 1.75h-4.945l-3.5 4-3.5-4h-12.945c-0.8617-0.033-1.5553-0.888-1.5553-1.75z"
     id="path14" />
  <path
     fill="#fff"
     opacity=".1"
     d="m3.5547 4c-0.8618 0-1.5547 0.8882-1.5547 1.75v1c0-0.8618 0.6929-1.75 1.5547-1.75h24.89c0.862 0 1.555 0.8882 1.555 1.75v-1c0-0.8618-0.693-1.75-1.555-1.75h-24.89z"
     id="path16" />
  <g
     opacity=".2"
     id="g26">
    <path
       d="m10 11v-1h12v1z"
       id="path18" />
    <path
       d="m10 14v-1h12v1z"
       id="path20" />
    <path
       d="m10 17v-1h12v1z"
       id="path22" />
    <path
       d="m10 20v-1h8v1z"
       id="path24" />
  </g>
</svg>
