<?xml version="1.0" encoding="UTF-8" standalone="no"?>
<svg
   width="32"
   height="32"
   version="1.1"
   id="svg16"
   sodipodi:docname="application-vnd.google-apps.presentation.svg"
   inkscape:version="1.1.1 (3bf5ae0d25, 2021-09-20)"
   xmlns:inkscape="http://www.inkscape.org/namespaces/inkscape"
   xmlns:sodipodi="http://sodipodi.sourceforge.net/DTD/sodipodi-0.dtd"
   xmlns="http://www.w3.org/2000/svg"
   xmlns:svg="http://www.w3.org/2000/svg">
  <defs
     id="defs20" />
  <sodipodi:namedview
     id="namedview18"
     pagecolor="#505050"
     bordercolor="#ffffff"
     borderopacity="1"
     inkscape:pageshadow="0"
     inkscape:pageopacity="0"
     inkscape:pagecheckerboard="1"
     showgrid="false"
     inkscape:zoom="23.03125"
     inkscape:cx="16"
     inkscape:cy="15.97829"
     inkscape:current-layer="svg16" />
  <path
     style="opacity:0.2"
     d="M 7.25,5 C 6.5575,5 6,5.5575 6,6.25 V 28.75 C 6,29.442 6.5575,30 7.25,30 H 24.75 C 25.442,30 26,29.442 26,28.75 V 13 L 18,5 Z"
     id="path2" />
  <path
     style="fill:#f6be1a"
     d="M 7.25,4 C 6.5575,4 6,4.5575 6,5.25 V 27.75 C 6,28.442 6.5575,29 7.25,29 H 24.75 C 25.442,29 26,28.442 26,27.75 V 12 L 20,10 18,4 Z"
     id="path4" />
  <path
     style="opacity:0.2"
     d="M 26,13 18,5 V 11.75 C 18,12.443 18.558,13 19.25,13 Z"
     id="path6" />
  <path
     style="fill:#fadd60"
     d="M 26,12 18,4 V 10.75 C 18,11.443 18.558,12 19.25,12 Z"
     id="path8" />
  <path
     style="opacity:0.2;fill:#ffffff"
     d="M 7.25 4 C 6.5575 4 6 4.5575 6 5.25 L 6 6.25 C 6 5.5575 6.5575 5 7.25 5 L 18 5 L 18 4 L 7.25 4 z"
     id="path10" />
  <path
     style="opacity:0.2"
     d="M 12,16 C 11.446,16 11,16.446 11,17 V 24 C 11,24.554 11.446,25 12,25 H 19 C 19.554,25 20,24.554 20,24 V 17 C 20,16.446 19.554,16 19,16 Z M 19,18 V 23 H 12 V 18 Z"
     id="path12" />
  <path
     style="fill:#ffffff"
     d="M 12,15 C 11.446,15 11,15.446 11,16 V 23 C 11,23.554 11.446,24 12,24 H 19 C 19.554,24 20,23.554 20,23 V 16 C 20,15.446 19.554,15 19,15 Z M 19,17 V 22 H 12 V 17 Z"
     id="path14" />
</svg>
