<?xml version="1.0" encoding="UTF-8" standalone="no"?>
<svg
   width="32"
   height="32"
   version="1.1"
   id="svg18"
   sodipodi:docname="google.svg"
   inkscape:version="1.1.1 (3bf5ae0d25, 2021-09-20)"
   xmlns:inkscape="http://www.inkscape.org/namespaces/inkscape"
   xmlns:sodipodi="http://sodipodi.sourceforge.net/DTD/sodipodi-0.dtd"
   xmlns="http://www.w3.org/2000/svg"
   xmlns:svg="http://www.w3.org/2000/svg">
  <defs
     id="defs22" />
  <sodipodi:namedview
     id="namedview20"
     pagecolor="#505050"
     bordercolor="#ffffff"
     borderopacity="1"
     inkscape:pageshadow="0"
     inkscape:pageopacity="0"
     inkscape:pagecheckerboard="1"
     showgrid="false"
     inkscape:zoom="23.03125"
     inkscape:cx="16"
     inkscape:cy="15.97829"
     inkscape:current-layer="svg18" />
  <circle
     style="opacity:0.2"
     cx="16"
     cy="17"
     r="14"
     id="circle2" />
  <circle
     style="fill:#eceff1"
     cx="16"
     cy="16"
     r="14"
     id="circle4" />
  <path
     style="opacity:0.1"
     d="M 16.230469,6 C 11.922349,6 8.0835004,8.4798436 6.2050781,12.089844 5.4394168,13.569844 5,15.23 5,17 c 0,1.817829 0.4687079,3.524531 1.2734375,5.033203 l -0.00781,0.0059 C 8.164465,25.579062 11.963184,28 16.230469,28 19.058312,28 21.579676,26.929688 23.478516,25.179688 25.652994,23.169687 27,20.25 27,17 27,16.29 26.929148,15.67 26.806641,15 L 16,15 l 0,4 6.630859,0 c -0.418562,1.44 -1.286923,2.749609 -2.460937,3.599609 l 0.0078,0.0059 A 7,7 0 0 1 16,24 7,7 0 0 1 9.4804688,19.546875 7,7 0 0 1 9.4785156,19.541016 7,7 0 0 1 9,17 7,7 0 0 1 9.4628906,14.519531 7,7 0 0 1 16,10 a 7,7 0 0 1 4.708984,1.832031 l 2.91211,-2.8925779 C 21.701836,7.1194531 19.129773,6 16.230469,6 Z"
     id="path6" />
  <path
     style="opacity:0.2;fill:#ffffff"
     d="M 16 2 A 14 14 0 0 0 2 16 A 14 14 0 0 0 2.0215 16.586 A 14 14 0 0 1 16 3 A 14 14 0 0 1 29.979 16.414 A 14 14 0 0 0 30 16 A 14 14 0 0 0 16 2 z"
     id="path8" />
  <path
     style="fill:#1e88e5"
     d="m 27,16 c 0,-0.71 -0.07146,-1.33 -0.193967,-2 L 16,14 l 0,4 6.630627,0 c -0.418562,1.44 -1.286311,2.75 -2.460325,3.6 l 3.308214,2.579688 C 25.652994,22.169688 27,19.25 27,16"
     id="path10" />
  <path
     style="fill:#f44336"
     d="M 16.230469 5 C 11.922349 5 8.0835004 7.4798438 6.2050781 11.089844 L 9.4609375 13.525391 A 7 7 0 0 1 16 9 A 7 7 0 0 1 20.708984 10.832031 L 23.621094 7.9394531 C 21.701836 6.1194531 19.129773 5 16.230469 5 z"
     id="path12" />
  <path
     style="fill:#f9ce1d"
     d="M 6.2050781 11.089844 C 5.4394168 12.569844 5 14.23 5 16 C 5 17.82 5.4688941 19.529063 6.2753906 21.039062 L 9.4804688 18.546875 A 7 7 0 0 1 9 16 A 7 7 0 0 1 9.4628906 13.519531 L 6.2050781 11.089844 z"
     id="path14" />
  <path
     style="fill:#43a047"
     d="M 9.4785156 18.541016 L 6.265625 21.039062 C 8.164465 24.579062 11.963184 27 16.230469 27 C 19.058312 27 21.579676 25.929688 23.478516 24.179688 L 20.177734 21.605469 A 7 7 0 0 1 16 23 A 7 7 0 0 1 9.4785156 18.541016 z"
     id="path16" />
</svg>
