<?xml version="1.0" encoding="UTF-8" standalone="no"?>
<svg
   width="32"
   height="32"
   version="1.1"
   id="svg16"
   sodipodi:docname="gtk3-demo.svg"
   inkscape:version="1.1.1 (3bf5ae0d25, 2021-09-20)"
   xmlns:inkscape="http://www.inkscape.org/namespaces/inkscape"
   xmlns:sodipodi="http://sodipodi.sourceforge.net/DTD/sodipodi-0.dtd"
   xmlns="http://www.w3.org/2000/svg"
   xmlns:svg="http://www.w3.org/2000/svg">
  <defs
     id="defs20" />
  <sodipodi:namedview
     id="namedview18"
     pagecolor="#505050"
     bordercolor="#ffffff"
     borderopacity="1"
     inkscape:pageshadow="0"
     inkscape:pageopacity="0"
     inkscape:pagecheckerboard="1"
     showgrid="false"
     inkscape:zoom="23.03125"
     inkscape:cx="16"
     inkscape:cy="15.97829"
     inkscape:current-layer="svg16" />
  <path
     style="fill:#2196f3"
     d="m 16.0783,2.0004178 a 3.2974,3.1836 0 0 0 -1.727,0.4247 l -9.7023,5.4084 A 3.2974,3.1836 0 0 0 3.0003,10.590518 l 0,10.817 a 3.2974,3.1836 0 0 0 1.6487,2.757 l 9.7026,5.4085 a 3.2974,3.1836 0 0 0 3.2974,0 l 9.7026,-5.4085 a 3.2974,3.1836 0 0 0 1.649,-2.758 l 0,-10.817 a 3.2974,3.1836 0 0 0 -1.649,-2.7570002 l -9.702,-5.4084 a 3.2974,3.1836 0 0 0 -1.571,-0.4247 z"
     id="path2" />
  <path
     style="opacity:0.2;fill:#ffffff"
     d="m 16.0783,1.9995178 a 3.2974,3.1836 0 0 0 -1.726,0.4258 l -9.7036,5.4082 A 3.2974,3.1836 0 0 0 3.0003,10.591518 l 0,1 A 3.2974,3.1836 0 0 1 4.6487,8.8335178 l 9.7036,-5.4082 a 3.2974,3.1836 0 0 1 1.726,-0.4258 3.2974,3.1836 0 0 1 1.57,0.4258 l 9.7031,5.4082 a 3.2974,3.1836 0 0 1 1.649,2.7580002 l 0,-1 a 3.2974,3.1836 0 0 0 -1.648,-2.7580002 l -9.704,-5.4082 a 3.2974,3.1836 0 0 0 -1.57,-0.4258 z"
     id="path4" />
  <path
     style="opacity:0.2"
     d="m 3.0003,21.407518 0,1 a 3.2974,3.1836 0 0 0 1.6484,2.7559 l 9.7031,5.4102 a 3.2974,3.1836 0 0 0 3.2969,0 l 9.7031,-5.4102 a 3.2974,3.1836 0 0 0 1.648,-2.756 l 0,-1 a 3.2974,3.1836 0 0 1 -1.6484,2.7559 l -9.7031,5.4102 a 3.2974,3.1836 0 0 1 -3.2969,0 l -9.7036,-5.411 a 3.2974,3.1836 0 0 1 -1.6484,-2.755 z"
     id="path6" />
  <path
     style="fill:#f44336"
     d="M 3.3203125 9.2246094 A 3.2974 3.1836 0 0 0 3 10.589844 L 3 21.408203 A 3.2974 3.1836 0 0 0 4.6484375 24.164062 L 14.351562 29.572266 A 3.2974 3.1836 0 0 0 16 29.996094 L 16 16.125 L 3.3203125 9.2246094 z"
     id="path8" />
  <path
     style="fill:#ffffff;opacity:0.2"
     d="M 3.3203125 9.2246094 A 3.2974 3.1836 0 0 0 3 10.589844 L 3 11.589844 A 3.2974 3.1836 0 0 1 3.3203125 10.224609 L 16 17.125 L 16 16.125 L 3.3203125 9.2246094 z"
     id="path10" />
  <path
     style="fill:#8bc34a"
     d="M 28.677734 9.2246094 L 16 16.125 L 16 29.996094 A 3.2974 3.1836 0 0 0 17.648438 29.572266 L 27.351562 24.164062 A 3.2974 3.1836 0 0 0 29 21.40625 L 29 10.589844 A 3.2974 3.1836 0 0 0 28.677734 9.2246094 z"
     id="path12" />
  <path
     style="fill:#ffffff;opacity:0.2"
     d="M 28.677734 9.2246094 L 16 16.125 L 16 17.125 L 28.677734 10.224609 A 3.2974 3.1836 0 0 1 29 11.589844 L 29 10.589844 A 3.2974 3.1836 0 0 0 28.677734 9.2246094 z"
     id="path14" />
</svg>
