<?xml version="1.0" encoding="UTF-8" standalone="no"?>
<svg
   width="32"
   height="32"
   version="1"
   id="svg22"
   sodipodi:docname="cs-firewall.svg"
   inkscape:version="1.1.1 (3bf5ae0d25, 2021-09-20)"
   xmlns:inkscape="http://www.inkscape.org/namespaces/inkscape"
   xmlns:sodipodi="http://sodipodi.sourceforge.net/DTD/sodipodi-0.dtd"
   xmlns="http://www.w3.org/2000/svg"
   xmlns:svg="http://www.w3.org/2000/svg">
  <defs
     id="defs26" />
  <sodipodi:namedview
     id="namedview24"
     pagecolor="#505050"
     bordercolor="#ffffff"
     borderopacity="1"
     inkscape:pageshadow="0"
     inkscape:pageopacity="0"
     inkscape:pagecheckerboard="1"
     showgrid="false"
     inkscape:zoom="23.03125"
     inkscape:cx="16"
     inkscape:cy="15.97829"
     inkscape:current-layer="svg22" />
  <g
     fill="#875ef6"
     transform="matrix(.072611 0 0 .073729 3.1972 3)"
     id="g4"
     style="fill:#cfd8dc">
    <path
       d="m324.48 51.943-146.49-51.658c-1.076-0.38-2.25-0.38-3.326 0l-146.49 51.658c-1.999 0.705-3.337 2.595-3.337 4.715 0 52.278 13.834 112.71 37.956 165.8 19.566 43.069 54.751 100.52 111.25 129.62 0.719 0.37 1.504 0.555 2.29 0.555s1.571-0.185 2.29-0.555c56.496-29.106 91.68-86.556 111.25-129.62 24.121-53.094 37.955-113.53 37.955-165.8 0-2.12-1.338-4.01-3.337-4.715z"
       id="path2"
       style="fill:#cfd8dc" />
  </g>
  <g
     opacity=".2"
     transform="matrix(.039606 0 0 .0397 9.0166 10)"
     id="g8">
    <path
       d="m324.48 51.943-146.49-51.658c-1.076-0.38-2.25-0.38-3.326 0l-146.49 51.658c-1.999 0.705-3.337 2.595-3.337 4.715 0 52.278 13.834 112.71 37.956 165.8 19.566 43.069 54.751 100.52 111.25 129.62 0.719 0.37 1.504 0.555 2.29 0.555s1.571-0.185 2.29-0.555c56.496-29.106 91.68-86.556 111.25-129.62 24.121-53.094 37.955-113.53 37.955-165.8 0-2.12-1.338-4.01-3.337-4.715z"
       id="path6" />
  </g>
  <g
     fill="#fff"
     transform="matrix(.039606 0 0 .0397 9.0166 9)"
     id="g12"
     style="fill:#ff9800">
    <path
       d="m324.48 51.943-146.49-51.658c-1.076-0.38-2.25-0.38-3.326 0l-146.49 51.658c-1.999 0.705-3.337 2.595-3.337 4.715 0 52.278 13.834 112.71 37.956 165.8 19.566 43.069 54.751 100.52 111.25 129.62 0.719 0.37 1.504 0.555 2.29 0.555s1.571-0.185 2.29-0.555c56.496-29.106 91.68-86.556 111.25-129.62 24.121-53.094 37.955-113.53 37.955-165.8 0-2.12-1.338-4.01-3.337-4.715z"
       id="path10"
       style="fill:#ff9800" />
  </g>
  <g
     fill="#fff"
     transform="matrix(.072611 0 0 .073729 3.1972 3)"
     id="g16">
    <path
       opacity=".2"
       transform="matrix(13.772 0 0 13.563 -44.031 -40.69)"
       d="m15.879 3.0215l-10.637 3.8086c-0.145 0.052-0.242 0.1913-0.242 0.3476 0 0.2976 0.0174 0.6041 0.0293 0.9082 0.0311-0.1142 0.0991-0.2151 0.2129-0.2558l10.637-3.8086c0.078-0.028 0.164-0.028 0.242 0l10.637 3.8086c0.114 0.0407 0.182 0.1416 0.213 0.2558 0.012-0.3041 0.029-0.6106 0.029-0.9082 0-0.1563-0.097-0.2956-0.242-0.3476l-10.637-3.8086c-0.078-0.028-0.164-0.028-0.242 0z"
       id="path14" />
  </g>
  <g
     opacity=".2"
     transform="matrix(.072611 0 0 .073729 3.1972 5.0002)"
     id="g20">
    <path
       d="m25.232 41.855c-0.11807 0.4269-0.40348 0.78706-0.40348 1.2451 0 52.278 13.832 112.71 37.954 165.8 19.566 43.069 54.756 100.51 111.25 129.62 0.719 0.37 1.5004 0.55631 2.2864 0.55631s1.5674-0.18631 2.2864-0.55631c56.496-29.106 91.686-86.55 111.25-129.62 24.121-53.094 37.954-113.53 37.954-165.8 0-0.458-0.28541-0.81816-0.40348-1.2451-1.9514 49.319-15.291 104.49-37.55 153.49-19.567 43.069-54.757 100.51-111.25 129.62-0.719 0.37-1.5004 0.55631-2.2864 0.55631s-1.5674-0.18631-2.2864-0.55631c-56.49-29.11-91.681-86.55-111.25-129.62-22.257-48.99-35.596-104.17-37.548-153.48z"
       id="path18" />
  </g>
</svg>
