<?xml version="1.0" encoding="UTF-8" standalone="no"?>
<svg
   width="32"
   height="32"
   version="1"
   id="svg22"
   sodipodi:docname="gufw.svg"
   inkscape:version="1.1.1 (3bf5ae0d25, 2021-09-20)"
   xmlns:inkscape="http://www.inkscape.org/namespaces/inkscape"
   xmlns:sodipodi="http://sodipodi.sourceforge.net/DTD/sodipodi-0.dtd"
   xmlns="http://www.w3.org/2000/svg"
   xmlns:svg="http://www.w3.org/2000/svg">
  <defs
     id="defs26">
    <clipPath
       clipPathUnits="userSpaceOnUse"
       id="clipPath4220">
      <rect
         style="opacity:1;fill:#ffffff;stroke-width:1.07143;paint-order:markers fill stroke"
         id="rect4222"
         width="30"
         height="30"
         x="1"
         y="1"
         rx="1.5"
         ry="1.5" />
    </clipPath>
  </defs>
  <sodipodi:namedview
     id="namedview24"
     pagecolor="#505050"
     bordercolor="#ffffff"
     borderopacity="1"
     inkscape:pageshadow="0"
     inkscape:pageopacity="0"
     inkscape:pagecheckerboard="1"
     showgrid="false"
     inkscape:zoom="16"
     inkscape:cx="18.03125"
     inkscape:cy="21.90625"
     inkscape:current-layer="svg22" />
  <rect
     style="opacity:0.2;fill:#000000;fill-opacity:1;paint-order:markers fill stroke"
     id="rect4725"
     width="30"
     height="30"
     x="1"
     y="2"
     rx="1.5"
     ry="1.5" />
  <g
     id="g4010"
     clip-path="url(#clipPath4220)">
    <path
       id="rect1168"
       style="fill:#ffffff;stroke-width:1.12167;paint-order:markers fill stroke"
       d="M -5 -0.5 L -5 2.5 L -2 2.5 L -2 5.5 L -5 5.5 L -5 8.5 L -2 8.5 L -2 11.5 L -5 11.5 L -5 14.5 L -2 14.5 L -2 17.5 L -5 17.5 L -5 20.5 L -2 20.5 L -2 23.5 L -5 23.5 L -5 26.5 L -2 26.5 L -2 29.5 L -5 29.5 L -5 32.5 L 1 32.5 L 7 32.5 L 13 32.5 L 19 32.5 L 25 32.5 L 31 32.5 L 37 32.5 L 37 29.5 L 34 29.5 L 34 26.5 L 37 26.5 L 37 23.5 L 34 23.5 L 34 20.5 L 37 20.5 L 37 17.5 L 34 17.5 L 34 14.5 L 37 14.5 L 37 11.5 L 34 11.5 L 34 8.5 L 37 8.5 L 37 5.5 L 34 5.5 L 34 2.5 L 37 2.5 L 37 -0.5 L 31 -0.5 L 25 -0.5 L 19 -0.5 L 13 -0.5 L 7 -0.5 L 1 -0.5 L -5 -0.5 z " />
    <path
       id="rect1422"
       style="fill:#d32f2f;stroke-width:0.98035;paint-order:markers fill stroke"
       d="M -4.75 -0.25 L -4.75 2.25 L 0.75 2.25 L 0.75 -0.25 L -4.75 -0.25 z M 1.25 -0.25 L 1.25 2.25 L 6.75 2.25 L 6.75 -0.25 L 1.25 -0.25 z M 7.25 -0.25 L 7.25 2.25 L 12.75 2.25 L 12.75 -0.25 L 7.25 -0.25 z M 13.25 -0.25 L 13.25 2.25 L 18.75 2.25 L 18.75 -0.25 L 13.25 -0.25 z M 19.25 -0.25 L 19.25 2.25 L 24.75 2.25 L 24.75 -0.25 L 19.25 -0.25 z M 25.25 -0.25 L 25.25 2.25 L 30.75 2.25 L 30.75 -0.25 L 25.25 -0.25 z M 31.25 -0.25 L 31.25 2.25 L 36.75 2.25 L 36.75 -0.25 L 31.25 -0.25 z M -1.75 2.75 L -1.75 5.25 L 3.75 5.25 L 3.75 2.75 L -1.75 2.75 z M 4.25 2.75 L 4.25 5.25 L 9.75 5.25 L 9.75 2.75 L 4.25 2.75 z M 10.25 2.75 L 10.25 5.25 L 15.75 5.25 L 15.75 2.75 L 10.25 2.75 z M 16.25 2.75 L 16.25 5.25 L 21.75 5.25 L 21.75 2.75 L 16.25 2.75 z M 22.25 2.75 L 22.25 5.25 L 27.75 5.25 L 27.75 2.75 L 22.25 2.75 z M 28.25 2.75 L 28.25 5.25 L 33.75 5.25 L 33.75 2.75 L 28.25 2.75 z M -4.75 5.75 L -4.75 8.25 L 0.75 8.25 L 0.75 5.75 L -4.75 5.75 z M 1.25 5.75 L 1.25 8.25 L 6.75 8.25 L 6.75 5.75 L 1.25 5.75 z M 7.25 5.75 L 7.25 8.25 L 12.75 8.25 L 12.75 5.75 L 7.25 5.75 z M 13.25 5.75 L 13.25 8.25 L 18.75 8.25 L 18.75 5.75 L 13.25 5.75 z M 19.25 5.75 L 19.25 8.25 L 24.75 8.25 L 24.75 5.75 L 19.25 5.75 z M 25.25 5.75 L 25.25 8.25 L 30.75 8.25 L 30.75 5.75 L 25.25 5.75 z M 31.25 5.75 L 31.25 8.25 L 36.75 8.25 L 36.75 5.75 L 31.25 5.75 z M -1.75 8.75 L -1.75 11.25 L 3.75 11.25 L 3.75 8.75 L -1.75 8.75 z M 4.25 8.75 L 4.25 11.25 L 9.75 11.25 L 9.75 8.75 L 4.25 8.75 z M 10.25 8.75 L 10.25 11.25 L 15.75 11.25 L 15.75 8.75 L 10.25 8.75 z M 16.25 8.75 L 16.25 11.25 L 21.75 11.25 L 21.75 8.75 L 16.25 8.75 z M 22.25 8.75 L 22.25 11.25 L 27.75 11.25 L 27.75 8.75 L 22.25 8.75 z M 28.25 8.75 L 28.25 11.25 L 33.75 11.25 L 33.75 8.75 L 28.25 8.75 z M -4.75 11.75 L -4.75 14.25 L 0.75 14.25 L 0.75 11.75 L -4.75 11.75 z M 1.25 11.75 L 1.25 14.25 L 6.75 14.25 L 6.75 11.75 L 1.25 11.75 z M 7.25 11.75 L 7.25 14.25 L 12.75 14.25 L 12.75 11.75 L 7.25 11.75 z M 13.25 11.75 L 13.25 14.25 L 18.75 14.25 L 18.75 11.75 L 13.25 11.75 z M 19.25 11.75 L 19.25 14.25 L 24.75 14.25 L 24.75 11.75 L 19.25 11.75 z M 25.25 11.75 L 25.25 14.25 L 30.75 14.25 L 30.75 11.75 L 25.25 11.75 z M 31.25 11.75 L 31.25 14.25 L 36.75 14.25 L 36.75 11.75 L 31.25 11.75 z M -1.75 14.75 L -1.75 17.25 L 3.75 17.25 L 3.75 14.75 L -1.75 14.75 z M 4.25 14.75 L 4.25 17.25 L 9.75 17.25 L 9.75 14.75 L 4.25 14.75 z M 10.25 14.75 L 10.25 17.25 L 15.75 17.25 L 15.75 14.75 L 10.25 14.75 z M 16.25 14.75 L 16.25 17.25 L 21.75 17.25 L 21.75 14.75 L 16.25 14.75 z M 22.25 14.75 L 22.25 17.25 L 27.75 17.25 L 27.75 14.75 L 22.25 14.75 z M 28.25 14.75 L 28.25 17.25 L 33.75 17.25 L 33.75 14.75 L 28.25 14.75 z M -4.75 17.75 L -4.75 20.25 L 0.75 20.25 L 0.75 17.75 L -4.75 17.75 z M 1.25 17.75 L 1.25 20.25 L 6.75 20.25 L 6.75 17.75 L 1.25 17.75 z M 7.25 17.75 L 7.25 20.25 L 12.75 20.25 L 12.75 17.75 L 7.25 17.75 z M 13.25 17.75 L 13.25 20.25 L 18.75 20.25 L 18.75 17.75 L 13.25 17.75 z M 19.25 17.75 L 19.25 20.25 L 24.75 20.25 L 24.75 17.75 L 19.25 17.75 z M 25.25 17.75 L 25.25 20.25 L 30.75 20.25 L 30.75 17.75 L 25.25 17.75 z M 31.25 17.75 L 31.25 20.25 L 36.75 20.25 L 36.75 17.75 L 31.25 17.75 z M -1.75 20.75 L -1.75 23.25 L 3.75 23.25 L 3.75 20.75 L -1.75 20.75 z M 4.25 20.75 L 4.25 23.25 L 9.75 23.25 L 9.75 20.75 L 4.25 20.75 z M 10.25 20.75 L 10.25 23.25 L 15.75 23.25 L 15.75 20.75 L 10.25 20.75 z M 16.25 20.75 L 16.25 23.25 L 21.75 23.25 L 21.75 20.75 L 16.25 20.75 z M 22.25 20.75 L 22.25 23.25 L 27.75 23.25 L 27.75 20.75 L 22.25 20.75 z M 28.25 20.75 L 28.25 23.25 L 33.75 23.25 L 33.75 20.75 L 28.25 20.75 z M -4.75 23.75 L -4.75 26.25 L 0.75 26.25 L 0.75 23.75 L -4.75 23.75 z M 1.25 23.75 L 1.25 26.25 L 6.75 26.25 L 6.75 23.75 L 1.25 23.75 z M 7.25 23.75 L 7.25 26.25 L 12.75 26.25 L 12.75 23.75 L 7.25 23.75 z M 13.25 23.75 L 13.25 26.25 L 18.75 26.25 L 18.75 23.75 L 13.25 23.75 z M 19.25 23.75 L 19.25 26.25 L 24.75 26.25 L 24.75 23.75 L 19.25 23.75 z M 25.25 23.75 L 25.25 26.25 L 30.75 26.25 L 30.75 23.75 L 25.25 23.75 z M 31.25 23.75 L 31.25 26.25 L 36.75 26.25 L 36.75 23.75 L 31.25 23.75 z M -1.75 26.75 L -1.75 29.25 L 3.75 29.25 L 3.75 26.75 L -1.75 26.75 z M 4.25 26.75 L 4.25 29.25 L 9.75 29.25 L 9.75 26.75 L 4.25 26.75 z M 10.25 26.75 L 10.25 29.25 L 15.75 29.25 L 15.75 26.75 L 10.25 26.75 z M 16.25 26.75 L 16.25 29.25 L 21.75 29.25 L 21.75 26.75 L 16.25 26.75 z M 22.25 26.75 L 22.25 29.25 L 27.75 29.25 L 27.75 26.75 L 22.25 26.75 z M 28.25 26.75 L 28.25 29.25 L 33.75 29.25 L 33.75 26.75 L 28.25 26.75 z M -4.75 29.75 L -4.75 32.25 L 0.75 32.25 L 0.75 29.75 L -4.75 29.75 z M 1.25 29.75 L 1.25 32.25 L 6.75 32.25 L 6.75 29.75 L 1.25 29.75 z M 7.25 29.75 L 7.25 32.25 L 12.75 32.25 L 12.75 29.75 L 7.25 29.75 z M 13.25 29.75 L 13.25 32.25 L 18.75 32.25 L 18.75 29.75 L 13.25 29.75 z M 19.25 29.75 L 19.25 32.25 L 24.75 32.25 L 24.75 29.75 L 19.25 29.75 z M 25.25 29.75 L 25.25 32.25 L 30.75 32.25 L 30.75 29.75 L 25.25 29.75 z M 31.25 29.75 L 31.25 32.25 L 36.75 32.25 L 36.75 29.75 L 31.25 29.75 z " />
  </g>
  <g
     id="g4402"
     clip-path="url(#clipPath4220)"
     style="fill:#f5a816"
     transform="translate(6.5,-1.5)" />
  <path
     id="rect4959"
     style="opacity:0.2;fill:#ffffff;fill-opacity:1;paint-order:markers fill stroke"
     d="M 2.5,1 C 1.669,1 1,1.669 1,2.5 v 1 C 1,2.669 1.669,2 2.5,2 h 27 C 30.331,2 31,2.669 31,3.5 v -1 C 31,1.669 30.331,1 29.5,1 Z" />
</svg>
