<?xml version="1.0" encoding="UTF-8" standalone="no"?>
<svg
   width="32"
   height="32"
   version="1"
   id="svg12"
   sodipodi:docname="cs-details.svg"
   inkscape:version="1.1.1 (3bf5ae0d25, 2021-09-20)"
   xmlns:inkscape="http://www.inkscape.org/namespaces/inkscape"
   xmlns:sodipodi="http://sodipodi.sourceforge.net/DTD/sodipodi-0.dtd"
   xmlns="http://www.w3.org/2000/svg"
   xmlns:svg="http://www.w3.org/2000/svg">
  <defs
     id="defs16" />
  <sodipodi:namedview
     id="namedview14"
     pagecolor="#505050"
     bordercolor="#ffffff"
     borderopacity="1"
     inkscape:pageshadow="0"
     inkscape:pageopacity="0"
     inkscape:pagecheckerboard="1"
     showgrid="false"
     inkscape:zoom="23.03125"
     inkscape:cx="16"
     inkscape:cy="15.97829"
     inkscape:current-layer="svg12" />
  <rect
     style="opacity:0.2"
     width="29"
     height="29"
     x="2"
     y="2"
     rx="1.45"
     ry="1.45"
     id="rect2" />
  <rect
     style="fill:#009688"
     width="29"
     height="29"
     x="2"
     y="1"
     rx="1.45"
     ry="1.45"
     id="rect4" />
  <path
     style="opacity:0.2"
     d="m 15,8 v 1 h 3 V 8 Z m 0,18 v 1 h 3 v -1 z"
     id="path6" />
  <path
     style="fill:#ffffff"
     d="M 15 5 L 15 8 L 18 8 L 18 5 L 15 5 z M 15 11 L 15 26 L 18 26 L 18 11 L 15 11 z"
     id="path8" />
  <path
     style="fill:#ffffff;opacity:0.2"
     d="M 3.4492188 1 C 2.6459187 1 2 1.6459187 2 2.4492188 L 2 3.4492188 C 2 2.6459187 2.6459187 2 3.4492188 2 L 29.550781 2 C 30.354081 2 31 2.6459187 31 3.4492188 L 31 2.4492188 C 31 1.6459187 30.354081 1 29.550781 1 L 3.4492188 1 z"
     id="path10" />
</svg>
