<?xml version="1.0" encoding="UTF-8" standalone="no"?>
<svg
   width="32"
   height="32"
   version="1.1"
   id="svg18"
   sodipodi:docname="hypnotix.svg"
   inkscape:version="1.1.1 (3bf5ae0d25, 2021-09-20)"
   xmlns:inkscape="http://www.inkscape.org/namespaces/inkscape"
   xmlns:sodipodi="http://sodipodi.sourceforge.net/DTD/sodipodi-0.dtd"
   xmlns="http://www.w3.org/2000/svg"
   xmlns:svg="http://www.w3.org/2000/svg">
  <defs
     id="defs22" />
  <sodipodi:namedview
     id="namedview20"
     pagecolor="#505050"
     bordercolor="#ffffff"
     borderopacity="1"
     inkscape:pageshadow="0"
     inkscape:pageopacity="0"
     inkscape:pagecheckerboard="1"
     showgrid="false"
     inkscape:zoom="16.285553"
     inkscape:cx="7.6448125"
     inkscape:cy="19.557211"
     inkscape:current-layer="g3033" />
  <g
     id="g3033"
     transform="translate(-0.197975,-3.061019)">
    <path
       sodipodi:type="star"
       style="opacity:0.1;fill:#000000;fill-opacity:1;stroke:none;stroke-width:1;stroke-linecap:round;stroke-miterlimit:4;stroke-dasharray:none;paint-order:markers fill stroke"
       id="path6168"
       inkscape:flatsided="true"
       sodipodi:sides="3"
       sodipodi:cx="-1.9882879"
       sodipodi:cy="7.6287246"
       sodipodi:r1="35.469418"
       sodipodi:r2="17.734711"
       sodipodi:arg1="0.52359878"
       sodipodi:arg2="1.5707963"
       inkscape:rounded="-4.1980308e-16"
       inkscape:randomized="0"
       transform="matrix(0.24416116,0,0,0.24416116,12.861438,25.684635)"
       inkscape:transform-center-y="-2.1650634"
       d="m 28.729129,25.363433 -61.434834,0 30.7174172,-53.204126 z" />
    <path
       sodipodi:type="star"
       style="opacity:1;fill:#90a4ae;fill-opacity:1;stroke:none;stroke-width:1;stroke-linecap:round;stroke-miterlimit:4;stroke-dasharray:none;paint-order:markers fill stroke"
       id="path5974"
       inkscape:flatsided="true"
       sodipodi:sides="3"
       sodipodi:cx="-1.9882879"
       sodipodi:cy="7.6287246"
       sodipodi:r1="35.469418"
       sodipodi:r2="17.734711"
       sodipodi:arg1="0.52359878"
       sodipodi:arg2="1.5707963"
       inkscape:rounded="-4.1980308e-16"
       inkscape:randomized="0"
       transform="matrix(0.24416116,0,0,0.24416116,12.861438,24.684635)"
       inkscape:transform-center-y="-2.1650634"
       d="m 28.729129,25.363433 -61.434834,0 30.7174172,-53.204126 z" />
    <g
       id="g5891"
       transform="translate(1.6784749,-1.1740029)">
      <g
         id="g5865"
         transform="translate(1.4993892,0.13348099)">
        <g
           id="g3432"
           transform="rotate(45,14.65671,16.789548)">
          <path
             id="path2967"
             style="opacity:0.1;fill:#000000;stroke-width:0.878834;stroke-linecap:round;paint-order:markers fill stroke"
             d="m 16.198948,12.561025 c -0.429569,0 -0.851408,0.01367 -1.26746,0.03516 a 10.499025,4.5 0 0 0 -0.294895,0.01953 c -0.337059,0.0216 -0.668264,0.05095 -0.994049,0.08594 a 10.499025,4.5 0 0 0 -0.279271,0.03125 c -0.404044,0.04853 -0.800715,0.103821 -1.183483,0.171875 -0.402166,0.0715 -0.788847,0.154564 -1.163955,0.246094 a 10.499025,4.5 0 0 0 -0.208964,0.05469 c -0.281109,0.07237 -0.553139,0.149436 -0.8163305,0.232422 a 10.499025,4.5 0 0 0 -0.290989,0.09375 c -0.322432,0.109205 -0.63548,0.223267 -0.925695,0.347656 -0.3113771,0.13346 -0.6005533,0.276483 -0.8710131,0.425782 a 10.499025,4.5 0 0 0 -0.056635,0.03125 C 7.583563,14.484056 7.3427524,14.6401 7.1236197,14.801267 a 10.499025,4.5 0 0 0 -0.029297,0.01953 C 6.6454984,15.155017 6.29499,15.515758 6.05731,15.896962 c -0.1173071,0.188144 -0.2077087,0.381123 -0.2675531,0.578125 -0.058335,0.192025 -0.089832,0.387098 -0.089832,0.585938 0,0.262866 0.012269,0.523232 0.031247,0.78125 a 10.499025,4.5 0 0 0 -0.033197,0.21875 10.499025,4.5 0 0 0 0.1367063,0.689453 c 0.807921,4.995825 5.1408398,8.810547 10.3642718,8.810547 5.225419,0 9.556772,-3.817783 10.362319,-8.816406 a 10.499025,4.5 0 0 0 0,-0.002 10.499025,4.5 0 0 0 0.134753,-0.681594 10.499025,4.5 0 0 0 -0.02539,-0.291016 10.499025,4.5 0 0 0 0,-0.0039 c 0.01546,-0.233091 0.02734,-0.468073 0.02734,-0.705078 a 10.499025,4.5 0 0 0 -0.01172,-0.195313 c -0.0047,-0.04723 -0.01338,-0.09379 -0.02148,-0.140625 a 10.499025,4.5 0 0 0 -0.01367,-0.08008 c -0.0085,-0.03969 -0.01839,-0.07976 -0.0293,-0.11914 a 10.499025,4.5 0 0 0 -0.02539,-0.08203 c -0.01484,-0.04631 -0.03073,-0.09282 -0.04883,-0.138671 a 10.499025,4.5 0 0 0 -0.02734,-0.06055 c -0.02147,-0.05014 -0.04304,-0.100844 -0.06835,-0.150391 -0.0011,-0.0021 -0.0028,-0.0038 -0.0039,-0.0059 a 10.499025,4.5 0 0 0 -0.0059,-0.01172 c -0.03151,-0.06049 -0.06638,-0.120144 -0.103506,-0.179688 -0.03979,-0.06381 -0.08085,-0.126789 -0.126941,-0.189453 -0.138137,-0.187803 -0.306035,-0.370604 -0.498001,-0.546875 -0.05824,-0.05348 -0.118677,-0.105891 -0.181624,-0.158203 -0.0075,-0.0062 -0.01392,-0.01332 -0.02148,-0.01953 a 10.499025,4.5 0 0 0 -0.01367,-0.0098 c -0.05385,-0.04396 -0.108884,-0.08777 -0.166001,-0.130859 -0.01365,-0.01029 -0.02718,-0.02101 -0.04102,-0.03125 a 10.499025,4.5 0 0 0 -0.113272,-0.08203 c -0.0124,-0.0087 -0.02652,-0.01668 -0.03906,-0.02539 a 10.499025,4.5 0 0 0 -0.171864,-0.115234 c -0.04699,-0.03053 -0.09391,-0.06179 -0.142565,-0.0918 -0.0084,-0.0052 -0.01691,-0.01044 -0.02539,-0.01563 a 10.499025,4.5 0 0 0 -0.04297,-0.02539 c -0.06557,-0.03948 -0.130762,-0.07867 -0.199199,-0.117187 -0.009,-0.0051 -0.01827,-0.01056 -0.02734,-0.01563 a 10.499025,4.5 0 0 0 -0.228494,-0.123047 c -0.002,-0.0011 -0.0038,-0.0029 -0.0059,-0.0039 a 10.499025,4.5 0 0 0 -0.214824,-0.105468 10.499025,4.5 0 0 0 -0.109365,-0.05469 c -0.01011,-0.0048 -0.02109,-0.0089 -0.03125,-0.01367 a 10.499025,4.5 0 0 0 -0.68151,-0.29094 c -0.101452,-0.03952 -0.2055,-0.07937 -0.310518,-0.117188 a 10.499025,4.5 0 0 0 -0.0703,-0.02539 c -0.01509,-0.0053 -0.03171,-0.01032 -0.04687,-0.01563 A 10.499025,4.5 0 0 0 22.10462,13.34227 10.499025,4.5 0 0 0 22.06751,13.33055 c -0.01509,-0.0044 -0.03173,-0.0074 -0.04687,-0.01172 a 10.499025,4.5 0 0 0 -0.70692,-0.185547 c -0.07698,-0.01846 -0.154238,-0.03704 -0.2324,-0.05469 -0.01152,-0.0026 -0.02361,-0.0052 -0.03516,-0.0078 A 10.499025,4.5 0 0 0 20.429033,12.94384 C 20.35799,12.9304 20.288022,12.91755 20.216162,12.90478 a 10.499025,4.5 0 0 0 -0.06835,-0.01172 10.499025,4.5 0 0 0 -0.759695,-0.119141 10.499025,4.5 0 0 0 -0.0332,-0.0039 c -0.04703,-0.0063 -0.09525,-0.0115 -0.142565,-0.01758 a 10.499025,4.5 0 0 0 -0.812424,-0.08984 c -0.06038,-0.0055 -0.120875,-0.01055 -0.181625,-0.01563 a 10.499025,4.5 0 0 0 -0.859295,-0.05664 c -0.05083,-0.0024 -0.101276,-0.0057 -0.15233,-0.0078 a 10.499025,4.5 0 0 0 -1.007729,-0.02151 z" />
          <path
             id="path2297"
             style="fill:#eceff1;stroke-width:0.878875;stroke-linecap:round;paint-order:markers fill stroke"
             d="m 16.198145,11.561019 c -5.79899,0 -10.5,2.014719 -10.5000002,4.5 1e-6,5.798989 4.7010112,10.5 10.5000002,10.5 5.79899,0 10.499998,-4.70101 10.5,-10.5 0,-2.485281 -4.70101,-4.5 -10.5,-4.5 z"
             sodipodi:nodetypes="sssss" />
          <path
             id="path2899"
             style="opacity:0.1;fill:#000000;stroke-width:0.989713;stroke-linecap:round;paint-order:markers fill stroke"
             d="m 16.197805,12.560981 a 10.5,4.5 0 0 0 -10.4999995,4.5 10.5,4.5 0 0 0 10.4999995,4.5 10.5,4.5 0 0 0 10.5,-4.5 10.5,4.5 0 0 0 -10.5,-4.5 z m 0,1 a 9.5,3.5 0 0 1 9.5,3.5 9.5,3.5 0 0 1 -9.5,3.499999 9.5,3.5 0 0 1 -9.4999997,-3.499999 9.5,3.5 0 0 1 9.4999997,-3.5 z" />
          <path
             id="path941"
             style="fill:#cfd8dc;stroke-width:0.878875;stroke-linecap:round;paint-order:markers fill stroke"
             d="m 5.6981446,16.061019 c 1e-6,5.798989 4.7010114,10.5 10.5000004,10.5 5.79899,0 10.499998,-4.70101 10.5,-10.5 h -1 a 9.5,3.5 0 0 1 -9.5,3.499999 9.5,3.5 0 0 1 -9.5000006,-3.499999 z" />
          <path
             id="path1951"
             style="fill:#f9f9f9;stroke-width:0.989713;stroke-linecap:round;paint-order:markers fill stroke"
             d="m 16.198145,11.561019 a 10.5,4.5 0 0 0 -10.5000004,4.5 10.5,4.5 0 0 0 10.5000004,4.5 10.5,4.5 0 0 0 10.5,-4.5 10.5,4.5 0 0 0 -10.5,-4.5 z m 0,1 a 9.5,3.5 0 0 1 9.5,3.5 9.5,3.5 0 0 1 -9.5,3.499999 9.5,3.5 0 0 1 -9.5000006,-3.499999 9.5,3.5 0 0 1 9.5000006,-3.5 z" />
        </g>
        <path
           id="path5587"
           style="color:#000000;fill:#b0bec5;stroke-linecap:round;-inkscape-stroke:none"
           d="m 21.918047,11.70688 a 0.5,0.5 0 0 0 -0.01104,-0.0083 0.5,0.5 0 0 0 -0.04144,-0.02762 0.5,0.5 0 0 0 -0.0663,-0.0442 0.5,0.5 0 0 0 -0.02901,-0.02072 0.5,0.5 0 0 0 -0.0028,-3.5e-5 0.5,0.5 0 0 0 -0.0221,-0.01105 0.5,0.5 0 0 0 -0.08563,-0.01658 0.5,0.5 0 0 0 -0.04696,-0.0083 0.5,0.5 0 0 0 -0.03729,-0.0069 0.5,0.5 0 0 0 -0.01795,-0.0014 0.5,0.5 0 0 0 -0.07872,0.01519 0.5,0.5 0 0 0 -0.0511,0.0097 0.5,0.5 0 0 0 -0.04282,0.0097 0.5,0.5 0 0 0 -0.0235,0.0096 0.5,0.5 0 0 0 -0.0028,-3.5e-5 l -7.778175,3.535534 a 0.5,0.5 0 0 0 -0.249972,0.661531 0.5,0.5 0 0 0 0.662912,0.248592 l 5.266012,-2.39339 -4.412512,4.412512 a 0.5,0.5 0 0 0 0,0.707106 0.5,0.5 0 0 0 0.707107,0 l 4.416655,-4.416655 -2.396153,5.271536 a 0.5,0.5 0 0 0 0.247211,0.661532 0.5,0.5 0 0 0 0.662913,-0.248592 l 3.535534,-7.778175 a 0.5,0.5 0 0 0 0.0013,-0.0097 0.5,0.5 0 0 0 0.02486,-0.06905 0.5,0.5 0 0 0 0.0042,-0.01518 0.5,0.5 0 0 0 0.0014,-0.01242 0.5,0.5 0 0 0 0.01105,-0.07458 0.5,0.5 0 0 0 0.0014,-0.01522 0.5,0.5 0 0 0 -0.0014,-0.029 0.5,0.5 0 0 0 -0.0041,-0.04834 0.5,0.5 0 0 0 -0.0014,-0.0152 0.5,0.5 0 0 0 -0.0041,-0.01519 0.5,0.5 0 0 0 -0.02071,-0.07872 0.5,0.5 0 0 0 -0.100818,-0.161585 0.5,0.5 0 0 0 -0.0056,-0.0083 0.5,0.5 0 0 0 -0.0083,-0.0083 z" />
        <circle
           style="opacity:0.1;fill:#000000;stroke:none;stroke-width:1.17441;stroke-linecap:round;stroke-miterlimit:4;stroke-dasharray:none;paint-order:markers fill stroke"
           id="circle5529"
           cx="23.777126"
           cy="-6.2203851"
           r="1"
           transform="rotate(45)" />
        <circle
           style="opacity:1;fill:#cfd8dc;stroke:none;stroke-width:1.17441;stroke-linecap:round;stroke-miterlimit:4;stroke-dasharray:none;paint-order:markers fill stroke"
           id="path5110"
           cx="23.777126"
           cy="-7.2203851"
           r="1"
           transform="rotate(45)" />
      </g>
    </g>
  </g>
</svg>
