<?xml version="1.0" encoding="UTF-8" standalone="no"?>
<svg
   width="32"
   height="32"
   version="1"
   id="svg16"
   sodipodi:docname="cs-tablet.svg"
   inkscape:version="1.1.1 (3bf5ae0d25, 2021-09-20)"
   xmlns:inkscape="http://www.inkscape.org/namespaces/inkscape"
   xmlns:sodipodi="http://sodipodi.sourceforge.net/DTD/sodipodi-0.dtd"
   xmlns="http://www.w3.org/2000/svg"
   xmlns:svg="http://www.w3.org/2000/svg">
  <defs
     id="defs20" />
  <sodipodi:namedview
     id="namedview18"
     pagecolor="#505050"
     bordercolor="#ffffff"
     borderopacity="1"
     inkscape:pageshadow="0"
     inkscape:pageopacity="0"
     inkscape:pagecheckerboard="1"
     showgrid="false"
     inkscape:zoom="23.03125"
     inkscape:cx="16"
     inkscape:cy="15.97829"
     inkscape:current-layer="svg16" />
  <rect
     fill="#4f4f4f"
     width="22"
     height="28"
     x="-27"
     y="2"
     rx="1.5"
     ry="1.5"
     transform="rotate(-90)"
     id="rect2" />
  <path
     fill="#fff"
     opacity=".1"
     d="m28.5 5c0.831 0 1.5 0.669 1.5 1.5v1c0-0.831-0.669-1.5-1.5-1.5h-25c-0.831 0-1.5 0.669-1.5 1.5v-1c0-0.831 0.669-1.5 1.5-1.5h25z"
     id="path4" />
  <path
     opacity=".2"
     d="m2 25.5v1c0 0.831 0.669 1.5 1.5 1.5h25c0.831 0 1.5-0.669 1.5-1.5v-1c0 0.831-0.669 1.5-1.5 1.5h-25c-0.831 0-1.5-0.669-1.5-1.5z"
     id="path6" />
  <path
     fill="#fff"
     opacity=".1"
     d="m3.5 5c-0.831 0-1.5 0.669-1.5 1.5v19c0 0.831 0.669 1.5 1.5 1.5h3.5v-22z"
     id="path8" />
</svg>
