<?xml version="1.0" encoding="UTF-8" standalone="no"?>
<svg
   width="32"
   height="32"
   version="1.1"
   id="svg16"
   sodipodi:docname="applications-internet.svg"
   inkscape:version="1.1.1 (3bf5ae0d25, 2021-09-20)"
   xmlns:inkscape="http://www.inkscape.org/namespaces/inkscape"
   xmlns:sodipodi="http://sodipodi.sourceforge.net/DTD/sodipodi-0.dtd"
   xmlns="http://www.w3.org/2000/svg"
   xmlns:svg="http://www.w3.org/2000/svg">
  <defs
     id="defs20" />
  <sodipodi:namedview
     id="namedview18"
     pagecolor="#505050"
     bordercolor="#ffffff"
     borderopacity="1"
     inkscape:pageshadow="0"
     inkscape:pageopacity="0"
     inkscape:pagecheckerboard="1"
     showgrid="false"
     inkscape:zoom="23.03125"
     inkscape:cx="16"
     inkscape:cy="15.97829"
     inkscape:current-layer="svg16" />
  <rect
     ry="3"
     rx="3"
     y="-30"
     x="-30.5"
     height="28"
     width="28"
     id="rect4390"
     style="display:inline;opacity:0.2;fill:#000000;fill-opacity:1;stroke:none;enable-background:new"
     transform="matrix(0,-1,-1,0,0,0)" />
  <rect
     transform="matrix(0,-1,-1,0,0,0)"
     style="display:inline;fill:#00bcd4;fill-opacity:1;stroke:none;enable-background:new"
     id="rect4255"
     width="28"
     height="28"
     x="-29.5"
     y="-30"
     rx="3"
     ry="3" />
  <path
     style="display:inline;opacity:0.2;fill:#ffffff;fill-opacity:1;stroke:none;enable-background:new"
     d="m 5.0000003,1.5000015 c -1.662,0 -3,1.338 -3,3 v 1 c 0,-1.662 1.338,-3 3,-3 H 27 c 1.662,0 3,1.338 3,3 v -1 c 0,-1.662 -1.338,-3 -3,-3 z"
     id="rect4430"
     inkscape:connector-curvature="0" />
  <path
     sodipodi:nodetypes="scsssscs"
     inkscape:connector-curvature="0"
     d="m 16,8.4375015 c 2.4594,0 4.55372,1.50566 5.45508,3.6367305 2.28929,0.34031 4.04492,2.29179 4.04492,4.675769 0,2.62334 -2.12664,4.75 -4.75,4.75 H 10.65625 c -2.2954397,0 -4.1562497,-1.86084 -4.1562497,-4.15625 0,-2.13341 1.60407,-3.88157 3.6738297,-4.11915 C 10.71363,10.501191 13.11809,8.4375015 16,8.4375015 Z"
     id="path4364"
     style="display:inline;fill:#ffffff;fill-opacity:1;stroke:none;enable-background:new" />
</svg>
