<?xml version="1.0" encoding="UTF-8" standalone="no"?>
<svg
   width="32"
   height="32"
   version="1"
   id="svg26"
   sodipodi:docname="cs-user-accounts.svg"
   inkscape:version="1.1.1 (3bf5ae0d25, 2021-09-20)"
   xmlns:inkscape="http://www.inkscape.org/namespaces/inkscape"
   xmlns:sodipodi="http://sodipodi.sourceforge.net/DTD/sodipodi-0.dtd"
   xmlns="http://www.w3.org/2000/svg"
   xmlns:svg="http://www.w3.org/2000/svg">
  <defs
     id="defs30" />
  <sodipodi:namedview
     id="namedview28"
     pagecolor="#505050"
     bordercolor="#ffffff"
     borderopacity="1"
     inkscape:pageshadow="0"
     inkscape:pageopacity="0"
     inkscape:pagecheckerboard="1"
     showgrid="false"
     inkscape:zoom="11.515625"
     inkscape:cx="-4.9932157"
     inkscape:cy="16.58616"
     inkscape:current-layer="g1465" />
  <g
     id="g948"
     transform="matrix(0.5,0,0,0.5,8,7.75)">
    <g
       id="g1465"
       transform="translate(0,-2.5)">
      <g
         id="g1163"
         transform="translate(-12,14.5)">
        <g
           id="g1161">
          <g
             id="g1192">
            <circle
               style="opacity:0.2;fill:#00100f"
               cx="16"
               cy="17"
               r="14"
               id="circle1143" />
            <circle
               style="fill:#ff9800"
               cx="16"
               cy="16"
               id="circle1145"
               r="14" />
            <g
               style="opacity:0.2"
               transform="translate(0,1)"
               id="g1151">
              <path
                 d="m 16,6 c -2.2096,0 -4,1.7912 -4,4 0,2.2088 1.7904,4 4,4 2.2096,0 4,-1.7912 4,-4 0,-2.2088 -1.7904,-4 -4,-4 z"
                 id="path1147" />
              <path
                 d="m 16,16.000001 c -6.9993,0.0042 -7,4.430769 -7,4.430769 v 1.8 c 0,0 1.292299,2.76923 7,2.76923 5.707701,0 7,-2.76923 7,-2.76923 v -1.8 c 0,0 0,-4.433538 -6.9986,-4.430769 z"
                 id="path1149" />
            </g>
            <g
               id="g1157">
              <path
                 style="fill:#ffffff"
                 d="m 16,6 c -2.2096,0 -4,1.7912 -4,4 0,2.2088 1.7904,4 4,4 2.2096,0 4,-1.7912 4,-4 0,-2.2088 -1.7904,-4 -4,-4 z"
                 id="path1153" />
              <path
                 style="fill:#ffffff"
                 d="m 16,16.000001 c -6.9993,0.0042 -7,4.430769 -7,4.430769 v 1.8 c 0,0 1.292299,2.76923 7,2.76923 5.707701,0 7,-2.76923 7,-2.76923 v -1.8 c 0,0 0,-4.433538 -6.9986,-4.430769 z"
                 id="path1155" />
            </g>
            <path
               style="opacity:0.2;fill:#ffffff"
               d="M 16,2 A 14,14 0 0 0 2,16 14,14 0 0 0 2.0214844,16.585938 14,14 0 0 1 16,3 14,14 0 0 1 29.978516,16.414062 14,14 0 0 0 30,16 14,14 0 0 0 16,2 Z"
               id="path1159" />
          </g>
          <g
             id="g1212"
             transform="translate(0,-24)">
            <circle
               style="opacity:0.2;fill:#00100f"
               cx="16"
               cy="17"
               r="14"
               id="circle1194" />
            <circle
               style="fill:#8bc34a"
               cx="16"
               cy="16"
               id="circle1196"
               r="14" />
            <g
               style="opacity:0.2"
               transform="translate(0,1)"
               id="g1202">
              <path
                 d="m 16,6 c -2.2096,0 -4,1.7912 -4,4 0,2.2088 1.7904,4 4,4 2.2096,0 4,-1.7912 4,-4 0,-2.2088 -1.7904,-4 -4,-4 z"
                 id="path1198" />
              <path
                 d="m 16,16.000001 c -6.9993,0.0042 -7,4.430769 -7,4.430769 v 1.8 c 0,0 1.292299,2.76923 7,2.76923 5.707701,0 7,-2.76923 7,-2.76923 v -1.8 c 0,0 0,-4.433538 -6.9986,-4.430769 z"
                 id="path1200" />
            </g>
            <g
               id="g1208">
              <path
                 style="fill:#ffffff"
                 d="m 16,6 c -2.2096,0 -4,1.7912 -4,4 0,2.2088 1.7904,4 4,4 2.2096,0 4,-1.7912 4,-4 0,-2.2088 -1.7904,-4 -4,-4 z"
                 id="path1204" />
              <path
                 style="fill:#ffffff"
                 d="m 16,16.000001 c -6.9993,0.0042 -7,4.430769 -7,4.430769 v 1.8 c 0,0 1.292299,2.76923 7,2.76923 5.707701,0 7,-2.76923 7,-2.76923 v -1.8 c 0,0 0,-4.433538 -6.9986,-4.430769 z"
                 id="path1206" />
            </g>
            <path
               style="opacity:0.2;fill:#ffffff"
               d="M 16,2 A 14,14 0 0 0 2,16 14,14 0 0 0 2.0214844,16.585938 14,14 0 0 1 16,3 14,14 0 0 1 29.978516,16.414062 14,14 0 0 0 30,16 14,14 0 0 0 16,2 Z"
               id="path1210" />
          </g>
        </g>
      </g>
      <g
         id="g968"
         transform="translate(12,-9.5)">
        <circle
           style="opacity:0.2;fill:#00100f"
           cx="16"
           cy="17"
           r="14"
           id="circle950" />
        <circle
           style="fill:#f44336"
           cx="16"
           cy="16"
           r="14"
           id="circle952" />
        <g
           style="opacity:0.2"
           transform="translate(0,1)"
           id="g958">
          <path
             d="m 16,6 c -2.2096,0 -4,1.7912 -4,4 0,2.2088 1.7904,4 4,4 2.2096,0 4,-1.7912 4,-4 0,-2.2088 -1.7904,-4 -4,-4 z"
             id="path954" />
          <path
             d="m 16,16.000001 c -6.9993,0.0042 -7,4.430769 -7,4.430769 v 1.8 c 0,0 1.292299,2.76923 7,2.76923 5.707701,0 7,-2.76923 7,-2.76923 v -1.8 c 0,0 0,-4.433538 -6.9986,-4.430769 z"
             id="path956" />
        </g>
        <g
           id="g964">
          <path
             style="fill:#ffffff"
             d="m 16,6 c -2.2096,0 -4,1.7912 -4,4 0,2.2088 1.7904,4 4,4 2.2096,0 4,-1.7912 4,-4 0,-2.2088 -1.7904,-4 -4,-4 z"
             id="path960" />
          <path
             style="fill:#ffffff"
             d="m 16,16.000001 c -6.9993,0.0042 -7,4.430769 -7,4.430769 v 1.8 c 0,0 1.292299,2.76923 7,2.76923 5.707701,0 7,-2.76923 7,-2.76923 v -1.8 c 0,0 0,-4.433538 -6.9986,-4.430769 z"
             id="path962" />
        </g>
        <path
           style="opacity:0.2;fill:#ffffff"
           d="M 16,2 A 14,14 0 0 0 2,16 14,14 0 0 0 2.0214844,16.585938 14,14 0 0 1 16,3 14,14 0 0 1 29.978516,16.414062 14,14 0 0 0 30,16 14,14 0 0 0 16,2 Z"
           id="path966" />
      </g>
      <g
         id="g1006"
         transform="translate(12,14.5)">
        <g
           id="g1141">
          <circle
             style="opacity:0.2;fill:#00100f"
             cx="16"
             cy="17"
             r="14"
             id="circle988" />
          <circle
             style="fill:#2196f3"
             cx="16"
             cy="16"
             id="circle990"
             r="14" />
          <g
             style="opacity:0.2"
             transform="translate(0,1)"
             id="g996">
            <path
               d="m 16,6 c -2.2096,0 -4,1.7912 -4,4 0,2.2088 1.7904,4 4,4 2.2096,0 4,-1.7912 4,-4 0,-2.2088 -1.7904,-4 -4,-4 z"
               id="path992" />
            <path
               d="m 16,16.000001 c -6.9993,0.0042 -7,4.430769 -7,4.430769 v 1.8 c 0,0 1.292299,2.76923 7,2.76923 5.707701,0 7,-2.76923 7,-2.76923 v -1.8 c 0,0 0,-4.433538 -6.9986,-4.430769 z"
               id="path994" />
          </g>
          <g
             id="g1002">
            <path
               style="fill:#ffffff"
               d="m 16,6 c -2.2096,0 -4,1.7912 -4,4 0,2.2088 1.7904,4 4,4 2.2096,0 4,-1.7912 4,-4 0,-2.2088 -1.7904,-4 -4,-4 z"
               id="path998" />
            <path
               style="fill:#ffffff"
               d="m 16,16.000001 c -6.9993,0.0042 -7,4.430769 -7,4.430769 v 1.8 c 0,0 1.292299,2.76923 7,2.76923 5.707701,0 7,-2.76923 7,-2.76923 v -1.8 c 0,0 0,-4.433538 -6.9986,-4.430769 z"
               id="path1000" />
          </g>
          <path
             style="opacity:0.2;fill:#ffffff"
             d="M 16,2 A 14,14 0 0 0 2,16 14,14 0 0 0 2.0214844,16.585938 14,14 0 0 1 16,3 14,14 0 0 1 29.978516,16.414062 14,14 0 0 0 30,16 14,14 0 0 0 16,2 Z"
             id="path1004" />
        </g>
      </g>
      <g
         id="g1476"
         transform="matrix(1.2,0,0,1.2,-3.2,-0.8)">
        <circle
           style="opacity:0.2;fill:#00100f"
           cx="16"
           cy="17"
           r="14"
           id="circle2" />
        <circle
           style="fill:#546e7a"
           cx="16"
           cy="16"
           r="14"
           id="circle4" />
        <g
           style="opacity:0.2"
           transform="translate(0,1)"
           id="g10">
          <path
             d="m 16,6 c -2.2096,0 -4,1.7912 -4,4 0,2.2088 1.7904,4 4,4 2.2096,0 4,-1.7912 4,-4 0,-2.2088 -1.7904,-4 -4,-4 z"
             id="path6" />
          <path
             d="m 16,16.000001 c -6.9993,0.0042 -7,4.430769 -7,4.430769 v 1.8 c 0,0 1.292299,2.76923 7,2.76923 5.707701,0 7,-2.76923 7,-2.76923 v -1.8 c 0,0 0,-4.433538 -6.9986,-4.430769 z"
             id="path8" />
        </g>
        <g
           id="g16">
          <path
             style="fill:#ffffff"
             d="m 16,6 c -2.2096,0 -4,1.7912 -4,4 0,2.2088 1.7904,4 4,4 2.2096,0 4,-1.7912 4,-4 0,-2.2088 -1.7904,-4 -4,-4 z"
             id="path12" />
          <path
             style="fill:#ffffff"
             d="m 16,16.000001 c -6.9993,0.0042 -7,4.430769 -7,4.430769 v 1.8 c 0,0 1.292299,2.76923 7,2.76923 5.707701,0 7,-2.76923 7,-2.76923 v -1.8 c 0,0 0,-4.433538 -6.9986,-4.430769 z"
             id="path14" />
        </g>
        <path
           style="opacity:0.2;fill:#ffffff"
           d="M 16,2 A 14,14 0 0 0 2,16 14,14 0 0 0 2.0214844,16.585938 14,14 0 0 1 16,3 14,14 0 0 1 29.978516,16.414062 14,14 0 0 0 30,16 14,14 0 0 0 16,2 Z"
           id="path18" />
      </g>
    </g>
  </g>
</svg>
