<?xml version="1.0" encoding="UTF-8" standalone="no"?>
<svg
   width="32"
   height="32"
   version="1"
   id="svg18"
   sodipodi:docname="ace.svg"
   inkscape:version="1.1.1 (3bf5ae0d25, 2021-09-20)"
   xmlns:inkscape="http://www.inkscape.org/namespaces/inkscape"
   xmlns:sodipodi="http://sodipodi.sourceforge.net/DTD/sodipodi-0.dtd"
   xmlns="http://www.w3.org/2000/svg"
   xmlns:svg="http://www.w3.org/2000/svg">
  <defs
     id="defs22" />
  <sodipodi:namedview
     id="namedview20"
     pagecolor="#505050"
     bordercolor="#ffffff"
     borderopacity="1"
     inkscape:pageshadow="0"
     inkscape:pageopacity="0"
     inkscape:pagecheckerboard="1"
     showgrid="false"
     inkscape:zoom="11.515625"
     inkscape:cx="7.5983718"
     inkscape:cy="19.495251"
     inkscape:current-layer="svg18" />
  <path
     style="display:inline;opacity:0.2;fill:#000000;fill-opacity:1;stroke:none;enable-background:new"
     d="m 28,24.5 v -21 c 0,-0.554 -0.46947,-1 -1.05263,-1 H 11.05263 C 10.46947,2.5 10,2.946 10,3.5 v 21 c 0,0.554 0.46947,1 1.05263,1 H 26.94737 C 27.53053,25.5 28,25.054 28,24.5 Z"
     id="rect4505"
     inkscape:connector-curvature="0"
     sodipodi:nodetypes="sssssssss" />
  <path
     style="display:inline;opacity:0.2;fill:#000000;fill-opacity:1;stroke:none;enable-background:new"
     d="m 22,29.5 v -21 c 0,-0.554 -0.46947,-1 -1.05263,-1 H 5.05263 C 4.46947,7.5 4,7.946 4,8.5 v 21 c 0,0.554 0.46947,1 1.05263,1 H 20.94737 C 21.53053,30.5 22,30.054 22,29.5 Z"
     id="rect4507"
     inkscape:connector-curvature="0"
     sodipodi:nodetypes="sssssssss" />
  <path
     style="display:inline;fill:#ebebeb;fill-opacity:1;stroke:none;enable-background:new"
     d="m 28,23.5 v -21 c 0,-0.554 -0.46947,-1 -1.05263,-1 H 11.05263 C 10.46947,1.5 10,1.946 10,2.5 v 21 c 0,0.554 0.46947,1 1.05263,1 H 26.94737 C 27.53053,24.5 28,24.054 28,23.5 Z"
     id="rect4503"
     inkscape:connector-curvature="0"
     sodipodi:nodetypes="sssssssss" />
  <g
     id="g4884"
     transform="matrix(0.06944444,0,0,0.06944444,-9.333332,8.40673)"
     style="display:inline;enable-background:new">
    <path
       transform="translate(0,-244)"
       id="path4886"
       d="m 408,228 a 40,40 0 0 0 -40,40 40,40 0 0 0 5.46875,20.08984 A 40,40 0 0 0 336,328 40,40 0 0 0 376,368 40,40 0 0 0 407.99414,351.92578 40,40 0 0 0 440,368 40,40 0 0 0 480,328 40,40 0 0 0 442.52148,288.125 40,40 0 0 0 448,268 40,40 0 0 0 408,228 Z"
       style="opacity:1;fill:#3f3f3f;fill-opacity:1;stroke:none;stroke-width:2;stroke-linecap:round;stroke-linejoin:round;stroke-miterlimit:4;stroke-dasharray:none;stroke-opacity:1"
       inkscape:connector-curvature="0" />
    <path
       sodipodi:nodetypes="ccccccc"
       inkscape:connector-curvature="0"
       id="path4888"
       d="m 418.28576,107.14331 h -20.57143 c 0,0 0,30.85714 -30.85714,30.85714 v 10.28571 h 82.28571 v -10.28571 c -30.85714,0 -30.85714,-30.85714 -30.85714,-30.85714 z"
       style="opacity:1;fill:#3f3f3f;fill-opacity:1;fill-rule:evenodd;stroke:none;stroke-width:1px;stroke-linecap:butt;stroke-linejoin:miter;stroke-opacity:1" />
  </g>
  <path
     style="display:inline;fill:#ffffff;fill-opacity:1;stroke:none;enable-background:new"
     d="m 22,28.5 v -21 c 0,-0.554 -0.46947,-1 -1.05263,-1 H 5.05263 C 4.46947,6.5 4,6.946 4,7.5 v 21 c 0,0.554 0.46947,1 1.05263,1 H 20.94737 C 21.53053,29.5 22,29.054 22,28.5 Z"
     id="rect4501"
     inkscape:connector-curvature="0"
     sodipodi:nodetypes="sssssssss" />
  <path
     style="display:inline;opacity:0.2;fill:#ffffff;fill-opacity:1;stroke:none;enable-background:new"
     d="M 5.05263,6.5 C 4.46947,6.5 4,6.946 4,7.5 v 1 c 0,-0.554 0.46947,-1 1.05263,-1 H 20.94737 C 21.53053,7.5 22,7.946 22,8.5 v -1 c 0,-0.554 -0.46947,-1 -1.05263,-1 z"
     id="rect4511"
     inkscape:connector-curvature="0"
     sodipodi:nodetypes="sscsscsss" />
  <path
     id="path4517"
     d="M 11.05263,1.5 C 10.46947,1.5 10,1.946 10,2.5 v 1 c 0,-0.554 0.46947,-1 1.05263,-1 H 26.94737 C 27.53053,2.5 28,2.946 28,3.5 v -1 c 0,-0.554 -0.46947,-1 -1.05263,-1 z"
     style="display:inline;opacity:0.2;fill:#ffffff;fill-opacity:1;stroke:none;enable-background:new"
     inkscape:connector-curvature="0"
     sodipodi:nodetypes="sscsscsss" />
  <path
     inkscape:connector-curvature="0"
     style="display:inline;fill:#f34235;fill-opacity:1;enable-background:new"
     d="m 15.1875,13.50004 c -0.88899,0 -1.67203,0.42054 -2.1875,1.06446 -0.51547,-0.64392 -1.29852,-1.06446 -2.1875,-1.06446 -1.55336,0 -2.8125,1.25915 -2.8125,2.8125 0,0.0311 0.008,0.0604 0.009,0.0916 H 8 c 0,2.88327 5,7.09593 5,7.09593 0,0 5,-4.21266 5,-7.09593 h -0.009 c 6.3e-4,-0.0312 0.009,-0.0605 0.009,-0.0916 0,-1.55335 -1.25914,-2.8125 -2.8125,-2.8125 z"
     id="path4882"
     sodipodi:nodetypes="ccsscccccsc" />
</svg>
