<?xml version="1.0" encoding="UTF-8" standalone="no"?>
<svg
   width="32"
   height="32"
   version="1"
   id="svg14"
   sodipodi:docname="libreoffice5.1-math.svg"
   inkscape:version="1.1.1 (3bf5ae0d25, 2021-09-20)"
   xmlns:inkscape="http://www.inkscape.org/namespaces/inkscape"
   xmlns:sodipodi="http://sodipodi.sourceforge.net/DTD/sodipodi-0.dtd"
   xmlns="http://www.w3.org/2000/svg"
   xmlns:svg="http://www.w3.org/2000/svg">
  <defs
     id="defs18" />
  <sodipodi:namedview
     id="namedview16"
     pagecolor="#505050"
     bordercolor="#ffffff"
     borderopacity="1"
     inkscape:pageshadow="0"
     inkscape:pageopacity="0"
     inkscape:pagecheckerboard="1"
     showgrid="false"
     inkscape:zoom="23.03125"
     inkscape:cx="16"
     inkscape:cy="15.97829"
     inkscape:current-layer="svg14" />
  <path
     fill="#636e73"
     d="m27 28.5v-25c0-0.831-0.669-1.5-1.5-1.5h-19c-0.831 0-1.5 0.669-1.5 1.5v25c0 0.831 0.669 1.5 1.5 1.5h19c0.831 0 1.5-0.669 1.5-1.5z"
     id="path2"
     style="fill:#009688" />
  <path
     opacity=".1"
     d="m7 5v24h18v-15.586l-8.414-8.414h-9.586zm12.414 0 5.586 5.586v-5.586h-5.586z"
     id="path4" />
  <path
     fill="#f5f5f5"
     d="m7 4v24h18v-15.586l-8.414-8.414h-9.586zm12.414 0 5.586 5.5859v-5.5859h-5.586z"
     id="path6" />
  <path
     fill="#fff"
     opacity=".1"
     d="m6.5 2c-0.831 0-1.5 0.669-1.5 1.5v1c0-0.831 0.669-1.5 1.5-1.5h19c0.831 0 1.5 0.669 1.5 1.5v-1c0-0.831-0.669-1.5-1.5-1.5z"
     id="path8" />
  <path
     opacity=".2"
     d="m5 28.5v1c0 0.831 0.669 1.5 1.5 1.5h19c0.831 0 1.5-0.669 1.5-1.5v-1c0 0.831-0.669 1.5-1.5 1.5h-19c-0.831 0-1.5-0.669-1.5-1.5z"
     id="path10" />
  <path
     style="opacity:0.5"
     d="m 14.613282,15 -0.09375,0.40625 -1.619141,7.894531 -1.249625,-4.252367 H 9 v 0.951172 h 1.947265 l 1.500001,4.949633 h 1.103516 L 15.425782,16 h 5.583984 v -1 z m 2.40625,3 2.5,3.5 -2.5,3.5 h 1 l 2,-2.789062 2,2.789062 h 1 l -2.5,-3.5 2.5,-3.5 h -1 l -2,2.789062 -2,-2.789062 z"
     id="path12" />
</svg>
