<?xml version="1.0" encoding="UTF-8" standalone="no"?>
<svg
   width="32"
   height="32"
   version="1.0"
   id="svg14"
   sodipodi:docname="meld.svg"
   inkscape:version="1.1.1 (3bf5ae0d25, 2021-09-20)"
   xmlns:inkscape="http://www.inkscape.org/namespaces/inkscape"
   xmlns:sodipodi="http://sodipodi.sourceforge.net/DTD/sodipodi-0.dtd"
   xmlns="http://www.w3.org/2000/svg"
   xmlns:svg="http://www.w3.org/2000/svg">
  <defs
     id="defs18" />
  <sodipodi:namedview
     id="namedview16"
     pagecolor="#505050"
     bordercolor="#ffffff"
     borderopacity="1"
     inkscape:pageshadow="0"
     inkscape:pageopacity="0"
     inkscape:pagecheckerboard="1"
     showgrid="false"
     inkscape:zoom="23.03125"
     inkscape:cx="16"
     inkscape:cy="16.02171"
     inkscape:current-layer="g936" />
  <g
     id="g936"
     transform="translate(-2.757123,-0.15197)">
    <path
       sodipodi:nodetypes="ccccccc"
       inkscape:connector-curvature="0"
       id="path4444"
       d="m 4.757123,1.65197 h 23.8 c 0,0 4.2,0 4.2,4.2 v 23.8 h -23.8 l -4.2,-4.2 z"
       style="display:inline;fill:#4caf50;fill-opacity:1;stroke:none;stroke-width:8;stroke-linecap:round;stroke-linejoin:round;stroke-miterlimit:4;stroke-dasharray:none;stroke-opacity:1;enable-background:new" />
    <path
       sodipodi:nodetypes="csscaaaaaacsaaaacc"
       inkscape:connector-curvature="0"
       id="path4446"
       d="m 4.757123,1.65197 v 23.8 c 0,2.3268 1.8732,4.2 4.2,4.2 h 18.2 c 0,0 3.01396,-13.38068 -0.47576,-18.44529 -1.52737,-2.21668 -4.80374,-3.44317 -7.46966,-3.06974 -2.42689,0.33996 -4.89586,2.26609 -5.77037,4.55532 -0.51408,1.34574 -0.0919,3.08334 0.74281,4.25746 0.75,1.05498 2.09985,1.92223 3.39378,1.88721 1.00033,-0.0271 2.37598,-0.61178 2.54095,-1.59878 0.11376,-0.68061 -1.2984,-1.61237 -1.2984,-1.61237 0,0 -1.2298,-0.62472 -1.24674,-1.58271 -0.0225,-1.27186 2.51678,-1.48135 3.6873,-0.98333 1.85178,0.78787 3.37205,3.3198 2.92429,5.28178 -0.63697,2.79102 -4.14823,4.82973 -7.00783,4.96492 -2.5497,0.12054 -5.34876,-1.61472 -6.63817,-3.81766 -3.00354,-5.13153 -0.1822,-17.83681 -0.1822,-17.83681 z"
       style="display:inline;fill:#ff9800;fill-opacity:1;stroke:none;enable-background:new" />
    <path
       style="display:inline;opacity:0.2;fill:#ffffff;fill-opacity:1;stroke:none;stroke-width:8;stroke-linecap:round;stroke-linejoin:round;stroke-miterlimit:4;stroke-dasharray:none;stroke-opacity:1;enable-background:new"
       d="m 4.757123,1.65197 v 1 h 23.80078 c 0,0 4.19922,-7.8e-4 4.19922,4.19922 v -1 c 0,-4.2 -4.19922,-4.19922 -4.19922,-4.19922 z"
       id="path4626" />
    <path
       id="path4636"
       d="m 32.757123,30.65197 v -1 H 8.956343 c 0,0 -4.19922,7.8e-4 -4.19922,-4.19922 v 1 c 0,4.2 4.19922,4.19922 4.19922,4.19922 z"
       style="display:inline;opacity:0.2;fill:#000000;fill-opacity:1;stroke:none;stroke-width:8;stroke-linecap:round;stroke-linejoin:round;stroke-miterlimit:4;stroke-dasharray:none;stroke-opacity:1;enable-background:new"
       inkscape:connector-curvature="0" />
  </g>
</svg>
