<?xml version="1.0" encoding="UTF-8" standalone="no"?>
<svg
   width="32"
   height="32"
   version="1"
   id="svg12"
   sodipodi:docname="mintupload.svg"
   inkscape:version="1.1.1 (3bf5ae0d25, 2021-09-20)"
   xmlns:inkscape="http://www.inkscape.org/namespaces/inkscape"
   xmlns:sodipodi="http://sodipodi.sourceforge.net/DTD/sodipodi-0.dtd"
   xmlns="http://www.w3.org/2000/svg"
   xmlns:svg="http://www.w3.org/2000/svg">
  <defs
     id="defs16" />
  <sodipodi:namedview
     id="namedview14"
     pagecolor="#505050"
     bordercolor="#ffffff"
     borderopacity="1"
     inkscape:pageshadow="0"
     inkscape:pageopacity="0"
     inkscape:pagecheckerboard="1"
     showgrid="false"
     inkscape:zoom="23.03125"
     inkscape:cx="16"
     inkscape:cy="15.97829"
     inkscape:current-layer="svg12" />
  <rect
     fill="#687df9"
     width="28"
     height="28"
     x="2"
     y="2"
     rx="1.5"
     ry="1.5"
     id="rect2"
     style="fill:#3f51b5" />
  <path
     fill="#fff"
     opacity=".1"
     d="m3.5 2c-0.831 0-1.5 0.669-1.5 1.5v1c0-0.831 0.669-1.5 1.5-1.5h25c0.831 0 1.5 0.669 1.5 1.5v-1c0-0.831-0.669-1.5-1.5-1.5h-25z"
     id="path4" />
  <path
     style="opacity:0.2"
     d="m 14.572,27 c -0.39572,0 -0.71484,-0.34338 -0.71484,-0.76953 v -12.307 h -2.8574 l 5,-6.924 5,6.9238 h -2.8574 v 12.307 c 0,0.4256 -0.32,0.769 -0.715,0.769 z"
     id="path6" />
  <path
     style="fill:#ffffff"
     d="m 14.572,26.00053 c -0.39572,0 -0.71484,-0.34338 -0.71484,-0.76953 V 12.924 h -2.8574 l 5,-6.924 5,6.9238 h -2.8574 v 12.307 c 0,0.4256 -0.32,0.769 -0.715,0.769 z"
     id="path8" />
  <path
     opacity=".2"
     d="m2 28.5v1c0 0.831 0.669 1.5 1.5 1.5h25c0.831 0 1.5-0.669 1.5-1.5v-1c0 0.831-0.669 1.5-1.5 1.5h-25c-0.831 0-1.5-0.669-1.5-1.5z"
     id="path10" />
</svg>
