<?xml version="1.0" encoding="UTF-8" standalone="no"?>
<svg
   width="32"
   height="32"
   version="1"
   id="svg28"
   sodipodi:docname="xviewer.svg"
   inkscape:version="1.1.1 (3bf5ae0d25, 2021-09-20)"
   xmlns:inkscape="http://www.inkscape.org/namespaces/inkscape"
   xmlns:sodipodi="http://sodipodi.sourceforge.net/DTD/sodipodi-0.dtd"
   xmlns="http://www.w3.org/2000/svg"
   xmlns:svg="http://www.w3.org/2000/svg">
  <defs
     id="defs32">
    <filter
       inkscape:collect="always"
       id="filter4528"
       x="-0.12"
       width="1.24"
       y="-0.12"
       height="1.24">
      <feGaussianBlur
         inkscape:collect="always"
         stdDeviation="0.4"
         id="feGaussianBlur4530" />
    </filter>
  </defs>
  <sodipodi:namedview
     id="namedview30"
     pagecolor="#505050"
     bordercolor="#ffffff"
     borderopacity="1"
     inkscape:pageshadow="0"
     inkscape:pageopacity="0"
     inkscape:pagecheckerboard="1"
     showgrid="false"
     inkscape:zoom="23.03125"
     inkscape:cx="21.383989"
     inkscape:cy="14.458616"
     inkscape:current-layer="svg28" />
  <path
     inkscape:connector-curvature="0"
     style="display:inline;fill:#4fc3f7;fill-opacity:1;stroke:none;enable-background:new"
     d="M 3.5,3.5 C 2.669,3.5 2,4.169 2,5 V 21.5 H 30 V 5 C 30,4.169 29.331,3.5 28.5,3.5 Z M 29.59375,27 c -0.25305,0.25267 -0.6122,0.40475 -1,0.40625 L 3.5,27.5 h 25 c 0.43994,0 0.81985,-0.20022 1.09375,-0.5 z"
     id="rect4255" />
  <path
     style="display:inline;opacity:0.2;fill:#ffffff;fill-opacity:1;stroke:none;enable-background:new"
     d="M 3.5,3.5 C 2.669,3.5 2,4.169 2,5 V 6 C 2,5.169 2.669,4.5 3.5,4.5 h 25 C 29.331,4.5 30,5.169 30,6 V 5 C 30,4.169 29.331,3.5 28.5,3.5 Z"
     id="rect4091"
     inkscape:connector-curvature="0" />
  <path
     style="color:#000000;display:inline;overflow:visible;visibility:visible;opacity:0.2;fill:#000000;fill-opacity:1;fill-rule:evenodd;stroke:none;stroke-width:14;marker:none;filter:url(#filter4528);enable-background:new"
     d="m 23,8 c 2.20914,0 4,1.79086 4,4 0,2.20914 -1.79086,4 -4,4 -2.20914,0 -4,-1.79086 -4,-4 0,-2.20914 1.79086,-4 4,-4 z"
     id="path4526"
     inkscape:connector-curvature="0"
     sodipodi:nodetypes="sssss" />
  <path
     sodipodi:nodetypes="sssss"
     inkscape:connector-curvature="0"
     id="path4495"
     d="m 23,7 c 2.20914,0 4,1.79086 4,4 0,2.20914 -1.79086,4 -4,4 -2.20914,0 -4,-1.79086 -4,-4 0,-2.20914 1.79086,-4 4,-4 z"
     style="color:#000000;display:inline;overflow:visible;visibility:visible;fill:#ffeb3b;fill-opacity:1;fill-rule:evenodd;stroke:none;stroke-width:14;marker:none;enable-background:new" />
  <path
     id="path4106"
     d="M 3.5,28.5 C 2.669,28.5 2,27.831 2,27 v -1 c 0,0.831 0.669,1.5 1.5,1.5 h 25 c 0.831,0 1.5,-0.669 1.5,-1.5 v 1 c 0,0.831 -0.669,1.5 -1.5,1.5 z"
     style="display:inline;opacity:0.2;fill:#000000;fill-opacity:1;stroke:none;enable-background:new"
     inkscape:connector-curvature="0" />
  <ellipse
     style="fill:#9ccc65;stroke-width:79.476;stroke-linecap:round;paint-order:markers fill stroke"
     id="path1543"
     cx="10"
     cy="21"
     rx="8"
     ry="3.5" />
  <path
     style="fill:#9ccc65;stroke-width:73.5805;stroke-linecap:round;paint-order:markers fill stroke"
     id="ellipse2253"
     sodipodi:type="arc"
     sodipodi:cx="30"
     sodipodi:cy="21.5"
     sodipodi:rx="8"
     sodipodi:ry="4"
     sodipodi:start="1.5707963"
     sodipodi:end="4.712389"
     sodipodi:arc-type="slice"
     d="m 30,25.5 a 8,4 0 0 1 -6.928203,-2 8,4 0 0 1 0,-4 A 8,4 0 0 1 30,17.5 v 4 z" />
  <path
     style="fill:#689f38;stroke-width:79.476;stroke-linecap:round;paint-order:markers fill stroke"
     id="ellipse2591"
     sodipodi:type="arc"
     sodipodi:cx="-2"
     sodipodi:cy="21.5"
     sodipodi:rx="8"
     sodipodi:ry="3.5"
     sodipodi:start="1.5707963"
     sodipodi:end="4.712389"
     sodipodi:arc-type="slice"
     d="m -2,25 a 8,3.5 0 0 1 -6.9282032,-1.75 8,3.5 0 0 1 0,-3.5 A 8,3.5 0 0 1 -2,18 v 3.5 z"
     transform="scale(-1,1)" />
  <path
     style="fill:#689f38;stroke-width:73.5805;stroke-linecap:round;paint-order:markers fill stroke"
     id="path3338"
     sodipodi:type="arc"
     sodipodi:cx="30"
     sodipodi:cy="21.5"
     sodipodi:rx="8"
     sodipodi:ry="3"
     sodipodi:start="1.5707963"
     sodipodi:end="4.712389"
     sodipodi:arc-type="slice"
     d="m 30,24.5 a 8,3 0 0 1 -6.928203,-1.5 8,3 0 0 1 0,-3 A 8,3 0 0 1 30,18.5 v 3 z" />
  <ellipse
     style="fill:#7cb342;stroke-width:94.992;stroke-linecap:round;paint-order:markers fill stroke"
     id="ellipse1709"
     cx="16"
     cy="22"
     rx="10"
     ry="4" />
  <path
     style="display:inline;fill:#8bc34a;fill-opacity:1;stroke:none;enable-background:new"
     d="M 2,21.5 V 26 c 0,0 0,1.50598 1.5,1.5 L 28.6,27.4 C 29.3756,27.397 30,26.7756 30,26 v -4.5 z"
     id="path4497"
     inkscape:connector-curvature="0"
     sodipodi:nodetypes="ccssscc" />
  <ellipse
     style="fill:#8bc34a;stroke-width:67.1695;stroke-linecap:round;paint-order:markers fill stroke"
     id="ellipse1981"
     cx="20"
     cy="22"
     rx="8"
     ry="2.5" />
</svg>
