<?xml version="1.0" encoding="UTF-8" standalone="no"?>
<svg
   width="32"
   height="32"
   version="1"
   id="svg24"
   sodipodi:docname="video-player.svg"
   inkscape:version="1.1.1 (3bf5ae0d25, 2021-09-20)"
   xmlns:inkscape="http://www.inkscape.org/namespaces/inkscape"
   xmlns:sodipodi="http://sodipodi.sourceforge.net/DTD/sodipodi-0.dtd"
   xmlns="http://www.w3.org/2000/svg"
   xmlns:svg="http://www.w3.org/2000/svg">
  <defs
     id="defs28" />
  <sodipodi:namedview
     id="namedview26"
     pagecolor="#505050"
     bordercolor="#ffffff"
     borderopacity="1"
     inkscape:pageshadow="0"
     inkscape:pageopacity="0"
     inkscape:pagecheckerboard="1"
     showgrid="false"
     inkscape:zoom="23.03125"
     inkscape:cx="16"
     inkscape:cy="16.02171"
     inkscape:current-layer="svg24" />
  <path
     style="display:inline;opacity:0.2;fill:#000000;fill-opacity:1;enable-background:new"
     d="M 4.30078,28.51465 C 3.026582,28.51465 2,27.48807 2,26.21387 v -3.72852 0 h 28 v 3.72852 c 0,1.2742 -1.02658,2.30078 -2.30078,2.30078 z"
     id="path4419"
     inkscape:connector-curvature="0"
     sodipodi:nodetypes="sscccsss" />
  <path
     style="display:inline;fill:#9c27b0;fill-opacity:1;stroke:none;enable-background:new"
     d="M 4.30078,3.48535 C 3.026583,3.48535 2,4.51193 2,5.78613 v 3.72852 11.9707 H 30 V 9.51465 5.78613 C 30,4.51193 28.97342,3.48535 27.69922,3.48535 Z"
     id="rect4255" />
  <path
     style="display:inline;opacity:0.2;fill:#ffffff;fill-opacity:1;enable-background:new"
     d="M 4.30078,3.48535 C 3.026583,3.48535 2,4.51193 2,5.78613 v 0.9707 C 2,5.48263 3.026583,4.45605 4.30078,4.45605 H 27.69922 C 28.97342,4.45605 30,5.48263 30,6.75683 V 5.78613 C 30,4.51193 28.97342,3.48535 27.69922,3.48535 Z"
     id="path4421" />
  <path
     sodipodi:nodetypes="sscccsss"
     inkscape:connector-curvature="0"
     id="path4417"
     d="M 4.30078,27.51465 C 3.026582,27.51465 2,26.48807 2,25.21387 v -3.72852 0 h 28 v 3.72852 c 0,1.2742 -1.02658,2.30078 -2.30078,2.30078 z"
     style="display:inline;fill:#f2f2f2;fill-opacity:1;enable-background:new" />
  <rect
     style="display:inline;fill:#999999;fill-opacity:1;stroke:none;stroke-width:2;stroke-linecap:round;stroke-linejoin:miter;stroke-miterlimit:4;stroke-dasharray:none;stroke-opacity:1;enable-background:new"
     id="rect4385"
     width="8"
     height="2"
     x="20"
     y="23.48535"
     ry="1" />
  <rect
     ry="1"
     y="23.48535"
     x="3.9999998"
     height="2"
     width="16"
     id="rect4389"
     style="display:inline;fill:#9c27b0;fill-opacity:1;stroke:none;stroke-width:2;stroke-linecap:round;stroke-linejoin:miter;stroke-miterlimit:4;stroke-dasharray:none;stroke-opacity:1;enable-background:new" />
  <circle
     r="2"
     cy="25.48535"
     cx="20"
     id="circle4440"
     style="display:inline;opacity:0.2;fill:#000000;fill-opacity:1;stroke:none;stroke-width:2;stroke-linecap:round;stroke-linejoin:miter;stroke-miterlimit:4;stroke-dasharray:none;stroke-opacity:1;enable-background:new" />
  <circle
     style="display:inline;fill:#ffffff;fill-opacity:1;stroke:none;stroke-width:2;stroke-linecap:round;stroke-linejoin:miter;stroke-miterlimit:4;stroke-dasharray:none;stroke-opacity:1;enable-background:new"
     id="path4387"
     cx="20"
     cy="24.48535"
     r="2" />
  <rect
     y="21.48535"
     x="1.9999998"
     height="1"
     width="28"
     id="rect13705"
     style="display:inline;fill:#ffffff;fill-opacity:1;stroke:none;stroke-width:2;stroke-linecap:round;stroke-linejoin:miter;stroke-miterlimit:4;stroke-dasharray:none;stroke-opacity:1;enable-background:new" />
  <path
     sodipodi:nodetypes="ccccccccc"
     inkscape:connector-curvature="0"
     id="path13683"
     d="m 12.44395,8.48535 c -0.24524,-1.3e-4 -0.44409,0.1991 -0.44396,0.44482 v 9.10984 c -8e-5,0.33795 0.36131,0.55243 0.65706,0.38996 l 8.33455,-4.55493 c 0.30749,-0.16869 0.30749,-0.61122 0,-0.77991 L 13.49021,8.99541 12.65705,8.54022 c -0.0653,-0.0359 -0.13859,-0.0548 -0.2131,-0.0548 z"
     style="color:#000000;font-style:normal;font-variant:normal;font-weight:normal;font-stretch:normal;font-size:medium;line-height:normal;font-family:sans-serif;text-indent:0;text-align:start;text-decoration:none;text-decoration-line:none;text-decoration-style:solid;text-decoration-color:#000000;letter-spacing:normal;word-spacing:normal;text-transform:none;writing-mode:lr-tb;direction:ltr;baseline-shift:baseline;text-anchor:start;white-space:normal;clip-rule:nonzero;display:inline;overflow:visible;visibility:visible;opacity:0.2;isolation:auto;mix-blend-mode:normal;color-interpolation:sRGB;color-interpolation-filters:linearRGB;solid-color:#000000;solid-opacity:1;fill:#000000;fill-opacity:1;fill-rule:nonzero;stroke:none;stroke-width:1.17115;stroke-linecap:butt;stroke-linejoin:round;stroke-miterlimit:4;stroke-dasharray:none;stroke-dashoffset:0;stroke-opacity:1;color-rendering:auto;image-rendering:auto;shape-rendering:auto;text-rendering:auto;enable-background:accumulate" />
  <path
     style="color:#000000;font-style:normal;font-variant:normal;font-weight:normal;font-stretch:normal;font-size:medium;line-height:normal;font-family:sans-serif;text-indent:0;text-align:start;text-decoration:none;text-decoration-line:none;text-decoration-style:solid;text-decoration-color:#000000;letter-spacing:normal;word-spacing:normal;text-transform:none;writing-mode:lr-tb;direction:ltr;baseline-shift:baseline;text-anchor:start;white-space:normal;clip-rule:nonzero;display:inline;overflow:visible;visibility:visible;isolation:auto;mix-blend-mode:normal;color-interpolation:sRGB;color-interpolation-filters:linearRGB;solid-color:#000000;solid-opacity:1;fill:#f3e5f5;fill-opacity:1;fill-rule:nonzero;stroke:none;stroke-width:1.17115;stroke-linecap:butt;stroke-linejoin:round;stroke-miterlimit:4;stroke-dasharray:none;stroke-dashoffset:0;stroke-opacity:1;color-rendering:auto;image-rendering:auto;shape-rendering:auto;text-rendering:auto;enable-background:accumulate"
     d="m 12.44395,7.48535 c -0.24524,-1.3e-4 -0.44409,0.1991 -0.44396,0.44482 v 9.10984 c -8e-5,0.33795 0.36131,0.55243 0.65706,0.38996 l 8.33455,-4.55493 c 0.30749,-0.16869 0.30749,-0.61122 0,-0.77991 L 13.49021,7.99541 12.65705,7.54022 c -0.0653,-0.0359 -0.13859,-0.0548 -0.2131,-0.0548 z"
     id="path4362"
     inkscape:connector-curvature="0"
     sodipodi:nodetypes="ccccccccc" />
</svg>
