<?xml version="1.0" encoding="UTF-8" standalone="no"?>
<svg
   width="32"
   height="32"
   version="1"
   id="svg14"
   sodipodi:docname="nbtexplorer.svg"
   inkscape:version="1.1.1 (3bf5ae0d25, 2021-09-20)"
   xmlns:inkscape="http://www.inkscape.org/namespaces/inkscape"
   xmlns:sodipodi="http://sodipodi.sourceforge.net/DTD/sodipodi-0.dtd"
   xmlns="http://www.w3.org/2000/svg"
   xmlns:svg="http://www.w3.org/2000/svg">
  <defs
     id="defs18" />
  <sodipodi:namedview
     id="namedview16"
     pagecolor="#505050"
     bordercolor="#ffffff"
     borderopacity="1"
     inkscape:pageshadow="0"
     inkscape:pageopacity="0"
     inkscape:pagecheckerboard="1"
     showgrid="false"
     inkscape:zoom="23.03125"
     inkscape:cx="16"
     inkscape:cy="15.97829"
     inkscape:current-layer="svg14" />
  <path
     style="opacity:0.1"
     d="m 15,3 v 3 h -2 v 6 h 2 v 2 H 13 V 13 H 12 V 12 H 10 V 10 H 6 v 2 h 2 v 2 h 2 v 2 h 2 v 1 h -2 v 2 H 3 v 2 h 3 v 2 h 2 v 3 h 2 v -3 h 2 v -2 h 1 v 2 h 2 v 2 h -2 v 1 3 1 1 h 2 2 2.099609 V 24 H 20 v -3 h 3 v 2 h 3 v 1 h 2 v -3 h -2 v -2 h -3 v -2 h -3 v 2 h -1 -2 v -2 h 2 v -2 h 1 v -2 h 3 v 2 h 1 v -2 h 2 V 11 9 H 24 V 6 h -1 v 4 H 20 17 V 6 3 Z"
     id="path6" />
  <path
     style="fill:#b1772f"
     d="m 15,29 h -2 v -4 h 2 v -3 h -2 v -4 h -1 v 2 H 3 v -2 h 7 v -2 h 3 V 15 H 12 V 13 H 10 V 11 H 6 V 9 h 4 v 2 h 2 v 1 h 1 v 3 h 2 V 11 H 13 V 5 h 2 V 2 h 2 v 3 h -2 v 4 h 2 v 1 h 3 V 9 h 3 V 5 h 1 v 5 h 2 v 2 h -2 v -2 h -4 v 2 h -3 v 3 h -2 v 3 h 2 V 30 H 15 Z M 8,22 h 2 v 3 H 8 Z m 18,-2 h -7 v -2 h 7 v 2 h 2 v 3 h -2 z"
     id="path8" />
  <path
     style="fill:#6b3f0d"
     d="m 13,28 h 2 v 2 h -2 z m 4,-4.078244 V 18 h -2 v -3 h -2 v 1 H 12 V 15 H 10 V 13 H 8 v -2 h 2 v 2 h 2 v 2 h 1 v -2 h 2 v 2 h 2 v -3 h 3 V 10 H 17 V 9 H 15 V 5 h 2 v 4 h 3 v 1 h 4 v 4 h -1 v -2 h -3 v 2 h -1 v 2 h -2 v 2 h 2 v 2 h 1 v 3 h -0.9 v 7 H 17 Z M 13,24 h 2 v 1 H 13 Z M 6,20 h 6 v -2 h 1 v 2 h -1 v 2 H 6 Z m 17,0 h 3 v 2 h -3 z m -3,-4 h 3 v 2 h -3 z m 4,-8 h 2 v 2 h -2 z"
     id="path10" />
</svg>
