<?xml version="1.0" encoding="UTF-8" standalone="no"?>
<svg
   width="32"
   height="32"
   version="1.1"
   id="svg18"
   sodipodi:docname="org.gnome.baobab.svg"
   inkscape:version="1.1.1 (3bf5ae0d25, 2021-09-20)"
   xmlns:inkscape="http://www.inkscape.org/namespaces/inkscape"
   xmlns:sodipodi="http://sodipodi.sourceforge.net/DTD/sodipodi-0.dtd"
   xmlns="http://www.w3.org/2000/svg"
   xmlns:svg="http://www.w3.org/2000/svg">
  <defs
     id="defs22" />
  <sodipodi:namedview
     id="namedview20"
     pagecolor="#505050"
     bordercolor="#ffffff"
     borderopacity="1"
     inkscape:pageshadow="0"
     inkscape:pageopacity="0"
     inkscape:pagecheckerboard="1"
     showgrid="false"
     inkscape:zoom="23.03125"
     inkscape:cx="16"
     inkscape:cy="16"
     inkscape:current-layer="svg18" />
  <circle
     style="opacity:0.2"
     cx="16"
     cy="17"
     r="14"
     id="circle2" />
  <path
     style="fill:#546e7a"
     d="M 30,16 C 30,23.731986 23.731986,30 16,30 12.02389,30 8.4349201,28.342458 5.886383,25.680668 3.4790075,23.166312 3.8637771,20.666094 3.8637771,16.910217 3.8637771,9.1782305 8.1813262,4.1671826 15.913313,4.1671826 23.645299,4.1671826 30,8.2680135 30,16 Z"
     id="path4" />
  <path
     style="opacity:0.1"
     d="m 16,3.000422 c -7.7319865,0 -14,6.2680135 -14,14 0.00346,3.711706 1.4811179,7.269736 4.1074219,9.892578 L 16,17.000422 h 14 c 0,-7.7319865 -6.268014,-14 -14,-14 z"
     id="path6" />
  <path
     style="fill:#90a4ae"
     d="M 30,16 H 16 V 2 c 7.731986,0 14,6.2680135 14,14 z"
     id="path8" />
  <path
     style="fill:#ec407a"
     d="M 16,2 C 8.2680135,2 2,8.2680135 2,16 c 0.00346,3.711706 1.4807272,7.270126 4.1070312,9.892968 L 16,16 Z"
     id="path10" />
  <path
     style="fill:#e91e63"
     d="M 16,13.9 6.1070312,23.792968 C 3.7278735,21.409326 2.287698,18.247929 2.0505859,14.888476 2.0190014,15.258167 2.0021261,15.628968 2,16 c 0.00346,3.711706 1.4807272,7.270126 4.1070312,9.892968 L 16,16 Z"
     id="path12" />
  <path
     style="fill:#b0bec5"
     d="M 16 13 L 16 16 L 30 16 C 30 14.969543 29.881208 13.967081 29.669922 13 L 16 13 z"
     id="path14" />
  <path
     style="opacity:0.2;fill:#ffffff"
     d="M 16 2 A 14 14 0 0 0 2 16 A 14 14 0 0 0 2.0214844 16.585938 A 14 14 0 0 1 16 3 A 14 14 0 0 1 29.978516 16.414062 A 14 14 0 0 0 30 16 A 14 14 0 0 0 16 2 z"
     id="path16" />
</svg>
