<?xml version="1.0" encoding="UTF-8" standalone="no"?>
<svg
   width="32"
   height="32"
   version="1.1"
   id="svg20"
   sodipodi:docname="pixelitor.svg"
   inkscape:version="1.1.1 (3bf5ae0d25, 2021-09-20)"
   xmlns:inkscape="http://www.inkscape.org/namespaces/inkscape"
   xmlns:sodipodi="http://sodipodi.sourceforge.net/DTD/sodipodi-0.dtd"
   xmlns="http://www.w3.org/2000/svg"
   xmlns:svg="http://www.w3.org/2000/svg">
  <defs
     id="defs24" />
  <sodipodi:namedview
     id="namedview22"
     pagecolor="#505050"
     bordercolor="#ffffff"
     borderopacity="1"
     inkscape:pageshadow="0"
     inkscape:pageopacity="0"
     inkscape:pagecheckerboard="1"
     showgrid="false"
     inkscape:zoom="23.03125"
     inkscape:cx="16"
     inkscape:cy="15.97829"
     inkscape:current-layer="svg20" />
  <path
     style="opacity:0.2"
     d="M 16,4 A 9,9 0 0 0 7.0039062,12.941406 9,9 0 0 0 2,21 9,9 0 0 0 11,30 9,9 0 0 0 15.998047,28.476562 9,9 0 0 0 21,30 9,9 0 0 0 30,21 9,9 0 0 0 24.998047,12.949219 9,9 0 0 0 16,4 Z"
     id="path2" />
  <circle
     style="fill:#76ff03"
     cx="11"
     cy="20"
     r="9"
     id="circle4" />
  <circle
     style="fill:#2962ff"
     cx="21"
     cy="20"
     r="9"
     id="circle6" />
  <circle
     style="fill:#ff1744"
     cx="16"
     cy="12"
     r="9"
     id="circle8" />
  <path
     style="fill:#ffff00"
     d="M 11 11 A 9 9 0 0 0 7.0039062 11.941406 A 9 9 0 0 0 7 12 A 9 9 0 0 0 12.001953 20.058594 A 9 9 0 0 1 12 20 A 9 9 0 0 1 16 12.525391 A 9 9 0 0 0 11 11 z"
     id="path10" />
  <path
     style="fill:#00e5ff"
     d="M 12.001953 20.050781 A 9 9 0 0 0 15.998047 27.476562 A 9 9 0 0 0 19.998047 20.058594 A 9 9 0 0 1 16 21 A 9 9 0 0 1 12.001953 20.050781 z"
     id="path12" />
  <path
     style="fill:#e040fb"
     d="M 21 11 A 9 9 0 0 0 16 12.521484 A 9 9 0 0 1 20 20 A 9 9 0 0 1 19.998047 20.050781 A 9 9 0 0 0 25 12 A 9 9 0 0 0 24.998047 11.949219 A 9 9 0 0 0 21 11 z"
     id="path14" />
  <path
     style="fill:#ffffff"
     d="M 16.001953 12.523438 A 9 9 0 0 0 12 20 A 9 9 0 0 0 12.001953 20.050781 A 9 9 0 0 0 16 21 A 9 9 0 0 0 19.998047 20.058594 A 9 9 0 0 0 20 20 A 9 9 0 0 0 16.001953 12.523438 z"
     id="path16" />
  <path
     style="opacity:0.2;fill:#ffffff"
     d="M 16 3 A 9 9 0 0 0 7 12 A 9 9 0 0 0 7.0214844 12.576172 A 9 9 0 0 1 16 4 A 9 9 0 0 1 24.978516 12.423828 A 9 9 0 0 0 25 12 A 9 9 0 0 0 16 3 z"
     id="path18" />
</svg>
