<?xml version="1.0" encoding="UTF-8" standalone="no"?>
<svg
   width="32"
   height="32"
   version="1"
   id="svg10"
   sodipodi:docname="preferences-bluetooth.svg"
   inkscape:version="1.1.1 (3bf5ae0d25, 2021-09-20)"
   xmlns:inkscape="http://www.inkscape.org/namespaces/inkscape"
   xmlns:sodipodi="http://sodipodi.sourceforge.net/DTD/sodipodi-0.dtd"
   xmlns="http://www.w3.org/2000/svg"
   xmlns:svg="http://www.w3.org/2000/svg">
  <defs
     id="defs14" />
  <sodipodi:namedview
     id="namedview12"
     pagecolor="#505050"
     bordercolor="#ffffff"
     borderopacity="1"
     inkscape:pageshadow="0"
     inkscape:pageopacity="0"
     inkscape:pagecheckerboard="1"
     showgrid="false"
     inkscape:zoom="23.03125"
     inkscape:cx="16"
     inkscape:cy="15.97829"
     inkscape:current-layer="svg10" />
  <rect
     fill="#324090"
     width="28"
     height="20"
     x="-30"
     y="-26"
     rx="11"
     ry="10"
     transform="matrix(0,-1,-1,0,0,0)"
     id="rect2"
     style="fill:#3f51b5" />
  <path
     fill="#fff"
     opacity=".1"
     d="m16 2c-5.54 0-10 4.906-10 11v1c0-6.094 4.46-11 10-11s10 4.906 10 11v-1c0-6.094-4.46-11-10-11z"
     id="path4" />
  <path
     fill="none"
     stroke="#fff"
     stroke-linecap="square"
     d="m11 11.5 9 9-4.5 4.25v-17.5l4.5 4.25-9 8"
     id="path6" />
  <path
     opacity=".2"
     d="m6 19v1c0 6.094 4.46 11 10 11s10-4.906 10-11v-1c0 6.094-4.46 11-10 11s-10-4.906-10-11z"
     id="path8" />
</svg>
