<?xml version="1.0" encoding="UTF-8" standalone="no"?>
<svg
   width="32"
   height="32"
   version="1.1"
   id="svg16"
   sodipodi:docname="display-capplet.svg"
   inkscape:version="1.1.1 (3bf5ae0d25, 2021-09-20)"
   xmlns:inkscape="http://www.inkscape.org/namespaces/inkscape"
   xmlns:sodipodi="http://sodipodi.sourceforge.net/DTD/sodipodi-0.dtd"
   xmlns="http://www.w3.org/2000/svg"
   xmlns:svg="http://www.w3.org/2000/svg">
  <defs
     id="defs20" />
  <sodipodi:namedview
     id="namedview18"
     pagecolor="#505050"
     bordercolor="#ffffff"
     borderopacity="1"
     inkscape:pageshadow="0"
     inkscape:pageopacity="0"
     inkscape:pagecheckerboard="1"
     showgrid="false"
     inkscape:zoom="23.03125"
     inkscape:cx="16"
     inkscape:cy="15.97829"
     inkscape:current-layer="svg16" />
  <rect
     style="opacity:0.2"
     width="26"
     height="17"
     x="4"
     y="5.5"
     rx="1.25"
     ry="1.25"
     id="rect6" />
  <rect
     style="fill:#00bcd4;stroke:none;stroke-width:0.755906;stroke-linecap:round;paint-order:markers fill stroke"
     id="rect1354"
     width="26"
     height="17"
     x="4"
     y="4.5"
     rx="1.25"
     ry="1.25" />
  <path
     style="opacity:0.1;fill:#ffffff"
     d="M 5.25,4.5 C 4.5575,4.5 4,5.0575 4,5.75 v 1 C 4,6.0575 4.5575,5.5 5.25,5.5 h 23.5 C 29.442,5.5 30,6.0575 30,6.75 v -1 C 30,5.0575 29.442,4.5 28.75,4.5 Z"
     id="path14" />
  <path
     style="opacity:0.2"
     d="m 2,4.5 v 22 c 0,2 2,2 2,2 H 30 Z M 7,15.37109 16.48242,23.5 H 7 Z"
     id="path2" />
  <path
     style="fill:#607d8b"
     d="m 2,3.5 v 22 c 0,2 2,2 2,2 H 30 Z M 7,14.37109 16.48242,22.5 H 7 Z"
     id="path4" />
  <path
     style="opacity:0.2;fill:#ffffff"
     d="m 2,3.5 v 1 l 26.83398,23 H 30 Z m 5,19 v 1 h 9.48242 l -1.16601,-1 z"
     id="path6" />
</svg>
