<?xml version="1.0" encoding="UTF-8" standalone="no"?>
<svg
   width="32"
   height="32"
   version="1"
   id="svg48"
   sodipodi:docname="mintlocale-im.svg"
   inkscape:version="1.1.1 (3bf5ae0d25, 2021-09-20)"
   xmlns:inkscape="http://www.inkscape.org/namespaces/inkscape"
   xmlns:sodipodi="http://sodipodi.sourceforge.net/DTD/sodipodi-0.dtd"
   xmlns="http://www.w3.org/2000/svg"
   xmlns:svg="http://www.w3.org/2000/svg">
  <defs
     id="defs52" />
  <sodipodi:namedview
     id="namedview50"
     pagecolor="#505050"
     bordercolor="#ffffff"
     borderopacity="1"
     inkscape:pageshadow="0"
     inkscape:pageopacity="0"
     inkscape:pagecheckerboard="1"
     showgrid="false"
     inkscape:zoom="23.03125"
     inkscape:cx="16"
     inkscape:cy="16.02171"
     inkscape:current-layer="svg48" />
  <rect
     transform="matrix(0,-1,-1,0,0,0)"
     style="display:inline;opacity:0.3;fill:#000000;fill-opacity:1;stroke:none;enable-background:new"
     id="rect4601"
     width="19"
     height="29"
     x="-26"
     y="-30.5"
     rx="1.5"
     ry="1.5" />
  <rect
     ry="1.5"
     rx="1.5"
     y="-30.5"
     x="-25"
     height="29"
     width="19"
     id="rect4582"
     style="display:inline;fill:#455a64;fill-opacity:1;stroke:none;enable-background:new"
     transform="matrix(0,-1,-1,0,0,0)" />
  <path
     style="display:inline;opacity:0.2;fill:#000000;fill-opacity:1;stroke:none;enable-background:new"
     d="m 4.875,10.000001 c -0.20775,0 -0.375,0.16725 -0.375,0.375 v 2.25 c 0,0.20775 0.16725,0.375 0.375,0.375 h 2.25 c 0.20775,0 0.375,-0.16725 0.375,-0.375 v -2.25 c 0,-0.20775 -0.16725,-0.375 -0.375,-0.375 z m 5,0 c -0.20775,0 -0.375,0.16725 -0.375,0.375 v 2.25 c 0,0.20775 0.16725,0.375 0.375,0.375 h 2.25 c 0.20775,0 0.375,-0.16725 0.375,-0.375 v -2.25 c 0,-0.20775 -0.16725,-0.375 -0.375,-0.375 z m 5,0 c -0.20775,0 -0.375,0.16725 -0.375,0.375 v 2.25 c 0,0.20775 0.16725,0.375 0.375,0.375 h 2.25 c 0.20775,0 0.375,-0.16725 0.375,-0.375 v -2.25 c 0,-0.20775 -0.16725,-0.375 -0.375,-0.375 z m 5,0 c -0.20775,0 -0.375,0.16725 -0.375,0.375 v 2.25 c 0,0.20775 0.16725,0.375 0.375,0.375 h 2.25 c 0.20775,0 0.375,-0.16725 0.375,-0.375 v -2.25 c 0,-0.20775 -0.16725,-0.375 -0.375,-0.375 z m 5,0 c -0.20775,0 -0.375,0.16725 -0.375,0.375 v 2.25 c 0,0.20775 0.16725,0.375 0.375,0.375 h 2.25 c 0.20775,0 0.375,-0.16725 0.375,-0.375 v -2.25 c 0,-0.20775 -0.16725,-0.375 -0.375,-0.375 z m -20,5 c -0.20775,0 -0.375,0.16725 -0.375,0.375 v 2.25 c 0,0.20775 0.16725,0.375 0.375,0.375 h 2.25 c 0.20775,0 0.375,-0.16725 0.375,-0.375 v -2.25 c 0,-0.20775 -0.16725,-0.375 -0.375,-0.375 z m 5,0 c -0.20775,0 -0.375,0.16725 -0.375,0.375 v 2.25 c 0,0.20775 0.16725,0.375 0.375,0.375 h 2.25 c 0.20775,0 0.375,-0.16725 0.375,-0.375 v -2.25 c 0,-0.20775 -0.16725,-0.375 -0.375,-0.375 z m 5,0 c -0.20775,0 -0.375,0.16725 -0.375,0.375 v 2.25 c 0,0.20775 0.16725,0.375 0.375,0.375 h 2.25 c 0.20775,0 0.375,-0.16725 0.375,-0.375 v -2.25 c 0,-0.20775 -0.16725,-0.375 -0.375,-0.375 z m 5,0 c -0.20775,0 -0.375,0.16725 -0.375,0.375 v 2.25 c 0,0.20775 0.16725,0.375 0.375,0.375 h 2.25 c 0.20775,0 0.375,-0.16725 0.375,-0.375 v -2.25 c 0,-0.20775 -0.16725,-0.375 -0.375,-0.375 z m 5,0 c -0.20775,0 -0.375,0.16725 -0.375,0.375 v 2.25 c 0,0.20775 0.16725,0.375 0.375,0.375 h 2.25 c 0.20775,0 0.375,-0.16725 0.375,-0.375 v -2.25 c 0,-0.20775 -0.16725,-0.375 -0.375,-0.375 z m -15,5 c -0.20775,0 -0.375,0.16725 -0.375,0.375 v 2.25 c 0,0.20775 0.16725,0.375 0.375,0.375 h 12.25 c 0.20775,0 0.375,-0.16725 0.375,-0.375 v -2.25 c 0,-0.20775 -0.16725,-0.375 -0.375,-0.375 z"
     id="path4611"
     inkscape:connector-curvature="0"
     sodipodi:nodetypes="sssssssssssssssssssssssssssssssssssssssssssssssssssssssssssssssssssssssssssssssssssssssssssssssssss" />
  <path
     sodipodi:nodetypes="sssssssssssssssssssssssssssssssssssssssssssssssssssssssssssssssssssssssssssssssssssssssssssssssssss"
     inkscape:connector-curvature="0"
     id="path4584"
     d="m 4.875,9.0000006 c -0.20775,0 -0.375,0.16725 -0.375,0.375 v 2.2500004 c 0,0.20775 0.16725,0.375 0.375,0.375 h 2.25 c 0.20775,0 0.375,-0.16725 0.375,-0.375 V 9.3750006 c 0,-0.20775 -0.16725,-0.375 -0.375,-0.375 z m 5,0 c -0.20775,0 -0.375,0.16725 -0.375,0.375 v 2.2500004 c 0,0.20775 0.16725,0.375 0.375,0.375 h 2.25 c 0.20775,0 0.375,-0.16725 0.375,-0.375 V 9.3750006 c 0,-0.20775 -0.16725,-0.375 -0.375,-0.375 z m 5,0 c -0.20775,0 -0.375,0.16725 -0.375,0.375 v 2.2500004 c 0,0.20775 0.16725,0.375 0.375,0.375 h 2.25 c 0.20775,0 0.375,-0.16725 0.375,-0.375 V 9.3750006 c 0,-0.20775 -0.16725,-0.375 -0.375,-0.375 z m 5,0 c -0.20775,0 -0.375,0.16725 -0.375,0.375 v 2.2500004 c 0,0.20775 0.16725,0.375 0.375,0.375 h 2.25 c 0.20775,0 0.375,-0.16725 0.375,-0.375 V 9.3750006 c 0,-0.20775 -0.16725,-0.375 -0.375,-0.375 z m 5,0 c -0.20775,0 -0.375,0.16725 -0.375,0.375 v 2.2500004 c 0,0.20775 0.16725,0.375 0.375,0.375 h 2.25 c 0.20775,0 0.375,-0.16725 0.375,-0.375 V 9.3750006 c 0,-0.20775 -0.16725,-0.375 -0.375,-0.375 z m -20,5.0000004 c -0.20775,0 -0.375,0.16725 -0.375,0.375 v 2.25 c 0,0.20775 0.16725,0.375 0.375,0.375 h 2.25 c 0.20775,0 0.375,-0.16725 0.375,-0.375 v -2.25 c 0,-0.20775 -0.16725,-0.375 -0.375,-0.375 z m 5,0 c -0.20775,0 -0.375,0.16725 -0.375,0.375 v 2.25 c 0,0.20775 0.16725,0.375 0.375,0.375 h 2.25 c 0.20775,0 0.375,-0.16725 0.375,-0.375 v -2.25 c 0,-0.20775 -0.16725,-0.375 -0.375,-0.375 z m 5,0 c -0.20775,0 -0.375,0.16725 -0.375,0.375 v 2.25 c 0,0.20775 0.16725,0.375 0.375,0.375 h 2.25 c 0.20775,0 0.375,-0.16725 0.375,-0.375 v -2.25 c 0,-0.20775 -0.16725,-0.375 -0.375,-0.375 z m 5,0 c -0.20775,0 -0.375,0.16725 -0.375,0.375 v 2.25 c 0,0.20775 0.16725,0.375 0.375,0.375 h 2.25 c 0.20775,0 0.375,-0.16725 0.375,-0.375 v -2.25 c 0,-0.20775 -0.16725,-0.375 -0.375,-0.375 z m 5,0 c -0.20775,0 -0.375,0.16725 -0.375,0.375 v 2.25 c 0,0.20775 0.16725,0.375 0.375,0.375 h 2.25 c 0.20775,0 0.375,-0.16725 0.375,-0.375 v -2.25 c 0,-0.20775 -0.16725,-0.375 -0.375,-0.375 z m -15,5 c -0.20775,0 -0.375,0.16725 -0.375,0.375 v 2.25 c 0,0.20775 0.16725,0.375 0.375,0.375 h 12.25 c 0.20775,0 0.375,-0.16725 0.375,-0.375 v -2.25 c 0,-0.20775 -0.16725,-0.375 -0.375,-0.375 z"
     style="display:inline;fill:#ffffff;fill-opacity:1;stroke:none;enable-background:new" />
  <path
     inkscape:connector-curvature="0"
     id="rect4596"
     d="m 3,6.0000006 c -0.831,0 -1.5,0.669 -1.5,1.5 v 1 c 0,-0.831 0.669,-1.5 1.5,-1.5 h 26 c 0.831,0 1.5,0.669 1.5,1.5 v -1 c 0,-0.831 -0.669,-1.5 -1.5,-1.5 z"
     style="display:inline;opacity:0.1;fill:#ffffff;fill-opacity:1;stroke:none;enable-background:new" />
</svg>
