<?xml version="1.0" encoding="UTF-8" standalone="no"?>
<svg
   width="32"
   height="32"
   version="1"
   id="svg18"
   sodipodi:docname="preferences-system-privacy.svg"
   inkscape:version="1.1.1 (3bf5ae0d25, 2021-09-20)"
   xmlns:inkscape="http://www.inkscape.org/namespaces/inkscape"
   xmlns:sodipodi="http://sodipodi.sourceforge.net/DTD/sodipodi-0.dtd"
   xmlns="http://www.w3.org/2000/svg"
   xmlns:svg="http://www.w3.org/2000/svg">
  <defs
     id="defs22" />
  <sodipodi:namedview
     id="namedview20"
     pagecolor="#505050"
     bordercolor="#ffffff"
     borderopacity="1"
     inkscape:pageshadow="0"
     inkscape:pageopacity="0"
     inkscape:pagecheckerboard="1"
     showgrid="false"
     inkscape:zoom="23.03125"
     inkscape:cx="16"
     inkscape:cy="15.97829"
     inkscape:current-layer="svg18" />
  <rect
     style="fill:#37474f"
     width="28"
     height="28"
     x="2"
     y="2"
     rx="14"
     ry="14"
     id="rect2" />
  <rect
     opacity=".2"
     width="22"
     height="22"
     x="-28"
     y="-27"
     rx="11"
     ry="11"
     transform="matrix(0,-1,-1,0,0,0)"
     id="rect4" />
  <rect
     style="fill:#607d8b"
     width="22"
     height="22"
     x="-27"
     y="-27"
     rx="11"
     ry="11"
     transform="matrix(0,-1,-1,0,0,0)"
     id="rect6" />
  <path
     opacity=".2"
     d="m16 8.75-2.2266 2.6719c-2.214 0.883-3.773 3.049-3.773 5.578 0 3.3137 2.6863 6 6 6s6-2.6863 6-6c0-2.5293-1.5589-4.6954-3.7734-5.5781l-2.227-2.672z"
     id="path8" />
  <path
     style="fill:#eceff1"
     d="m16 7.75-2.2266 2.6719c-2.214 0.883-3.773 3.049-3.773 5.578 0 3.3137 2.6863 6 6 6s6-2.6863 6-6c0-2.5293-1.5589-4.6954-3.7734-5.5781l-2.227-2.672z"
     id="path10" />
  <path
     fill="#fff"
     opacity=".1"
     d="m16 2c-7.756 0-14 6.244-14 14 0 0.169 0.0195 0.333 0.0254 0.5 0.2637-7.5206 6.3874-13.5 13.975-13.5 7.5872 0 13.711 5.9794 13.975 13.5 0.006-0.16736 0.0254-0.33116 0.0254-0.5 0-7.756-6.244-14-14-14z"
     id="path12" />
  <path
     fill="#fff"
     opacity=".1"
     d="m16 5c-6.094 0-11 4.906-11 11 0 0.169 0.0179 0.333 0.0254 0.5 0.2618-5.858 5.0496-10.5 10.975-10.5 5.925 0 10.713 4.6418 10.975 10.5 0.007-0.16708 0.0254-0.33101 0.0254-0.5 0-6.094-4.906-11-11-11z"
     id="path14" />
  <path
     opacity=".2"
     d="m2.0254 16.5c-0.0059 0.167-0.0254 0.331-0.0254 0.5 0 7.756 6.244 14 14 14s14-6.244 14-14c0-0.16884-0.01952-0.33264-0.02539-0.5-0.264 7.521-6.388 13.5-13.975 13.5-7.5872 0-13.711-5.979-13.975-13.5z"
     id="path16" />
</svg>
