<?xml version="1.0" encoding="UTF-8" standalone="no"?>
<svg
   width="32"
   height="32"
   version="1"
   id="svg16"
   sodipodi:docname="metacity.svg"
   inkscape:version="1.1.1 (3bf5ae0d25, 2021-09-20)"
   xmlns:inkscape="http://www.inkscape.org/namespaces/inkscape"
   xmlns:sodipodi="http://sodipodi.sourceforge.net/DTD/sodipodi-0.dtd"
   xmlns="http://www.w3.org/2000/svg"
   xmlns:svg="http://www.w3.org/2000/svg">
  <defs
     id="defs20" />
  <sodipodi:namedview
     id="namedview18"
     pagecolor="#505050"
     bordercolor="#ffffff"
     borderopacity="1"
     inkscape:pageshadow="0"
     inkscape:pageopacity="0"
     inkscape:pagecheckerboard="1"
     showgrid="false"
     inkscape:zoom="23.03125"
     inkscape:cx="16"
     inkscape:cy="15.97829"
     inkscape:current-layer="svg16" />
  <path
     style="fill:#eceff1"
     d="M 9.5,1 C 9.3521,1 9.2129,1.0288 9.0781,1.0684 9.2147,1.0357 9.3499,1 9.5,1 Z M 8,4.9 8,18.5 C 8,19.331 8.669,20 9.5,20 l 19,0 C 29.331,20 30,19.331 30,18.5 L 30,4.9 Z"
     id="path2" />
  <path
     opacity=".2"
     d="m8 18.5v1c0 0.831 0.669 1.5 1.5 1.5h19c0.831 0 1.5-0.669 1.5-1.5v-1c0 0.831-0.669 1.5-1.5 1.5h-19c-0.831 0-1.5-0.669-1.5-1.5z"
     id="path4" />
  <path
     style="fill:#eceff1"
     d="M 2,13.9 2,27.5 C 2,28.331 2.669,29 3.5,29 l 19,0 c 0.831,0 1.5,-0.669 1.5,-1.5 l 0,-13.6 z"
     id="path6" />
  <path
     style="fill:#455a64"
     d="M 3.5,10 C 2.669,10 2,10.669 2,11.5 l 0,2.5 22,0 0,-2.5 C 24,10.669 23.331,10 22.5,10 Z"
     id="path8" />
  <path
     style="fill:#263238"
     d="M 9.5,1 C 8.669,1 8,1.5 8,2.5 L 8,5 30,5 30,2.5 C 30,1.669 29.331,1 28.5,1 Z"
     id="path10" />
  <path
     fill="#fff"
     opacity=".1"
     d="m9.5 1c-0.831 0-1.5 0.669-1.5 1.5v1c0-0.831 0.669-1.5 1.5-1.5h19c0.831 0 1.5 0.669 1.5 1.5v-1c0-0.831-0.669-1.5-1.5-1.5z"
     id="path12" />
  <path
     opacity=".2"
     d="m2 27.5v1c0 0.831 0.669 1.5 1.5 1.5h19c0.831 0 1.5-0.669 1.5-1.5v-1c0 0.831-0.669 1.5-1.5 1.5h-19c-0.831 0-1.5-0.669-1.5-1.5z"
     id="path14" />
  <path
     fill="#ffffff"
     opacity="0.1"
     d="M 3.5,10 C 2.669,10 2,10.669 2,11.5 v 1 C 2,11.669 2.669,11 3.5,11 h 19 c 0.831,0 1.5,0.669 1.5,1.5 v -1 C 24,10.669 23.331,10 22.5,10 Z"
     id="path1035" />
</svg>
