<?xml version="1.0" encoding="UTF-8" standalone="no"?>
<svg
   width="32"
   height="32"
   version="1"
   id="svg18"
   sodipodi:docname="applications-graphics.svg"
   inkscape:version="1.1.1 (3bf5ae0d25, 2021-09-20)"
   xmlns:inkscape="http://www.inkscape.org/namespaces/inkscape"
   xmlns:sodipodi="http://sodipodi.sourceforge.net/DTD/sodipodi-0.dtd"
   xmlns="http://www.w3.org/2000/svg"
   xmlns:svg="http://www.w3.org/2000/svg">
  <defs
     id="defs22" />
  <sodipodi:namedview
     id="namedview20"
     pagecolor="#505050"
     bordercolor="#ffffff"
     borderopacity="1"
     inkscape:pageshadow="0"
     inkscape:pageopacity="0"
     inkscape:pagecheckerboard="1"
     showgrid="false"
     inkscape:zoom="23.03125"
     inkscape:cx="16.824966"
     inkscape:cy="12.244233"
     inkscape:current-layer="svg18" />
  <path
     inkscape:connector-curvature="0"
     d="m 16,2.5 c -7.73111,0 -14,6.26889 -14,14 0,7.73111 6.26889,14 14,14 1.29111,0 2.33333,-1.04222 2.33333,-2.33333 0,-0.60667 -0.23333,-1.15112 -0.60666,-1.57112 -0.35778,-0.40444 -0.59112,-0.94888 -0.59112,-1.54 0,-1.2911 1.04223,-2.33333 2.33334,-2.33333 h 2.75333 C 26.51555,22.72222 30,19.23778 30,14.94445 30,8.06889 23.73111,2.5 16,2.5 Z"
     id="path4311"
     style="display:inline;opacity:0.2;fill:#000000;fill-opacity:1;enable-background:new"
     sodipodi:nodetypes="sssscsssss" />
  <path
     sodipodi:nodetypes="sssscsssss"
     style="display:inline;fill:#ebebeb;fill-opacity:1;enable-background:new"
     id="path4213"
     d="m 16,1.5 c -7.73111,0 -14,6.26889 -14,14 0,7.73111 6.26889,14 14,14 1.29111,0 2.33333,-1.04222 2.33333,-2.33333 0,-0.60667 -0.23333,-1.15112 -0.60666,-1.57112 -0.35778,-0.40444 -0.59112,-0.94888 -0.59112,-1.54 0,-1.2911 1.04223,-2.33333 2.33334,-2.33333 h 2.75333 C 26.51555,21.72222 30,18.23778 30,13.94445 30,7.06889 23.73111,1.5 16,1.5 Z"
     inkscape:connector-curvature="0" />
  <circle
     style="display:inline;fill:#fec006;fill-opacity:1;stroke:none;stroke-width:1;stroke-linecap:round;stroke-linejoin:round;stroke-miterlimit:4;stroke-dasharray:none;stroke-opacity:1;enable-background:new"
     id="circle4215"
     cx="12.150002"
     cy="8.1499939"
     r="2.45" />
  <circle
     r="2.45"
     cy="7.4500122"
     cx="19.849998"
     id="circle4217"
     style="display:inline;fill:#4bae4f;fill-opacity:1;stroke:none;stroke-width:1;stroke-linecap:round;stroke-linejoin:round;stroke-miterlimit:4;stroke-dasharray:none;stroke-opacity:1;enable-background:new" />
  <circle
     r="2.45"
     cy="15.149994"
     cx="7.9499969"
     id="circle4219"
     style="display:inline;fill:#f34235;fill-opacity:1;stroke:none;stroke-width:1;stroke-linecap:round;stroke-linejoin:round;stroke-miterlimit:4;stroke-dasharray:none;stroke-opacity:1;enable-background:new" />
  <circle
     style="display:inline;fill:#2095f2;fill-opacity:1;stroke:none;stroke-width:1;stroke-linecap:round;stroke-linejoin:round;stroke-miterlimit:4;stroke-dasharray:none;stroke-opacity:1;enable-background:new"
     id="circle4221"
     cx="24.749998"
     cy="13.75"
     r="2.45" />
</svg>
