<?xml version="1.0" encoding="UTF-8" standalone="no"?>
<svg
   width="32"
   height="32"
   version="1"
   id="svg14"
   sodipodi:docname="preferences-desktop-notification.svg"
   inkscape:version="1.1.1 (3bf5ae0d25, 2021-09-20)"
   xmlns:inkscape="http://www.inkscape.org/namespaces/inkscape"
   xmlns:sodipodi="http://sodipodi.sourceforge.net/DTD/sodipodi-0.dtd"
   xmlns="http://www.w3.org/2000/svg"
   xmlns:svg="http://www.w3.org/2000/svg">
  <defs
     id="defs18" />
  <sodipodi:namedview
     id="namedview16"
     pagecolor="#505050"
     bordercolor="#ffffff"
     borderopacity="1"
     inkscape:pageshadow="0"
     inkscape:pageopacity="0"
     inkscape:pagecheckerboard="1"
     showgrid="false"
     inkscape:zoom="23.03125"
     inkscape:cx="16"
     inkscape:cy="15.97829"
     inkscape:current-layer="svg14" />
  <path
     fill="#4f4f4f"
     d="m6.3889 7c-0.7695 0-1.3889 0.6133-1.3889 1.375v16.5c0 0.76175 0.61944 1.375 1.3889 1.375h12.5l2.7778 2.75 2.7778-2.75h4.1667c0.769 0 1.388-0.613 1.388-1.375v-16.5c-0.001-0.7617-0.62-1.375-1.39-1.375z"
     id="path2"
     style="fill:#455a64" />
  <path
     fill="#fff"
     opacity=".1"
     d="m6.3887 7c-0.7695 0-1.3887 0.6133-1.3887 1.375v1c0-0.7617 0.6192-1.375 1.3887-1.375h22.222c0.77 0 1.389 0.6133 1.389 1.375v-1c0-0.7617-0.619-1.375-1.389-1.375h-22.222z"
     id="path4" />
  <circle
     opacity=".2"
     cx="10"
     cy="12"
     r="8"
     id="circle6" />
  <circle
     fill="#4daaf5"
     cx="9.9158058"
     cy="10.959224"
     r="8"
     id="circle8"
     style="fill:#00bcd4" />
  <path
     style="fill:#ffffff"
     d="m 9,6 v 7 h 2 V 6 Z m 0,8 v 2 h 2 v -2 z"
     id="path10" />
  <path
     opacity=".2"
     d="m5 24.875v1c0 0.762 0.6192 1.375 1.3887 1.375h12.5l2.777 2.75 2.779-2.75h4.166c0.77 0 1.389-0.613 1.389-1.375v-1c0 0.762-0.619 1.375-1.389 1.375h-4.166l-2.779 2.75-2.777-2.75h-12.5c-0.7698 0-1.389-0.613-1.389-1.375z"
     id="path12" />
</svg>
