<?xml version="1.0" encoding="UTF-8" standalone="no"?>
<svg
   width="32"
   height="32"
   version="1"
   id="svg14"
   sodipodi:docname="preferences-wallpaper.svg"
   inkscape:version="1.1.1 (3bf5ae0d25, 2021-09-20)"
   xmlns:inkscape="http://www.inkscape.org/namespaces/inkscape"
   xmlns:sodipodi="http://sodipodi.sourceforge.net/DTD/sodipodi-0.dtd"
   xmlns="http://www.w3.org/2000/svg"
   xmlns:svg="http://www.w3.org/2000/svg">
  <defs
     id="defs18" />
  <sodipodi:namedview
     id="namedview16"
     pagecolor="#505050"
     bordercolor="#ffffff"
     borderopacity="1"
     inkscape:pageshadow="0"
     inkscape:pageopacity="0"
     inkscape:pagecheckerboard="1"
     showgrid="false"
     inkscape:zoom="23.03125"
     inkscape:cx="16"
     inkscape:cy="15.97829"
     inkscape:current-layer="svg14" />
  <path
     style="fill:#1e88e5"
     transform="matrix(0,-1,-1,0,0,0)"
     d="m-16-30h9.5c0.831 0 1.5 0.669 1.5 1.5v25c0 0.831-0.669 1.5-1.5 1.5h-19c-0.831 0-1.5-0.669-1.5-1.5v-15.5z"
     id="path2" />
  <path
     style="opacity:1;fill:#1e88e5"
     transform="matrix(0,-1,-1,0,0,0)"
     d="m-17.161-28h10.161v24h-18v-16z"
     id="path4" />
  <path
     fill="#fff"
     opacity=".1"
     d="m3.5 5c-0.831 0-1.5 0.669-1.5 1.5v1c0-0.831 0.669-1.5 1.5-1.5h25c0.831 0 1.5 0.669 1.5 1.5v-1c0-0.831-0.669-1.5-1.5-1.5h-25z"
     id="path6" />
  <path
     style="fill:#455a64"
     d="m30 16h-9.625c-0.759 0-1.375 0.616-1.375 1.375v9.625z"
     id="path8" />
  <path
     fill="#fff"
     style="opacity:0.1"
     d="m20.375 16c-0.759 0-1.375 0.616-1.375 1.375v1c0-0.759 0.616-1.375 1.375-1.375h8.625l1-1h-9.625z"
     id="path10" />
  <path
     opacity=".2"
     d="m30 16-11 11h-15.5c-0.831 0-1.5-0.669-1.5-1.5v1c0 0.831 0.669 1.5 1.5 1.5h15.5l11-11v-1z"
     id="path12" />
  <path
     id="path2131"
     style="opacity:1;fill:#ffeb3b;stroke-width:49.9239;stroke-linecap:round;paint-order:markers fill stroke"
     d="m 28,10 a 3,3 0 0 1 -3,3 3,3 0 0 1 -3,-3 3,3 0 0 1 3,-3 3,3 0 0 1 3,3 z" />
  <rect
     style="opacity:1;fill:#7cb342;stroke-width:36.3742;stroke-linecap:round;paint-order:markers fill stroke"
     id="rect2354"
     width="17"
     height="6"
     x="2"
     y="21"
     rx="1.5"
     ry="1.5" />
  <rect
     style="opacity:1;fill:#7cb342;stroke-width:30.8702;stroke-linecap:round;paint-order:markers fill stroke"
     id="rect3006"
     width="17"
     height="3"
     x="2"
     y="21" />
  <rect
     style="opacity:1;fill:#7cb342;stroke-width:21.1768;stroke-linecap:round;paint-order:markers fill stroke"
     id="rect3088"
     width="8"
     height="3"
     x="11"
     y="24" />
</svg>
