<?xml version="1.0" encoding="UTF-8" standalone="no"?>
<svg
   width="32"
   height="32"
   version="1"
   id="svg8"
   sodipodi:docname="gnome-shell-extension-prefs.svg"
   inkscape:version="1.1.1 (3bf5ae0d25, 2021-09-20)"
   xmlns:inkscape="http://www.inkscape.org/namespaces/inkscape"
   xmlns:sodipodi="http://sodipodi.sourceforge.net/DTD/sodipodi-0.dtd"
   xmlns="http://www.w3.org/2000/svg"
   xmlns:svg="http://www.w3.org/2000/svg">
  <defs
     id="defs12" />
  <sodipodi:namedview
     id="namedview10"
     pagecolor="#505050"
     bordercolor="#ffffff"
     borderopacity="1"
     inkscape:pageshadow="0"
     inkscape:pageopacity="0"
     inkscape:pagecheckerboard="1"
     showgrid="false"
     inkscape:zoom="23.03125"
     inkscape:cx="16"
     inkscape:cy="15.97829"
     inkscape:current-layer="svg8" />
  <path
     opacity=".2"
     d="m14 2c-1.662 0-3 1.338-3 3v3h-7c-1.108 0-2 0.892-2 2v6h3c1.662 0 3 1.338 3 3s-1.338 3-3 3h-3v7c0 1.108 0.892 2 2 2h7v-2c0-1.662 1.338-3 3-3s3 1.338 3 3v2h6c1.108 0 2-0.892 2-2v-7h3c1.662 0 3-1.338 3-3s-1.338-3-3-3h-3v-6c0-1.108-0.892-2-2-2h-6v-3c0-1.662-1.338-3-3-3z"
     id="path2" />
  <path
     fill="#0780da"
     d="m14 1c-1.662 0-3 1.338-3 3v3h-7c-1.108 0-2 0.892-2 2v6h3c1.662 0 3 1.338 3 3s-1.338 3-3 3h-3v7c0 1.108 0.892 2 2 2h7v-2c0-1.662 1.338-3 3-3s3 1.338 3 3v2h6c1.108 0 2-0.892 2-2v-7h3c1.662 0 3-1.338 3-3s-1.338-3-3-3h-3v-6c0-1.108-0.892-2-2-2h-6v-3c0-1.662-1.338-3-3-3z"
     id="path4"
     style="fill:#8bc34a" />
  <path
     fill="#fff"
     opacity=".1"
     d="m14 1c-1.662 0-3 1.338-3 3v1c0-1.662 1.338-3 3-3s3 1.338 3 3v-1c0-1.662-1.338-3-3-3zm-10 6c-1.108 0-2 0.892-2 2v1c0-1.108 0.892-2 2-2h7v-1h-7zm13 0v1h6c1.108 0 2 0.892 2 2v-1c0-1.108-0.892-2-2-2h-6zm8 8v1h3c1.4904 0 2.7112 1.0793 2.9492 2.5 0.028-0.164 0.051-0.328 0.051-0.5 0-1.662-1.338-3-3-3h-3zm-17.051 3.5c-0.238 1.42-1.459 2.5-2.949 2.5h-3v1h3c1.662 0 3-1.338 3-3 0-0.172-0.0234-0.336-0.0508-0.5z"
     id="path6" />
</svg>
