<?xml version="1.0" encoding="UTF-8" standalone="no"?>
<svg
   width="32"
   height="32"
   version="1.1"
   id="svg32"
   sodipodi:docname="preferences-desktop-theme.svg"
   inkscape:version="1.1.1 (3bf5ae0d25, 2021-09-20)"
   xmlns:inkscape="http://www.inkscape.org/namespaces/inkscape"
   xmlns:sodipodi="http://sodipodi.sourceforge.net/DTD/sodipodi-0.dtd"
   xmlns="http://www.w3.org/2000/svg"
   xmlns:svg="http://www.w3.org/2000/svg">
  <defs
     id="defs36" />
  <sodipodi:namedview
     id="namedview34"
     pagecolor="#505050"
     bordercolor="#ffffff"
     borderopacity="1"
     inkscape:pageshadow="0"
     inkscape:pageopacity="0"
     inkscape:pagecheckerboard="1"
     showgrid="false"
     inkscape:zoom="23.03125"
     inkscape:cx="16"
     inkscape:cy="15.97829"
     inkscape:current-layer="svg32" />
  <path
     fill="#253951"
     d="m3.3998 29c-0.7756 0-1.4-0.6194-1.4-1.3889v-1.6111h28v1.6111c0 0.7695-0.6244 1.3889-1.4 1.3889z"
     id="path2"
     style="fill:#263238" />
  <path
     fill="#1e88e5"
     d="m3.4004 4c-0.7756 0-1.4004 0.6192-1.4004 1.3887v20.612h28v-20.611c0-0.7695-0.625-1.3887-1.4-1.3887h-25.2z"
     id="path4"
     style="fill:#00897b" />
  <path
     fill="#fff"
     opacity=".1"
     d="m3.4002 4c-0.7756 0-1.4004 0.6192-1.4004 1.3887v1c0-0.7695 0.6248-1.3887 1.4004-1.3887h25.2c0.775 0 1.4 0.6192 1.4 1.3887v-1c0-0.7695-0.625-1.3887-1.4-1.3887h-25.2z"
     id="path6" />
  <rect
     opacity="0.2"
     width="12"
     height="8"
     x="14"
     y="11"
     rx="0.75"
     ry="0.667"
     id="rect8" />
  <path
     fill="#fff"
     d="m 14,12 v 5.334 C 14,17.703 14.334,18 14.75,18 h 10.5 C 25.666,18 26,17.703 26,17.334 V 12 Z"
     id="path10"
     style="fill:#eceff1" />
  <path
     fill="#253951"
     d="m 14.75,10 h 10.5 C 25.666,10 26,10.297 26,10.667 V 12 H 14 v -1.3333 c 0,-0.36933 0.3345,-0.66667 0.75,-0.66667 z"
     id="path12"
     style="fill:#263238" />
  <rect
     opacity=".2"
     width="3"
     height="3"
     x="3"
     y="18"
     rx=".375"
     ry=".375"
     id="rect14" />
  <rect
     opacity=".2"
     width="3"
     height="3"
     x="3"
     y="6"
     rx=".375"
     ry=".375"
     id="rect16" />
  <rect
     fill="#fff"
     width="3"
     height="3"
     x="3"
     y="5"
     rx=".375"
     ry=".375"
     id="rect18"
     style="fill:#4caf50" />
  <rect
     opacity=".2"
     width="3"
     height="3"
     x="3"
     y="10"
     rx=".375"
     ry=".375"
     id="rect20" />
  <rect
     fill="#fff"
     width="3"
     height="3"
     x="3"
     y="9"
     rx=".375"
     ry=".375"
     id="rect22"
     style="fill:#cddc39" />
  <rect
     opacity=".2"
     width="3"
     height="3"
     x="3"
     y="14"
     rx=".375"
     ry=".375"
     id="rect24" />
  <rect
     fill="#fff"
     width="3"
     height="3"
     x="3"
     y="13"
     rx=".375"
     ry=".375"
     id="rect26"
     style="fill:#f9ce1d" />
  <rect
     fill="#fff"
     width="3"
     height="3"
     x="3"
     y="17"
     rx=".375"
     ry=".375"
     id="rect28"
     style="fill:#ff5722" />
  <path
     opacity=".2"
     d="m2 27.611v1c0 0.77 0.6248 1.389 1.4004 1.389h25.2c0.775 0 1.4-0.619 1.4-1.389v-1c0 0.77-0.625 1.389-1.4 1.389h-25.2c-0.7752 0-1.4-0.619-1.4-1.389z"
     id="path30" />
  <rect
     opacity="0.2"
     width="3"
     height="3"
     x="7"
     y="18"
     rx="0.375"
     ry="0.375"
     id="rect1033" />
  <rect
     opacity="0.2"
     width="3"
     height="3"
     x="7"
     y="6"
     rx="0.375"
     ry="0.375"
     id="rect1035" />
  <rect
     fill="#fff"
     width="3"
     height="3"
     x="7"
     y="5"
     rx="0.375"
     ry="0.375"
     id="rect1037"
     style="fill:#8bc34a" />
  <rect
     opacity="0.2"
     width="3"
     height="3"
     x="7"
     y="10"
     rx="0.375"
     ry="0.375"
     id="rect1039" />
  <rect
     fill="#fff"
     width="3"
     height="3"
     x="7"
     y="9"
     rx="0.375"
     ry="0.375"
     id="rect1041"
     style="fill:#ffeb3b" />
  <rect
     opacity="0.2"
     width="3"
     height="3"
     x="7"
     y="14"
     rx="0.375"
     ry="0.375"
     id="rect1043" />
  <rect
     fill="#fff"
     width="3"
     height="3"
     x="7"
     y="13"
     rx="0.375"
     ry="0.375"
     id="rect1045"
     style="fill:#ff9800" />
  <rect
     fill="#fff"
     width="3"
     height="3"
     x="7"
     y="17"
     rx="0.375"
     ry="0.375"
     id="rect1047"
     style="fill:#f44336" />
  <rect
     fill="#fff"
     height="1"
     x="24.5"
     y="10.5"
     rx="0.5"
     ry="0.5"
     id="rect1049"
     style="fill:#f44336"
     width="1" />
  <rect
     style="fill:#03a9f4;stroke-width:0.755906;stroke-linecap:round;paint-order:markers fill stroke"
     id="rect1447"
     width="4"
     height="2"
     x="21"
     y="15"
     rx="0.5"
     ry="0.5" />
  <rect
     style="fill:#cfd8dc;stroke-width:0.755906;stroke-linecap:round;paint-order:markers fill stroke"
     id="rect1529"
     width="4"
     height="2"
     x="16"
     y="15"
     rx="0.5"
     ry="0.5" />
</svg>
