<?xml version="1.0" encoding="UTF-8" standalone="no"?>
<svg
   width="32"
   height="32"
   version="1"
   id="svg12"
   sodipodi:docname="system-search.svg"
   inkscape:version="1.1.1 (3bf5ae0d25, 2021-09-20)"
   xmlns:inkscape="http://www.inkscape.org/namespaces/inkscape"
   xmlns:sodipodi="http://sodipodi.sourceforge.net/DTD/sodipodi-0.dtd"
   xmlns="http://www.w3.org/2000/svg"
   xmlns:svg="http://www.w3.org/2000/svg">
  <defs
     id="defs16" />
  <sodipodi:namedview
     id="namedview14"
     pagecolor="#505050"
     bordercolor="#ffffff"
     borderopacity="1"
     inkscape:pageshadow="0"
     inkscape:pageopacity="0"
     inkscape:pagecheckerboard="1"
     showgrid="false"
     inkscape:zoom="23.03125"
     inkscape:cx="16"
     inkscape:cy="15.97829"
     inkscape:current-layer="svg12" />
  <path
     opacity=".2"
     d="m2.0254 16.5c-0.0059 0.167-0.0254 0.331-0.0254 0.5 0 7.756 6.244 14 14 14s14-6.244 14-14c0-0.16884-0.01952-0.33264-0.02539-0.5-0.264 7.521-6.388 13.5-13.975 13.5-7.5872 0-13.711-5.979-13.975-13.5z"
     id="path2" />
  <rect
     style="fill:#03a9f4"
     width="28"
     height="28"
     x="2"
     y="2"
     rx="14"
     ry="14"
     id="rect4" />
  <path
     opacity=".2"
     d="m17.521 9.9965c-3.0288 0-5.5312 2.4746-5.5312 5.5 0 1.1499 0.38921 2.2078 1 3.0938l-3.6875 3.6875a1.0055 1.0055 0 0 0 1.4063 1.4375l3.6875-3.6875c0.88729 0.61091 1.973 0.96875 3.125 0.96875 3.0289 0 5.5-2.4746 5.5-5.5s-2.4711-5.5-5.5-5.5zm0 2c1.9474 0 3.5 1.5548 3.5 3.5 0 1.9451-1.5526 3.5-3.5 3.5s-3.5-1.5549-3.5-3.5c0-1.9452 1.5526-3.5 3.5-3.5z"
     id="path6" />
  <path
     fill="#fff"
     style="opacity:0.2"
     d="m16 2c-7.756 0-14 6.244-14 14 0 0.169 0.0195 0.333 0.0254 0.5 0.2637-7.5206 6.3874-13.5 13.975-13.5 7.5872 0 13.711 5.9794 13.975 13.5 0.006-0.16736 0.0254-0.33116 0.0254-0.5 0-7.756-6.244-14-14-14z"
     id="path8" />
  <path
     fill="#fff"
     d="m17.521 8.9945c-3.0288 0-5.5312 2.4746-5.5312 5.5 0 1.1499 0.38921 2.2078 1 3.0938l-3.6875 3.6875a1.0055 1.0055 0 0 0 1.4063 1.4375l3.6875-3.6875c0.88729 0.61091 1.973 0.96875 3.125 0.96875 3.0289 0 5.5-2.4746 5.5-5.5s-2.4711-5.5-5.5-5.5zm0 2c1.9474 0 3.5 1.5548 3.5 3.5 0 1.9451-1.5526 3.5-3.5 3.5s-3.5-1.5549-3.5-3.5c0-1.9452 1.5526-3.5 3.5-3.5z"
     id="path10" />
</svg>
