<?xml version="1.0" encoding="UTF-8" standalone="no"?>
<svg
   width="32"
   height="32"
   version="1"
   id="svg12"
   sodipodi:docname="application-default-icon.svg"
   inkscape:version="1.1.1 (3bf5ae0d25, 2021-09-20)"
   xmlns:inkscape="http://www.inkscape.org/namespaces/inkscape"
   xmlns:sodipodi="http://sodipodi.sourceforge.net/DTD/sodipodi-0.dtd"
   xmlns="http://www.w3.org/2000/svg"
   xmlns:svg="http://www.w3.org/2000/svg">
  <defs
     id="defs16" />
  <sodipodi:namedview
     id="namedview14"
     pagecolor="#505050"
     bordercolor="#ffffff"
     borderopacity="1"
     inkscape:pageshadow="0"
     inkscape:pageopacity="0"
     inkscape:pagecheckerboard="1"
     showgrid="false"
     inkscape:zoom="23.03125"
     inkscape:cx="16"
     inkscape:cy="15.97829"
     inkscape:current-layer="svg12" />
  <g
     id="g936"
     transform="translate(14.30665,-7.4029884)">
    <rect
       ry="3"
       rx="3"
       y="-15.69335"
       x="-36.902988"
       height="28"
       width="24"
       id="rect4390"
       style="display:inline;opacity:0.2;fill:#000000;fill-opacity:1;stroke:none;enable-background:new"
       transform="matrix(0,-1,-1,0,0,0)" />
    <rect
       transform="matrix(0,-1,-1,0,0,0)"
       style="display:inline;fill:#546e7a;fill-opacity:1;stroke:none;enable-background:new"
       id="rect4255"
       width="26"
       height="28"
       x="-35.902988"
       y="-15.69335"
       rx="3"
       ry="3" />
    <path
       style="display:inline;opacity:0.2;fill:#ffffff;fill-opacity:1;stroke:none;enable-background:new"
       d="m -9.30665,9.90299 c -1.662,0 -3,1.338 -3,3 v 1 c 0,-1.662 1.338,-3 3,-3 h 22 c 1.662,0 3,1.338 3,3 v -1 c 0,-1.662 -1.338,-3 -3,-3 z"
       id="rect4430"
       inkscape:connector-curvature="0" />
    <path
       inkscape:connector-curvature="0"
       style="display:inline;fill:#cfd8dc;fill-opacity:1;stroke:none;stroke-opacity:1;enable-background:new"
       d="m 3.94335,13.90299 0.19824,2.3706 a 7.0714286,7.0714286 0 0 1 2.0669,1.19532 l 2.15454,-1.01465 2.24999,3.89746 -1.95629,1.3584 a 7.0714286,7.0714286 0 0 1 0.10816,1.19287 7.0714286,7.0714286 0 0 1 -0.10303,1.19775 l 1.95116,1.35352 -2.24999,3.89746 -2.14965,-1.01196 A 7.0714286,7.0714286 0 0 1 4.14184,29.5275 l -0.19849,2.37549 h -4.5 l -0.19824,-2.37061 a 7.0714286,7.0714286 0 0 1 -2.0669,-1.19531 l -2.15453,1.01465 -2.25,-3.89746 1.9563,-1.3584 a 7.0714286,7.0714286 0 0 1 -0.10817,-1.19287 7.0714286,7.0714286 0 0 1 0.10303,-1.19775 l -1.95117,-1.35352 2.25001,-3.89746 2.14964,1.01196 a 7.0714286,7.0714286 0 0 1 2.07154,-1.18774 l 0.19849,-2.37549 z m -2.25,6 a 3,3 0 0 0 -3,3 3,3 0 0 0 3,3 3,3 0 0 0 3,-3 3,3 0 0 0 -3,-3 z"
       id="path4385" />
  </g>
</svg>
