<?xml version="1.0" encoding="UTF-8" standalone="no"?>
<svg
   width="32"
   height="32"
   version="1"
   id="svg28"
   sodipodi:docname="pycharm.svg"
   inkscape:version="1.2 (dc2aedaf03, 2022-05-15)"
   xmlns:inkscape="http://www.inkscape.org/namespaces/inkscape"
   xmlns:sodipodi="http://sodipodi.sourceforge.net/DTD/sodipodi-0.dtd"
   xmlns="http://www.w3.org/2000/svg"
   xmlns:svg="http://www.w3.org/2000/svg">
  <defs
     id="defs32" />
  <sodipodi:namedview
     id="namedview30"
     pagecolor="#ffffff"
     bordercolor="#111111"
     borderopacity="1"
     inkscape:showpageshadow="0"
     inkscape:pageopacity="0"
     inkscape:pagecheckerboard="1"
     inkscape:deskcolor="#d1d1d1"
     showgrid="false"
     inkscape:zoom="19.887378"
     inkscape:cx="16.970563"
     inkscape:cy="20.037835"
     inkscape:current-layer="svg28" />
  <path
     style="opacity:0.2"
     d="M 3.4003906,31 C 2.6247906,31 2,30.375209 2,29.599609 v -1 C 2,29.375209 2.6247906,30 3.4003906,30 H 16 28.599609 C 29.375209,30 30,29.375209 30,28.599609 v 1 C 30,30.375209 29.375209,31 28.599609,31 H 16 Z"
     id="path2" />
  <path
     id="path4"
     style="fill:#00e676"
     d="M 3.4003906 2 C 2.6247914 2 2 2.6247914 2 3.4003906 L 2 28.599609 C 2.0020641 28.657352 2.0083785 28.708202 2.0117188 28.763672 C 2.0930213 29.460896 2.6807044 30 3.4003906 30 L 16 30 L 16 16 L 16 2 L 3.4003906 2 z " />
  <path
     style="fill:#40c4ff"
     d="M 16,2 H 28.6 C 29.3756,2 30,2.6244 30,3.4 V 20 L 16,16 Z"
     id="path6"
     sodipodi:nodetypes="cssccc" />
  <path
     style="fill:#76ff03"
     d="M 16,30 4,28 2,18 20,2 Z"
     id="path8"
     sodipodi:nodetypes="ccccc" />
  <path
     style="fill:#ffff00"
     d="M 12,30 H 28.6 C 29.3756,30 30,29.3756 30,28.6 V 20 L 26,16 6,26 Z"
     id="path10"
     sodipodi:nodetypes="csscccc" />
  <path
     style="fill:#ffffff;opacity:0.2"
     d="M 3.4003906 2 C 2.6247906 2 2 2.6247906 2 3.4003906 L 2 4.4003906 C 2 3.6247906 2.6247906 3 3.4003906 3 L 16 3 L 28.599609 3 C 29.375209 3 30 3.6247906 30 4.4003906 L 30 3.4003906 C 30 2.6247906 29.375209 2 28.599609 2 L 16 2 L 3.4003906 2 z"
     id="path12" />
  <rect
     style="fill:#3f3f3f"
     width="20"
     height="20"
     x="6"
     y="6"
     id="rect14" />
  <text
     xml:space="preserve"
     style="font-size:10px;line-height:1.1;font-family:'DejaVu Sans';-inkscape-font-specification:'DejaVu Sans';fill:#0097a7;stroke-width:0"
     x="6.9814453"
     y="18.09668"
     id="text924"><tspan
       sodipodi:role="line"
       x="6.9814453"
       y="18.09668"
       style="font-style:normal;font-variant:normal;font-weight:bold;font-stretch:normal;font-size:14px;font-family:'Roboto Mono';-inkscape-font-specification:'Roboto Mono Bold';fill:#ffffff;fill-opacity:1"
       id="tspan1078">PC</tspan></text>
  <path
     style="fill:#ffffff;fill-opacity:1;stroke:#ffffff;stroke-width:2;stroke-dasharray:none"
     d="m 8,23 h 8.000001"
     id="path1145" />
</svg>
