<?xml version="1.0" encoding="UTF-8" standalone="no"?>
<svg
   width="32"
   height="32"
   version="1.1"
   id="svg22"
   sodipodi:docname="python.svg"
   inkscape:version="1.1.1 (3bf5ae0d25, 2021-09-20)"
   xmlns:inkscape="http://www.inkscape.org/namespaces/inkscape"
   xmlns:sodipodi="http://sodipodi.sourceforge.net/DTD/sodipodi-0.dtd"
   xmlns="http://www.w3.org/2000/svg"
   xmlns:svg="http://www.w3.org/2000/svg">
  <defs
     id="defs26" />
  <sodipodi:namedview
     id="namedview24"
     pagecolor="#505050"
     bordercolor="#ffffff"
     borderopacity="1"
     inkscape:pageshadow="0"
     inkscape:pageopacity="0"
     inkscape:pagecheckerboard="1"
     showgrid="false"
     inkscape:zoom="23.03125"
     inkscape:cx="16"
     inkscape:cy="15.97829"
     inkscape:current-layer="svg22" />
  <path
     style="display:inline;opacity:0.2;fill:#000000;fill-opacity:1;stroke:none;stroke-width:2;stroke-linecap:round;stroke-linejoin:round;stroke-miterlimit:4;stroke-dasharray:none;stroke-opacity:1;enable-background:new"
     d="M 13.66602,2.5 C 11.08068,2.5 9,4.284 9,6.5 v 3 H 6 c -2.216,0 -4,2.08068 -4,4.66602 v 4.66796 C 2,21.41932 3.784,23.5 6,23.5 h 3 v 3 c 0,2.216 2.08068,4 4.66602,4 h 4.66796 C 20.91932,30.5 23,28.716 23,26.5 v -3 h 3 c 2.216,0 4,-2.08068 4,-4.66602 V 14.16602 C 30,11.58068 28.216,9.5 26,9.5 h -3 v -3 c 0,-2.216 -2.08068,-4 -4.66602,-4 z"
     id="path4245"
     inkscape:connector-curvature="0" />
  <path
     style="display:inline;fill:#1976d2;fill-opacity:1;stroke:none;stroke-width:2;stroke-linecap:round;stroke-linejoin:round;stroke-miterlimit:4;stroke-dasharray:none;stroke-opacity:1;enable-background:new"
     d="M 13.66602,1.5 C 11.08068,1.5 9,3.284 9,5.5 v 3 H 6 c -2.216,0 -4,2.08068 -4,4.66602 v 4.66796 C 2,20.41932 3.784,22.5 6,22.5 h 17 v -17 c 0,-2.216 -2.08068,-4 -4.66602,-4 z"
     id="rect4216"
     inkscape:connector-curvature="0"
     sodipodi:nodetypes="sscsssccsss" />
  <path
     sodipodi:nodetypes="sscsssccccccsss"
     inkscape:connector-curvature="0"
     id="path4224"
     d="M 18.33398,29.5 C 20.91932,29.5 23,27.716 23,25.5 v -3 h 3 c 2.216,0 4,-2.08068 4,-4.66602 V 13.16602 C 30,10.58068 28.216,8.5 26,8.5 h -3 v 3 c 0,0 0,4 -4,4 h -6 c -4,0 -4,4 -4,4 v 6 c 0,2.216 2.08068,4 4.66602,4 z"
     style="display:inline;fill:#fdd835;fill-opacity:1;stroke:none;stroke-width:2;stroke-linecap:round;stroke-linejoin:round;stroke-miterlimit:4;stroke-dasharray:none;stroke-opacity:1;enable-background:new" />
  <circle
     r="1.5"
     cy="6"
     cx="12.5"
     id="circle4241"
     style="display:inline;opacity:0.2;fill:#000000;fill-opacity:1;stroke:none;stroke-width:2;stroke-linecap:round;stroke-linejoin:round;stroke-miterlimit:4;stroke-dasharray:none;stroke-opacity:1;enable-background:new" />
  <circle
     style="display:inline;fill:#ffffff;fill-opacity:1;stroke:none;stroke-width:2;stroke-linecap:round;stroke-linejoin:round;stroke-miterlimit:4;stroke-dasharray:none;stroke-opacity:1;enable-background:new"
     id="path4226"
     cx="12.5"
     cy="5"
     r="1.5" />
  <circle
     style="display:inline;opacity:0.2;fill:#000000;fill-opacity:1;stroke:none;stroke-width:2;stroke-linecap:round;stroke-linejoin:round;stroke-miterlimit:4;stroke-dasharray:none;stroke-opacity:1;enable-background:new"
     id="circle4243"
     cx="19.5"
     cy="27"
     r="1.5" />
  <circle
     r="1.5"
     cy="26"
     cx="19.5"
     id="circle4228"
     style="display:inline;fill:#ffffff;fill-opacity:1;stroke:none;stroke-width:2;stroke-linecap:round;stroke-linejoin:round;stroke-miterlimit:4;stroke-dasharray:none;stroke-opacity:1;enable-background:new" />
  <path
     style="display:inline;opacity:0.2;fill:#000000;fill-opacity:1;stroke:none;stroke-width:2;stroke-linecap:round;stroke-linejoin:round;stroke-miterlimit:4;stroke-dasharray:none;stroke-opacity:1;enable-background:new"
     d="m 23,10.5 c 0,0 0,4 -4,4 h -6 c -4,0 -4,4 -4,4 v 1 c 0,0 0,-4 4,-4 h 6 c 4,0 4,-4 4,-4 z"
     id="path4250"
     inkscape:connector-curvature="0"
     sodipodi:nodetypes="cssccsscc" />
  <path
     style="display:inline;opacity:0.2;fill:#ffffff;fill-opacity:1;stroke:none;stroke-width:2;stroke-linecap:round;stroke-linejoin:round;stroke-miterlimit:4;stroke-dasharray:none;stroke-opacity:1;enable-background:new"
     d="m 23,8.5 v 1 h 3 c 2.216,0 4,2.08068 4,4.66602 v -1 C 30,10.58068 28.216,8.5 26,8.5 Z m 0,3 c 0,0 0,4 -4,4 h -6 c -4,0 -4,4 -4,4 v 1 c 0,0 0,-4 4,-4 h 6 c 4,0 4,-4 4,-4 z"
     id="path4230" />
  <path
     style="display:inline;opacity:0.1;fill:#ffffff;fill-opacity:1;stroke:none;stroke-width:2;stroke-linecap:round;stroke-linejoin:round;stroke-miterlimit:4;stroke-dasharray:none;stroke-opacity:1;enable-background:new"
     d="M 13.66602,1.5 C 11.08068,1.5 9,3.284 9,5.5 v 1 c 0,-2.216 2.08068,-4 4.66602,-4 h 4.66796 C 20.91932,2.5 23,4.284 23,6.5 v -1 c 0,-2.216 -2.08068,-4 -4.66602,-4 z M 6,8.5 c -2.216,0 -4,2.08068 -4,4.66602 v 1 C 2,11.58068 3.784,9.5 6,9.5 h 3 v -1 z"
     id="path4236" />
  <path
     style="display:inline;opacity:0.1;fill:#000000;fill-opacity:1;stroke:none;stroke-width:2;stroke-linecap:round;stroke-linejoin:round;stroke-miterlimit:4;stroke-dasharray:none;stroke-opacity:1;enable-background:new"
     d="M 2,16.83398 C 2,19.41932 3.784,21.5 6,21.5 h 3 v 1 H 6 c -2.216,0 -4,-2.08068 -4,-4.66602 z"
     id="path4255"
     inkscape:connector-curvature="0"
     sodipodi:nodetypes="csccssc" />
  <rect
     style="display:inline;opacity:0.1;fill:#000000;fill-opacity:1;stroke:none;stroke-width:2;stroke-linecap:round;stroke-linejoin:round;stroke-miterlimit:4;stroke-dasharray:none;stroke-opacity:1;enable-background:new"
     id="rect4260"
     width="4"
     height="1"
     x="19"
     y="22.5" />
  <rect
     y="7.5"
     x="9"
     height="1"
     width="4"
     id="rect4262"
     style="display:inline;opacity:0.1;fill:#000000;fill-opacity:1;stroke:none;stroke-width:2;stroke-linecap:round;stroke-linejoin:round;stroke-miterlimit:4;stroke-dasharray:none;stroke-opacity:1;enable-background:new" />
</svg>
