<?xml version="1.0" encoding="UTF-8" standalone="no"?>
<svg
   width="32"
   height="32"
   version="1"
   id="svg18"
   sodipodi:docname="mintsources.svg"
   inkscape:version="1.1.1 (3bf5ae0d25, 2021-09-20)"
   xmlns:inkscape="http://www.inkscape.org/namespaces/inkscape"
   xmlns:sodipodi="http://sodipodi.sourceforge.net/DTD/sodipodi-0.dtd"
   xmlns="http://www.w3.org/2000/svg"
   xmlns:svg="http://www.w3.org/2000/svg">
  <defs
     id="defs22">
    <inkscape:perspective
       sodipodi:type="inkscape:persp3d"
       inkscape:vp_x="0 : 16 : 1"
       inkscape:vp_y="0 : 1000 : 0"
       inkscape:vp_z="32 : 16 : 1"
       inkscape:persp3d-origin="16 : 10.666667 : 1"
       id="perspective946" />
  </defs>
  <sodipodi:namedview
     id="namedview20"
     pagecolor="#505050"
     bordercolor="#ffffff"
     borderopacity="1"
     inkscape:pageshadow="0"
     inkscape:pageopacity="0"
     inkscape:pagecheckerboard="1"
     showgrid="false"
     inkscape:zoom="23.03125"
     inkscape:cx="16"
     inkscape:cy="15.97829"
     inkscape:current-layer="g944" />
  <g
     id="g944"
     transform="translate(5.0149299,-0.4124797)">
    <circle
       r="15"
       cy="16.912479"
       cx="10.98507"
       id="circle4535"
       style="display:inline;opacity:0.2;fill:#000000;fill-opacity:1;stroke:none;stroke-width:2;stroke-miterlimit:4;stroke-dasharray:none;stroke-opacity:1;enable-background:new" />
    <circle
       style="display:inline;fill:#009688;fill-opacity:1;stroke:none;stroke-width:2;stroke-miterlimit:4;stroke-dasharray:none;stroke-opacity:1;enable-background:new"
       id="path4522"
       cx="10.98507"
       cy="15.91248"
       r="15" />
    <path
       inkscape:connector-curvature="0"
       style="display:inline;opacity:0.2;fill:#ffffff;fill-opacity:1;stroke:none;stroke-width:2;stroke-miterlimit:4;stroke-dasharray:none;stroke-opacity:1;enable-background:new"
       d="m 10.98507,0.91248 a 15,15 0 0 0 -15,15 15,15 0 0 0 0.02014,0.54382 15,15 0 0 1 14.97986,-14.60632 15,15 0 0 1 14.97986,14.45618 15,15 0 0 0 0.02014,-0.39368 15,15 0 0 0 -15,-15 z"
       id="circle4547" />
    <path
       sodipodi:nodetypes="ccccccccccccc"
       style="display:inline;fill:#ffffff;fill-opacity:1;stroke:none;enable-background:new"
       d="m 12.98519,13.96606 h 2.62497 l -4.62509,6.94642 -4.62497,-7 h 2.62497 v -6 h 4.00006 z m -7.00012,6.94642 h 10 v 2 h -10 z"
       id="path6245-9"
       inkscape:connector-curvature="0" />
  </g>
</svg>
