<?xml version="1.0" encoding="UTF-8" standalone="no"?>
<svg
   width="32"
   height="32"
   version="1"
   id="svg14"
   sodipodi:docname="notes.svg"
   inkscape:version="1.1.1 (3bf5ae0d25, 2021-09-20)"
   xmlns:inkscape="http://www.inkscape.org/namespaces/inkscape"
   xmlns:sodipodi="http://sodipodi.sourceforge.net/DTD/sodipodi-0.dtd"
   xmlns="http://www.w3.org/2000/svg"
   xmlns:svg="http://www.w3.org/2000/svg">
  <defs
     id="defs18">
    <clipPath
       clipPathUnits="userSpaceOnUse"
       id="clipPath4483">
      <path
         sodipodi:nodetypes="ssssccsss"
         inkscape:connector-curvature="0"
         id="path4485"
         d="m 91.5,254 c -0.831,0 -1.5,0.669 -1.5,1.5 v 25 c 0,0.831 0.669,1.5 1.5,1.5 H 108 l 10,-10 v -16.5 c 0,-0.831 -0.669,-1.5 -1.5,-1.5 z"
         style="fill:#fecd38;fill-opacity:1;stroke:none" />
    </clipPath>
    <filter
       inkscape:collect="always"
       style="color-interpolation-filters:sRGB"
       id="filter4487"
       x="-0.12"
       width="1.24"
       y="-0.12"
       height="1.24">
      <feGaussianBlur
         inkscape:collect="always"
         stdDeviation="0.5"
         id="feGaussianBlur4489" />
    </filter>
  </defs>
  <sodipodi:namedview
     id="namedview16"
     pagecolor="#505050"
     bordercolor="#ffffff"
     borderopacity="1"
     inkscape:pageshadow="0"
     inkscape:pageopacity="0"
     inkscape:pagecheckerboard="1"
     showgrid="false"
     inkscape:zoom="23.03125"
     inkscape:cx="16"
     inkscape:cy="16.02171"
     inkscape:current-layer="svg14" />
  <g
     id="g960"
     transform="translate(-2.018996,1.84532)">
    <path
       id="path4239"
       d="m 5.518996,0.65468 c -0.831,0 -1.5,0.669 -1.5,1.5 v 25 c 0,0.831 0.669,1.5 1.5,1.5 h 16.5 l 10,-10 v -16.5 c 0,-0.831 -0.669,-1.5 -1.5,-1.5 z"
       style="display:inline;opacity:0.2;fill:#000000;fill-opacity:1;stroke:none;enable-background:new"
       inkscape:connector-curvature="0"
       sodipodi:nodetypes="ssssccsss" />
    <path
       style="display:inline;fill:#f9ce1d;fill-opacity:1;stroke:none;enable-background:new"
       d="m 6.018996,-0.34532 c 0,0 -2,0 -2,2 v 24 c 0,2 2,2 2,2 h 16 l 10,-10 v -16 c 0,-2 -2,-2 -2,-2 z"
       id="rect4255"
       inkscape:connector-curvature="0"
       sodipodi:nodetypes="csscccscc" />
    <path
       style="display:inline;opacity:0.2;fill:#000000;fill-opacity:1;stroke:none;filter:url(#filter4487);enable-background:new"
       d="m 118,272 h -8.5 c -0.82843,0 -1.5,0.67158 -1.5,1.5 v 8.5 z"
       id="path4365"
       inkscape:connector-curvature="0"
       sodipodi:nodetypes="csscc"
       clip-path="url(#clipPath4483)"
       transform="translate(-85.981004,-254.34532)" />
    <path
       sodipodi:nodetypes="csscc"
       inkscape:connector-curvature="0"
       id="path4172"
       d="m 32.018996,17.65468 h -8.5 c -0.82843,0 -1.5,0.67158 -1.5,1.5 v 8.5 z"
       style="display:inline;fill:#fff59d;fill-opacity:1;stroke:none;enable-background:new" />
    <path
       style="display:inline;opacity:0.1;fill:#ffffff;fill-opacity:1;stroke:none;enable-background:new"
       d="m 6.018996,-0.34532 c -0.831,0 -2,1.169 -2,2 v 1 c 0,-0.831 1.169,-2 2,-2 h 24 c 0.831,0 2,1.169 2,2 v -1 c 0,-0.831 -1.169,-2 -2,-2 z"
       id="path4253"
       inkscape:connector-curvature="0"
       sodipodi:nodetypes="sscsscsss" />
    <path
       style="display:inline;opacity:0.2;fill:#ffffff;fill-opacity:1;stroke:none;enable-background:new"
       d="m 23.518996,17.65468 c -0.82843,0 -1.5,0.67158 -1.5,1.5 v 1 c 0,-0.82842 0.67157,-1.5 1.5,-1.5 h 7.5 l 1,-1 z"
       id="path4328"
       inkscape:connector-curvature="0" />
    <path
       sodipodi:nodetypes="cssccaac"
       inkscape:connector-curvature="0"
       id="path4325"
       d="m 9.018996,14.65484 1.50381,0.0326 c 2.95982,0.0641 5.77109,0.79989 6.81995,2.42319 2.44715,3.78739 -2.3998,5.0155 -4.34722,2.34075 -1.81985,-2.93589 -1.19097,-9.03541 1.43107,-9.7437 4.7445,-1.07816 5.5335,6.43546 8.4511,4.96449 2.24827,-1.13352 -1.41454,-6.27675 0.78077,-7.50259 0.94473,-0.52753 2.92495,1.40779 2.92495,1.40779"
       style="display:inline;opacity:0.2;fill:none;fill-rule:evenodd;stroke:#ffffff;stroke-width:2;stroke-linecap:square;stroke-linejoin:miter;stroke-miterlimit:4;stroke-dasharray:none;stroke-opacity:1;enable-background:new" />
    <path
       style="display:inline;fill:none;fill-rule:evenodd;stroke:#cb9a05;stroke-width:2;stroke-linecap:square;stroke-linejoin:miter;stroke-miterlimit:4;stroke-dasharray:none;stroke-opacity:1;enable-background:new"
       d="m 9.018996,13.65468 1.50381,0.0326 c 2.95982,0.0641 5.77109,0.79989 6.81995,2.42319 2.44715,3.78739 -2.3998,5.0155 -4.34722,2.34075 -1.81985,-2.93589 -1.19097,-9.03541 1.43107,-9.7437 4.7445,-1.07816 5.5335,6.43546 8.4511,4.96449 2.24827,-1.13352 -1.41454,-6.27675 0.78077,-7.50259 0.94473,-0.52753 2.92495,1.40779 2.92495,1.40779"
       id="path4217"
       inkscape:connector-curvature="0"
       sodipodi:nodetypes="cssccaac" />
  </g>
</svg>
