<?xml version="1.0" encoding="UTF-8" standalone="no"?>
<svg
   width="32"
   height="32"
   version="1"
   id="svg22"
   sodipodi:docname="gnome-swell-foop.svg"
   inkscape:version="1.1.1 (3bf5ae0d25, 2021-09-20)"
   xmlns:inkscape="http://www.inkscape.org/namespaces/inkscape"
   xmlns:sodipodi="http://sodipodi.sourceforge.net/DTD/sodipodi-0.dtd"
   xmlns="http://www.w3.org/2000/svg"
   xmlns:svg="http://www.w3.org/2000/svg">
  <defs
     id="defs26" />
  <sodipodi:namedview
     id="namedview24"
     pagecolor="#505050"
     bordercolor="#ffffff"
     borderopacity="1"
     inkscape:pageshadow="0"
     inkscape:pageopacity="0"
     inkscape:pagecheckerboard="1"
     showgrid="false"
     inkscape:zoom="23.03125"
     inkscape:cx="16"
     inkscape:cy="15.97829"
     inkscape:current-layer="svg22" />
  <path
     fill="#f2ae37"
     d="m16 2h-12.5c-0.831 0-1.5 0.669-1.5 1.5v12.5h14z"
     id="path2"
     style="fill:#ff9800" />
  <path
     fill="#4785e2"
     d="m16 2h12.5c0.831 0 1.5 0.669 1.5 1.5v12.5h-14z"
     id="path4"
     style="fill:#2196f3" />
  <path
     fill="#4785e2"
     d="m16 30h-12.5c-0.831 0-1.5-0.669-1.5-1.5v-12.5h14z"
     id="path6"
     style="fill:#2196f3" />
  <path
     fill="#77e247"
     d="m16 30h12.5c0.831 0 1.5-0.669 1.5-1.5v-12.5h-14z"
     id="path8"
     style="fill:#8bc34a" />
  <path
     fill="#fff"
     opacity=".1"
     d="m3.5 2c-0.831 0-1.5 0.669-1.5 1.5v1c0-0.831 0.669-1.5 1.5-1.5h25c0.831 0 1.5 0.669 1.5 1.5v-1c0-0.831-0.669-1.5-1.5-1.5h-25z"
     id="path10" />
  <path
     opacity=".2"
     d="m2 28.5v1c0 0.831 0.669 1.5 1.5 1.5h25c0.831 0 1.5-0.669 1.5-1.5v-1c0 0.831-0.669 1.5-1.5 1.5h-25c-0.831 0-1.5-0.669-1.5-1.5z"
     id="path12" />
  <path
     fill="#3f3f3f"
     transform="matrix(.51276 0 0 .53915 1.8204 1.2974)"
     d="m14.002 5.0128 3.0133 6.1056 6.7379 0.97908-4.8756 4.7525 1.151 6.7107-6.0266-3.1684-6.0266 3.1684 1.151-6.7107-4.8756-4.7525 6.7379-0.97908z"
     id="path14"
     style="fill:#ffffff" />
  <circle
     fill="#3f3f3f"
     cx="23"
     cy="9"
     r="5"
     id="circle16"
     style="fill:#ffffff" />
  <rect
     fill="#3f3f3f"
     width="10"
     height="10"
     x="18"
     y="18"
     id="rect18"
     style="fill:#ffffff" />
  <circle
     fill="#3f3f3f"
     cx="9"
     cy="23"
     r="5"
     id="circle20"
     style="fill:#ffffff" />
</svg>
