<?xml version="1.0" encoding="UTF-8" standalone="no"?>
<svg
   width="32"
   height="32"
   version="1"
   id="svg12"
   sodipodi:docname="gnome-session-hibernate.svg"
   inkscape:version="1.1.1 (3bf5ae0d25, 2021-09-20)"
   xmlns:inkscape="http://www.inkscape.org/namespaces/inkscape"
   xmlns:sodipodi="http://sodipodi.sourceforge.net/DTD/sodipodi-0.dtd"
   xmlns="http://www.w3.org/2000/svg"
   xmlns:svg="http://www.w3.org/2000/svg">
  <defs
     id="defs16" />
  <sodipodi:namedview
     id="namedview14"
     pagecolor="#505050"
     bordercolor="#ffffff"
     borderopacity="1"
     inkscape:pageshadow="0"
     inkscape:pageopacity="0"
     inkscape:pagecheckerboard="1"
     showgrid="false"
     inkscape:zoom="23.03125"
     inkscape:cx="16"
     inkscape:cy="15.97829"
     inkscape:current-layer="svg12" />
  <circle
     style="opacity:0.2"
     cx="16.5"
     cy="16.5"
     r="14.5"
     id="circle2" />
  <circle
     style="fill:#673ab7"
     cx="16.5"
     cy="15.5"
     r="14.5"
     id="circle4" />
  <path
     style="opacity:0.2"
     d="M 16.5,6 A 10.5,10.5 0 0 0 6,16.5 10.5,10.5 0 0 0 16.5,27 10.5,10.5 0 0 0 27,16.5 10.5,10.5 0 0 0 16.5,6 Z m 0,3 A 7.5,7.5 0 0 1 24,16.5 7.5,7.5 0 0 1 16.5,24 7.5,7.5 0 0 1 9,16.5 7.5,7.5 0 0 1 16.5,9 Z m 0,4 A 3.4999998,3.4999998 0 0 0 13,16.5 3.4999998,3.4999998 0 0 0 16.5,20 3.4999998,3.4999998 0 0 0 20,16.5 3.4999998,3.4999998 0 0 0 16.5,13 Z"
     id="path6" />
  <path
     style="fill:#ffffff"
     d="M 16.5 5 A 10.5 10.5 0 0 0 6 15.5 A 10.5 10.5 0 0 0 16.5 26 A 10.5 10.5 0 0 0 27 15.5 A 10.5 10.5 0 0 0 16.5 5 z M 16.5 8 A 7.5 7.5 0 0 1 24 15.5 A 7.5 7.5 0 0 1 16.5 23 A 7.5 7.5 0 0 1 9 15.5 A 7.5 7.5 0 0 1 16.5 8 z M 16.5 12 A 3.4999998 3.4999998 0 0 0 13 15.5 A 3.4999998 3.4999998 0 0 0 16.5 19 A 3.4999998 3.4999998 0 0 0 20 15.5 A 3.4999998 3.4999998 0 0 0 16.5 12 z"
     id="path8" />
  <path
     style="fill:#ffffff;opacity:0.1"
     d="M 16.5 1 A 14.5 14.5 0 0 0 2 15.5 A 14.5 14.5 0 0 0 2.0214844 16.080078 A 14.5 14.5 0 0 1 16.5 2 A 14.5 14.5 0 0 1 30.978516 15.919922 A 14.5 14.5 0 0 0 31 15.5 A 14.5 14.5 0 0 0 16.5 1 z"
     id="path10" />
</svg>
