<?xml version="1.0" encoding="UTF-8" standalone="no"?>
<svg
   width="32"
   height="32"
   version="1"
   id="svg12"
   sodipodi:docname="system-shutdown.svg"
   inkscape:version="1.1.1 (3bf5ae0d25, 2021-09-20)"
   xmlns:inkscape="http://www.inkscape.org/namespaces/inkscape"
   xmlns:sodipodi="http://sodipodi.sourceforge.net/DTD/sodipodi-0.dtd"
   xmlns="http://www.w3.org/2000/svg"
   xmlns:svg="http://www.w3.org/2000/svg">
  <defs
     id="defs16" />
  <sodipodi:namedview
     id="namedview14"
     pagecolor="#505050"
     bordercolor="#ffffff"
     borderopacity="1"
     inkscape:pageshadow="0"
     inkscape:pageopacity="0"
     inkscape:pagecheckerboard="1"
     showgrid="false"
     inkscape:zoom="11.515625"
     inkscape:cx="34.865672"
     inkscape:cy="12.41791"
     inkscape:current-layer="svg12" />
  <path
     style="opacity:0.2"
     d="M 16.5,6 C 12.991333,6 10,8.676 10,12 v 3 H 8.5833333 C 7.7061667,15 7,15.669 7,16.5 v 9 C 7,26.331 7.7061667,27 8.5833333,27 H 24.416667 C 25.293833,27 26,26.331 26,25.5 v -9 C 26,15.669 25.293833,15 24.416667,15 H 23 V 12 C 23,8.676 20.008667,6 16.5,6 Z m 0,3 c 1.754333,0 3.683537,1.348165 3.5,3 v 3 h -7 v -3 c 0,-1.662 1.745667,-3 3.5,-3 z"
     id="path6" />
  <g
     id="g1285"
     transform="translate(22.984971,-23.80054)">
    <circle
       style="display:inline;opacity:0.2;fill:#000000;fill-opacity:1;stroke:none;stroke-width:2;stroke-miterlimit:4;stroke-dasharray:none;stroke-opacity:1;enable-background:new"
       id="circle4535"
       cx="-6.9849668"
       cy="40.300541"
       r="15" />
    <ellipse
       style="display:inline;fill:#f44336;fill-opacity:1;stroke:none;stroke-width:2;stroke-miterlimit:4;stroke-dasharray:none;stroke-opacity:1;enable-background:new"
       id="path4522"
       cx="-6.9849744"
       cy="39.300541"
       rx="15"
       ry="15.000001" />
    <path
       id="circle4547"
       d="m -6.9849667,24.300541 a 15,15 0 0 0 -15.0000003,15 15,15 0 0 0 0.02014,0.54382 15,15 0 0 1 14.9798603,-14.60632 15,15 0 0 1 14.97986,14.45618 15,15 0 0 0 0.02014,-0.39368 15,15 0 0 0 -15,-15 z"
       style="display:inline;opacity:0.2;fill:#ffffff;fill-opacity:1;stroke:none;stroke-width:2;stroke-miterlimit:4;stroke-dasharray:none;stroke-opacity:1;enable-background:new"
       inkscape:connector-curvature="0" />
  </g>
  <g
     id="g1728"
     transform="translate(4.1899576,-3.2781072)">
    <path
       style="color:#bebebe;display:inline;fill:#ffffff;fill-opacity:1;stroke:none;enable-background:new"
       d="m 12.81004,10.2781 h -2 v 10 h 2 z"
       id="rect4611-7"
       inkscape:connector-curvature="0"
       sodipodi:nodetypes="ccccc" />
    <path
       style="display:inline;opacity:1;fill:none;fill-opacity:1;stroke:#ffffff;stroke-width:2;stroke-linecap:butt;stroke-linejoin:miter;stroke-miterlimit:4;stroke-dasharray:none;stroke-opacity:1;enable-background:new"
       id="path4503-4"
       sodipodi:type="arc"
       sodipodi:cx="-20.278114"
       sodipodi:cy="11.810042"
       sodipodi:rx="7"
       sodipodi:ry="7"
       sodipodi:start="0.52359878"
       sodipodi:end="5.7595865"
       sodipodi:open="true"
       transform="rotate(-90)"
       sodipodi:arc-type="arc"
       d="m -14.215937,15.310042 a 7,7 0 0 1 -7.873911,3.261481 7,7 0 0 1 -5.188266,-6.761481 7,7 0 0 1 5.188266,-6.7614804 7,7 0 0 1 7.873911,3.2614806" />
  </g>
</svg>
