<?xml version="1.0" encoding="UTF-8" standalone="no"?>
<svg
   width="32"
   height="32"
   version="1"
   id="svg12"
   sodipodi:docname="system-lock-screen.svg"
   inkscape:version="1.1.1 (3bf5ae0d25, 2021-09-20)"
   xmlns:inkscape="http://www.inkscape.org/namespaces/inkscape"
   xmlns:sodipodi="http://sodipodi.sourceforge.net/DTD/sodipodi-0.dtd"
   xmlns="http://www.w3.org/2000/svg"
   xmlns:svg="http://www.w3.org/2000/svg">
  <defs
     id="defs16" />
  <sodipodi:namedview
     id="namedview14"
     pagecolor="#505050"
     bordercolor="#ffffff"
     borderopacity="1"
     inkscape:pageshadow="0"
     inkscape:pageopacity="0"
     inkscape:pagecheckerboard="1"
     showgrid="false"
     inkscape:zoom="11.515625"
     inkscape:cx="34.865672"
     inkscape:cy="12.41791"
     inkscape:current-layer="svg12" />
  <path
     style="opacity:0.2"
     d="M 16.5,6 C 12.991333,6 10,8.676 10,12 v 3 H 8.5833333 C 7.7061667,15 7,15.669 7,16.5 v 9 C 7,26.331 7.7061667,27 8.5833333,27 H 24.416667 C 25.293833,27 26,26.331 26,25.5 v -9 C 26,15.669 25.293833,15 24.416667,15 H 23 V 12 C 23,8.676 20.008667,6 16.5,6 Z m 0,3 c 1.754333,0 3.683537,1.348165 3.5,3 v 3 h -7 v -3 c 0,-1.662 1.745667,-3 3.5,-3 z"
     id="path6" />
  <g
     id="g1285"
     transform="translate(22.984971,-23.80054)">
    <circle
       style="display:inline;opacity:0.2;fill:#000000;fill-opacity:1;stroke:none;stroke-width:2;stroke-miterlimit:4;stroke-dasharray:none;stroke-opacity:1;enable-background:new"
       id="circle4535"
       cx="-6.9849668"
       cy="40.300541"
       r="15" />
    <circle
       style="display:inline;fill:#78909c;fill-opacity:1;stroke:none;stroke-width:2;stroke-miterlimit:4;stroke-dasharray:none;stroke-opacity:1;enable-background:new"
       id="path4522"
       cx="-6.9849744"
       cy="39.300541"
       r="15.000001" />
    <path
       id="circle4547"
       d="m -6.9849667,24.300541 a 15,15 0 0 0 -15.0000003,15 15,15 0 0 0 0.02014,0.54382 15,15 0 0 1 14.9798603,-14.60632 15,15 0 0 1 14.97986,14.45618 15,15 0 0 0 0.02014,-0.39368 15,15 0 0 0 -15,-15 z"
       style="display:inline;opacity:0.2;fill:#ffffff;fill-opacity:1;stroke:none;stroke-width:2;stroke-miterlimit:4;stroke-dasharray:none;stroke-opacity:1;enable-background:new"
       inkscape:connector-curvature="0" />
  </g>
  <path
     style="fill:#ffffff;stroke-width:0.75"
     d="m 16,8.125 c -2.6315,0 -4.875,2.007 -4.875,4.5 v 2.25 H 10.0625 C 9.4046251,14.875 8.875,15.37675 8.875,16 v 6.75 c 0,0.62325 0.5296251,1.125 1.1875,1.125 h 11.875001 c 0.657873,0 1.187499,-0.50175 1.187499,-1.125 V 16 c 0,-0.62325 -0.529626,-1.125 -1.187499,-1.125 H 20.875 v -2.25 c 0,-2.493 -2.243499,-4.5 -4.875,-4.5 z m 0,2.25 c 1.315751,0 2.762653,1.011124 2.625,2.25 v 2.25 h -5.25 v -2.25 c 0,-1.2465 1.309251,-2.25 2.625,-2.25 z"
     id="path8" />
</svg>
