<?xml version="1.0" encoding="UTF-8" standalone="no"?>
<svg
   width="32"
   height="32"
   version="1.1"
   id="svg12"
   sodipodi:docname="device_usb.svg"
   inkscape:version="1.1.1 (3bf5ae0d25, 2021-09-20)"
   xmlns:inkscape="http://www.inkscape.org/namespaces/inkscape"
   xmlns:sodipodi="http://sodipodi.sourceforge.net/DTD/sodipodi-0.dtd"
   xmlns="http://www.w3.org/2000/svg"
   xmlns:svg="http://www.w3.org/2000/svg">
  <defs
     id="defs16" />
  <sodipodi:namedview
     id="namedview14"
     pagecolor="#505050"
     bordercolor="#ffffff"
     borderopacity="1"
     inkscape:pageshadow="0"
     inkscape:pageopacity="0"
     inkscape:pagecheckerboard="1"
     showgrid="false"
     inkscape:zoom="23.03125"
     inkscape:cx="16"
     inkscape:cy="15.97829"
     inkscape:current-layer="svg12" />
  <path
     style="opacity:0.2"
     d="M 16.5,4.5 13,10 h 2.050781 v 8.050781 H 9.900391 V 16.703125 C 11.174177,16.147016 11.99821,14.889886 12,13.5 12,11.567003 10.432997,10 8.5,10 6.5670034,10 5,11.567003 5,13.5 c 0.00157,1.350414 0.7798894,2.579455 2,3.158203 v 1.392578 c 0,2.9 2.900391,2.898438 2.900391,2.898438 h 5.15039 v 1.36914 C 13.803185,22.885876 13.001656,24.129391 13,25.5 c 0,1.932997 1.567003,3.5 3.5,3.5 1.932997,0 3.5,-1.567003 3.5,-3.5 -8.92e-4,-1.371317 -0.802542,-2.615783 -2.050781,-3.183594 v -1.367187 h 5.15039 c 0,0 2.900391,0.0016 2.900391,-2.898438 V 17 h 0.5 c 0.831,0 1.5,-0.669 1.5,-1.5 v -4 C 28,10.669 27.331,10 26.5,10 h -4 C 21.669,10 21,10.669 21,11.5 v 4 c 0,0.831 0.669,1.5 1.5,1.5 h 0.599609 v 1.050781 h -5.15039 V 10 H 20 Z"
     id="path6" />
  <path
     style="fill:#ffffff"
     d="M 16.5,3.5 13,9 h 2.050781 v 8.050781 H 9.900391 V 15.703125 C 11.174177,15.147016 11.99821,13.889886 12,12.5 12,10.567003 10.432997,9 8.5,9 6.5670034,9 5,10.567003 5,12.5 c 0.00157,1.350414 0.7798894,2.579455 2,3.158203 v 1.392578 c 0,2.9 2.900391,2.898438 2.900391,2.898438 h 5.15039 v 1.36914 C 13.803185,21.885876 13.001656,23.129391 13,24.5 c 0,1.932997 1.567003,3.5 3.5,3.5 1.932997,0 3.5,-1.567003 3.5,-3.5 -8.92e-4,-1.371317 -0.802542,-2.615783 -2.050781,-3.183594 v -1.367187 h 5.15039 c 0,0 2.900391,0.0016 2.900391,-2.898438 V 16 h 0.5 c 0.831,0 1.5,-0.669 1.5,-1.5 v -4 C 28,9.669 27.331,9 26.5,9 h -4 C 21.669,9 21,9.669 21,10.5 v 4 c 0,0.831 0.669,1.5 1.5,1.5 h 0.599609 v 1.050781 h -5.15039 V 9 H 20 Z"
     id="path8" />
</svg>
