<?xml version="1.0" encoding="UTF-8" standalone="no"?>
<svg
   width="32"
   height="32"
   version="1"
   id="svg20"
   sodipodi:docname="utilities-terminal.svg"
   inkscape:version="1.1.1 (3bf5ae0d25, 2021-09-20)"
   xmlns:inkscape="http://www.inkscape.org/namespaces/inkscape"
   xmlns:sodipodi="http://sodipodi.sourceforge.net/DTD/sodipodi-0.dtd"
   xmlns="http://www.w3.org/2000/svg"
   xmlns:svg="http://www.w3.org/2000/svg">
  <defs
     id="defs24" />
  <sodipodi:namedview
     id="namedview22"
     pagecolor="#505050"
     bordercolor="#ffffff"
     borderopacity="1"
     inkscape:pageshadow="0"
     inkscape:pageopacity="0"
     inkscape:pagecheckerboard="1"
     showgrid="false"
     inkscape:zoom="22.627417"
     inkscape:cx="22.472737"
     inkscape:cy="17.987029"
     inkscape:current-layer="g935" />
  <g
     id="g935"
     transform="translate(-0.39603803,-1.6776719)">
    <rect
       transform="matrix(0,-1,-1,0,0,0)"
       style="display:inline;fill:#37474f;fill-opacity:1;stroke:none;enable-background:new"
       id="rect4255"
       width="24.000015"
       height="28"
       x="-29.177679"
       y="-30.396038"
       rx="1.5"
       ry="1.5" />
    <path
       style="display:inline;opacity:0.2;fill:#000000;fill-opacity:1;stroke:none;enable-background:new"
       d="m 2.396038,27.67768 v 1 c 0,0.831 0.669,1.5 1.5,1.5 h 25 c 0.831,0 1.5,-0.669 1.5,-1.5 v -1 c 0,0.831 -0.669,1.5 -1.5,1.5 h -25 c -0.831,0 -1.5,-0.669 -1.5,-1.5 z"
       id="rect4395"
       inkscape:connector-curvature="0" />
    <path
       inkscape:connector-curvature="0"
       id="path4377"
       d="m 2.396038,7.67768 v -1 c 0,-0.831 0.669,-1.5 1.5,-1.5 h 25 c 0.831,0 1.5,0.669 1.5,1.5 v 1 c 0,-0.831 -0.669,-1.5 -1.5,-1.5 h -25 c -0.831,0 -1.5,0.669 -1.5,1.5 z"
       style="display:inline;opacity:0.1;fill:#ffffff;fill-opacity:1;stroke:none;enable-background:new" />
    <path
       sodipodi:nodetypes="ccccc"
       style="color:#bebebe;display:inline;overflow:visible;visibility:visible;fill:#ffffff;fill-opacity:1;fill-rule:nonzero;stroke:none;stroke-width:2;marker:none;enable-background:accumulate"
       d="m 10.396038,14.17768 h 4 v 1 h -4 z"
       id="path4045"
       inkscape:connector-curvature="0" />
    <rect
       y="8.17768"
       x="6.3960381"
       height="7"
       width="1"
       id="rect4371"
       style="display:inline;fill:#ffffff;fill-opacity:1;stroke:none;stroke-width:8;stroke-linecap:square;stroke-linejoin:miter;stroke-miterlimit:4;stroke-dasharray:none;stroke-opacity:1;enable-background:new" />
    <path
       style="display:inline;fill:#ffffff;fill-opacity:1;stroke:none;stroke-width:8;stroke-linecap:square;stroke-linejoin:miter;stroke-miterlimit:4;stroke-dasharray:none;stroke-opacity:1;enable-background:new"
       d="m 6.396038,9.17768 c -0.831,0 -1.5,0.669 -1.5,1.5 0,0.831 0.669,1.5 1.5,1.5 h 0.5 0.5 c 0.277,0 0.5,0.223 0.5,0.5 0,0.277 -0.223,0.5 -0.5,0.5 h -0.5 -0.5 -1.4082 c 0.206,0.58192 0.75396,1 1.4082,1 h 0.5 0.5 c 0.831,0 1.5,-0.669 1.5,-1.5 0,-0.831 -0.669,-1.5 -1.5,-1.5 h -0.5 -0.5 c -0.277,0 -0.5,-0.223 -0.5,-0.5 0,-0.277 0.223,-0.5 0.5,-0.5 h 0.5 0.5 1.4082 c -0.206,-0.58192 -0.75396,-1 -1.4082,-1 h -0.5 z"
       id="path4383"
       inkscape:connector-curvature="0" />
  </g>
</svg>
