<?xml version="1.0" encoding="UTF-8" standalone="no"?>
<svg
   width="32"
   height="32"
   version="1"
   id="svg16"
   sodipodi:docname="virtualbox.svg"
   inkscape:version="1.1.1 (3bf5ae0d25, 2021-09-20)"
   xmlns:inkscape="http://www.inkscape.org/namespaces/inkscape"
   xmlns:sodipodi="http://sodipodi.sourceforge.net/DTD/sodipodi-0.dtd"
   xmlns="http://www.w3.org/2000/svg"
   xmlns:svg="http://www.w3.org/2000/svg">
  <defs
     id="defs20" />
  <sodipodi:namedview
     id="namedview18"
     pagecolor="#505050"
     bordercolor="#ffffff"
     borderopacity="1"
     inkscape:pageshadow="0"
     inkscape:pageopacity="0"
     inkscape:pagecheckerboard="1"
     showgrid="false"
     inkscape:zoom="23.03125"
     inkscape:cx="16.043419"
     inkscape:cy="15.97829"
     inkscape:current-layer="svg16" />
  <rect
     ry="3"
     rx="3"
     y="-30"
     x="-30.5"
     height="28"
     width="28"
     id="rect4390"
     style="display:inline;opacity:0.2;fill:#000000;fill-opacity:1;stroke:none;enable-background:new"
     transform="matrix(0,-1,-1,0,0,0)" />
  <rect
     transform="matrix(0,-1,-1,0,0,0)"
     style="display:inline;fill:#239dcf;fill-opacity:1;stroke:none;enable-background:new"
     id="rect4255"
     width="28"
     height="28"
     x="-29.5"
     y="-30"
     rx="3"
     ry="3" />
  <path
     style="display:inline;opacity:0.2;fill:#ffffff;fill-opacity:1;stroke:none;enable-background:new"
     d="m 5,1.4999991 c -1.662,0 -3,1.338 -3,3 v 1 c 0,-1.662 1.338,-3 3,-3 h 22 c 1.662,0 3,1.338 3,3 v -1 c 0,-1.662 -1.338,-3 -3,-3 z"
     id="rect4430"
     inkscape:connector-curvature="0" />
  <g
     transform="matrix(0.64705882,0,0,0.64705882,-92.705883,-151.7353)"
     id="g4441"
     style="display:inline;opacity:0.2;stroke:#000000;stroke-opacity:1;enable-background:new">
    <path
       sodipodi:nodetypes="cccccccc"
       inkscape:connector-curvature="0"
       id="path4443"
       d="m 151,255.36364 h 4.63636 l 4.63637,13.90909 6.18182,-18.54545 4.63636,13.90909 4.63636,-13.90909 4.63637,13.90909 H 185"
       style="fill:none;fill-rule:evenodd;stroke:#000000;stroke-width:3.09091;stroke-linecap:butt;stroke-linejoin:miter;stroke-miterlimit:4;stroke-dasharray:none;stroke-opacity:1" />
    <rect
       ry="1"
       rx="1"
       y="243"
       x="151"
       height="34"
       width="34"
       id="rect4445"
       style="opacity:1;fill:none;fill-opacity:1;stroke:#000000;stroke-width:3.09091;stroke-linecap:round;stroke-linejoin:round;stroke-miterlimit:4;stroke-dasharray:none;stroke-opacity:1" />
  </g>
  <g
     id="g4410"
     transform="matrix(0.64705882,0,0,0.64705882,-92.705883,-152.73529)"
     style="display:inline;enable-background:new">
    <path
       style="fill:none;fill-rule:evenodd;stroke:#ffffff;stroke-width:3.09091;stroke-linecap:butt;stroke-linejoin:miter;stroke-miterlimit:4;stroke-dasharray:none;stroke-opacity:1"
       d="m 151,255.36364 h 4.63636 l 4.63637,13.90909 6.18182,-18.54545 4.63636,13.90909 4.63636,-13.90909 4.63637,13.90909 H 185"
       id="path4412"
       inkscape:connector-curvature="0"
       sodipodi:nodetypes="cccccccc" />
    <rect
       style="opacity:1;fill:none;fill-opacity:1;stroke:#ffffff;stroke-width:3.09091;stroke-linecap:round;stroke-linejoin:round;stroke-miterlimit:4;stroke-dasharray:none;stroke-opacity:1"
       id="rect4414"
       width="34"
       height="34"
       x="151"
       y="243"
       rx="1"
       ry="1" />
  </g>
</svg>
