<?xml version="1.0" encoding="UTF-8" standalone="no"?>
<svg
   width="32"
   height="32"
   version="1"
   id="svg12"
   sodipodi:docname="warpinator.svg"
   inkscape:version="1.1.1 (3bf5ae0d25, 2021-09-20)"
   xmlns:inkscape="http://www.inkscape.org/namespaces/inkscape"
   xmlns:sodipodi="http://sodipodi.sourceforge.net/DTD/sodipodi-0.dtd"
   xmlns="http://www.w3.org/2000/svg"
   xmlns:svg="http://www.w3.org/2000/svg">
  <defs
     id="defs16" />
  <sodipodi:namedview
     id="namedview14"
     pagecolor="#505050"
     bordercolor="#ffffff"
     borderopacity="1"
     inkscape:pageshadow="0"
     inkscape:pageopacity="0"
     inkscape:pagecheckerboard="1"
     showgrid="false"
     inkscape:zoom="23.03125"
     inkscape:cx="16.043419"
     inkscape:cy="16"
     inkscape:current-layer="svg12"
     showguides="false" />
  <rect
     style="opacity:0.2"
     width="28"
     height="28"
     x="2"
     y="3"
     rx="14"
     ry="14"
     id="rect2" />
  <rect
     style="fill:#673ab7"
     width="28"
     height="28"
     x="2"
     y="2"
     rx="14"
     ry="14"
     id="rect4" />
  <g
     id="g1236"
     transform="translate(-1.099609,-0.5)">
    <path
       style="opacity:0.2"
       d="m 24,8 a 2,2 0 0 0 -2,2 2,2 0 0 0 0.09375,0.601563 l -3.433594,3.765625 A 4,4 0 0 0 17,14 4,4 0 0 0 13.003906,17.869141 L 8.1503906,18.560547 C 7.8797945,18.21558 7.465778,18.013972 7.0273438,18.013672 c -0.7890871,4.62e-4 -1.4283507,0.6406 -1.4277344,1.429687 4.614e-4,0.788325 0.6394096,1.427273 1.4277344,1.427735 0.5824977,-3.18e-4 1.106465,-0.354264 1.3242187,-0.894532 L 13.214844,19.28125 A 4,4 0 0 0 17,22 4,4 0 0 0 21,18 4,4 0 0 0 20.300781,15.742188 l 3.429688,-3.763672 A 2,2 0 0 0 24,12 2,2 0 0 0 26,10 2,2 0 0 0 24,8 Z M 12.5,9 A 1.4999999,1.4999999 0 0 0 11,10.5 1.4999999,1.4999999 0 0 0 12.5,12 1.4999999,1.4999999 0 0 0 14,10.5 1.4999999,1.4999999 0 0 0 12.5,9 Z M 24,9 a 1,1 0 0 1 1,1 1,1 0 0 1 -1,1 1,1 0 0 1 -1,-1 1,1 0 0 1 1,-1 z m -10.140625,2.771484 -0.740234,0.544922 0.496093,0.708985 0.740235,-0.546875 z m 0.740234,1.058594 -0.738281,0.546875 0.650391,0.931641 0.740234,-0.546875 z M 17,16 a 2,2 0 0 1 2,2 2,2 0 0 1 -2,2 2,2 0 0 1 -2,-2 2,2 0 0 1 2,-2 z m -9.9726562,2.728516 c 0.3949248,-3.09e-4 0.7151519,0.319918 0.7148437,0.714843 3.088e-4,0.394925 -0.3199185,0.715153 -0.7148437,0.714844 -0.3941623,-7.7e-4 -0.7131995,-0.320681 -0.7128907,-0.714844 -3.083e-4,-0.394162 0.3187287,-0.714073 0.7128907,-0.714843 z m 13.4394532,1.875 -0.697266,0.697265 0.900391,0.904297 0.701172,-0.701172 z m 1.228515,1.226562 -0.699218,0.699219 1.044922,1.042969 0.697265,-0.697266 z m -6.453124,0.107422 -0.623047,1.556641 0.894531,0.3125 0.621094,-1.554688 z M 23.75,23 A 1.7499998,1.7499998 0 0 0 22,24.75 1.7499998,1.7499998 0 0 0 23.75,26.5 1.7499998,1.7499998 0 0 0 25.5,24.75 1.7499998,1.7499998 0 0 0 23.75,23 Z M 14.5,24 A 1.4999999,1.4999999 0 0 0 13,25.5 1.4999999,1.4999999 0 0 0 14.5,27 1.4999999,1.4999999 0 0 0 16,25.5 1.4999999,1.4999999 0 0 0 14.5,24 Z"
       id="path6" />
    <path
       style="fill:#ffffff"
       d="m 24,7 a 2,2 0 0 0 -2,2 2,2 0 0 0 0.09375,0.6015625 L 18.660156,13.367188 A 4,4 0 0 0 17,13 4,4 0 0 0 13.003906,16.869141 L 8.1503906,17.560547 C 7.8797945,17.21558 7.465778,17.013972 7.0273438,17.013672 c -0.7890871,4.62e-4 -1.4283507,0.6406 -1.4277344,1.429687 4.614e-4,0.788325 0.6394096,1.427273 1.4277344,1.427735 0.5824977,-3.18e-4 1.106465,-0.354264 1.3242187,-0.894532 L 13.214844,18.28125 A 4,4 0 0 0 17,21 4,4 0 0 0 21,17 4,4 0 0 0 20.300781,14.742188 l 3.429688,-3.763672 A 2,2 0 0 0 24,11 2,2 0 0 0 26,9 2,2 0 0 0 24,7 Z M 12.5,8 A 1.4999999,1.4999999 0 0 0 11,9.5 1.4999999,1.4999999 0 0 0 12.5,11 1.4999999,1.4999999 0 0 0 14,9.5 1.4999999,1.4999999 0 0 0 12.5,8 Z M 24,8 a 1,1 0 0 1 1,1 1,1 0 0 1 -1,1 1,1 0 0 1 -1,-1 1,1 0 0 1 1,-1 z m -10.140625,2.771484 -0.740234,0.544922 0.496093,0.708985 0.740235,-0.546875 z m 0.740234,1.058594 -0.738281,0.546875 0.650391,0.931641 0.740234,-0.546875 z M 17,15 a 2,2 0 0 1 2,2 2,2 0 0 1 -2,2 2,2 0 0 1 -2,-2 2,2 0 0 1 2,-2 z m -9.9726562,2.728516 c 0.3949248,-3.09e-4 0.7151519,0.319918 0.7148437,0.714843 3.088e-4,0.394925 -0.3199185,0.715153 -0.7148437,0.714844 -0.3941623,-7.7e-4 -0.7131995,-0.320681 -0.7128907,-0.714844 -3.083e-4,-0.394162 0.3187287,-0.714073 0.7128907,-0.714843 z m 13.4394532,1.875 -0.697266,0.697265 0.900391,0.904297 0.701172,-0.701172 z m 1.228515,1.226562 -0.699218,0.699219 1.044922,1.042969 0.697265,-0.697266 z m -6.453124,0.107422 -0.623047,1.556641 0.894531,0.3125 0.621094,-1.554688 z M 23.75,22 A 1.7499998,1.7499998 0 0 0 22,23.75 1.7499998,1.7499998 0 0 0 23.75,25.5 1.7499998,1.7499998 0 0 0 25.5,23.75 1.7499998,1.7499998 0 0 0 23.75,22 Z M 14.5,23 A 1.4999999,1.4999999 0 0 0 13,24.5 1.4999999,1.4999999 0 0 0 14.5,26 1.4999999,1.4999999 0 0 0 16,24.5 1.4999999,1.4999999 0 0 0 14.5,23 Z"
       id="path8" />
  </g>
  <path
     id="rect1117"
     style="fill:#ffffff;fill-opacity:1;opacity:0.2"
     d="M 16,2 C 8.244,2 2,8.244 2,16 c 0,0.167694 0.00593,0.333768 0.011719,0.5 C 2.2737217,8.9778267 8.4116937,3 16,3 23.588306,3 29.726278,8.9778267 29.988281,16.5 29.994071,16.333768 30,16.167694 30,16 30,8.244 23.756,2 16,2 Z" />
</svg>
