<?xml version="1.0" encoding="UTF-8" standalone="no"?>
<svg
   width="32"
   height="32"
   version="1"
   id="svg32"
   sodipodi:docname="weather.svg"
   inkscape:version="1.1.1 (3bf5ae0d25, 2021-09-20)"
   xmlns:inkscape="http://www.inkscape.org/namespaces/inkscape"
   xmlns:sodipodi="http://sodipodi.sourceforge.net/DTD/sodipodi-0.dtd"
   xmlns="http://www.w3.org/2000/svg"
   xmlns:svg="http://www.w3.org/2000/svg">
  <defs
     id="defs36" />
  <sodipodi:namedview
     id="namedview34"
     pagecolor="#505050"
     bordercolor="#ffffff"
     borderopacity="1"
     inkscape:pageshadow="0"
     inkscape:pageopacity="0"
     inkscape:pagecheckerboard="1"
     showgrid="false"
     inkscape:zoom="23.03125"
     inkscape:cx="16"
     inkscape:cy="17.302578"
     inkscape:current-layer="g1419" />
  <g
     id="g1419"
     transform="translate(2,-2.5)">
    <rect
       style="opacity:0.2;fill:#000000;stroke:#4caf50;stroke-width:0;stroke-linecap:round;paint-order:markers fill stroke"
       id="rect2084"
       width="30"
       height="29.999998"
       x="-1"
       y="4.5000005"
       rx="1.5"
       ry="1.5" />
    <rect
       style="opacity:1;fill:#03a9f4;stroke:#4caf50;stroke-width:0;stroke-linecap:round;paint-order:markers fill stroke"
       id="rect1648"
       width="30"
       height="30"
       x="-1"
       y="3.5"
       rx="1.5"
       ry="1.5" />
    <circle
       style="opacity:0.2;fill:#0d0d08"
       cx="20"
       cy="16"
       r="6"
       id="circle12" />
    <circle
       style="fill:#ffcc42"
       cx="20"
       cy="15"
       r="6"
       id="circle14" />
    <path
       style="opacity:0.2"
       d="M 14,13 A 6,6 0 0 0 8,19 6,6 0 0 0 8.00977,19.267578 4.5,4.5 0 0 0 6.5,19 4.5,4.5 0 0 0 2,23.5 4.5,4.5 0 0 0 6.5,28 4.5,4.5 0 0 0 7,27.966797 V 28 H 21.5 22 V 27.9668 A 4.5,4.5 0 0 0 26,23.5 4.5,4.5 0 0 0 21.5,19 4.5,4.5 0 0 0 19.986328,19.267578 6,6 0 0 0 20,19 6,6 0 0 0 14,13 Z"
       id="path18" />
    <path
       id="circle20"
       style="fill:#ffffff"
       d="M 14,12 A 6,6 0 0 0 8,18 6,6 0 0 0 8.0195312,18.265625 4.5,4.5 0 0 0 6.5,18 4.5,4.5 0 0 0 2,22.5 4.5,4.5 0 0 0 6.5,27 4.5,4.5 0 0 0 7,26.964844 V 27 H 22 V 26.96484 A 4.5,4.5 0 0 0 26,22.5 4.5,4.5 0 0 0 21.5,18 4.5,4.5 0 0 0 19.980469,18.275391 6,6 0 0 0 20,18 6,6 0 0 0 14,12 Z" />
    <path
       style="opacity:0.2;fill:#ffffff"
       d="m 20,9 a 6,6 0 0 0 -6,6 6,6 0 0 0 0.02539,0.498047 A 6,6 0 0 1 20,10 6,6 0 0 1 25.974609,15.501953 6,6 0 0 0 26,15 6,6 0 0 0 20,9 Z"
       id="path30" />
    <path
       id="rect2122"
       style="opacity:0.2;fill:#ffffff;stroke:#4caf50;stroke-width:0;stroke-linecap:round;paint-order:markers fill stroke;fill-opacity:1"
       d="m 0.5,3.5000005 c -0.831,0 -1.5,0.669 -1.5,1.5 v 1 c 0,-0.831 0.669,-1.5 1.5,-1.5 h 27 c 0.831,0 1.5,0.669 1.5,1.5 v -1 c 0,-0.831 -0.669,-1.5 -1.5,-1.5 z" />
  </g>
</svg>
