<?xml version="1.0" encoding="UTF-8" standalone="no"?>
<svg
   width="32"
   height="32"
   version="1"
   id="svg16"
   sodipodi:docname="preferences-desktop-workspaces.svg"
   inkscape:version="1.1.1 (3bf5ae0d25, 2021-09-20)"
   xmlns:inkscape="http://www.inkscape.org/namespaces/inkscape"
   xmlns:sodipodi="http://sodipodi.sourceforge.net/DTD/sodipodi-0.dtd"
   xmlns="http://www.w3.org/2000/svg"
   xmlns:svg="http://www.w3.org/2000/svg">
  <defs
     id="defs20" />
  <sodipodi:namedview
     id="namedview18"
     pagecolor="#505050"
     bordercolor="#ffffff"
     borderopacity="1"
     inkscape:pageshadow="0"
     inkscape:pageopacity="0"
     inkscape:pagecheckerboard="1"
     showgrid="false"
     inkscape:zoom="23.03125"
     inkscape:cx="16"
     inkscape:cy="15.97829"
     inkscape:current-layer="svg16" />
  <rect
     style="opacity:0.2"
     width="22"
     height="28"
     x="-28"
     y="-30"
     rx="1.5"
     ry="1.5"
     transform="matrix(0,-1,-1,0,0,0)"
     id="rect2" />
  <rect
     style="fill:#546e7a"
     width="22"
     height="28"
     x="-27"
     y="-30"
     rx="1.5"
     ry="1.5"
     transform="matrix(0,-1,-1,0,0,0)"
     id="rect4" />
  <path
     style="fill:#ffffff;opacity:0.2"
     transform="matrix(0,-1,-1,0,0,0)"
     d="m -25.5,-30 h 19 c 0.831,0 1.5,0.669 1.5,1.5 V -16 h -22 v -12.5 c 0,-0.831 0.669,-1.5 1.5,-1.5 z"
     id="path6" />
  <path
     style="fill:#000000;opacity:0.1"
     transform="matrix(0,-1,-1,0,0,0)"
     d="m -16,-30 h 9.5 c 0.831,0 1.5,0.669 1.5,1.5 v 25 C -5,-2.669 -5.669,-2 -6.5,-2 H -16 Z"
     id="path8" />
  <path
     fill="#fff"
     opacity=".1"
     d="m3.5 5c-0.831 0-1.5 0.669-1.5 1.5v1c0-0.831 0.669-1.5 1.5-1.5h25c0.831 0 1.5 0.669 1.5 1.5v-1c0-0.831-0.669-1.5-1.5-1.5h-25z"
     id="path10" />
  <rect
     style="opacity:0.2"
     width="12"
     height="15"
     x="-17"
     y="-16"
     rx=".5"
     ry=".5"
     transform="matrix(0,-1,-1,0,0,0)"
     id="rect12" />
  <rect
     style="fill:#eceff1"
     width="12"
     height="15"
     x="-16"
     y="-16"
     rx=".5"
     ry=".5"
     transform="matrix(0,-1,-1,0,0,0)"
     id="rect14" />
</svg>
