<?xml version="1.0" encoding="UTF-8" standalone="no"?>
<svg
   width="32"
   height="32"
   version="1"
   id="svg20"
   sodipodi:docname="gnome-settings-sound.svg"
   inkscape:version="1.1.1 (3bf5ae0d25, 2021-09-20)"
   xmlns:inkscape="http://www.inkscape.org/namespaces/inkscape"
   xmlns:sodipodi="http://sodipodi.sourceforge.net/DTD/sodipodi-0.dtd"
   xmlns="http://www.w3.org/2000/svg"
   xmlns:svg="http://www.w3.org/2000/svg">
  <defs
     id="defs24" />
  <sodipodi:namedview
     id="namedview22"
     pagecolor="#505050"
     bordercolor="#ffffff"
     borderopacity="1"
     inkscape:pageshadow="0"
     inkscape:pageopacity="0"
     inkscape:pagecheckerboard="1"
     showgrid="false"
     inkscape:zoom="23.03125"
     inkscape:cx="16"
     inkscape:cy="15.97829"
     inkscape:current-layer="svg20" />
  <rect
     fill="#4f4f4f"
     width="20"
     height="26"
     x="-26"
     y="3"
     rx="1.25"
     ry="1.3"
     transform="scale(-1,1)"
     id="rect2"
     style="fill:#666666" />
  <circle
     style="opacity:0.4;fill:#1a1a1a"
     cx="-18"
     cy="16"
     r="9"
     transform="rotate(-90)"
     id="circle4" />
  <circle
     opacity=".2"
     cx="-19"
     cy="-16"
     r="7"
     transform="matrix(0,-1,-1,0,0,0)"
     id="circle6" />
  <circle
     fill="#fec006"
     cx="-18"
     cy="-16"
     r="7"
     transform="matrix(0,-1,-1,0,0,0)"
     id="circle8"
     style="fill:#f9ce1d" />
  <circle
     style="fill:#3f3f3f"
     cx="-18"
     cy="-16"
     r="3"
     transform="matrix(0,-1,-1,0,0,0)"
     id="circle10" />
  <circle
     style="opacity:0.4;fill:#1a1a1a"
     cx="7"
     cy="-10"
     r="1"
     transform="rotate(90)"
     id="circle12" />
  <circle
     style="opacity:0.4;fill:#1a1a1a"
     cx="7"
     cy="-22"
     r="1"
     transform="rotate(90)"
     id="circle14" />
  <path
     opacity=".2"
     d="m6 27.699v1c0 0.72 0.5575 1.301 1.25 1.301h17.5c0.692 0 1.25-0.581 1.25-1.301v-1c0 0.72-0.558 1.301-1.25 1.301h-17.5c-0.6925 0-1.25-0.581-1.25-1.301z"
     id="path16" />
  <path
     fill="#fff"
     opacity=".1"
     d="m7.25 3c-0.6925 0-1.25 0.5806-1.25 1.3008v1c0-0.7202 0.5575-1.3008 1.25-1.3008h17.5c0.692 0 1.25 0.5806 1.25 1.3008v-1c0-0.7202-0.558-1.3008-1.25-1.3008h-17.5z"
     id="path18" />
</svg>
