<?xml version="1.0" encoding="UTF-8" standalone="no"?>
<svg
   width="32"
   height="32"
   version="1.1"
   id="svg22"
   sodipodi:docname="applications-office.svg"
   inkscape:version="1.1.1 (3bf5ae0d25, 2021-09-20)"
   xmlns:inkscape="http://www.inkscape.org/namespaces/inkscape"
   xmlns:sodipodi="http://sodipodi.sourceforge.net/DTD/sodipodi-0.dtd"
   xmlns="http://www.w3.org/2000/svg"
   xmlns:svg="http://www.w3.org/2000/svg">
  <defs
     id="defs26" />
  <sodipodi:namedview
     id="namedview24"
     pagecolor="#505050"
     bordercolor="#ffffff"
     borderopacity="1"
     inkscape:pageshadow="0"
     inkscape:pageopacity="0"
     inkscape:pagecheckerboard="1"
     showgrid="false"
     inkscape:zoom="23.03125"
     inkscape:cx="16"
     inkscape:cy="16.02171"
     inkscape:current-layer="g1231" />
  <g
     id="g1231"
     transform="translate(0,-1)">
    <path
       style="opacity:0.2"
       d="M 10.561328,6 C 9.7099269,6 8.9931087,6.7003834 9.0000002,7.5517578 V 12.3 H 12 V 9 h 4 4 v 3.3 h 3 V 7.5517578 C 23.006891,6.7003834 22.290073,6 21.438672,6 H 16 Z"
       id="path2" />
    <path
       style="opacity:0.2"
       d="m 2.0000003,22.7 v 5.151562 A 1.1726,1.149148 0 0 0 3.1730471,29 H 28.826953 A 1.1726,1.149148 0 0 0 30,27.851562 V 22.7 Z"
       id="path4" />
    <path
       style="fill:#37474f"
       d="m 10.561328,5.0000001 c -0.8514011,0 -1.5682193,0.7003834 -1.5613278,1.5517578 V 11.3 H 12 V 8 h 4 4 v 3.3 h 3 V 6.5517579 C 23.006891,5.7003835 22.290073,5.0000001 21.438672,5.0000001 H 16 Z"
       id="path6" />
    <path
       style="fill:#263238"
       d="m 2.0000003,21.7 v 5.151562 A 1.1726,1.149148 0 0 0 3.1730471,28 H 28.826953 A 1.1726,1.149148 0 0 0 30,26.851562 V 21.7 Z"
       id="path8" />
    <path
       style="opacity:0.2"
       d="M 27.6812,25 H 4.3188001 a 2.3188,2.173875 0 0 1 -2.3188,-2.173875 V 11.588688 a 1.6944,1.5885 0 0 1 1.6946,-1.5886881 H 28.3054 A 1.6944,1.5885 0 0 1 30,11.588688 V 22.826125 A 2.3188,2.173875 0 0 1 27.6812,25 Z"
       id="path10" />
    <path
       style="fill:#455a64"
       d="M 27.6812,24 H 4.3188001 a 2.3188,2.173875 0 0 1 -2.3188,-2.173875 V 10.588688 A 1.6944,1.5885 0 0 1 3.6946001,9 H 28.3054 A 1.6944,1.5885 0 0 1 30,10.588688 V 21.826125 A 2.3188,2.173875 0 0 1 27.6812,24 Z"
       id="path12" />
    <rect
       style="opacity:0.2"
       width="6"
       height="3"
       x="13"
       y="20"
       rx="1.125"
       id="rect14" />
    <rect
       style="fill:#b0bec5"
       width="6"
       height="3"
       x="13"
       y="19"
       rx="1.125"
       id="rect16" />
    <path
       style="opacity:0.1;fill:#ffffff"
       d="M 10.560547,5 C 9.7091458,5 8.9931085,5.70136 9,6.5527344 v 1 C 8.9931085,6.70136 9.7091458,6 10.560547,6 H 16 21.439453 C 22.290854,6 23.006891,6.70136 23,7.5527344 v -1 C 23.006891,5.70136 22.290854,5 21.439453,5 H 16 Z"
       id="path18" />
    <path
       style="opacity:0.1;fill:#ffffff"
       d="M 3.6953125,9 A 1.6944,1.5885 0 0 0 2,10.587891 v 1 A 1.6944,1.5885 0 0 1 3.6953125,10 H 28.304688 A 1.6944,1.5885 0 0 1 30,11.587891 v -1 A 1.6944,1.5885 0 0 0 28.304688,9 Z"
       id="path20" />
  </g>
</svg>
