<?xml version="1.0" encoding="UTF-8" standalone="no"?>
<svg
   width="32"
   height="32"
   version="1"
   id="svg30"
   sodipodi:docname="accessories-archiver.svg"
   inkscape:version="1.1.1 (3bf5ae0d25, 2021-09-20)"
   xmlns:inkscape="http://www.inkscape.org/namespaces/inkscape"
   xmlns:sodipodi="http://sodipodi.sourceforge.net/DTD/sodipodi-0.dtd"
   xmlns="http://www.w3.org/2000/svg"
   xmlns:svg="http://www.w3.org/2000/svg">
  <defs
     id="defs34" />
  <sodipodi:namedview
     id="namedview32"
     pagecolor="#505050"
     bordercolor="#ffffff"
     borderopacity="1"
     inkscape:pageshadow="0"
     inkscape:pageopacity="0"
     inkscape:pagecheckerboard="1"
     showgrid="false"
     inkscape:zoom="23.03125"
     inkscape:cx="16"
     inkscape:cy="15.97829"
     inkscape:current-layer="svg30" />
  <g
     id="g972"
     transform="translate(5.6228004,-9.4436906)">
    <rect
       ry="3"
       rx="3"
       y="-24.377199"
       x="-37.943691"
       height="28"
       width="24"
       id="rect4390"
       style="display:inline;opacity:0.2;fill:#000000;fill-opacity:1;stroke:none;enable-background:new"
       transform="matrix(0,-1,-1,0,0,0)" />
    <rect
       transform="matrix(0,-1,-1,0,0,0)"
       style="display:inline;fill:#bcaaa4;fill-opacity:1;stroke:none;enable-background:new"
       id="rect4255"
       width="24"
       height="28"
       x="-36.943691"
       y="-24.377199"
       rx="3"
       ry="3" />
    <path
       style="display:inline;opacity:0.2;fill:#ffffff;fill-opacity:1;stroke:none;enable-background:new"
       d="m -0.6228,12.94369 c -1.662,0 -3,1.338 -3,3 v 1 c 0,-1.662 1.338,-3 3,-3 h 22 c 1.662,0 3,1.338 3,3 v -1 c 0,-1.662 -1.338,-3 -3,-3 z"
       id="rect4430"
       inkscape:connector-curvature="0" />
    <path
       style="display:inline;opacity:0.1;fill:#000000;fill-opacity:1;stroke:none;enable-background:new"
       inkscape:connector-curvature="0"
       id="path14"
       d="m 8.3772,12.94369 v 10 c 0,1.1 0.895,2 2,2 1.105,0 2,-0.9 2,-2 v -10 z"
       sodipodi:nodetypes="cssscc" />
    <path
       style="display:inline;opacity:0.2;fill:#000000;fill-opacity:1;stroke:none;enable-background:new"
       inkscape:connector-curvature="0"
       id="path16"
       d="m 10.3772,12.94369 v 1 h 1 v -1 z m 0,1 h -1 v 1 h 1 z m 0,1 v 1 h 1 v -1 z m 0,1 h -1 v 1 h 1 z m 0,1 v 1 h 1 v -1 z m 0,1 h -1 v 1 h 1 z m 0,1 v 1 h 1 v -1 z m 0,1 h -1 v 1 h 1 z m 0,1 v 1 h 1 v -1 z m 0,1 h -1 v 1 h 1 z m 0,1 v 1 c 0.552,0 1,-0.5 1,-1 z"
       sodipodi:nodetypes="cccccccccccccccccccccccccccccccccccccccccccccccccccccc" />
    <path
       style="display:inline;fill:#dddddd;fill-opacity:1;stroke:none;enable-background:new"
       inkscape:connector-curvature="0"
       id="path18"
       d="m 9.3772,12.94369 v 1 h 1 v -1 z m 0,2 v 1 h 1 v -1 z m 0,2 v 1 h 1 v -1 z m 0,2 v 1 h 1 v -1 z m 0,2 v 1 h 1 v -1 z m 0,2 c 0,0.5 0.448,1 1,1 v -1 z"
       sodipodi:nodetypes="ccccccccccccccccccccccccccccc" />
    <path
       style="display:inline;opacity:0.2;fill:#000000;fill-opacity:1;stroke:none;enable-background:new"
       inkscape:connector-curvature="0"
       id="path20"
       d="m 10.3772,24.94369 c -1.105,0 -2,0.9 -2,2 v 4 c 0,1.1 0.895,2 2,2 1.105,0 2,-0.9 2,-2 v -4 c 0,-1.1 -0.895,-2 -2,-2 z m 0,1 c 0.552,0 1,0.4 1,1 0,0.5 -0.448,1 -1,1 -0.552,0 -1,-0.5 -1,-1 0,-0.6 0.448,-1 1,-1 z m 0,3 c 0.552,0 1,0.4 1,1 v 1 c 0,0.5 -0.448,1 -1,1 -0.552,0 -1,-0.5 -1,-1 v -1 c 0,-0.6 0.448,-1 1,-1 z"
       sodipodi:nodetypes="sssssssssssssssssss" />
    <path
       d="m 10.3772,13.94369 h 1 v 1 h -1 z m 0,2 h 1 v 1 h -1 z m 0,2 h 1 v 1 h -1 z m 0,2 h 1 v 1 h -1 z m 0,2 h 1 v 1 h -1 z"
       id="path4535"
       inkscape:connector-curvature="0"
       style="display:inline;fill:#b3b3b3;fill-opacity:1;stroke:none;enable-background:new"
       sodipodi:nodetypes="ccccccccccccccccccccccccc" />
    <path
       style="display:inline;fill:#f5f5f5;fill-opacity:1;stroke:none;enable-background:new"
       inkscape:connector-curvature="0"
       id="path22"
       d="m 10.3772,23.94369 c -1.105,0 -2,0.9 -2,2 v 4 c 0,1.1 0.895,2 2,2 1.105,0 2,-0.9 2,-2 v -4 c 0,-1.1 -0.895,-2 -2,-2 z m 0,1 c 0.552,0 1,0.4 1,1 0,0.5 -0.448,1 -1,1 -0.552,0 -1,-0.5 -1,-1 0,-0.6 0.448,-1 1,-1 z m 0,3 c 0.552,0 1,0.4 1,1 v 1 c 0,0.5 -0.448,1 -1,1 -0.552,0 -1,-0.5 -1,-1 v -1 c 0,-0.6 0.448,-1 1,-1 z"
       sodipodi:nodetypes="sssssssssssssssssss" />
  </g>
</svg>
