<?xml version="1.0" encoding="UTF-8" standalone="no"?>
<svg
   width="32"
   height="32"
   version="1.1"
   id="svg24"
   sodipodi:docname="computer-fail.svg"
   inkscape:version="1.1.1 (3bf5ae0d25, 2021-09-20)"
   xmlns:inkscape="http://www.inkscape.org/namespaces/inkscape"
   xmlns:sodipodi="http://sodipodi.sourceforge.net/DTD/sodipodi-0.dtd"
   xmlns="http://www.w3.org/2000/svg"
   xmlns:svg="http://www.w3.org/2000/svg">
  <defs
     id="defs28" />
  <sodipodi:namedview
     id="namedview26"
     pagecolor="#505050"
     bordercolor="#ffffff"
     borderopacity="1"
     inkscape:pageshadow="0"
     inkscape:pageopacity="0"
     inkscape:pagecheckerboard="1"
     showgrid="false"
     inkscape:zoom="16.285553"
     inkscape:cx="11.63608"
     inkscape:cy="6.2632199"
     inkscape:current-layer="svg24" />
  <g
     id="g1384"
     transform="translate(-29.529072,2.0099259)">
    <g
       id="g2403"
       transform="translate(29.529072,-3.3438006)">
      <rect
         style="opacity:0.2;stroke-width:1.10204"
         width="16"
         height="4"
         x="8"
         y="25.667749"
         rx="1.2646846"
         ry="1.5004877"
         id="rect2-3" />
      <rect
         style="opacity:0.2;stroke-width:0.612372"
         width="6"
         height="21"
         x="13"
         y="8"
         rx="0.46875"
         ry="1.25"
         id="rect1320" />
      <rect
         style="fill:#263238"
         width="16"
         height="4"
         x="8"
         y="25"
         rx="1.25"
         ry="1.25"
         id="rect4-6" />
      <rect
         style="fill:#37474f"
         width="6"
         height="21"
         x="13"
         y="7"
         rx="1.25"
         ry="1.25"
         id="rect1322" />
      <rect
         style="opacity:0.2;stroke-width:0.948683"
         width="26"
         height="18"
         x="3"
         y="6"
         rx="1.25"
         ry="1.125"
         id="rect6-7" />
      <path
         style="fill:#455a64"
         d="m 3,20 v 1.75 C 3,22.4425 3.5575,23 4.25,23 h 23.5 C 28.4425,23 29,22.4425 29,21.75 V 20 Z"
         id="path8" />
      <path
         style="fill:#f44336"
         d="M 4.25,5 C 3.5575,5 3,5.5575 3,6.25 V 22 H 29 V 6.25 C 29,5.5575 28.4425,5 27.75,5 Z"
         id="path10" />
      <path
         style="opacity:0.1;fill:#ffffff"
         d="M 4.25,5 C 3.5575,5 3,5.5575 3,6.25 v 1 C 3,6.5575 3.5575,6 4.25,6 h 23.5 C 28.442,6 29,6.5575 29,7.25 v -1 C 29,5.5575 28.442,5 27.75,5 Z"
         id="path14" />
    </g>
  </g>
  <g
     style="opacity:0.2;enable-background:new"
     transform="matrix(2,0,0,2,-970.0004,551)"
     id="g18">
    <path
       d="m 490.5002,-271.5 v 2 h 1 v -2 z m 4,0 v 2 h 1 v -2 z m -4,3.5 v 1 h 1 3 1 v -1 h -1 -3 z m 5,1 v 1 h 1 v -1 z m -5,0 h -1 v 1 h 1 z"
       id="path16" />
  </g>
  <g
     style="fill:#ffffff;enable-background:new"
     transform="matrix(2,0,0,2,-970.0004,549)"
     id="g22">
    <path
       style="fill:#ffffff"
       d="m 490.5002,-271.5 v 2 h 1 v -2 z m 4,0 v 2 h 1 v -2 z m -4,3.5 v 1 h 1 3 1 v -1 h -1 -3 z m 5,1 v 1 h 1 v -1 z m -5,0 h -1 v 1 h 1 z"
       id="path20" />
  </g>
</svg>
