<?xml version="1.0" encoding="UTF-8" standalone="no"?>
<svg
   width="32"
   height="32"
   version="1"
   id="svg26"
   sodipodi:docname="image-svg+xml.svg"
   inkscape:version="1.1.1 (3bf5ae0d25, 2021-09-20)"
   xmlns:inkscape="http://www.inkscape.org/namespaces/inkscape"
   xmlns:sodipodi="http://sodipodi.sourceforge.net/DTD/sodipodi-0.dtd"
   xmlns="http://www.w3.org/2000/svg"
   xmlns:svg="http://www.w3.org/2000/svg">
  <defs
     id="defs30" />
  <sodipodi:namedview
     id="namedview28"
     pagecolor="#505050"
     bordercolor="#ffffff"
     borderopacity="1"
     inkscape:pageshadow="0"
     inkscape:pageopacity="0"
     inkscape:pagecheckerboard="1"
     showgrid="false"
     inkscape:zoom="23.03125"
     inkscape:cx="11.484396"
     inkscape:cy="17.75848"
     inkscape:current-layer="g5602" />
  <rect
     style="opacity:0.2"
     width="28"
     height="25"
     x="2"
     y="4"
     rx="2.1"
     ry="2.1"
     id="rect2" />
  <rect
     style="fill:#cfd8dc"
     width="28"
     height="25"
     x="2"
     y="3"
     rx="2.1"
     ry="2.1"
     id="rect4" />
  <path
     style="fill:#ffffff;opacity:0.2"
     d="M 4.0996094 3 C 2.9362094 3 2 3.9362094 2 5.0996094 L 2 6.0996094 C 2 4.9362094 2.9362094 4 4.0996094 4 L 27.900391 4 C 29.063791 4 30 4.9362094 30 6.0996094 L 30 5.0996094 C 30 3.9362094 29.063791 3 27.900391 3 L 4.0996094 3 z"
     id="path24" />
  <path
     id="rect4606"
     style="fill:#eceff1"
     d="M 2 18 L 2 20.099609 L 2 23 L 2 25.900391 C 2 27.063791 2.9362094 28 4.0996094 28 L 27.900391 28 C 29.063791 28 30 27.063791 30 25.900391 L 30 23 L 30 20.099609 L 30 18 L 27.900391 18 L 4.0996094 18 L 2 18 z " />
  <g
     id="g4588"
     transform="translate(0,1.4998306)">
    <g
       id="g4596"
       transform="translate(0,0.24991528)">
      <g
         id="g4604">
        <g
           id="g5602">
          <g
             id="g5610">
            <rect
               style="opacity:0.1;fill:#000000;fill-opacity:1"
               height="8"
               x="18"
               y="10"
               rx="0.667"
               ry="0.667"
               id="rect3568"
               width="8" />
            <rect
               style="fill:#3974e1"
               height="8"
               x="18"
               y="9"
               rx="0.667"
               ry="0.667"
               id="rect20"
               width="8" />
            <path
               sodipodi:type="star"
               style="opacity:0.1;fill:#000000;fill-opacity:1;stroke-width:0.755906;stroke-linecap:round;paint-order:markers fill stroke"
               id="path4354"
               inkscape:flatsided="true"
               sodipodi:sides="3"
               sodipodi:cx="22.878853"
               sodipodi:cy="21.913292"
               sodipodi:r1="5.5734768"
               sodipodi:r2="2.7867384"
               sodipodi:arg1="0.52359878"
               sodipodi:arg2="1.5707963"
               inkscape:rounded="0"
               inkscape:randomized="0"
               d="m 27.705625,24.70003 -9.653545,0 4.826773,-8.360215 z"
               inkscape:transform-center-y="-1.3333333"
               transform="matrix(0.9323,0,0,0.95691317,-4.8299544,-1.1351914)" />
            <path
               sodipodi:type="star"
               style="opacity:1;fill:#4caf50;fill-opacity:1;stroke-width:0.755906;stroke-linecap:round;paint-order:markers fill stroke"
               id="path4436"
               inkscape:flatsided="true"
               sodipodi:sides="3"
               sodipodi:cx="22.878853"
               sodipodi:cy="21.913292"
               sodipodi:r1="5.5734768"
               sodipodi:r2="2.7867384"
               sodipodi:arg1="0.52359878"
               sodipodi:arg2="1.5707963"
               inkscape:rounded="0"
               inkscape:randomized="0"
               d="m 27.705625,24.70003 -9.653545,0 4.826773,-8.360215 z"
               inkscape:transform-center-y="-1.3333333"
               transform="matrix(0.9323,0,0,0.95691317,-4.8299545,-2.1355302)" />
            <circle
               style="opacity:0.1;fill:#000000;fill-opacity:1;stroke-width:3"
               cx="10.5"
               cy="14.999891"
               id="circle3812"
               r="4.5" />
            <circle
               style="fill:#ff4b4b;stroke-width:3"
               cx="10.5"
               cy="14.00017"
               id="circle22"
               r="4.5" />
          </g>
        </g>
      </g>
    </g>
  </g>
</svg>
