<?xml version="1.0" encoding="UTF-8" standalone="no"?>
<svg
   width="32"
   height="32"
   version="1.1"
   id="svg18"
   sodipodi:docname="pix.svg"
   inkscape:version="1.1.1 (3bf5ae0d25, 2021-09-20)"
   xmlns:inkscape="http://www.inkscape.org/namespaces/inkscape"
   xmlns:sodipodi="http://sodipodi.sourceforge.net/DTD/sodipodi-0.dtd"
   xmlns="http://www.w3.org/2000/svg"
   xmlns:svg="http://www.w3.org/2000/svg">
  <defs
     id="defs22" />
  <sodipodi:namedview
     id="namedview20"
     pagecolor="#505050"
     bordercolor="#ffffff"
     borderopacity="1"
     inkscape:pageshadow="0"
     inkscape:pageopacity="0"
     inkscape:pagecheckerboard="1"
     showgrid="false"
     inkscape:zoom="16"
     inkscape:cx="8.96875"
     inkscape:cy="11.5625"
     inkscape:current-layer="g984" />
  <g
     id="g984"
     transform="translate(-2.5400275,-7.79376)">
    <path
       style="display:inline;opacity:0.2;fill:#000000;fill-opacity:1;stroke:none;enable-background:new"
       d="m 18.540033,12.293755 v 6 h -6 l -6,6 h 6 v 6 l 6,6 v -6 h 6 l 6,-6 h -6 v -6 z"
       id="path4594"
       inkscape:connector-curvature="0" />
    <path
       style="display:inline;fill:#fec006;fill-opacity:1;stroke:none;enable-background:new"
       d="m 12.540023,17.293765 c 3.216281,1.33657 4.697467,3.61956 6,6 H 6.540022 Z"
       id="path4398"
       inkscape:connector-curvature="0"
       sodipodi:nodetypes="cccc" />
    <path
       inkscape:connector-curvature="0"
       id="path4400"
       d="m 24.540023,17.293765 c -1.407619,3.54019 -3.73653,4.68502 -6,6 v -12 z"
       style="display:inline;fill:#f34235;fill-opacity:1;stroke:none;enable-background:new"
       sodipodi:nodetypes="cccc" />
    <path
       style="display:inline;fill:#4bae4f;fill-opacity:1;stroke:none;enable-background:new"
       d="m 12.540023,29.293765 6,6 v -12 c -2.591524,1.2113 -4.46598,3.37869 -6,6 z"
       id="path4402"
       inkscape:connector-curvature="0"
       sodipodi:nodetypes="cccc" />
    <path
       inkscape:connector-curvature="0"
       id="path4404"
       d="m 24.540023,29.293765 c -2.760517,-1.32398 -4.829846,-3.26236 -6,-6 h 12 z"
       style="display:inline;fill:#2095f2;fill-opacity:1;stroke:none;enable-background:new"
       sodipodi:nodetypes="cccc" />
    <path
       style="display:inline;fill:#9c27b0;fill-opacity:1;stroke:none;enable-background:new"
       d="m 18.540023,23.293765 6,-6 v 6 z"
       id="path4406"
       inkscape:connector-curvature="0" />
    <path
       inkscape:connector-curvature="0"
       id="path4408"
       d="m 18.540023,23.293765 -6,6 v -6 z"
       style="display:inline;fill:#1ea362;fill-opacity:1;stroke:none;enable-background:new" />
    <path
       style="display:inline;fill:#3e50b4;fill-opacity:1;stroke:none;enable-background:new"
       d="m 24.540023,29.293765 -6,-6 v 6 z"
       id="path4410"
       inkscape:connector-curvature="0" />
    <path
       inkscape:connector-curvature="0"
       id="path4412"
       d="m 12.540023,17.293765 6,6 v -6 z"
       style="display:inline;fill:#fe9700;fill-opacity:1;stroke:none;enable-background:new" />
    <path
       style="display:inline;opacity:0.2;fill:#000000;fill-opacity:1;stroke:none;enable-background:new"
       d="m 18.540033,20.918755 -1.125,2.25 -2.25,1.125 2.25,1.125 1.125,2.25 1.125,-2.25 2.25,-1.125 -2.25,-1.125 z"
       id="path4619"
       inkscape:connector-curvature="0" />
    <path
       inkscape:connector-curvature="0"
       style="display:inline;fill:#ffffff;fill-opacity:1;stroke:none;enable-background:new"
       d="m 18.540023,19.918765 -1.125,2.25 -2.25,1.125 3.375,0.42857 3.375,-0.42857 -2.25,-1.125 z"
       id="path4414"
       sodipodi:nodetypes="ccccccc" />
    <path
       inkscape:connector-curvature="0"
       style="display:inline;fill:#ebebeb;fill-opacity:1;stroke:none;enable-background:new"
       d="m 15.165023,23.293765 2.25,1.125 1.125,2.25 v -3.375 z"
       id="path4416" />
    <path
       id="path4418"
       d="m 21.915023,23.293765 -2.25,1.125 -1.125,2.25 v -3.375 z"
       style="display:inline;fill:#dfdfdf;fill-opacity:1;stroke:none;enable-background:new"
       inkscape:connector-curvature="0" />
  </g>
</svg>
