<?xml version="1.0" encoding="UTF-8" standalone="no"?>
<svg
   width="32"
   height="32"
   version="1"
   id="svg18"
   sodipodi:docname="xfce4-settings.svg"
   inkscape:version="1.1.1 (3bf5ae0d25, 2021-09-20)"
   xmlns:inkscape="http://www.inkscape.org/namespaces/inkscape"
   xmlns:sodipodi="http://sodipodi.sourceforge.net/DTD/sodipodi-0.dtd"
   xmlns="http://www.w3.org/2000/svg"
   xmlns:svg="http://www.w3.org/2000/svg">
  <defs
     id="defs22" />
  <sodipodi:namedview
     id="namedview20"
     pagecolor="#505050"
     bordercolor="#ffffff"
     borderopacity="1"
     inkscape:pageshadow="0"
     inkscape:pageopacity="0"
     inkscape:pagecheckerboard="1"
     showgrid="false"
     inkscape:zoom="23.03125"
     inkscape:cx="16"
     inkscape:cy="15.97829"
     inkscape:current-layer="svg18" />
  <path
     style="display:inline;fill:#607d8b;fill-opacity:1;stroke:none;enable-background:new"
     d="m 13.134418,1.50042 c -0.29681,0.0323 -0.55825,0.27515 -0.6125,0.56874 l -0.59061,2.99683 C 10.871018,5.48065 9.8745077,6.05037 9.0000977,6.75034 l -2.90934,-0.98436 c -0.30225,-0.10422 -0.66885,0.0308 -0.83124,0.30625 l -2.799961,4.85619 c -0.15772,0.2793 -0.0901,0.66583 0.15312,0.87499 l 2.318721,2.03434 c -0.0816,0.54547 -0.13125,1.09426 -0.13125,1.66248 0,0.56822 0.0496,1.117 0.13125,1.66247 l -2.318721,2.03435 c -0.24319,0.20916 -0.31084,0.59569 -0.15312,0.87499 l 2.799961,4.85619 c 0.16239,0.2754 0.52899,0.41046 0.83124,0.30624 l 2.90934,-0.98436 c 0.87441,0.69997 1.8709203,1.2697 2.9312103,1.68436 l 0.59061,2.99683 c 0.0599,0.3137 0.35879,0.56439 0.67812,0.56874 h 5.59993 c 0.31933,-0.004 0.61824,-0.25504 0.67811,-0.56874 l 0.59062,-2.99683 c 1.06029,-0.41466 2.0568,-0.98439 2.93121,-1.68436 l 2.90934,0.98436 c 0.30224,0.10422 0.66885,-0.0308 0.83124,-0.30624 l 2.79996,-4.85619 c 0.15771,-0.2793 0.0901,-0.66583 -0.15312,-0.87499 l -2.31872,-2.03435 c 0.0816,-0.54547 0.13124,-1.09425 0.13124,-1.66247 0,-0.56822 -0.0497,-1.11701 -0.13124,-1.66248 l 2.31872,-2.03434 c 0.24319,-0.20916 0.31083,-0.59569 0.15312,-0.87499 l -2.79996,-4.85619 c -0.16239,-0.2754 -0.529,-0.41047 -0.83124,-0.30625 l -2.90934,0.98436 c -0.87441,-0.69997 -1.87092,-1.26969 -2.93121,-1.68435 l -0.59062,-2.99683 c -0.0599,-0.3137 -0.35878,-0.5644 -0.67811,-0.56874 h -5.59993 c -0.0219,-5.1e-4 -0.0438,-5.1e-4 -0.0656,0 z"
     id="path4321"
     inkscape:connector-curvature="0" />
  <path
     sodipodi:nodetypes="sssss"
     inkscape:connector-curvature="0"
     style="display:inline;opacity:0.2;fill:#000000;fill-opacity:1;stroke:none;enable-background:new"
     d="m 15.999998,10.50001 c 3.31374,0 6.00004,2.6863 6.00004,6.00003 0,3.31372 -2.6863,6.00003 -6.00004,6.00003 -3.31373,0 -6.0000303,-2.68631 -6.0000303,-6.00003 0,-3.31373 2.6863003,-6.00003 6.0000303,-6.00003 z"
     id="path4450" />
  <path
     id="path4323"
     d="m 15.999998,9.50001 c 3.31374,0 6.00004,2.6863 6.00004,6.00003 0,3.31372 -2.6863,6.00003 -6.00004,6.00003 -3.31373,0 -6.0000303,-2.68631 -6.0000303,-6.00003 0,-3.31373 2.6863003,-6.00003 6.0000303,-6.00003 z"
     style="display:inline;fill:#ffffff;fill-opacity:1;stroke:none;enable-background:new"
     inkscape:connector-curvature="0"
     sodipodi:nodetypes="sssss" />
  <path
     style="display:inline;opacity:0.1;fill:#ffffff;fill-opacity:1;stroke:none;enable-background:new"
     d="m 13.124908,1.50034 c -0.29681,0.0323 -0.5395,0.26891 -0.59375,0.5625 l -0.59375,3 C 10.877118,5.4775 9.8743177,6.05037 8.9999077,6.75034 l -2.90625,-0.96875 c -0.30225,-0.10422 -0.68136,0.006 -0.84375,0.28125 l -2.6875,4.6875 c 0.01904,0.0215 0.04057,0.0436 0.0625,0.0625 l 0.3125,0.28125 2.3125,-4.03125 c 0.16239,-0.27545 0.5415,-0.38547 0.84375,-0.28125 l 2.90625,0.96875 C 9.8743177,7.05037 10.877118,6.4775 11.937408,6.06284 l 0.59375,-3 c 0.0542,-0.29359 0.29694,-0.5302 0.59375,-0.5625 0.0218,-5.1e-4 0.0406,-5.1e-4 0.0625,0 h 5.625 c 0.31933,0.004 0.59635,0.2488 0.65625,0.5625 l 0.59375,3 c 1.06029,0.41466 2.06309,0.98753 2.9375,1.6875 l 2.90625,-0.96875 c 0.30224,-0.10422 0.68136,0.006 0.84375,0.28125 l 2.3125,4.03125 0.3125,-0.28125 c 0.0219,-0.0189 0.0435,-0.041 0.0625,-0.0625 l -2.6875,-4.6875 c -0.16239,-0.2754 -0.54151,-0.38547 -0.84375,-0.28125 l -2.90625,0.96875 c -0.87441,-0.69997 -1.87721,-1.27284 -2.9375,-1.6875 l -0.59375,-3 c -0.0599,-0.3137 -0.33692,-0.55816 -0.65625,-0.5625 h -5.625 c -0.0219,-5.1e-4 -0.0407,-5.1e-4 -0.0625,0 z M 2.4061577,11.15659 c -0.01685,0.0926 -0.01947,0.15743 0,0.25 -0.01419,-0.0788 -0.01174,-0.17122 0,-0.25 z m 27.1875003,0 c 0.0118,0.0788 0.0142,0.17115 0,0.25 0.0195,-0.0926 0.0169,-0.15743 0,-0.25 z M 4.8436577,14.75034 c -0.006,0.082 0.005,0.1671 0,0.25 0.008,0.16951 0.0203,0.33388 0.0312,0.5 0.0143,-0.21861 0.0299,-0.43823 0.0625,-0.65625 l -0.0937,-0.0937 z m 22.3125003,0 -0.0937,0.0937 c 0.0326,0.21802 0.0482,0.43764 0.0625,0.65625 0.0109,-0.16612 0.0228,-0.33049 0.0312,-0.5 -0.005,-0.0829 0.006,-0.16804 0,-0.25 z m -22.3125003,2.5 -2.21875,1.9375 c -0.02193,0.0189 -0.04342,0.041 -0.0625,0.0625 l 0.375,0.65625 2,-1.75 c -0.0454,-0.303 -0.0712,-0.59845 -0.0937,-0.90625 z m 22.3125003,0 c -0.0226,0.3078 -0.0484,0.60325 -0.0937,0.90625 l 2,1.75 0.375,-0.65625 c -0.0191,-0.0215 -0.0406,-0.0436 -0.0625,-0.0625 l -2.21875,-1.9375 z"
     id="path4360"
     inkscape:connector-curvature="0" />
  <path
     inkscape:connector-curvature="0"
     id="path4397"
     d="m 13.124908,30.49966 c -0.29681,-0.0323 -0.5395,-0.26891 -0.59375,-0.5625 l -0.59375,-3 C 10.877118,26.5225 9.8743177,25.94963 8.9999077,25.24966 l -2.90625,0.96875 c -0.30225,0.10422 -0.68136,-0.006 -0.84375,-0.28125 l -2.6875,-4.6875 c 0.01904,-0.0215 0.04057,-0.0436 0.0625,-0.0625 l 0.3125,-0.28125 2.3125,4.03125 c 0.16239,0.27545 0.5415,0.38547 0.84375,0.28125 l 2.90625,-0.96875 c 0.87441,0.69997 1.8772103,1.27284 2.9375003,1.6875 l 0.59375,3 c 0.0542,0.29359 0.29694,0.5302 0.59375,0.5625 0.0218,5.1e-4 0.0406,5.1e-4 0.0625,0 h 5.625 c 0.31933,-0.004 0.59635,-0.2488 0.65625,-0.5625 l 0.59375,-3 c 1.06029,-0.41466 2.06309,-0.98753 2.9375,-1.6875 l 2.90625,0.96875 c 0.30224,0.10422 0.68136,-0.006 0.84375,-0.28125 l 2.3125,-4.03125 0.3125,0.28125 c 0.0219,0.0189 0.0435,0.041 0.0625,0.0625 l -2.6875,4.6875 c -0.16239,0.2754 -0.54151,0.38547 -0.84375,0.28125 l -2.90625,-0.96875 c -0.87441,0.69997 -1.87721,1.27284 -2.9375,1.6875 l -0.59375,3 c -0.0599,0.3137 -0.33692,0.55816 -0.65625,0.5625 h -5.625 c -0.0219,5.1e-4 -0.0407,5.1e-4 -0.0625,0 z M 2.4061577,20.84341 c -0.01685,-0.0926 -0.01947,-0.15743 0,-0.25 -0.01419,0.0788 -0.01174,0.17122 0,0.25 z m 27.1875003,0 c 0.0118,-0.0788 0.0142,-0.17115 0,-0.25 0.0195,0.0926 0.0169,0.15743 0,0.25 z M 4.8436577,17.24966 c -0.006,-0.082 0.005,-0.1671 0,-0.25 0.008,-0.16951 0.0203,-0.33388 0.0312,-0.5 0.0143,0.21861 0.0299,0.43823 0.0625,0.65625 l -0.0937,0.0937 z m 22.3125003,0 -0.0937,-0.0937 c 0.0326,-0.21802 0.0482,-0.43764 0.0625,-0.65625 0.0109,0.16612 0.0228,0.33049 0.0312,0.5 -0.005,0.0829 0.006,0.16804 0,0.25 z m -22.3125003,-2.5 -2.21875,-1.9375 c -0.02193,-0.0189 -0.04342,-0.041 -0.0625,-0.0625 l 0.375,-0.65625 2,1.75 c -0.0454,0.303 -0.0712,0.59845 -0.0937,0.90625 z m 22.3125003,0 c -0.0226,-0.3078 -0.0484,-0.60325 -0.0937,-0.90625 l 2,-1.75 0.375,0.65625 c -0.0191,0.0215 -0.0406,0.0436 -0.0625,0.0625 l -2.21875,1.9375 z"
     style="display:inline;opacity:0.1;fill:#000000;fill-opacity:1;stroke:none;enable-background:new" />
</svg>
