<?xml version="1.0" encoding="UTF-8" standalone="no"?>
<svg
   width="32"
   height="32"
   version="1"
   id="svg20"
   sodipodi:docname="utilities-terminal_su.svg"
   inkscape:version="1.1.1 (3bf5ae0d25, 2021-09-20)"
   xmlns:inkscape="http://www.inkscape.org/namespaces/inkscape"
   xmlns:sodipodi="http://sodipodi.sourceforge.net/DTD/sodipodi-0.dtd"
   xmlns="http://www.w3.org/2000/svg"
   xmlns:svg="http://www.w3.org/2000/svg">
  <defs
     id="defs24" />
  <sodipodi:namedview
     id="namedview22"
     pagecolor="#505050"
     bordercolor="#ffffff"
     borderopacity="1"
     inkscape:pageshadow="0"
     inkscape:pageopacity="0"
     inkscape:pagecheckerboard="1"
     showgrid="false"
     inkscape:zoom="16.285553"
     inkscape:cx="20.662485"
     inkscape:cy="15.228221"
     inkscape:current-layer="svg20" />
  <rect
     ry="1.5"
     rx="1.5"
     y="-30"
     x="-27.500008"
     height="28"
     width="24.000015"
     id="rect4520"
     style="display:inline;fill:#d50000;fill-opacity:1;stroke:none;enable-background:new"
     transform="matrix(0,-1,-1,0,0,0)" />
  <path
     inkscape:connector-curvature="0"
     id="path4534"
     d="m 2.0000005,26.000008 v 1 c 0,0.831 0.669,1.5 1.5,1.5 H 28.5 c 0.831001,0 1.5,-0.669 1.5,-1.5 v -1 c 0,0.831 -0.668999,1.5 -1.5,1.5 H 3.5000005 c -0.831,0 -1.5,-0.669 -1.5,-1.5 z"
     style="display:inline;opacity:0.2;fill:#000000;fill-opacity:1;stroke:none;enable-background:new" />
  <path
     style="display:inline;opacity:0.1;fill:#ffffff;fill-opacity:1;stroke:none;enable-background:new"
     d="m 2.0000005,6.0000077 v -1 c 0,-0.831 0.669,-1.5 1.5,-1.5 H 28.5 c 0.831001,0 1.5,0.669 1.5,1.5 v 1 c 0,-0.831 -0.668999,-1.5 -1.5,-1.5 H 3.5000005 c -0.831,0 -1.5,0.669 -1.5,1.5 z"
     id="path4544"
     inkscape:connector-curvature="0" />
  <path
     sodipodi:nodetypes="ccccc"
     style="color:#bebebe;display:inline;overflow:visible;visibility:visible;fill:#ffffff;fill-opacity:1;fill-rule:nonzero;stroke:none;stroke-width:2;marker:none;enable-background:accumulate"
     d="m 11.000001,12.500008 h 4 v 1 h -4 z"
     id="path4045-0"
     inkscape:connector-curvature="0" />
  <path
     sodipodi:nodetypes="ccccc"
     inkscape:connector-curvature="0"
     id="path4409"
     d="m 6.0000005,7.5000077 h 1 v 6.0000003 h -1 z"
     style="display:inline;fill:#ffffff;fill-opacity:1;stroke:none;stroke-width:2;stroke-miterlimit:4;stroke-dasharray:none;stroke-opacity:1;enable-background:new" />
  <path
     sodipodi:nodetypes="ccccc"
     inkscape:connector-curvature="0"
     id="path4411"
     d="m 8.0000005,7.5000077 h 1 v 6.0000003 h -1 z"
     style="display:inline;fill:#ffffff;fill-opacity:1;stroke:none;stroke-width:2;stroke-miterlimit:4;stroke-dasharray:none;stroke-opacity:1;enable-background:new" />
  <path
     inkscape:connector-curvature="0"
     id="path4413"
     d="m 5.0000005,11.500008 h 5.0000005 v 1 H 5.0000005 Z"
     style="color:#bebebe;display:inline;overflow:visible;visibility:visible;fill:#ffffff;fill-opacity:1;fill-rule:nonzero;stroke:none;stroke-width:2;marker:none;enable-background:accumulate"
     sodipodi:nodetypes="ccccc" />
  <path
     sodipodi:nodetypes="ccccc"
     style="color:#bebebe;display:inline;overflow:visible;visibility:visible;fill:#ffffff;fill-opacity:1;fill-rule:nonzero;stroke:none;stroke-width:2;marker:none;enable-background:accumulate"
     d="m 5.0000005,8.5000077 h 5.0000005 v 1 H 5.0000005 Z"
     id="path4415"
     inkscape:connector-curvature="0" />
</svg>
