<?xml version="1.0" encoding="UTF-8" standalone="no"?>
<svg
   width="32"
   height="32"
   version="1"
   id="svg10"
   sodipodi:docname="x-content-blank-cd.svg"
   inkscape:version="1.1.1 (3bf5ae0d25, 2021-09-20)"
   xmlns:inkscape="http://www.inkscape.org/namespaces/inkscape"
   xmlns:sodipodi="http://sodipodi.sourceforge.net/DTD/sodipodi-0.dtd"
   xmlns="http://www.w3.org/2000/svg"
   xmlns:svg="http://www.w3.org/2000/svg">
  <defs
     id="defs14" />
  <sodipodi:namedview
     id="namedview12"
     pagecolor="#505050"
     bordercolor="#ffffff"
     borderopacity="1"
     inkscape:pageshadow="0"
     inkscape:pageopacity="0"
     inkscape:pagecheckerboard="1"
     showgrid="false"
     inkscape:zoom="23.03125"
     inkscape:cx="16"
     inkscape:cy="15.97829"
     inkscape:current-layer="svg10" />
  <path
     style="opacity:0.2"
     d="M 16,3 A 14,14 0 0 0 2,17 14,14 0 0 0 16,31 14,14 0 0 0 30,17 14,14 0 0 0 16,3 Z M 16,11 A 6,6 0 0 1 22,17 6,6 0 0 1 16,23 6,6 0 0 1 10,17 6,6 0 0 1 16,11 Z"
     id="path2" />
  <path
     style="fill:#78909c"
     d="M 16 8 A 8 8 0 0 0 8 16 A 8 8 0 0 0 16 24 A 8 8 0 0 0 24 16 A 8 8 0 0 0 16 8 z M 16 13 A 3 3 0 0 1 19 16 A 3 3 0 0 1 16 19 A 3 3 0 0 1 13 16 A 3 3 0 0 1 16 13 z"
     id="path4" />
  <path
     style="fill:#d1c4e9"
     d="M 16 2 A 14 14 0 0 0 2 16 A 14 14 0 0 0 16 30 A 14 14 0 0 0 30 16 A 14 14 0 0 0 16 2 z M 16 10 A 6 6 0 0 1 22 16 A 6 6 0 0 1 16 22 A 6 6 0 0 1 10 16 A 6 6 0 0 1 16 10 z"
     id="path6" />
  <path
     style="opacity:0.2;fill:#ffffff"
     d="M 16,2 A 14,14 0 0 0 2,16 14,14 0 0 0 2.0215,16.414 14,14 0 0 1 16,3 14,14 0 0 1 29.979,16.586 14,14 0 0 0 30,16 14,14 0 0 0 16,2 Z"
     id="path8" />
</svg>
