<?xml version="1.0" encoding="UTF-8" standalone="no"?>
<svg
   width="32"
   height="32"
   version="1.1"
   id="svg16"
   sodipodi:docname="video-x-flv.svg"
   inkscape:version="1.1.1 (3bf5ae0d25, 2021-09-20)"
   xmlns:inkscape="http://www.inkscape.org/namespaces/inkscape"
   xmlns:sodipodi="http://sodipodi.sourceforge.net/DTD/sodipodi-0.dtd"
   xmlns="http://www.w3.org/2000/svg"
   xmlns:svg="http://www.w3.org/2000/svg">
  <defs
     id="defs20">
    <clipPath
       clipPathUnits="userSpaceOnUse"
       id="clipPath4168">
      <path
         id="path4170"
         d="m 94.5,254 c -0.831,0 -1.5,0.669 -1.5,1.5 v 25 c 0,0.831 0.669,1.5 1.5,1.5 h 19 c 0.831,0 1.5,-0.669 1.5,-1.5 V 262 l -8,-8 z"
         style="fill:#e1e1e1;fill-opacity:1;stroke:none"
         inkscape:connector-curvature="0" />
    </clipPath>
  </defs>
  <sodipodi:namedview
     id="namedview18"
     pagecolor="#505050"
     bordercolor="#ffffff"
     borderopacity="1"
     inkscape:pageshadow="0"
     inkscape:pageopacity="0"
     inkscape:pagecheckerboard="1"
     showgrid="false"
     inkscape:zoom="8.1427765"
     inkscape:cx="12.83346"
     inkscape:cy="18.912468"
     inkscape:current-layer="svg16" />
  <path
     inkscape:connector-curvature="0"
     id="path4884"
     d="m 6.499998,2.0000021 c -0.831,0 -1.5,0.669 -1.5,1.5 V 28.500002 c 0,0.831 0.669,1.5 1.5,1.5 h 19 c 0.831,0 1.5,-0.669 1.5,-1.5 v -18.5 l -7.25,-0.75 c -0.82842,0 -0.75,-7.2499999 -0.75,-7.2499999 z"
     style="display:inline;fill:#f44336;fill-opacity:1;stroke:none;enable-background:new"
     sodipodi:nodetypes="sssssscccs" />
  <path
     transform="translate(-87.999998,-252)"
     clip-path="url(#clipPath4168)"
     style="display:inline;opacity:0.1;fill:#000000;fill-opacity:1;stroke:none;enable-background:new"
     d="m 107,254 v 7.5 c 0,0.82843 0.67158,1.5 1.5,1.5 h 6.5 v -1 z"
     id="path4890"
     inkscape:connector-curvature="0"
     sodipodi:nodetypes="cssccc" />
  <path
     style="display:inline;fill:#e57373;fill-opacity:1;stroke:none;enable-background:new"
     d="m 18.999998,2.0000021 v 6.5 c 0,0.8284299 0.67158,1.4999999 1.5,1.4999999 h 6.5 z"
     id="path4892"
     inkscape:connector-curvature="0"
     sodipodi:nodetypes="csscc" />
  <path
     sodipodi:nodetypes="sscsccs"
     inkscape:connector-curvature="0"
     id="path4896"
     d="m 6.499998,2.0000021 c -0.831,0 -1.5,0.669 -1.5,1.5 v 1 c 0,-0.831 0.669,-1.5 1.5,-1.5 h 12.5 v -1 z"
     style="display:inline;opacity:0.2;fill:#ffffff;fill-opacity:1;stroke:none;enable-background:new" />
  <path
     style="fill:#ffffff"
     d="m 21.000071,14.004415 v 2.609526 C 18.489464,16.659551 17.872473,19 17.872473,19 H 20 v 3 h -3.170012 c -1.766404,5.654023 -5.829917,4.975889 -5.829917,4.975889 v -2.625246 c 0,0 2.578749,0.496495 3.893587,-4.486251 C 16.538635,13.630986 21,14.00427 21,14.00427 Z"
     id="path14" />
</svg>
