<?xml version="1.0" encoding="UTF-8" standalone="no"?>
<svg
   width="32"
   height="32"
   version="1.1"
   id="svg16"
   sodipodi:docname="application-pdf.svg"
   inkscape:version="1.1.1 (3bf5ae0d25, 2021-09-20)"
   xmlns:inkscape="http://www.inkscape.org/namespaces/inkscape"
   xmlns:sodipodi="http://sodipodi.sourceforge.net/DTD/sodipodi-0.dtd"
   xmlns="http://www.w3.org/2000/svg"
   xmlns:svg="http://www.w3.org/2000/svg">
  <defs
     id="defs20">
    <clipPath
       clipPathUnits="userSpaceOnUse"
       id="clipPath4168">
      <path
         id="path4170"
         d="m 94.5,254 c -0.831,0 -1.5,0.669 -1.5,1.5 v 25 c 0,0.831 0.669,1.5 1.5,1.5 h 19 c 0.831,0 1.5,-0.669 1.5,-1.5 V 262 l -8,-8 z"
         style="fill:#e1e1e1;fill-opacity:1;stroke:none"
         inkscape:connector-curvature="0" />
    </clipPath>
  </defs>
  <sodipodi:namedview
     id="namedview18"
     pagecolor="#505050"
     bordercolor="#ffffff"
     borderopacity="1"
     inkscape:pageshadow="0"
     inkscape:pageopacity="0"
     inkscape:pagecheckerboard="1"
     showgrid="false"
     inkscape:zoom="23.03125"
     inkscape:cx="16"
     inkscape:cy="16.02171"
     inkscape:current-layer="svg16" />
  <path
     inkscape:connector-curvature="0"
     id="path4620"
     d="M 6.5,2 C 5.669,2 5,2.669 5,3.5 v 25 C 5,29.331 5.669,30 6.5,30 h 19 C 26.331,30 27,29.331 27,28.5 V 10 L 19.75,9.25 C 18.92158,9.25 19,2 19,2 Z"
     style="display:inline;fill:#e53935;fill-opacity:1;stroke:none;enable-background:new"
     sodipodi:nodetypes="sssssscccs" />
  <path
     transform="translate(-88,-252)"
     clip-path="url(#clipPath4168)"
     style="display:inline;opacity:0.1;fill:#000000;fill-opacity:1;stroke:none;enable-background:new"
     d="m 107,254 v 7.5 c 0,0.82843 0.67158,1.5 1.5,1.5 h 6.5 v -1 z"
     id="path4626"
     inkscape:connector-curvature="0"
     sodipodi:nodetypes="cssccc" />
  <path
     style="display:inline;fill:#ff8a80;fill-opacity:1;stroke:none;enable-background:new"
     d="m 19,2 v 6.5 c 0,0.8284 0.67158,1.5 1.5,1.5 H 27 Z"
     id="path4628"
     inkscape:connector-curvature="0"
     sodipodi:nodetypes="csscc" />
  <path
     sodipodi:nodetypes="sscsccs"
     inkscape:connector-curvature="0"
     id="path4632"
     d="M 6.5,2 C 5.669,2 5,2.669 5,3.5 v 1 C 5,3.669 5.669,3 6.5,3 H 19 V 2 Z"
     style="display:inline;opacity:0.2;fill:#ffffff;fill-opacity:1;stroke:none;enable-background:new" />
  <g
     style="display:inline;enable-background:new"
     id="g4449"
     transform="matrix(0.0625,0,0,0.0625,-13,129.25)">
    <path
       style="opacity:1;fill:#ffffff;fill-opacity:1;stroke:none;stroke-width:16;stroke-linecap:square;stroke-linejoin:miter;stroke-miterlimit:4;stroke-dasharray:none;stroke-opacity:1"
       d="m 352,-1536 v 112 h 16 v -32 h 16 c 17.58962,0 32,-14.4104 32,-32 v -8 -8 c 0,-17.5896 -14.41038,-32 -32,-32 z m 16,16 h 16 c 9.00238,0 16,6.9976 16,16 v 8 8 c 0,9.0024 -6.99762,16 -16,16 h -16 z"
       transform="translate(0,-244)"
       id="path4451"
       inkscape:connector-curvature="0" />
    <path
       style="opacity:1;fill:#ffffff;fill-opacity:1;stroke:none;stroke-width:16;stroke-linecap:square;stroke-linejoin:miter;stroke-miterlimit:4;stroke-dasharray:none;stroke-opacity:1"
       d="m 512,-1668 h 16 v -48 h 40 v -16 h -40 v -32 h 48 v -16 h -64 z"
       id="path4453"
       inkscape:connector-curvature="0"
       sodipodi:nodetypes="ccccccccccc" />
    <path
       id="path4455"
       d="m 432,-1780 v 112 h 32 c 17.58962,0 32,-14.4104 32,-32 v -8 -40 c 0,-17.5896 -14.41038,-32 -32,-32 z m 16,16 h 16 c 9.00238,0 16,6.9976 16,16 v 40 8 c 0,9.0024 -7.06714,14.8834 -16,16 h -16 z"
       style="opacity:1;fill:#ffffff;fill-opacity:1;stroke:none;stroke-width:16;stroke-linecap:square;stroke-linejoin:miter;stroke-miterlimit:4;stroke-dasharray:none;stroke-opacity:1"
       inkscape:connector-curvature="0"
       sodipodi:nodetypes="ccsscssccsscsscc" />
  </g>
</svg>
