<?xml version="1.0" encoding="UTF-8" standalone="no"?>
<svg
   width="32"
   height="32"
   version="1.1"
   id="svg16"
   sodipodi:docname="javascript.svg"
   inkscape:version="1.1.1 (3bf5ae0d25, 2021-09-20)"
   xmlns:inkscape="http://www.inkscape.org/namespaces/inkscape"
   xmlns:sodipodi="http://sodipodi.sourceforge.net/DTD/sodipodi-0.dtd"
   xmlns="http://www.w3.org/2000/svg"
   xmlns:svg="http://www.w3.org/2000/svg">
  <defs
     id="defs20">
    <clipPath
       clipPathUnits="userSpaceOnUse"
       id="clipPath4168">
      <path
         id="path4170"
         d="m 94.5,254 c -0.831,0 -1.5,0.669 -1.5,1.5 v 25 c 0,0.831 0.669,1.5 1.5,1.5 h 19 c 0.831,0 1.5,-0.669 1.5,-1.5 V 262 l -8,-8 z"
         style="fill:#e1e1e1;fill-opacity:1;stroke:none"
         inkscape:connector-curvature="0" />
    </clipPath>
  </defs>
  <sodipodi:namedview
     id="namedview18"
     pagecolor="#505050"
     bordercolor="#ffffff"
     borderopacity="1"
     inkscape:pageshadow="0"
     inkscape:pageopacity="0"
     inkscape:pagecheckerboard="1"
     showgrid="false"
     inkscape:zoom="11.515625"
     inkscape:cx="0.65128901"
     inkscape:cy="21.796472"
     inkscape:current-layer="svg16" />
  <path
     inkscape:connector-curvature="0"
     id="rect3388"
     d="m 7,1.9891449 c 0,0 -2,0 -2,2 V 27.989145 c 0,0 0,2 2,2 h 18 c 2,0 2,-2 2,-2 V 9.9891449 l -7.25,-0.75 c -0.82842,0 -0.75,-7.25 -0.75,-7.25 z"
     style="display:inline;fill:#ff5722;fill-opacity:1;stroke:none;enable-background:new"
     sodipodi:nodetypes="cscssccccc" />
  <path
     transform="translate(-88,-251.98915)"
     clip-path="url(#clipPath4168)"
     style="display:inline;opacity:0.1;fill:#000000;fill-opacity:1;stroke:none;enable-background:new"
     d="m 107,254 v 7 c 0,0 0,2 2,2 h 6 v -1 z"
     id="path4110"
     inkscape:connector-curvature="0"
     sodipodi:nodetypes="ccsccc" />
  <path
     style="display:inline;fill:#ff8a65;fill-opacity:1;stroke:none;enable-background:new"
     d="m 19,2.010855 v 5.9999999 c 0,0 0.0854,2.0000001 2,2.0000001 h 6 z"
     id="path4172"
     inkscape:connector-curvature="0"
     sodipodi:nodetypes="ccscc" />
  <path
     style="display:inline;opacity:0.2;fill:#ffffff;fill-opacity:1;stroke:none;enable-background:new"
     d="m 7,2.010855 c 0,0 -2,0 -2,1.9999999 v 1 c 0,-2 2,-2 2,-2 h 12 c -0.003,-0.55035 0,-1 0,-1 z"
     id="path4742"
     inkscape:connector-curvature="0"
     sodipodi:nodetypes="csccccc" />
  <path
     style="display:inline;opacity:0.05;fill:#000000;fill-opacity:1;stroke:none;enable-background:new"
     d="m 5,27.010855 v 1 c 0,0 0,2 2,2 h 18 c 2,0 2,-2 2,-2 v -1 c 0,0 0,2 -2,2 H 7 c -2,0 -2,-2 -2,-2 z"
     id="path4771" />
  <path
     style="opacity:0.2;fill-rule:evenodd"
     d="m 13.228516,15.994707 c -0.0189,-2.36e-4 -0.0378,4.15e-4 -0.05664,0.002 -0.05391,0.0033 -0.107131,0.0138 -0.158203,0.03125 0,0 -0.374344,0.12296 -0.808594,0.349609 -0.43422,0.22665 -0.961281,0.544797 -1.300781,1.089844 -0.37789,0.606598 -0.234708,1.256181 -0.117188,1.644532 0.11752,0.388359 0.180816,0.558324 0.07227,0.818359 -0.05301,0.126977 -0.377022,0.403347 -0.732422,0.576172 -0.3556399,0.172856 -0.6777342,0.263672 -0.6777342,0.263672 -0.3226422,0.08295 -0.5149181,0.411307 -0.4277344,0.730468 -0.075981,0.313408 0.1138235,0.629749 0.4277344,0.712891 0,0 0.3223443,0.09085 0.6777342,0.263672 0.35541,0.172816 0.679432,0.451149 0.732422,0.578125 0.10855,0.260006 0.04525,0.429969 -0.07227,0.818359 -0.11752,0.388359 -0.260702,1.037835 0.117188,1.644532 0.33952,0.545037 0.866561,0.86121 1.300781,1.08789 0.43422,0.226649 0.808594,0.34961 0.808594,0.34961 0.775332,0.285866 1.170721,-0.896206 0.376953,-1.126954 0,0 -0.283933,-0.09438 -0.626953,-0.273437 -0.34304,-0.179047 -0.710164,-0.45584 -0.839844,-0.664063 -0.14672,-0.235526 -0.09933,-0.317222 0.0098,-0.677734 0.1091,-0.360521 0.306513,-0.958615 0.0332,-1.613281 -0.24205,-0.579761 -0.725583,-0.886102 -1.158203,-1.107422 0.43256,-0.22129 0.916093,-0.529585 1.158203,-1.109375 0.27332,-0.654656 0.0759,-1.25277 -0.0332,-1.613281 -0.1091,-0.360521 -0.156476,-0.442219 -0.0098,-0.677735 0.1297,-0.208213 0.496844,-0.484996 0.839844,-0.664062 0.34304,-0.179048 0.626953,-0.273438 0.626953,-0.273438 0.641639,-0.201303 0.512397,-1.137523 -0.160157,-1.160203 z m 5.539062,0 c -0.671601,0.02461 -0.799071,0.959384 -0.158203,1.160156 0,0 0.283913,0.09439 0.626953,0.273438 0.343,0.179057 0.710144,0.45584 0.839844,0.664062 0.14671,0.235517 0.09933,0.317213 -0.0098,0.677735 -0.1091,0.360501 -0.306523,0.960567 -0.0332,1.615234 0.24206,0.57974 0.725603,0.886092 1.158203,1.107422 -0.43257,0.22127 -0.916103,0.527612 -1.158203,1.107422 -0.27331,0.654657 -0.0759,1.25277 0.0332,1.613281 0.1091,0.360511 0.156486,0.442208 0.0098,0.677734 -0.12968,0.208223 -0.496814,0.485016 -0.839844,0.664063 -0.34302,0.179057 -0.626953,0.273437 -0.626953,0.273437 -0.793768,0.230748 -0.398379,1.41282 0.376953,1.126954 0,0 0.374374,-0.12296 0.808594,-0.34961 0.43419,-0.226669 0.961231,-0.542853 1.300781,-1.08789 0.37789,-0.606658 0.234708,-1.256083 0.117188,-1.644532 -0.11752,-0.388389 -0.180816,-0.558353 -0.07227,-0.818359 0.05299,-0.126977 0.377012,-0.40531 0.732422,-0.578125 0.35539,-0.172816 0.677734,-0.263672 0.677734,-0.263672 0.313911,-0.08314 0.503716,-0.399483 0.427735,-0.712891 0.08718,-0.319161 -0.105093,-0.647522 -0.427735,-0.730468 0,0 -0.322094,-0.09082 -0.677734,-0.263672 -0.3554,-0.172816 -0.679412,-0.449195 -0.732422,-0.576172 -0.10855,-0.260036 -0.04525,-0.429999 0.07227,-0.818359 0.11752,-0.38836 0.260712,-1.037934 -0.117188,-1.644532 -0.33947,-0.545037 -0.866531,-0.863184 -1.300781,-1.089844 -0.43424,-0.226649 -0.810547,-0.349609 -0.810547,-0.349609 -0.05045,-0.01728 -0.102996,-0.02779 -0.15625,-0.03125 -0.01949,-0.0016 -0.03904,-0.0023 -0.05859,-0.002 -6.51e-4,-10e-7 -0.0013,-10e-7 -0.002,0 z m -2.767578,3 c -0.552304,-4.6e-5 -1.000046,0.447696 -1,1 -4.6e-5,0.552304 0.447696,1.000046 1,1 0.552304,4.6e-5 1.000046,-0.447696 1,-1 4.6e-5,-0.552304 -0.447696,-1.000046 -1,-1 z m 0,3.003906 c -0.552295,0 -1,0.447705 -1,1 0,0.552279 0.447705,1 1,1 0.353487,0 0.5,1 0.5,1 0,0 0.5,-1.801141 0.5,-2 0,-0.552295 -0.447705,-1 -1,-1 z"
     id="path12" />
  <path
     style="fill-rule:evenodd;fill:#ffffff"
     d="m 13.228516,15 c -0.0189,-2.36e-4 -0.0378,4.15e-4 -0.05664,0.002 -0.05391,0.0033 -0.107131,0.0138 -0.158203,0.03125 0,0 -0.374344,0.12296 -0.808594,0.349609 -0.43422,0.22665 -0.961281,0.544797 -1.300781,1.089844 -0.37789,0.606598 -0.234708,1.256181 -0.117188,1.644532 0.11752,0.388359 0.180816,0.558324 0.07227,0.818359 -0.05301,0.126977 -0.377022,0.403347 -0.732422,0.576172 -0.3556399,0.172856 -0.6777342,0.263672 -0.6777342,0.263672 -0.3226422,0.08295 -0.5149181,0.411307 -0.4277344,0.730468 -0.075981,0.313408 0.1138235,0.629749 0.4277344,0.712891 0,0 0.3223443,0.09085 0.6777342,0.263672 0.35541,0.172816 0.679432,0.451149 0.732422,0.578125 0.10855,0.260006 0.04525,0.429969 -0.07227,0.818359 -0.11752,0.388359 -0.260702,1.037835 0.117188,1.644532 0.33952,0.545037 0.866561,0.86121 1.300781,1.08789 0.43422,0.226649 0.808594,0.34961 0.808594,0.34961 0.775332,0.285866 1.170721,-0.896206 0.376953,-1.126954 0,0 -0.283933,-0.09438 -0.626953,-0.273437 -0.34304,-0.179047 -0.710164,-0.45584 -0.839844,-0.664063 -0.14672,-0.235526 -0.09933,-0.317222 0.0098,-0.677734 0.1091,-0.360521 0.306513,-0.958615 0.0332,-1.613281 -0.24205,-0.579761 -0.725583,-0.886102 -1.158203,-1.107422 0.43256,-0.22129 0.916093,-0.529585 1.158203,-1.109375 0.27332,-0.654656 0.0759,-1.25277 -0.0332,-1.613281 -0.1091,-0.360521 -0.156476,-0.442219 -0.0098,-0.677735 0.1297,-0.208213 0.496844,-0.484996 0.839844,-0.664062 0.34304,-0.179048 0.626953,-0.273438 0.626953,-0.273438 C 14.032265,15.9589 13.903023,15.02268 13.230469,15 Z m 5.539062,0 c -0.671601,0.02461 -0.799071,0.959384 -0.158203,1.160156 0,0 0.283913,0.09439 0.626953,0.273438 0.343,0.179057 0.710144,0.45584 0.839844,0.664062 0.14671,0.235517 0.09933,0.317213 -0.0098,0.677735 -0.1091,0.360501 -0.306523,0.960567 -0.0332,1.615234 0.24206,0.57974 0.725603,0.886092 1.158203,1.107422 -0.43257,0.22127 -0.916103,0.527612 -1.158203,1.107422 -0.27331,0.654657 -0.0759,1.25277 0.0332,1.613281 0.1091,0.360511 0.156486,0.442208 0.0098,0.677734 -0.12968,0.208223 -0.496814,0.485016 -0.839844,0.664063 -0.34302,0.179057 -0.626953,0.273437 -0.626953,0.273437 -0.793768,0.230748 -0.398379,1.41282 0.376953,1.126954 0,0 0.374374,-0.12296 0.808594,-0.34961 0.43419,-0.226669 0.961231,-0.542853 1.300781,-1.08789 0.37789,-0.606658 0.234708,-1.256083 0.117188,-1.644532 -0.11752,-0.388389 -0.180816,-0.558353 -0.07227,-0.818359 0.05299,-0.126977 0.377012,-0.40531 0.732422,-0.578125 0.35539,-0.172816 0.677734,-0.263672 0.677734,-0.263672 0.313911,-0.08314 0.503716,-0.399483 0.427735,-0.712891 0.08718,-0.319161 -0.105093,-0.647522 -0.427735,-0.730468 0,0 -0.322094,-0.09082 -0.677734,-0.263672 -0.3554,-0.172816 -0.679412,-0.449195 -0.732422,-0.576172 -0.10855,-0.260036 -0.04525,-0.429999 0.07227,-0.818359 0.11752,-0.38836 0.260712,-1.037934 -0.117188,-1.644532 -0.33947,-0.545037 -0.866531,-0.863184 -1.300781,-1.089844 -0.43424,-0.226649 -0.810547,-0.349609 -0.810547,-0.349609 -0.05045,-0.01728 -0.102996,-0.02779 -0.15625,-0.03125 -0.01949,-0.0016 -0.03904,-0.0023 -0.05859,-0.002 -6.51e-4,-10e-7 -0.0013,-10e-7 -0.002,0 z M 16,18 c -0.552304,-4.6e-5 -1.000046,0.447696 -1,1 -4.6e-5,0.552304 0.447696,1.000046 1,1 0.552304,4.6e-5 1.000046,-0.447696 1,-1 4.6e-5,-0.552304 -0.447696,-1.000046 -1,-1 z m 0,3.003906 c -0.552295,0 -1,0.447705 -1,1 0,0.552279 0.447705,1 1,1 0.353487,0 0.5,1 0.5,1 0,0 0.5,-1.801141 0.5,-2 0,-0.552295 -0.447705,-1 -1,-1 z"
     id="path14" />
</svg>
