<?xml version="1.0" encoding="UTF-8" standalone="no"?>
<svg
   width="32"
   height="32"
   version="1.1"
   id="svg34"
   sodipodi:docname="application-vnd.kde.fontspackage.svg"
   inkscape:version="1.1.1 (3bf5ae0d25, 2021-09-20)"
   xmlns:inkscape="http://www.inkscape.org/namespaces/inkscape"
   xmlns:sodipodi="http://sodipodi.sourceforge.net/DTD/sodipodi-0.dtd"
   xmlns="http://www.w3.org/2000/svg"
   xmlns:svg="http://www.w3.org/2000/svg">
  <defs
     id="defs38" />
  <sodipodi:namedview
     id="namedview36"
     pagecolor="#505050"
     bordercolor="#ffffff"
     borderopacity="1"
     inkscape:pageshadow="0"
     inkscape:pageopacity="0"
     inkscape:pagecheckerboard="1"
     showgrid="false"
     inkscape:zoom="23.03125"
     inkscape:cx="16"
     inkscape:cy="15.97829"
     inkscape:current-layer="svg34" />
  <path
     style="opacity:0.2"
     d="M 6.375,3 C 5.61325,3 5,3.6244 5,4.4 V 29.6 C 5,30.37504 5.61325,31 6.375,31 h 19.25 C 26.3862,31 27,30.37504 27,29.6 V 12 L 20,10 18,3 Z"
     id="path2" />
  <path
     style="fill:#a1887f"
     d="M 6.375,2 C 5.61325,2 5,2.6244 5,3.4 V 28.6 C 5,29.37504 5.61325,30 6.375,30 h 19.25 C 26.3862,30 27,29.37504 27,28.6 V 11 L 20,9 18,2 Z"
     id="path4" />
  <rect
     style="opacity:0.2"
     width="6"
     height="13.3"
     x="9"
     y="2"
     id="rect6" />
  <rect
     style="fill:#ffffff"
     width="2"
     height="2"
     x="12"
     y="10"
     id="rect8" />
  <rect
     style="fill:#ffffff"
     width="2"
     height="2"
     x="10"
     y="12"
     id="rect10" />
  <path
     style="fill:#4b4b4b"
     d="m 11.999999,12 c 2.25,0 2.25,2.8 3,2.8 v 3.5 c 0,0.3878 -0.3345,0.7 -0.75,0.7 h -4.5 c -0.4155,0 -0.75,-0.3122 -0.75,-0.7 v -3.5 c 0.75,0 0.75,-2.8 3,-2.8 z"
     id="path12" />
  <rect
     style="fill:#ffffff"
     width="2"
     height="2"
     x="12"
     y="2"
     id="rect14" />
  <path
     style="opacity:0.2"
     d="m 11.80078,16 c -1.5512,0 -2.800781,1.249581 -2.800781,2.800781 v 5.398438 C 8.999999,25.750419 10.24958,27 11.80078,27 h 0.398438 c 1.5512,0 2.800781,-1.249581 2.800781,-2.800781 V 18.800781 C 14.999999,17.249581 13.750418,16 12.199218,16 Z m 0.199219,6 a 2,2 0 0 1 2,2 2,2 0 0 1 -2,2 2,2 0 0 1 -2,-2 2,2 0 0 1 2,-2 z"
     id="path16" />
  <path
     style="fill:#ffffff"
     d="m 11.80078,15 c -1.5512,0 -2.800781,1.249581 -2.800781,2.800781 v 5.398438 C 8.999999,24.750419 10.24958,26 11.80078,26 h 0.398438 c 1.5512,0 2.800781,-1.249581 2.800781,-2.800781 V 17.800781 C 14.999999,16.249581 13.750418,15 12.199218,15 Z m 0.199219,6 a 2,2 0 0 1 2,2 2,2 0 0 1 -2,2 2,2 0 0 1 -2,-2 2,2 0 0 1 2,-2 z"
     id="path18" />
  <path
     style="fill:#909090"
     d="m 11.984375,13.0001 a 1,0.82954037 0 0 0 -0.984276,0.840798 v 3.31783 a 1,0.82954037 0 1 0 1.9998,0 v -3.31783 A 1,0.82954037 0 0 0 11.984375,13.0001 Z"
     id="path20" />
  <rect
     style="fill:#ffffff"
     width="2"
     height="2"
     x="10"
     y="4"
     id="rect22" />
  <rect
     style="fill:#ffffff"
     width="2"
     height="2"
     x="12"
     y="6"
     id="rect24" />
  <rect
     style="fill:#ffffff"
     width="2"
     height="2"
     x="10"
     y="8"
     id="rect26" />
  <path
     style="opacity:0.2"
     d="M 27,12 18,3 v 7.59375 C 18,11.373375 18.62775,12 19.40625,12 Z"
     id="path28" />
  <path
     style="fill:#bcaaa4"
     d="M 27,11 18,2 V 9.59375 C 18,10.373375 18.62775,11 19.40625,11 Z"
     id="path30" />
  <path
     style="opacity:0.2;fill:#ffffff"
     d="M 6.375,2 C 5.61325,2 5,2.6247906 5,3.4003906 v 1 C 5,3.6247906 5.61325,3 6.375,3 H 18 V 2 Z"
     id="path32" />
</svg>
