<?xml version="1.0" encoding="UTF-8" standalone="no"?>
<svg
   width="32"
   height="32"
   version="1.1"
   id="svg16"
   sodipodi:docname="audio-x-mpeg.svg"
   inkscape:version="1.1.1 (3bf5ae0d25, 2021-09-20)"
   xmlns:inkscape="http://www.inkscape.org/namespaces/inkscape"
   xmlns:sodipodi="http://sodipodi.sourceforge.net/DTD/sodipodi-0.dtd"
   xmlns="http://www.w3.org/2000/svg"
   xmlns:svg="http://www.w3.org/2000/svg">
  <defs
     id="defs20">
    <clipPath
       clipPathUnits="userSpaceOnUse"
       id="clipPath4168">
      <path
         id="path4170"
         d="m 94.5,254 c -0.831,0 -1.5,0.669 -1.5,1.5 v 25 c 0,0.831 0.669,1.5 1.5,1.5 h 19 c 0.831,0 1.5,-0.669 1.5,-1.5 V 262 l -8,-8 z"
         style="fill:#e1e1e1;fill-opacity:1;stroke:none"
         inkscape:connector-curvature="0" />
    </clipPath>
  </defs>
  <sodipodi:namedview
     id="namedview18"
     pagecolor="#505050"
     bordercolor="#ffffff"
     borderopacity="1"
     inkscape:pageshadow="0"
     inkscape:pageopacity="0"
     inkscape:pagecheckerboard="1"
     showgrid="false"
     inkscape:zoom="11.515625"
     inkscape:cx="27.744912"
     inkscape:cy="11.115332"
     inkscape:current-layer="svg16" />
  <path
     inkscape:connector-curvature="0"
     id="path4884"
     d="m 6.5,2.0000009 c -0.831,0 -1.5,0.669 -1.5,1.5 V 28.5 C 5,29.331 5.669,30 6.5,30 h 18.999997 c 0.831,0 1.5,-0.669 1.5,-1.5 V 10.000001 l -7.25,-0.7500001 c -0.82842,0 -0.75,-7.25 -0.75,-7.25 z"
     style="display:inline;fill:#ff9800;fill-opacity:1;stroke:none;enable-background:new"
     sodipodi:nodetypes="sssssscccs" />
  <path
     transform="translate(-88,-252)"
     clip-path="url(#clipPath4168)"
     style="display:inline;opacity:0.1;fill:#000000;fill-opacity:1;stroke:none;enable-background:new"
     d="m 107,254 v 7.5 c 0,0.82843 0.67158,1.5 1.5,1.5 h 6.5 v -1 z"
     id="path4890"
     inkscape:connector-curvature="0"
     sodipodi:nodetypes="cssccc" />
  <path
     style="display:inline;fill:#ffb74d;fill-opacity:1;stroke:none;enable-background:new"
     d="m 18.999997,2.0000009 v 6.5 c 0,0.82843 0.67158,1.5000001 1.5,1.5000001 h 6.5 z"
     id="path4892"
     inkscape:connector-curvature="0"
     sodipodi:nodetypes="csscc" />
  <path
     sodipodi:nodetypes="sscsccs"
     inkscape:connector-curvature="0"
     id="path4896"
     d="m 6.5,2.0000009 c -0.831,0 -1.5,0.669 -1.5,1.5 v 1 c 0,-0.831 0.669,-1.5 1.5,-1.5 h 12.499997 v -1 z"
     style="display:inline;opacity:0.2;fill:#ffffff;fill-opacity:1;stroke:none;enable-background:new" />
  <path
     style="fill:#ffffff"
     d="m 12.999979,14.000009 -4.4e-5,0.5 v 6.5 c 0,0 -0.15572,3.85e-4 -0.49996,-9e-6 -1.3807,0 -2.5,1.1193 -2.5,2.5 0,1.3807 1.1193,2.5 2.5,2.5 1.3622,-8.35e-4 2.473,-1.0921 2.498,-2.4541 l 0.002,-0.0039 V 17 h 5 v 4 c 0,0 -0.15572,3.94e-4 -0.49995,0 -1.3807,0 -2.5,1.1193 -2.5,2.5 0,1.3807 1.1193,2.5 2.5,2.5 1.3311,-0.0015 2.4276,-1.0456 2.4941,-2.375 l 0.0059,-0.01172 v -9.6133 h -9 z"
     id="path14" />
</svg>
