<?xml version="1.0" encoding="UTF-8" standalone="no"?>
<svg
   width="32"
   height="32"
   version="1"
   id="svg12"
   sodipodi:docname="image.svg"
   inkscape:version="1.1.1 (3bf5ae0d25, 2021-09-20)"
   xmlns:inkscape="http://www.inkscape.org/namespaces/inkscape"
   xmlns:sodipodi="http://sodipodi.sourceforge.net/DTD/sodipodi-0.dtd"
   xmlns="http://www.w3.org/2000/svg"
   xmlns:svg="http://www.w3.org/2000/svg">
  <defs
     id="defs16" />
  <sodipodi:namedview
     id="namedview14"
     pagecolor="#505050"
     bordercolor="#ffffff"
     borderopacity="1"
     inkscape:pageshadow="0"
     inkscape:pageopacity="0"
     inkscape:pagecheckerboard="1"
     showgrid="false"
     inkscape:zoom="23.03125"
     inkscape:cx="16"
     inkscape:cy="15.97829"
     inkscape:current-layer="svg12" />
  <path
     style="opacity:0.2"
     d="M 29,27.6664 V 6.3334 C 29,5.5941 28.42,4.9994 27.7,4.9994 H 4.3 C 3.5798,4.9994 3,5.59407 3,6.3327 v 21.333 c 0,0.73867 0.5798,1.3333 1.3,1.3333 L 27.7,29 c 0.7202,0 1.3,-0.59467 1.3,-1.3333 z"
     id="path2" />
  <path
     fill="#36aca3"
     d="m29 26.667v-21.333c0-0.7393-0.58-1.334-1.3-1.334h-23.4c-0.7202 0-1.3 0.59467-1.3 1.3333v21.333c0 0.73867 0.5798 1.3333 1.3 1.3333l23.4 0.001c0.7202 0 1.3-0.59467 1.3-1.3333z"
     id="path4"
     style="fill:#e91e63" />
  <path
     fill="#fff"
     style="opacity:0.2"
     d="m4.2998 4c-0.7202 0-1.2998 0.59434-1.2998 1.333v1c0-0.73867 0.5796-1.333 1.2998-1.333h23.4c0.7202 0 1.2998 0.59434 1.2998 1.333v-1c0-0.73867-0.5796-1.333-1.2998-1.333h-23.4z"
     id="path6" />
  <path
     style="opacity:0.2"
     d="m 11,13.9994 6,8 5,-4 4,4 v 3 H 6 v -5 z"
     id="path8" />
  <path
     fill="#fff"
     d="m11 13 6 8l5-4 4 4v3h-20v-5z"
     id="path10" />
</svg>
