<?xml version="1.0" encoding="UTF-8" standalone="no"?>
<svg
   width="32"
   height="32"
   version="1.1"
   id="svg18"
   sodipodi:docname="inode-socket.svg"
   inkscape:version="1.1.1 (3bf5ae0d25, 2021-09-20)"
   xmlns:inkscape="http://www.inkscape.org/namespaces/inkscape"
   xmlns:sodipodi="http://sodipodi.sourceforge.net/DTD/sodipodi-0.dtd"
   xmlns="http://www.w3.org/2000/svg"
   xmlns:svg="http://www.w3.org/2000/svg">
  <defs
     id="defs22" />
  <sodipodi:namedview
     id="namedview20"
     pagecolor="#505050"
     bordercolor="#ffffff"
     borderopacity="1"
     inkscape:pageshadow="0"
     inkscape:pageopacity="0"
     inkscape:pagecheckerboard="1"
     showgrid="false"
     inkscape:zoom="23.03125"
     inkscape:cx="16"
     inkscape:cy="15.97829"
     inkscape:current-layer="svg18" />
  <path
     style="opacity:0.2"
     d="M 6.375,3 C 5.61325,3 5,3.6244 5,4.4 V 29.6 C 5,30.3756 5.61325,31 6.375,31 h 19.25 C 26.38675,31 27,30.3756 27,29.6 V 11 L 20.125,10 19,3 Z"
     id="path2" />
  <path
     style="fill:#8bc34a"
     d="M 6.375,2 C 5.61325,2 5,2.6244 5,3.4 V 28.6 C 5,29.3756 5.61325,30 6.375,30 h 19.25 C 26.38675,30 27,29.3756 27,28.6 V 10 L 20.125,9 19,2 Z"
     id="path4" />
  <path
     style="opacity:0.2"
     d="M 27,11 19,3 V 9.6666667 C 19,10.405333 19.594667,11 20.333333,11 Z"
     id="path6" />
  <path
     style="fill:#9ccc65"
     d="M 27,10 19,2 V 8.6666667 C 19,9.4053333 19.594667,10 20.333333,10 Z"
     id="path8" />
  <path
     style="opacity:0.2"
     d="m 23.251953,12.999554 a 0.72653526,0.72653526 0 0 0 -0.5,0.220703 l -4.488281,4.488281 A 3.9999999,3.9999999 0 0 0 16,16.999554 3.9999999,3.9999999 0 0 0 13.419922,17.948773 l 5.634766,5.634765 A 3.9999999,3.9999999 0 0 0 20,20.999554 3.9999999,3.9999999 0 0 0 19.294922,18.731976 l 4.484375,-4.484375 A 0.72653526,0.72653526 0 0 0 23.251953,12.999554 Z M 12.945312,18.41557 A 3.9999999,3.9999999 0 0 0 12,20.999554 3.9999999,3.9999999 0 0 0 12.705078,23.267132 L 8.2226562,27.749554 A 0.72653526,0.72653526 0 1 0 9.25,28.776898 L 13.736328,24.29057 A 3.9999999,3.9999999 0 0 0 16,24.999554 3.9999999,3.9999999 0 0 0 18.580078,24.050335 Z"
     id="path10" />
  <path
     style="fill:#ffffff"
     d="m 16,16 a 3.9999999,3.9999999 0 0 0 -2.579428,0.949218 l 5.634115,5.634115 A 3.9999999,3.9999999 0 0 0 20,20 3.9999999,3.9999999 0 0 0 16,16 Z m -3.054688,1.416667 A 3.9999999,3.9999999 0 0 0 12,20 a 3.9999999,3.9999999 0 0 0 4,4 3.9999999,3.9999999 0 0 0 2.579427,-0.949219 z"
     id="path12" />
  <path
     style="fill:#ffffff"
     d="m 23.252046,12.00021 a 0.72653526,0.72653526 0 0 0 -0.499443,0.219925 l -6.636066,6.636066 c 0.772468,-0.04968 0.97187,0.420349 1.086857,0.967671 l 6.576473,-6.576473 A 0.72653526,0.72653526 0 0 0 23.252046,12.00021 Z m -8.263512,7.983994 -6.7651831,6.765183 a 0.72653526,0.72653526 0 1 0 1.0272632,1.027264 l 6.7538319,-6.753833 c -0.506895,-0.09252 -0.966207,-0.257154 -1.015912,-1.038614 z"
     id="path14" />
  <path
     style="fill:#ffffff;opacity:0.2"
     d="M 6.375,2 C 5.61325,2 5,2.6247906 5,3.4003906 v 1 C 5,3.6247906 5.61325,3 6.375,3 H 19 V 2 Z"
     id="path16" />
</svg>
