<?xml version="1.0" encoding="UTF-8" standalone="no"?>
<svg
   width="32"
   height="32"
   version="1.1"
   id="svg16"
   sodipodi:docname="inode-symlink.svg"
   inkscape:version="1.1.1 (3bf5ae0d25, 2021-09-20)"
   xmlns:inkscape="http://www.inkscape.org/namespaces/inkscape"
   xmlns:sodipodi="http://sodipodi.sourceforge.net/DTD/sodipodi-0.dtd"
   xmlns="http://www.w3.org/2000/svg"
   xmlns:svg="http://www.w3.org/2000/svg">
  <defs
     id="defs20">
    <clipPath
       clipPathUnits="userSpaceOnUse"
       id="clipPath4168">
      <path
         id="path4170"
         d="m 94.5,254 c -0.831,0 -1.5,0.669 -1.5,1.5 v 25 c 0,0.831 0.669,1.5 1.5,1.5 h 19 c 0.831,0 1.5,-0.669 1.5,-1.5 V 262 l -8,-8 z"
         style="fill:#e1e1e1;fill-opacity:1;stroke:none"
         inkscape:connector-curvature="0" />
    </clipPath>
  </defs>
  <sodipodi:namedview
     id="namedview18"
     pagecolor="#505050"
     bordercolor="#ffffff"
     borderopacity="1"
     inkscape:pageshadow="0"
     inkscape:pageopacity="0"
     inkscape:pagecheckerboard="1"
     showgrid="false"
     inkscape:zoom="23.03125"
     inkscape:cx="16"
     inkscape:cy="16.02171"
     inkscape:current-layer="svg16" />
  <path
     style="opacity:0.2"
     d="M 6.375,3 C 5.61325,3 5,3.6244 5,4.4 V 29.6 C 5,30.3756 5.61325,31 6.375,31 h 19.25 C 26.38675,31 27,30.3756 27,29.6 V 11 L 20.125,10 19,3 Z"
     id="path2" />
  <path
     style="fill:#00796b"
     d="M 6.375,2 C 5.61325,2 5,2.6244 5,3.4 V 28.6 C 5,29.3756 5.61325,30 6.375,30 h 19.25 C 26.38675,30 27,29.3756 27,28.6 V 10 L 20.125,9 19,2 Z"
     id="path4" />
  <path
     style="opacity:0.2"
     d="M 27,11 19,3 V 9.6666667 C 19,10.405333 19.594667,11 20.333333,11 Z"
     id="path6" />
  <path
     style="fill:#26a69a"
     d="M 27,10 19,2 V 8.6666667 C 19,9.4053333 19.594667,10 20.333333,10 Z"
     id="path8" />
  <path
     style="opacity:0.2"
     d="m 12,13.999997 0.545673,0.564281 c 0.412627,0.468865 0.877418,0.894489 1.301682,1.352285 0.0047,0.0043 0.01191,0.0069 0.01683,0.01119 l 0.688702,0.712188 c -1.198143,1.260054 -2.570992,3.431258 -2.549279,5.205305 -0.04756,1.18103 0.41033,2.324867 1.141827,3.229079 1.189694,1.473234 2.970523,2.346137 4.770432,2.775417 0.259329,0.06256 1.582673,0.340216 0.858172,-0.06836 -1.242137,-0.605727 -2.568523,-1.291092 -3.262017,-2.565365 -0.757785,-1.208233 -0.23237,-2.944159 0.58774,-4.179905 0.346415,-0.448452 0.784051,-1.117108 1.254807,-1.498949 L 20,22.2728 v -4.302951 -3.969852 h -0.0025 z"
     id="path10" />
  <path
     style="fill:#ffffff"
     d="m 12,13 0.545673,0.564281 c 0.412627,0.468865 0.877418,0.894489 1.301682,1.352285 0.0047,0.0043 0.01191,0.0069 0.01683,0.01119 l 0.688702,0.712188 c -1.198143,1.260054 -2.570992,3.431258 -2.549279,5.205305 -0.04756,1.18103 0.41033,2.324867 1.141827,3.229079 1.189694,1.473234 2.970523,2.346137 4.770432,2.775417 0.259329,0.06256 1.582673,0.340216 0.858172,-0.06836 -1.242137,-0.605727 -2.568523,-1.291092 -3.262017,-2.565365 -0.757785,-1.208233 -0.23237,-2.944159 0.58774,-4.179905 0.346415,-0.448452 0.784051,-1.117108 1.254807,-1.498949 L 20,21.272803 V 16.969852 13 h -0.0025 z"
     id="path12" />
  <path
     style="opacity:0.2;fill:#ffffff"
     d="M 6.375,2 C 5.61325,2 5,2.6247906 5,3.4003906 v 1 C 5,3.6247906 5.61325,3 6.375,3 H 19 V 2 Z"
     id="path14" />
</svg>
