<?xml version="1.0" encoding="UTF-8" standalone="no"?>
<svg
   width="32"
   height="32"
   version="1.1"
   id="svg16"
   sodipodi:docname="inode-mount-point.svg"
   inkscape:version="1.1.1 (3bf5ae0d25, 2021-09-20)"
   xmlns:inkscape="http://www.inkscape.org/namespaces/inkscape"
   xmlns:sodipodi="http://sodipodi.sourceforge.net/DTD/sodipodi-0.dtd"
   xmlns="http://www.w3.org/2000/svg"
   xmlns:svg="http://www.w3.org/2000/svg">
  <defs
     id="defs20" />
  <sodipodi:namedview
     id="namedview18"
     pagecolor="#505050"
     bordercolor="#ffffff"
     borderopacity="1"
     inkscape:pageshadow="0"
     inkscape:pageopacity="0"
     inkscape:pagecheckerboard="1"
     showgrid="false"
     inkscape:zoom="23.03125"
     inkscape:cx="16"
     inkscape:cy="15.97829"
     inkscape:current-layer="svg16" />
  <path
     style="opacity:0.2"
     d="M 6.375,3 C 5.61325,3 5,3.6244 5,4.4 V 29.6 C 5,30.3756 5.61325,31 6.375,31 h 19.25 C 26.38675,31 27,30.3756 27,29.6 V 11 L 20.125,10 19,3 Z"
     id="path2" />
  <path
     style="fill:#546e7a"
     d="M 6.375,2 C 5.61325,2 5,2.6244 5,3.4 V 28.6 C 5,29.3756 5.61325,30 6.375,30 h 19.25 C 26.38675,30 27,29.3756 27,28.6 V 10 L 20.125,9 19,2 Z"
     id="path4" />
  <path
     style="opacity:0.2"
     d="M 27,11 19,3 V 9.6666667 C 19,10.405333 19.594667,11 20.333333,11 Z"
     id="path6" />
  <path
     style="fill:#78909c"
     d="M 27,10 19,2 V 8.6666667 C 19,9.4053333 19.594667,10 20.333333,10 Z"
     id="path8" />
  <path
     style="opacity:0.2"
     d="m 10,15.846154 v 9.307691 C 10,25.153845 10,26 10.857143,26 H 21.142856 C 21.142856,26 22,26 22,25.153845 V 17.950856 C 22,17.104701 21.142856,17 21.142856,17 H 16.857143 L 15.142856,15 H 10.857143 C 10.857143,15 10,15 10,15.846154 Z"
     id="path10" />
  <path
     style="fill:#ffffff"
     d="m 10,14.846154 v 9.307691 C 10,24.153845 10,25 10.857143,25 H 21.142856 C 21.142856,25 22,25 22,24.153845 V 16.950856 C 22,16.104701 21.142856,16 21.142856,16 H 16.857143 L 15.142856,14 H 10.857143 C 10.857143,14 10,14 10,14.846154 Z"
     id="path12" />
  <path
     style="fill:#ffffff;opacity:0.2"
     d="M 6.375,2 C 5.61325,2 5,2.6247906 5,3.4003906 v 1 C 5,3.6247906 5.61325,3 6.375,3 H 19 V 2 Z"
     id="path14" />
</svg>
