<?xml version="1.0" encoding="UTF-8" standalone="no"?>
<svg
   width="32"
   height="32"
   version="1.1"
   id="svg12"
   sodipodi:docname="model-stl.svg"
   inkscape:version="1.1.1 (3bf5ae0d25, 2021-09-20)"
   xmlns:inkscape="http://www.inkscape.org/namespaces/inkscape"
   xmlns:sodipodi="http://sodipodi.sourceforge.net/DTD/sodipodi-0.dtd"
   xmlns="http://www.w3.org/2000/svg"
   xmlns:svg="http://www.w3.org/2000/svg">
  <defs
     id="defs16" />
  <sodipodi:namedview
     id="namedview14"
     pagecolor="#505050"
     bordercolor="#ffffff"
     borderopacity="1"
     inkscape:pageshadow="0"
     inkscape:pageopacity="0"
     inkscape:pagecheckerboard="1"
     showgrid="false"
     inkscape:zoom="23.03125"
     inkscape:cx="16"
     inkscape:cy="15.97829"
     inkscape:current-layer="svg12" />
  <path
     style="opacity:0.2"
     d="M 16,3.0003 C 15.81,3.0003 15.656,3.0418 15.492,3.1385 L 4.4922,9.6385 C 4.1873,9.8183 4.0001,10.146 4,10.5 V 23.5 C 4.0002,23.854 4.1874,24.181 4.4922,24.361 L 15.492,30.861 C 15.805,31.046 16.195,31.046 16.508,30.861 L 27.508,24.361 C 27.813,24.181 28,23.854 28,23.5 V 10.5 C 28,10.146 27.813,9.8183 27.508,9.6385 L 16.508,3.1385 C 16.364,3.0532 16.168,3.0003 16,3.0003 Z"
     id="path2" />
  <path
     style="fill:#2196f3"
     d="M 16,2 C 15.81,2 15.656,2.0415 15.492,2.1382 L 4.4922,8.6382 C 4.1873,8.818 4.0001,9.1455 4,9.4995 V 22.5 C 4.0002,22.854 4.1874,23.181 4.4922,23.361 L 15.492,29.861 C 15.805,30.046 16.195,30.046 16.508,29.861 L 27.508,23.361 C 27.813,23.181 28,22.854 28,22.5 V 9.4995 C 28,9.1456 27.813,8.818 27.508,8.6382 L 16.508,2.1382 C 16.364,2.0529 16.168,2 16,2 Z"
     id="path4" />
  <path
     style="opacity:0.1;fill:#000000"
     d="M 4.0254,9.2949 C 4.0113,9.3618 4,9.4302 4,9.5 V 22.5 C 4.0002,22.854 4.1874,23.181 4.4922,23.361 L 15.492,29.861 C 15.649,29.954 15.824,30 16,30 V 16 Z"
     id="path6" />
  <path
     style="opacity:0.2;fill:#000000"
     d="M 27.893,9.0625 16,16 V 30 C 16.176,30 16.351,29.954 16.508,29.861 L 27.508,23.361 C 27.813,23.181 28,22.854 28,22.5 V 9.5 C 28,9.3449 27.959,9.1973 27.893,9.0625 Z"
     id="path8" />
  <path
     style="opacity:0.2;fill:#ffffff"
     d="M 16,2 C 15.81,2 15.656,2.042 15.492,2.1387 L 4.4922,8.6387 C 4.1873,8.8185 4.0001,9.146 4,9.5 V 10.5 C 4.0001,10.146 4.1873,9.8185 4.4922,9.6387 L 15.492,3.1387 C 15.656,3.042 15.81,3 16,3 16.168,3 16.364,3.0534 16.508,3.1387 L 27.508,9.6387 C 27.813,9.8185 28,10.146 28,10.5 V 9.5 C 28,9.1461 27.813,8.8185 27.508,8.6387 L 16.508,2.1387 C 16.364,2.0534 16.168,2 16,2 Z"
     id="path10" />
</svg>
