<?xml version="1.0" encoding="UTF-8" standalone="no"?>
<svg
   width="32"
   height="32"
   version="1.1"
   id="svg16"
   sodipodi:docname="audio-x-mpegurl.svg"
   inkscape:version="1.1.1 (3bf5ae0d25, 2021-09-20)"
   xmlns:inkscape="http://www.inkscape.org/namespaces/inkscape"
   xmlns:sodipodi="http://sodipodi.sourceforge.net/DTD/sodipodi-0.dtd"
   xmlns="http://www.w3.org/2000/svg"
   xmlns:svg="http://www.w3.org/2000/svg">
  <defs
     id="defs20">
    <clipPath
       clipPathUnits="userSpaceOnUse"
       id="clipPath4168">
      <path
         id="path4170"
         d="m 94.5,254 c -0.831,0 -1.5,0.669 -1.5,1.5 v 25 c 0,0.831 0.669,1.5 1.5,1.5 h 19 c 0.831,0 1.5,-0.669 1.5,-1.5 V 262 l -8,-8 z"
         style="fill:#e1e1e1;fill-opacity:1;stroke:none"
         inkscape:connector-curvature="0" />
    </clipPath>
  </defs>
  <sodipodi:namedview
     id="namedview18"
     pagecolor="#505050"
     bordercolor="#ffffff"
     borderopacity="1"
     inkscape:pageshadow="0"
     inkscape:pageopacity="0"
     inkscape:pagecheckerboard="1"
     showgrid="false"
     inkscape:zoom="11.515625"
     inkscape:cx="42.333786"
     inkscape:cy="10.160109"
     inkscape:current-layer="g1440" />
  <g
     id="g1440"
     transform="translate(-57.118046,11.050204)">
    <path
       inkscape:connector-curvature="0"
       id="path4884"
       d="m 63.618046,-9.0502031 c -0.831,0 -1.5,0.669 -1.5,1.5 V 17.449796 c 0,0.831 0.669,1.5 1.5,1.5 h 18.999997 c 0.831,0 1.5,-0.669 1.5,-1.5 V -1.050203 l -7.25,-0.7500001 c -0.82842,0 -0.75,-7.25 -0.75,-7.25 z"
       style="display:inline;fill:#ff9800;fill-opacity:1;stroke:none;enable-background:new"
       sodipodi:nodetypes="sssssscccs" />
    <path
       transform="translate(-30.881954,-263.0502)"
       clip-path="url(#clipPath4168)"
       style="display:inline;opacity:0.1;fill:#000000;fill-opacity:1;stroke:none;enable-background:new"
       d="m 107,254 v 7.5 c 0,0.82843 0.67158,1.5 1.5,1.5 h 6.5 v -1 z"
       id="path4890"
       inkscape:connector-curvature="0"
       sodipodi:nodetypes="cssccc" />
    <path
       style="display:inline;fill:#ffb74d;fill-opacity:1;stroke:none;enable-background:new"
       d="m 76.118043,-9.0502031 v 6.5 c 0,0.82843 0.67158,1.5000001 1.5,1.5000001 h 6.5 z"
       id="path4892"
       inkscape:connector-curvature="0"
       sodipodi:nodetypes="csscc" />
    <path
       sodipodi:nodetypes="sscsccs"
       inkscape:connector-curvature="0"
       id="path4896"
       d="m 63.618046,-9.0502031 c -0.831,0 -1.5,0.669 -1.5,1.5 v 1 c 0,-0.831 0.669,-1.5 1.5,-1.5 h 12.499997 v -1 z"
       style="display:inline;opacity:0.2;fill:#ffffff;fill-opacity:1;stroke:none;enable-background:new" />
  </g>
  <path
     style="fill:#ffffff"
     d="M 12.099407,14.000308 A 1.0743376,1.1291358 0 0 0 11,15.12933 v 10.741888 a 1.0743376,1.1291358 0 0 0 1.611346,0.977604 l 8.851908,-5.370944 a 1.0743376,1.1291358 0 0 0 0,-1.955207 l -8.851908,-5.370945 a 1.0743376,1.1291358 0 0 0 -0.511939,-0.151418 z"
     id="path14" />
</svg>
