<?xml version="1.0" encoding="UTF-8" standalone="no"?>
<svg
   width="32"
   height="32"
   version="1.1"
   id="svg14"
   sodipodi:docname="text-x-credits.svg"
   inkscape:version="1.1.1 (3bf5ae0d25, 2021-09-20)"
   xmlns:inkscape="http://www.inkscape.org/namespaces/inkscape"
   xmlns:sodipodi="http://sodipodi.sourceforge.net/DTD/sodipodi-0.dtd"
   xmlns="http://www.w3.org/2000/svg"
   xmlns:svg="http://www.w3.org/2000/svg">
  <defs
     id="defs18">
    <clipPath
       clipPathUnits="userSpaceOnUse"
       id="clipPath4168">
      <path
         id="path4170"
         d="m 94.5,254 c -0.831,0 -1.5,0.669 -1.5,1.5 v 25 c 0,0.831 0.669,1.5 1.5,1.5 h 19 c 0.831,0 1.5,-0.669 1.5,-1.5 V 262 l -8,-8 z"
         style="fill:#e1e1e1;fill-opacity:1;stroke:none"
         inkscape:connector-curvature="0" />
    </clipPath>
  </defs>
  <sodipodi:namedview
     id="namedview16"
     pagecolor="#505050"
     bordercolor="#ffffff"
     borderopacity="1"
     inkscape:pageshadow="0"
     inkscape:pageopacity="0"
     inkscape:pagecheckerboard="1"
     showgrid="false"
     inkscape:zoom="11.515625"
     inkscape:cx="40.510176"
     inkscape:cy="20.928087"
     inkscape:current-layer="svg14" />
  <path
     inkscape:connector-curvature="0"
     id="rect3388"
     d="m 6.999999,1.9891452 c 0,0 -2,0 -2,2 V 27.989145 c 0,0 0,2 2,2 h 18 c 2,0 2,-2 2,-2 V 9.9891448 l -7.25,-0.75 c -0.82842,0 -0.75,-7.2499996 -0.75,-7.2499996 z"
     style="display:inline;fill:#ececec;fill-opacity:1;stroke:none;enable-background:new"
     sodipodi:nodetypes="cscssccccc" />
  <path
     transform="translate(-87.999999,-251.98915)"
     clip-path="url(#clipPath4168)"
     style="display:inline;opacity:0.1;fill:#000000;fill-opacity:1;stroke:none;enable-background:new"
     d="m 107,254 v 7 c 0,0 0,2 2,2 h 6 v -1 z"
     id="path4110"
     inkscape:connector-curvature="0"
     sodipodi:nodetypes="ccsccc" />
  <path
     style="display:inline;fill:#f2f2f2;fill-opacity:1;stroke:none;enable-background:new"
     d="m 18.999999,2.0108552 v 6.0000001 c 0,0 0.0854,1.9999997 2,1.9999997 h 6 z"
     id="path4172"
     inkscape:connector-curvature="0"
     sodipodi:nodetypes="ccscc" />
  <path
     style="display:inline;opacity:0.2;fill:#ffffff;fill-opacity:1;stroke:none;enable-background:new"
     d="m 6.999999,2.0108552 c 0,0 -2,0 -2,2 v 1 c 0,-2 2,-2 2,-2 h 12 c -0.003,-0.55035 0,-1 0,-1 z"
     id="path4742"
     inkscape:connector-curvature="0"
     sodipodi:nodetypes="csccccc" />
  <path
     style="display:inline;opacity:0.05;fill:#000000;fill-opacity:1;stroke:none;enable-background:new"
     d="m 4.999999,27.010855 v 1 c 0,0 0,2 2,2 h 18 c 2,0 2,-2 2,-2 v -1 c 0,0 0,2 -2,2 h -18 c -2,0 -2,-2 -2,-2 z"
     id="path4771" />
  <path
     style="fill:#9c27b0"
     d="M 16 15 C 14.3434 15 13 16.3434 13 18 C 13 19.6566 14.3434 21 16 21 C 17.656599 21 19 19.6566 19 18 C 19 16.34316 17.656839 15 16 15 z M 13.142578 22 C 10.999721 22 11 26 11 26 L 21 26 C 21 26 21.000279 22 18.857422 22 L 13.142578 22 z"
     id="path12" />
</svg>
