<?xml version="1.0" encoding="UTF-8" standalone="no"?>
<svg
   width="32"
   height="32"
   version="1.1"
   id="svg14"
   sodipodi:docname="text-markdown.svg"
   inkscape:version="1.1.1 (3bf5ae0d25, 2021-09-20)"
   xmlns:inkscape="http://www.inkscape.org/namespaces/inkscape"
   xmlns:sodipodi="http://sodipodi.sourceforge.net/DTD/sodipodi-0.dtd"
   xmlns="http://www.w3.org/2000/svg"
   xmlns:svg="http://www.w3.org/2000/svg">
  <defs
     id="defs18">
    <clipPath
       clipPathUnits="userSpaceOnUse"
       id="clipPath4168">
      <path
         id="path4170"
         d="m 94.5,254 c -0.831,0 -1.5,0.669 -1.5,1.5 v 25 c 0,0.831 0.669,1.5 1.5,1.5 h 19 c 0.831,0 1.5,-0.669 1.5,-1.5 V 262 l -8,-8 z"
         style="fill:#e1e1e1;fill-opacity:1;stroke:none"
         inkscape:connector-curvature="0" />
    </clipPath>
  </defs>
  <sodipodi:namedview
     id="namedview16"
     pagecolor="#505050"
     bordercolor="#ffffff"
     borderopacity="1"
     inkscape:pageshadow="0"
     inkscape:pageopacity="0"
     inkscape:pagecheckerboard="1"
     showgrid="false"
     inkscape:zoom="23.03125"
     inkscape:cx="16"
     inkscape:cy="16.02171"
     inkscape:current-layer="svg14" />
  <path
     inkscape:connector-curvature="0"
     id="rect3388"
     d="M 7,2 C 7,2 5,2 5,4 v 24 c 0,0 0,2 2,2 h 18 c 2,0 2,-2 2,-2 V 10 L 19.75,9.25 C 18.92158,9.25 19,2 19,2 Z"
     style="display:inline;fill:#ececec;fill-opacity:1;stroke:none;enable-background:new"
     sodipodi:nodetypes="cscssccccc" />
  <path
     transform="translate(-88,-251.97829)"
     clip-path="url(#clipPath4168)"
     style="display:inline;opacity:0.1;fill:#000000;fill-opacity:1;stroke:none;enable-background:new"
     d="m 107,254 v 7 c 0,0 0,2 2,2 h 6 v -1 z"
     id="path4110"
     inkscape:connector-curvature="0"
     sodipodi:nodetypes="ccsccc" />
  <path
     style="display:inline;fill:#f2f2f2;fill-opacity:1;stroke:none;enable-background:new"
     d="m 19,2.02171 v 6 c 0,0 0.0854,2 2,2 h 6 z"
     id="path4172"
     inkscape:connector-curvature="0"
     sodipodi:nodetypes="ccscc" />
  <path
     style="display:inline;opacity:0.2;fill:#ffffff;fill-opacity:1;stroke:none;enable-background:new"
     d="m 7,2.02171 c 0,0 -2,0 -2,2 v 1 c 0,-2 2,-2 2,-2 h 12 c -0.003,-0.55035 0,-1 0,-1 z"
     id="path4742"
     inkscape:connector-curvature="0"
     sodipodi:nodetypes="csccccc" />
  <path
     style="display:inline;opacity:0.05;fill:#000000;fill-opacity:1;stroke:none;enable-background:new"
     d="m 5,27.02171 v 1 c 0,0 0,2 2,2 h 18 c 2,0 2,-2 2,-2 v -1 c 0,0 0,2 -2,2 H 7 c -2,0 -2,-2 -2,-2 z"
     id="path4771" />
  <path
     style="color:#000000;font-style:normal;font-variant:normal;font-weight:normal;font-stretch:normal;font-size:medium;line-height:normal;font-family:sans-serif;text-indent:0;text-align:start;text-decoration:none;text-decoration-line:none;text-decoration-style:solid;text-decoration-color:#000000;letter-spacing:normal;word-spacing:normal;text-transform:none;writing-mode:lr-tb;direction:ltr;baseline-shift:baseline;text-anchor:start;white-space:normal;clip-rule:nonzero;display:inline;overflow:visible;visibility:visible;isolation:auto;mix-blend-mode:normal;color-interpolation:sRGB;color-interpolation-filters:linearRGB;solid-color:#000000;solid-opacity:1;fill:#455a64;fill-opacity:1;fill-rule:nonzero;stroke:none;stroke-width:16;stroke-linecap:butt;stroke-linejoin:miter;stroke-miterlimit:4;stroke-dasharray:none;stroke-dashoffset:0;stroke-opacity:1;color-rendering:auto;image-rendering:auto;shape-rendering:auto;text-rendering:auto;enable-background:accumulate"
     d="m 11,16 c -0.54535,0 -1,0.4546 -1,1 v 6 c 0,0.5453 0.45465,1 1,1 h 10 c 0.54536,0 1,-0.4547 1,-1 v -6 c 0,-0.5454 -0.45464,-1 -1,-1 z m 0,1 h 10 v 6 H 11 Z m 1,1 v 4 h 1 v -2.1875 l 1,1.5625 1,-1.5625 V 22 h 1 V 18 H 15 L 14,19.5625 13,18 Z m 6,0 v 2 h -1 l 1,2 h 1 l 1,-2 h -1 v -2 z"
     id="rect4959"
     inkscape:connector-curvature="0"
     sodipodi:nodetypes="sssssssssccccccccccccccccccccccccccc" />
</svg>
