<?xml version="1.0" encoding="UTF-8" standalone="no"?>
<svg
   width="32"
   height="32"
   version="1.1"
   id="svg28"
   sodipodi:docname="text-x-java.svg"
   inkscape:version="1.1.1 (3bf5ae0d25, 2021-09-20)"
   xmlns:inkscape="http://www.inkscape.org/namespaces/inkscape"
   xmlns:sodipodi="http://sodipodi.sourceforge.net/DTD/sodipodi-0.dtd"
   xmlns="http://www.w3.org/2000/svg"
   xmlns:svg="http://www.w3.org/2000/svg">
  <defs
     id="defs32">
    <clipPath
       clipPathUnits="userSpaceOnUse"
       id="clipPath4168">
      <path
         id="path4170"
         d="m 94.5,254 c -0.831,0 -1.5,0.669 -1.5,1.5 v 25 c 0,0.831 0.669,1.5 1.5,1.5 h 19 c 0.831,0 1.5,-0.669 1.5,-1.5 V 262 l -8,-8 z"
         style="fill:#e1e1e1;fill-opacity:1;stroke:none"
         inkscape:connector-curvature="0" />
    </clipPath>
  </defs>
  <sodipodi:namedview
     id="namedview30"
     pagecolor="#505050"
     bordercolor="#ffffff"
     borderopacity="1"
     inkscape:pageshadow="0"
     inkscape:pageopacity="0"
     inkscape:pagecheckerboard="1"
     showgrid="false"
     inkscape:zoom="11.515625"
     inkscape:cx="31.044776"
     inkscape:cy="17.888738"
     inkscape:current-layer="svg28" />
  <path
     inkscape:connector-curvature="0"
     id="rect3388"
     d="m 7,1.9891447 c 0,0 -2,0 -2,2.0000001 V 27.989145 c 0,0 0,2 2,2 h 18 c 2,0 2,-2 2,-2 V 9.9891452 l -7.25,-0.75 c -0.82842,0 -0.75,-7.2500005 -0.75,-7.2500005 z"
     style="display:inline;fill:#ececec;fill-opacity:1;stroke:none;enable-background:new"
     sodipodi:nodetypes="cscssccccc" />
  <path
     transform="translate(-88,-251.98914)"
     clip-path="url(#clipPath4168)"
     style="display:inline;opacity:0.1;fill:#000000;fill-opacity:1;stroke:none;enable-background:new"
     d="m 107,254 v 7 c 0,0 0,2 2,2 h 6 v -1 z"
     id="path4110"
     inkscape:connector-curvature="0"
     sodipodi:nodetypes="ccsccc" />
  <path
     style="display:inline;fill:#f2f2f2;fill-opacity:1;stroke:none;enable-background:new"
     d="m 19,2.0108548 v 6 c 0,0 0.0854,2.0000002 2,2.0000002 h 6 z"
     id="path4172"
     inkscape:connector-curvature="0"
     sodipodi:nodetypes="ccscc" />
  <path
     style="display:inline;opacity:0.2;fill:#ffffff;fill-opacity:1;stroke:none;enable-background:new"
     d="m 7,2.0108548 c 0,0 -2,0 -2,1.9999999 v 1.0000001 c 0,-2 2,-2 2,-2 h 12 c -0.003,-0.55035 0,-1 0,-1 z"
     id="path4742"
     inkscape:connector-curvature="0"
     sodipodi:nodetypes="csccccc" />
  <path
     style="display:inline;opacity:0.05;fill:#000000;fill-opacity:1;stroke:none;enable-background:new"
     d="m 5,27.010855 v 1 c 0,0 0,2 2,2 h 18 c 2,0 2,-2 2,-2 v -1 c 0,0 0,2 -2,2 H 7 c -2,0 -2,-2 -2,-2 z"
     id="path4771" />
  <path
     style="fill:#2c69c8"
     d="m 20.736492,20.730346 c -0.219534,-0.01051 -0.455994,0.02291 -0.699603,0.108559 -0.171203,0.06078 -0.260843,0.200534 -0.260843,0.200534 0,0 0.106838,-0.04322 0.348293,-0.09348 0.985116,-0.205364 2.396648,1.319254 -0.655878,2.905465 -0.01412,0.03776 -0.06182,0.07996 -0.06182,0.07991 3.567202,-0.937759 2.866588,-3.127402 1.329849,-3.200987 z"
     id="path12" />
  <path
     style="fill:#2c69c8"
     d="m 13.9621,20.569535 c -0.389172,0.01022 -1.298896,0.09409 -2.358146,0.606122 -1.670013,0.807818 4.1304,1.175738 7.133241,0.385988 0.31219,-0.21317 0.743329,-0.39805 0.743329,-0.39805 0,0 -1.227864,0.219432 -2.451628,0.322662 -1.497407,0.125466 -3.106239,0.150183 -3.912652,0.04222 -1.90989,-0.25505 1.047897,-0.957431 1.047897,-0.957431 0,0 -0.07232,-0.0049 -0.202041,-0.0015 z"
     id="path14" />
  <path
     style="fill:#2c69c8"
     d="m 13.475092,22.682169 c -2.755904,0.914687 1.533316,1.952315 5.384232,0.826256 -0.409325,-0.144322 -0.669448,-0.408605 -0.669448,-0.408605 -1.882043,0.362402 -2.969639,0.351663 -4.346889,0.209579 -1.065017,-0.11016 -0.367895,-0.62723 -0.367895,-0.62723 z"
     id="path16" />
  <path
     style="fill:#2c69c8"
     d="m 13.865604,24.322603 c -2.501688,0.699018 1.520687,2.143066 4.705737,0.778007 -0.521677,-0.202865 -0.894105,-0.437252 -0.894105,-0.437252 -1.420796,0.268907 -2.080576,0.288813 -3.369858,0.14173 -1.064226,-0.12235 -0.441774,-0.482485 -0.441774,-0.482485 z"
     id="path18" />
  <path
     style="fill:#2c69c8"
     d="m 12.247771,25.604245 c -1.075101,-0.04143 -3.5159486,1.032812 -1.432378,1.370558 6.493941,1.053132 11.837736,-0.47506 10.153295,-1.23486 0,0 0.46022,0.379175 -0.506609,0.672464 -1.838453,0.556934 -7.651795,0.72554 -9.266729,0.02262 -0.580528,-0.252549 0.507932,-0.603446 0.85038,-0.676987 0.35714,-0.07745 0.562396,-0.06182 0.562396,-0.06182 -0.0807,-0.05685 -0.20677,-0.08606 -0.360355,-0.09197 z"
     id="path20" />
  <path
     style="fill:#2c69c8"
     d="m 22,26.459115 c 0,0 -0.204786,0.524959 -2.421472,0.942354 -2.500854,0.470631 -5.585773,0.41621 -7.415193,0.114589 4.5e-5,-4.4e-5 0.375131,0.309239 2.300851,0.432729 C 17.39423,28.136347 21.893437,27.84553 22,26.459115 Z"
     id="path22" />
  <path
     style="fill:#fa7800"
     d="m 17.761486,11.72975 c 0.682092,2.686221 -2.40495,3.498597 -3.519125,5.171637 -0.759097,1.139741 0.371524,2.363229 1.913354,3.754337 -0.601242,-1.358921 -2.639895,-2.547361 0.0015,-4.633365 3.293938,-2.600445 1.604264,-4.292609 1.604264,-4.292609 z"
     id="path24" />
  <path
     style="fill:#fa7800"
     d="m 19.628415,15.052865 c 0,0 -5.568784,1.391626 -2.908481,4.456956 0.784796,0.903549 -0.206563,1.717346 -0.206563,1.717346 0,0 1.993223,-1.029252 1.078053,-2.317436 -0.85474,-1.201312 -1.511469,-1.798884 2.036991,-3.856866 z"
     id="path26" />
</svg>
