<?xml version="1.0" encoding="UTF-8" standalone="no"?>
<svg
   width="32"
   height="32"
   version="1.1"
   id="svg16"
   sodipodi:docname="gnome-unknown.svg"
   inkscape:version="1.1.1 (3bf5ae0d25, 2021-09-20)"
   xmlns:inkscape="http://www.inkscape.org/namespaces/inkscape"
   xmlns:sodipodi="http://sodipodi.sourceforge.net/DTD/sodipodi-0.dtd"
   xmlns="http://www.w3.org/2000/svg"
   xmlns:svg="http://www.w3.org/2000/svg">
  <defs
     id="defs20">
    <clipPath
       clipPathUnits="userSpaceOnUse"
       id="clipPath4168">
      <path
         id="path4170"
         d="m 94.5,254 c -0.831,0 -1.5,0.669 -1.5,1.5 v 25 c 0,0.831 0.669,1.5 1.5,1.5 h 19 c 0.831,0 1.5,-0.669 1.5,-1.5 V 262 l -8,-8 z"
         style="fill:#e1e1e1;fill-opacity:1;stroke:none"
         inkscape:connector-curvature="0" />
    </clipPath>
  </defs>
  <sodipodi:namedview
     id="namedview18"
     pagecolor="#505050"
     bordercolor="#ffffff"
     borderopacity="1"
     inkscape:pageshadow="0"
     inkscape:pageopacity="0"
     inkscape:pagecheckerboard="1"
     showgrid="false"
     inkscape:zoom="23.03125"
     inkscape:cx="16.043419"
     inkscape:cy="15.97829"
     inkscape:current-layer="svg16" />
  <path
     inkscape:connector-curvature="0"
     id="path4884"
     d="m 6.543419,1.97829 c -0.831,0 -1.5,0.669 -1.5,1.5 v 25 c 0,0.831 0.669,1.5 1.5,1.5 h 19 c 0.831,0 1.5,-0.669 1.5,-1.5 v -18.5 l -7.25,-0.75 c -0.82842,0 -0.75,-7.25 -0.75,-7.25 z"
     style="display:inline;fill:#546e7a;fill-opacity:1;stroke:none;enable-background:new"
     sodipodi:nodetypes="sssssscccs" />
  <path
     transform="translate(-87.956581,-252.02171)"
     clip-path="url(#clipPath4168)"
     style="display:inline;opacity:0.1;fill:#000000;fill-opacity:1;stroke:none;enable-background:new"
     d="m 107,254 v 7.5 c 0,0.82843 0.67158,1.5 1.5,1.5 h 6.5 v -1 z"
     id="path4890"
     inkscape:connector-curvature="0"
     sodipodi:nodetypes="cssccc" />
  <path
     style="display:inline;fill:#78909c;fill-opacity:1;stroke:none;enable-background:new"
     d="m 19.043419,1.97829 v 6.5 c 0,0.82843 0.67158,1.5 1.5,1.5 h 6.5 z"
     id="path4892"
     inkscape:connector-curvature="0"
     sodipodi:nodetypes="csscc" />
  <path
     sodipodi:nodetypes="sscsccs"
     inkscape:connector-curvature="0"
     id="path4896"
     d="m 6.543419,1.97829 c -0.831,0 -1.5,0.669 -1.5,1.5 v 1 c 0,-0.831 0.669,-1.5 1.5,-1.5 h 12.5 v -1 z"
     style="display:inline;opacity:0.2;fill:#ffffff;fill-opacity:1;stroke:none;enable-background:new" />
  <path
     style="fill:#ffffff"
     d="m 16,14 c -1.989453,0.0017 -3.819141,2.018785 -4,4 h 2 c 0.166303,-0.814715 0.567599,-2.094787 2,-2 0.966498,0 2,1.033502 2,2 0,1.75 -3,2.484965 -3,6 h 2 c -0.170584,-2.433034 2.941859,-3.824397 3,-6 0,-2.126296 -1.462572,-4 -4,-4 z m -1,11 v 2 h 2 v -2 z"
     id="path14" />
</svg>
