<?xml version="1.0" encoding="UTF-8" standalone="no"?>
<svg
   width="32"
   height="32"
   version="1"
   id="svg46"
   sodipodi:docname="x-office-calendar.svg"
   inkscape:version="1.1.1 (3bf5ae0d25, 2021-09-20)"
   xmlns:inkscape="http://www.inkscape.org/namespaces/inkscape"
   xmlns:sodipodi="http://sodipodi.sourceforge.net/DTD/sodipodi-0.dtd"
   xmlns="http://www.w3.org/2000/svg"
   xmlns:svg="http://www.w3.org/2000/svg">
  <defs
     id="defs50" />
  <sodipodi:namedview
     id="namedview48"
     pagecolor="#505050"
     bordercolor="#ffffff"
     borderopacity="1"
     inkscape:pageshadow="0"
     inkscape:pageopacity="0"
     inkscape:pagecheckerboard="1"
     showgrid="false"
     inkscape:zoom="23.03125"
     inkscape:cx="16"
     inkscape:cy="15.97829"
     inkscape:current-layer="svg46" />
  <path
     style="opacity:0.2"
     d="M 2,11.9 2,28.599609 C 2,29.375209 2.6247906,30 3.4003906,30 L 28.599609,30 C 29.375209,30 30,29.375209 30,28.599609 L 30,11.9 Z"
     id="path2" />
  <path
     style="fill:#e4e4e4"
     d="M 2,10.9 2,27.599609 C 2,28.375209 2.6247906,29 3.4003906,29 L 28.599609,29 C 29.375209,29 30,28.375209 30,27.599609 L 30,10.9 Z"
     id="path4" />
  <path
     style="opacity:0.2"
     d="M 30,12 30,6.4 C 30,5.6244 29.3756,5 28.6,5 L 3.4,5 C 2.6244,5 2,5.6244 2,6.4 L 2,12 Z"
     id="path6" />
  <path
     style="fill:#f44336"
     d="M 30,11 30,5.4 C 30,4.6244 29.3756,4 28.6,4 L 3.4,4 C 2.6244,4 2,4.6244 2,5.4 L 2,11 Z"
     id="path8" />
  <rect
     style="opacity:0.2"
     width="4"
     height="4"
     x="17"
     y="12"
     id="rect10" />
  <rect
     style="opacity:0.2"
     width="4"
     height="4"
     x="23"
     y="12"
     id="rect12" />
  <rect
     style="opacity:0.2"
     width="4"
     height="4"
     x="11"
     y="12"
     id="rect14" />
  <rect
     style="opacity:0.2"
     width="4"
     height="4"
     x="5"
     y="12"
     id="rect16" />
  <circle
     style="opacity:0.2"
     cx="19"
     cy="21"
     r="2"
     id="circle18" />
  <circle
     style="fill:#f44336"
     cx="19"
     cy="20"
     r="2"
     id="circle20" />
  <circle
     style="opacity:0.2"
     cx="7.5"
     cy="8.5"
     r="1.5"
     id="circle22" />
  <circle
     style="fill:#ffffff"
     cx="7.5"
     cy="7.5"
     r="1.5"
     id="circle24" />
  <circle
     style="opacity:0.2"
     cx="24.5"
     cy="8.5"
     r="1.5"
     id="circle26" />
  <circle
     style="fill:#ffffff"
     cx="24.5"
     cy="7.5"
     r="1.5"
     id="circle28" />
  <rect
     style="opacity:0.2"
     width="4"
     height="4"
     x="23"
     y="18"
     id="rect30" />
  <rect
     style="opacity:0.2"
     width="4"
     height="4"
     x="11"
     y="18"
     id="rect32" />
  <rect
     style="opacity:0.2"
     width="4"
     height="4"
     x="5"
     y="18"
     id="rect34" />
  <rect
     style="opacity:0.2"
     width="4"
     height="4"
     x="17"
     y="24"
     id="rect36" />
  <rect
     style="opacity:0.2"
     width="4"
     height="4"
     x="23"
     y="24"
     id="rect38" />
  <rect
     style="opacity:0.2"
     width="4"
     height="4"
     x="11"
     y="24"
     id="rect40" />
  <rect
     style="opacity:0.2"
     width="4"
     height="4"
     x="5"
     y="24"
     id="rect42" />
  <path
     style="fill:#ffffff;opacity:0.2"
     d="M 3.4003906 4 C 2.6247906 4 2 4.6247906 2 5.4003906 L 2 6.4003906 C 2 5.6247906 2.6247906 5 3.4003906 5 L 28.599609 5 C 29.375209 5 30 5.6247906 30 6.4003906 L 30 5.4003906 C 30 4.6247906 29.375209 4 28.599609 4 L 3.4003906 4 z"
     id="path44" />
</svg>
