<?xml version="1.0" encoding="UTF-8" standalone="no"?>
<svg
   width="32"
   height="32"
   version="1.1"
   id="svg16"
   sodipodi:docname="x-office-document.svg"
   inkscape:version="1.1.1 (3bf5ae0d25, 2021-09-20)"
   xmlns:inkscape="http://www.inkscape.org/namespaces/inkscape"
   xmlns:sodipodi="http://sodipodi.sourceforge.net/DTD/sodipodi-0.dtd"
   xmlns="http://www.w3.org/2000/svg"
   xmlns:svg="http://www.w3.org/2000/svg">
  <defs
     id="defs20">
    <clipPath
       clipPathUnits="userSpaceOnUse"
       id="clipPath4168">
      <path
         id="path4170"
         d="m 94.5,254 c -0.831,0 -1.5,0.669 -1.5,1.5 v 25 c 0,0.831 0.669,1.5 1.5,1.5 h 19 c 0.831,0 1.5,-0.669 1.5,-1.5 V 262 l -8,-8 z"
         style="fill:#e1e1e1;fill-opacity:1;stroke:none"
         inkscape:connector-curvature="0" />
    </clipPath>
  </defs>
  <sodipodi:namedview
     id="namedview18"
     pagecolor="#505050"
     bordercolor="#ffffff"
     borderopacity="1"
     inkscape:pageshadow="0"
     inkscape:pageopacity="0"
     inkscape:pagecheckerboard="1"
     showgrid="false"
     inkscape:zoom="23.03125"
     inkscape:cx="16.043419"
     inkscape:cy="15.97829"
     inkscape:current-layer="svg16" />
  <path
     sodipodi:nodetypes="sssssscccs"
     style="display:inline;fill:#2196f3;fill-opacity:1;stroke:none;enable-background:new"
     d="M 6.5,2 C 5.669,2 5,2.669 5,3.5 v 25 C 5,29.331 5.669,30 6.5,30 h 19 C 26.331,30 27,29.331 27,28.5 V 10 L 19.75,9.25 C 18.92158,9.25 19,2 19,2 Z"
     id="path4731"
     inkscape:connector-curvature="0" />
  <path
     sodipodi:nodetypes="cssccc"
     inkscape:connector-curvature="0"
     id="path4738"
     d="m 107,254 v 7.5 c 0,0.82843 0.67158,1.5 1.5,1.5 h 6.5 v -1 z"
     style="display:inline;opacity:0.1;fill:#000000;fill-opacity:1;stroke:none;enable-background:new"
     clip-path="url(#clipPath4168)"
     transform="translate(-88,-252)" />
  <path
     sodipodi:nodetypes="csscc"
     inkscape:connector-curvature="0"
     id="path4740"
     d="m 19,2 v 6.5 c 0,0.82843 0.67158,1.5 1.5,1.5 H 27 Z"
     style="display:inline;fill:#90caf9;fill-opacity:1;stroke:none;enable-background:new" />
  <path
     style="display:inline;opacity:0.2;fill:#ffffff;fill-opacity:1;stroke:none;enable-background:new"
     d="M 6.5,2 C 5.669,2 5,2.669 5,3.5 v 1 C 5,3.669 5.669,3 6.5,3 H 19 V 2 Z"
     id="path4744"
     inkscape:connector-curvature="0"
     sodipodi:nodetypes="sscsccs" />
  <path
     style="display:inline;fill:#ffffff;fill-opacity:1;stroke:none;stroke-width:0;stroke-linecap:butt;stroke-linejoin:miter;stroke-miterlimit:4;stroke-dasharray:none;stroke-dashoffset:0;stroke-opacity:1;enable-background:new"
     d="m 9,25 v -1 h 10 v 1 z m 0,-3 v -1 h 14 v 1 z m 0,-3 v -1 h 14 v 1 z m 0,-3 v -1 h 14 v 1 z"
     id="path11875-3-1-8"
     inkscape:connector-curvature="0"
     sodipodi:nodetypes="cccccccccccccccccccc" />
</svg>
