<?xml version="1.0" encoding="UTF-8" standalone="no"?>
<svg
   width="32"
   height="32"
   version="1"
   id="svg14"
   sodipodi:docname="folder-photos.svg"
   inkscape:version="1.1.1 (3bf5ae0d25, 2021-09-20)"
   xmlns:inkscape="http://www.inkscape.org/namespaces/inkscape"
   xmlns:sodipodi="http://sodipodi.sourceforge.net/DTD/sodipodi-0.dtd"
   xmlns="http://www.w3.org/2000/svg"
   xmlns:svg="http://www.w3.org/2000/svg">
  <defs
     id="defs18" />
  <sodipodi:namedview
     id="namedview16"
     pagecolor="#505050"
     bordercolor="#ffffff"
     borderopacity="1"
     inkscape:pageshadow="0"
     inkscape:pageopacity="0"
     inkscape:pagecheckerboard="1"
     showgrid="false"
     inkscape:zoom="23.03125"
     inkscape:cx="16.043419"
     inkscape:cy="15.97829"
     inkscape:current-layer="svg14" />
  <path
     sodipodi:nodetypes="csccccccssc"
     inkscape:connector-curvature="0"
     id="path4811"
     d="M 29.999717,27.000172 V 9.0017229 c 0,-1.9998277 -1.999924,-1.9998277 -1.999924,-1.9998277 L 18.002405,7.0261931 15.00252,10.025935 4.0029405,9.999637 c -1.9999206,0 -1.9999206,1.999828 -1.9999206,1.999828 l -0.00223,15.000707 c 0,0 7e-6,1.999828 1.9999235,1.999828 H 27.999796 c 1.994054,0 1.999924,-1.999828 1.999924,-1.999828 z"
     style="display:inline;opacity:0.1;fill:#000000;fill-opacity:1;stroke:none;stroke-width:0.999938;enable-background:new" />
  <path
     sodipodi:nodetypes="csccccccssc"
     inkscape:connector-curvature="0"
     id="path4809"
     d="M 2.00023,22.998837 V 5.0003877 C 2.00023,3.00056 4.0001536,3.00056 4.0001536,3.00056 L 15.00252,3 l 2.999326,2.9991816 9.995158,-9.999e-4 c 1.999923,0 1.999923,1.9998277 1.999923,1.9998277 l 0.002,15.0008276 c 0,0 -10e-6,1.999828 -1.999924,1.999828 H 3.9999236 C 2.0058698,24.998665 2,22.998837 2,22.998837 Z"
     style="display:inline;fill:#ec407a;fill-opacity:1;stroke:none;stroke-width:0.999938;enable-background:new" />
  <path
     style="display:inline;fill:#f06292;fill-opacity:1;stroke:none;stroke-width:0.999938;enable-background:new"
     d="M 29.999717,26.000258 V 8.0018091 c 0,-1.9998277 -1.999924,-1.9998277 -1.999924,-1.9998277 L 18.002405,6.0262793 15.00252,9.0260208 4.0029405,8.9997231 c -1.9999206,0 -1.9999206,1.9998279 -1.9999206,1.9998279 l -0.00223,15.000707 c 0,0 7e-6,1.999828 1.9999235,1.999828 H 27.999796 c 1.994054,0 1.999924,-1.999828 1.999924,-1.999828 z"
     id="path4807"
     inkscape:connector-curvature="0"
     sodipodi:nodetypes="csccccccssc" />
  <path
     style="display:inline;opacity:0.1;fill:#ffffff;fill-opacity:1;stroke:none;stroke-width:0.999938;enable-background:new"
     d="M 28.000076,6.0028013 18.002408,6.0262393 15.002523,9.0259808 4.0029435,9.000583 c -1.9999206,0 -1.9999236,1.999828 -1.9999236,1.999828 v 0.999914 c 0,0 3e-6,-1.999828 1.9999236,-1.999828 l 10.9995795,0.0254 2.999885,-2.9997417 9.997668,-0.023398 c 0,0 1.999924,0 1.999924,1.9998278 V 8.002669 C 30,6.0028413 28.000076,6.0028413 28.000076,6.0028413 Z"
     id="path4815"
     inkscape:connector-curvature="0" />
  <path
     inkscape:connector-curvature="0"
     id="path4900"
     d="M 20.57143,19 C 20,19 20,19.570585 20,19.570585 v 5.85883 C 20,26 20.57143,26 20.57143,26 h 6.85714 C 27.42857,26 28,26 28,25.429415 v -5.85883 C 28,19 27.42857,19 27.42857,19 Z m 2,2.756063 1.89286,2.139843 1.21428,-1.176919 L 27,24.038602 v 0.962825 h -6 v -1.426462 z"
     style="color:#000000;font-style:normal;font-variant:normal;font-weight:normal;font-stretch:normal;font-size:medium;line-height:normal;font-family:Sans;-inkscape-font-specification:Sans;text-indent:0;text-align:start;text-decoration:none;text-decoration-line:none;letter-spacing:normal;word-spacing:normal;text-transform:none;writing-mode:lr-tb;direction:ltr;baseline-shift:baseline;text-anchor:start;display:inline;overflow:visible;visibility:visible;fill:#ffffff;fill-opacity:1;fill-rule:nonzero;stroke:none;stroke-width:1.99857;marker:none;enable-background:new"
     sodipodi:nodetypes="scsccsscscccccccc" />
</svg>
