<?xml version="1.0" encoding="UTF-8" standalone="no"?>
<svg
   width="32"
   height="32"
   version="1"
   id="svg12"
   sodipodi:docname="network-workgroup.svg"
   inkscape:version="1.1.1 (3bf5ae0d25, 2021-09-20)"
   xmlns:inkscape="http://www.inkscape.org/namespaces/inkscape"
   xmlns:sodipodi="http://sodipodi.sourceforge.net/DTD/sodipodi-0.dtd"
   xmlns="http://www.w3.org/2000/svg"
   xmlns:svg="http://www.w3.org/2000/svg">
  <defs
     id="defs16">
    <clipPath
       clipPathUnits="userSpaceOnUse"
       id="clipPath4401">
      <circle
         style="opacity:1;fill:none;fill-opacity:1;stroke:#ffffff;stroke-width:2;stroke-linecap:round;stroke-linejoin:round;stroke-miterlimit:4;stroke-dasharray:none;stroke-opacity:1"
         id="circle4403"
         cx="160"
         cy="184"
         r="15" />
    </clipPath>
  </defs>
  <sodipodi:namedview
     id="namedview14"
     pagecolor="#505050"
     bordercolor="#ffffff"
     borderopacity="1"
     inkscape:pageshadow="0"
     inkscape:pageopacity="0"
     inkscape:pagecheckerboard="1"
     showgrid="false"
     inkscape:zoom="23.03125"
     inkscape:cx="16.043419"
     inkscape:cy="15.97829"
     inkscape:current-layer="g958" />
  <g
     id="g958"
     transform="translate(-10.268657,-15.60923)">
    <rect
       transform="matrix(0,-1,-1,0,0,0)"
       style="display:inline;opacity:0.2;fill:#000000;fill-opacity:1;stroke:none;enable-background:new"
       id="rect4595"
       width="29"
       height="29"
       x="-46.60923"
       y="-40.768654"
       rx="14.5"
       ry="14.5" />
    <rect
       ry="14.5"
       rx="14.5"
       y="-40.768654"
       x="-45.60923"
       height="29"
       width="29"
       id="rect4255"
       style="display:inline;fill:#4a148c;fill-opacity:1;stroke:none;enable-background:new"
       transform="matrix(0,-1,-1,0,0,0)" />
    <g
       id="g4583"
       transform="matrix(1.5378714,0,0,1.5378714,-221.32892,-379.00215)"
       style="display:inline;enable-background:new">
      <circle
         r="6.5024042"
         cy="266.99982"
         cx="161.00018"
         id="circle4585"
         style="opacity:1;fill:none;fill-opacity:1;stroke:#ffffff;stroke-width:0.650249;stroke-linecap:round;stroke-linejoin:round;stroke-miterlimit:4;stroke-dasharray:none;stroke-opacity:1" />
      <path
         inkscape:connector-curvature="0"
         id="path4587"
         d="m 154.49778,267.00324 h 12.99796"
         style="fill:none;fill-rule:evenodd;stroke:#ffffff;stroke-width:0.650249;stroke-linecap:butt;stroke-linejoin:miter;stroke-miterlimit:4;stroke-dasharray:none;stroke-opacity:1"
         sodipodi:nodetypes="cc" />
      <path
         clip-path="url(#clipPath4401)"
         id="path4589"
         transform="matrix(0.43766185,0,0,0.43766185,90.936478,186.57037)"
         d="m 160,163.84486 c -8.28427,0 -15,3.13401 -15,7 0,3.86599 6.71573,7 15,7 8.28427,0 15,-3.13401 15,-7 0,-3.86599 -6.71573,-7 -15,-7 z m 0,25.85178 c -8.28427,0 -15,3.134 -15,7 0,3.86599 6.71573,7 15,7 8.28427,0 15,-3.13401 15,-7 0,-3.866 -6.71573,-7 -15,-7 z"
         style="opacity:1;fill:none;fill-opacity:1;stroke:#ffffff;stroke-width:1.48573;stroke-linecap:round;stroke-linejoin:round;stroke-miterlimit:4;stroke-dasharray:none;stroke-opacity:1"
         inkscape:connector-curvature="0"
         sodipodi:nodetypes="ssssssssss" />
      <path
         style="fill:none;fill-rule:evenodd;stroke:#ffffff;stroke-width:0.650249;stroke-linecap:butt;stroke-linejoin:miter;stroke-miterlimit:4;stroke-dasharray:none;stroke-opacity:1"
         d="m 160.99676,260.50426 v 12.99796"
         id="path4591"
         inkscape:connector-curvature="0"
         sodipodi:nodetypes="cc" />
      <ellipse
         ry="6.4989824"
         rx="3.2512472"
         cy="267.00323"
         cx="161.00017"
         id="ellipse4593"
         style="opacity:1;fill:none;fill-opacity:1;stroke:#ffffff;stroke-width:0.650249;stroke-linecap:round;stroke-linejoin:round;stroke-miterlimit:4;stroke-dasharray:none;stroke-opacity:1" />
    </g>
    <path
       inkscape:connector-curvature="0"
       id="rect4621"
       d="m 26.268652,16.60923 c -8.033,0 -14.5,6.467 -14.5,14.5 0,0.1689 0.01972,0.33253 0.02539,0.5 0.264109,-7.79751 6.61051,-14 14.47461,-14 7.8641,0 14.2105,6.20249 14.47461,14 0.006,-0.16747 0.0254,-0.3311 0.0254,-0.5 0,-8.033 -6.467,-14.5 -14.5,-14.5 z"
       style="display:inline;opacity:0.2;fill:#ffffff;fill-opacity:1;stroke:none;enable-background:new" />
  </g>
</svg>
