<?xml version="1.0" encoding="UTF-8" standalone="no"?>
<svg
   width="32"
   height="32"
   version="1"
   id="svg16"
   sodipodi:docname="trashcan_full.svg"
   inkscape:version="1.1.1 (3bf5ae0d25, 2021-09-20)"
   xmlns:inkscape="http://www.inkscape.org/namespaces/inkscape"
   xmlns:sodipodi="http://sodipodi.sourceforge.net/DTD/sodipodi-0.dtd"
   xmlns="http://www.w3.org/2000/svg"
   xmlns:svg="http://www.w3.org/2000/svg">
  <defs
     id="defs20" />
  <sodipodi:namedview
     id="namedview18"
     pagecolor="#505050"
     bordercolor="#ffffff"
     borderopacity="1"
     inkscape:pageshadow="0"
     inkscape:pageopacity="0"
     inkscape:pagecheckerboard="1"
     showgrid="false"
     inkscape:zoom="23.03125"
     inkscape:cx="16"
     inkscape:cy="15.97829"
     inkscape:current-layer="svg16" />
  <g
     id="g954"
     transform="translate(0,0.02171)">
    <path
       sodipodi:nodetypes="cccscccccccccscccc"
       inkscape:connector-curvature="0"
       id="path4294"
       d="m 11.4998,2.47829 v 0.99414 h -6 c 0,0 -2,0.005 -2,2.00586 v 2 h 1 v 21 c 1e-4,1.04716 0.95284,1.9999 2,2 h 17 2 c 1.04716,-10e-5 1.9999,-0.95284 2,-2 V 7.47243 h 1 V 5.47829 c 0,-2 -2,-2.00586 -2,-2.00586 h -6 V 2.47829 Z"
       style="color:#000000;font-style:normal;font-variant:normal;font-weight:normal;font-stretch:normal;font-size:medium;line-height:normal;font-family:Sans;-inkscape-font-specification:Sans;text-indent:0;text-align:start;text-decoration:none;text-decoration-line:none;letter-spacing:normal;word-spacing:normal;text-transform:none;writing-mode:lr-tb;direction:ltr;baseline-shift:baseline;text-anchor:start;display:inline;overflow:visible;visibility:visible;opacity:0.2;fill:#000000;fill-opacity:1;stroke:none;stroke-width:2;marker:none;enable-background:accumulate" />
    <path
       sodipodi:nodetypes="cccccccc"
       inkscape:connector-curvature="0"
       id="path4282"
       d="m 4.4998,5.47829 v 22 c 1e-4,1.04716 0.95284,1.9999 2,2 h 17 2 c 1.04716,-10e-5 1.9999,-0.95284 2,-2 v -22 z"
       style="color:#000000;font-style:normal;font-variant:normal;font-weight:normal;font-stretch:normal;font-size:medium;line-height:normal;font-family:Sans;-inkscape-font-specification:Sans;text-indent:0;text-align:start;text-decoration:none;text-decoration-line:none;letter-spacing:normal;word-spacing:normal;text-transform:none;writing-mode:lr-tb;direction:ltr;baseline-shift:baseline;text-anchor:start;display:inline;overflow:visible;visibility:visible;fill:#607d8b;fill-opacity:1;stroke:none;stroke-width:2;marker:none;enable-background:accumulate" />
    <rect
       ry="1.5"
       y="4.4782901"
       x="8.4997997"
       height="21"
       width="3"
       id="rect4288"
       style="display:inline;fill:#546e7a;fill-opacity:1;stroke:none;stroke-width:8;stroke-linecap:round;stroke-linejoin:miter;stroke-miterlimit:4;stroke-dasharray:none;stroke-opacity:1;enable-background:new" />
    <rect
       style="display:inline;fill:#546e7a;fill-opacity:1;stroke:none;stroke-width:8;stroke-linecap:round;stroke-linejoin:miter;stroke-miterlimit:4;stroke-dasharray:none;stroke-opacity:1;enable-background:new"
       id="rect4290"
       width="3"
       height="21"
       x="14.4998"
       y="4.4782901"
       ry="1.5" />
    <rect
       ry="1.5"
       y="4.4782901"
       x="20.4998"
       height="21"
       id="rect4292"
       style="display:inline;fill:#546e7a;fill-opacity:1;stroke:none;stroke-width:8;stroke-linecap:round;stroke-linejoin:miter;stroke-miterlimit:4;stroke-dasharray:none;stroke-opacity:1;enable-background:new"
       width="3" />
    <path
       style="color:#000000;font-style:normal;font-variant:normal;font-weight:normal;font-stretch:normal;font-size:medium;line-height:normal;font-family:Sans;-inkscape-font-specification:Sans;text-indent:0;text-align:start;text-decoration:none;text-decoration-line:none;letter-spacing:normal;word-spacing:normal;text-transform:none;writing-mode:lr-tb;direction:ltr;baseline-shift:baseline;text-anchor:start;display:inline;overflow:visible;visibility:visible;fill:#78909c;fill-opacity:1;stroke:none;stroke-width:2;marker:none;enable-background:accumulate"
       d="m 3.4998,4.47829 v 2 l 25.0004,-0.006 -4e-4,-1.994 c 0,-2 -1.9996,-2.00672 -1.9996,-2.00672 h -6 l -4e-4,-0.99328 h -9 l 4e-4,0.99328 h -6 c 0,0 -2.0004,0.006 -2.0004,2.00672 z"
       id="path4284"
       inkscape:connector-curvature="0"
       sodipodi:nodetypes="ccccccccccc" />
    <path
       sodipodi:nodetypes="cccsccccccccscccc"
       inkscape:connector-curvature="0"
       id="path4299"
       d="m 11.4998,1.47829 v 0.99414 h -6 c 0,0 -2,0.005 -2,2.00586 v 1 c 0,-2.00072 2,-2.00586 2,-2.00586 h 6 V 2.47829 h 9 v 0.99414 h 6 c 0,0 2,0.006 2,2.00586 v -1 c 0,-2 -2,-2.00586 -2,-2.00586 h -6 V 1.47829 Z"
       style="color:#000000;font-style:normal;font-variant:normal;font-weight:normal;font-stretch:normal;font-size:medium;line-height:normal;font-family:Sans;-inkscape-font-specification:Sans;text-indent:0;text-align:start;text-decoration:none;text-decoration-line:none;letter-spacing:normal;word-spacing:normal;text-transform:none;writing-mode:lr-tb;direction:ltr;baseline-shift:baseline;text-anchor:start;display:inline;overflow:visible;visibility:visible;opacity:0.2;fill:#ffffff;fill-opacity:1;stroke:none;stroke-width:2;marker:none;enable-background:accumulate" />
    <path
       inkscape:connector-curvature="0"
       id="rect4304"
       d="m 4.4998,6.47829 h 24 v 1 h -24 z"
       style="display:inline;opacity:0.05;fill:#000000;fill-opacity:1;stroke:none;stroke-width:8;stroke-linecap:round;stroke-linejoin:miter;stroke-miterlimit:4;stroke-dasharray:none;stroke-opacity:1;enable-background:new" />
  </g>
</svg>
