<?xml version="1.0" encoding="UTF-8" standalone="no"?>
<svg
   width="32"
   height="32"
   version="1.1"
   id="svg6"
   sodipodi:docname="emblem-web.svg"
   inkscape:version="1.1.1 (3bf5ae0d25, 2021-09-20)"
   xmlns:inkscape="http://www.inkscape.org/namespaces/inkscape"
   xmlns:sodipodi="http://sodipodi.sourceforge.net/DTD/sodipodi-0.dtd"
   xmlns="http://www.w3.org/2000/svg"
   xmlns:svg="http://www.w3.org/2000/svg">
  <defs
     id="defs10" />
  <sodipodi:namedview
     id="namedview8"
     pagecolor="#505050"
     bordercolor="#ffffff"
     borderopacity="1"
     inkscape:pageshadow="0"
     inkscape:pageopacity="0"
     inkscape:pagecheckerboard="1"
     showgrid="false"
     inkscape:zoom="23.03125"
     inkscape:cx="16"
     inkscape:cy="16"
     inkscape:current-layer="svg6" />
  <circle
     style="fill:#03a9f4"
     cx="16"
     cy="16"
     r="14"
     id="circle2" />
  <path
     style="fill:#ffffff;fill-rule:evenodd;stroke-width:0.998928"
     d="m 16.006371,6.0000228 c -4.218068,-0.00889 -7.8180518,2.6076019 -9.2652924,6.2958392 -0.077047,0.187595 -0.1446622,0.379763 -0.2102453,0.572928 -0.012845,0.03999 -0.02769,0.07882 -0.04011,0.119022 -0.3143979,0.965766 -0.4929541,1.991818 -0.4907038,3.062537 0.01151,5.476455 4.4930065,9.93804 9.9937175,9.949628 4.178284,0.0088 7.753162,-2.555668 9.228378,-6.187917 3.87e-4,-9.31e-4 7.1e-4,-0.0018 0.0014,-0.0028 0.10601,-0.250133 0.195358,-0.507939 0.280777,-0.768051 0.319711,-0.973596 0.497959,-2.011293 0.495688,-3.091512 -0.0115,-5.475239 -4.49415,-9.9380423 -9.993718,-9.9496279 z m -0.714528,1.5482805 0.007,3.3418727 c -0.952284,-0.03544 -1.863066,-0.137818 -2.704899,-0.29792 0.125773,-0.294628 0.25769,-0.578361 0.401659,-0.8370116 0.663693,-1.1924582 1.466639,-1.9354824 2.296279,-2.2069483 z m 1.424615,0.058402 c 0.07488,0.012499 0.151036,0.02132 0.22543,0.035095 0.750831,0.3284185 1.473249,1.0391759 2.081388,2.1261003 0.142377,0.2544844 0.273183,0.5330474 0.398189,0.8221244 -0.837373,0.160715 -1.746935,0.264254 -2.698069,0.300388 l -0.0069,-3.28373 z M 12.253829,8.2814672 C 12.075672,8.5294569 11.903915,8.7861538 11.749113,9.0642628 11.543035,9.4344922 11.358915,9.8356545 11.18961,10.254155 10.772383,10.13152 10.38635,9.9928777 10.025751,9.8431464 10.67458,9.2090131 11.42695,8.6830275 12.253816,8.2814831 Z m 7.659729,0.229424 c 0.389329,0.1561504 0.687859,0.3016916 0.987222,0.4480294 0.380267,0.2645691 0.738527,0.5579846 1.070199,0.8788982 C 21.615388,9.9877189 21.232875,10.126648 20.819994,10.249493 20.65164,9.8397099 20.470084,9.4458273 20.266663,9.0821847 20.15559,8.8836432 20.035988,8.69537 19.913515,8.5108405 Z m 2.990314,2.3995138 c 0.911446,1.233706 1.497843,2.71637 1.63388,4.331373 l -2.682069,-0.0057 c -0.05508,-1.296902 -0.253069,-2.52389 -0.571048,-3.639489 0.568478,-0.172396 1.102288,-0.370457 1.590167,-0.596329 0.01318,-0.03088 0.02058,-0.06031 0.02902,-0.08996 z m -13.8440808,0.06501 c 0.5117888,0.237938 1.0756428,0.444265 1.6748028,0.623986 -0.309192,1.107705 -0.499582,2.325089 -0.548848,3.6122 l -2.6722845,-0.0056 c 0.1260143,-1.573306 0.6795434,-3.019427 1.5463873,-4.230529 z m 10.8426958,0.968771 c 0.285523,0.993744 0.471452,2.105922 0.527182,3.288968 l -3.69757,-0.0078 -0.0061,-2.916727 c 1.119128,-0.03852 2.188221,-0.162112 3.176504,-0.364472 z m -7.783524,0.0044 c 0.991489,0.201175 2.062739,0.322239 3.182241,0.359861 l 0.0061,2.913943 -3.696142,-0.0078 c 0.05039,-1.174754 0.229783,-2.278661 0.507848,-3.266002 z m -4.6030782,4.67559 2.6722842,0.0056 c 0.05621,1.322689 0.260143,2.573905 0.589275,3.707384 -0.584915,0.172061 -1.1337867,0.37134 -1.6360911,0.599003 -0.9051505,-1.229401 -1.4885344,-2.704988 -1.6255534,-4.31199 z m 4.0982132,0.0086 3.69614,0.0078 0.0063,3.013656 c -1.109855,0.03252 -2.172109,0.146952 -3.155697,0.340973 -0.297326,-1.012126 -0.489731,-2.150532 -0.546814,-3.362438 z m 5.120638,0.01079 3.697571,0.0078 c -0.05236,1.219748 -0.241779,2.364991 -0.538207,3.380938 -0.982137,-0.203476 -2.043111,-0.329482 -3.153052,-0.372271 l -0.0064,-3.016443 z m 5.123427,0.01079 2.682069,0.0057 c -0.131754,1.625293 -0.721094,3.114052 -1.639282,4.348046 -0.0028,-0.0044 -0.0029,-0.0096 -0.0058,-0.01384 -0.495874,-0.231199 -1.039338,-0.433534 -1.617778,-0.610018 0.328549,-1.138523 0.529617,-2.397813 0.580602,-3.729849 z m -6.538611,4.418083 0.0068,3.240801 c -0.83036,-0.275378 -1.636987,-1.018953 -2.30557,-2.213858 -0.130224,-0.232761 -0.250262,-0.48537 -0.36604,-0.747272 0.830462,-0.152507 1.727255,-0.248654 2.664756,-0.279684 z m 1.424504,0.0058 c 0.937507,0.03923 1.833793,0.143091 2.66184,0.303372 -0.112826,0.256045 -0.230522,0.502604 -0.357363,0.730537 -0.663776,1.192603 -1.467647,1.932551 -2.297644,2.204159 l -0.0068,-3.238017 z m -5.493564,0.601955 c 0.161419,0.386504 0.33389,0.760133 0.52677,1.104896 0.151647,0.271055 0.31775,0.524126 0.491281,0.766892 -0.7871,-0.386929 -1.505146,-0.887525 -2.132896,-1.484993 0.348555,-0.139638 0.715424,-0.272237 1.114824,-0.386825 z m 9.55719,0.04507 c 0.395651,0.118015 0.759814,0.252979 1.103969,0.395653 -0.621103,0.584906 -1.330021,1.074484 -2.107222,1.45249 0.173202,-0.244499 0.339317,-0.498156 0.490825,-0.770396 0.187394,-0.336568 0.355369,-0.70103 0.512438,-1.07778 z"
     id="path4" />
</svg>
