<?xml version="1.0" encoding="UTF-8" standalone="no"?>
<svg
   width="32"
   height="32"
   version="1.1"
   id="svg6"
   sodipodi:docname="emblem-unlocked.svg"
   inkscape:version="1.1.1 (3bf5ae0d25, 2021-09-20)"
   xmlns:inkscape="http://www.inkscape.org/namespaces/inkscape"
   xmlns:sodipodi="http://sodipodi.sourceforge.net/DTD/sodipodi-0.dtd"
   xmlns="http://www.w3.org/2000/svg"
   xmlns:svg="http://www.w3.org/2000/svg">
  <defs
     id="defs10" />
  <sodipodi:namedview
     id="namedview8"
     pagecolor="#505050"
     bordercolor="#ffffff"
     borderopacity="1"
     inkscape:pageshadow="0"
     inkscape:pageopacity="0"
     inkscape:pagecheckerboard="1"
     showgrid="false"
     inkscape:zoom="23.03125"
     inkscape:cx="16"
     inkscape:cy="16"
     inkscape:current-layer="svg6" />
  <circle
     style="fill:#ffb74d"
     cx="16"
     cy="16"
     r="14"
     id="circle2" />
  <path
     style="fill:#ffffff"
     d="m 16,7 c -2.604152,0 -4.810787,1.1590918 -4.992188,4 h 2.058594 C 13.367568,9.402006 14.758729,9 16,9 c 1.4,0 3,0.480096 3,2.666016 V 14 H 16 13 11 10.166016 C 9.5196822,14 9,14.466466 9,15.099609 v 6.757813 C 9,22.490565 9.5196822,23 10.166016,23 H 21.833984 C 22.480317,23 23,22.490565 23,21.857422 V 15.099609 C 23,14.466466 22.489592,14 21.833984,14 H 21 V 11.666016 C 21,8.3326897 18.8,7 16,7 Z"
     id="path4" />
</svg>
