<?xml version="1.0" encoding="UTF-8" standalone="no"?>
<svg
   width="32"
   height="32"
   version="1.1"
   id="svg12"
   sodipodi:docname="emblem-encrypted-locked.svg"
   inkscape:version="1.1.1 (3bf5ae0d25, 2021-09-20)"
   xmlns:inkscape="http://www.inkscape.org/namespaces/inkscape"
   xmlns:sodipodi="http://sodipodi.sourceforge.net/DTD/sodipodi-0.dtd"
   xmlns="http://www.w3.org/2000/svg"
   xmlns:svg="http://www.w3.org/2000/svg">
  <defs
     id="defs16" />
  <sodipodi:namedview
     id="namedview14"
     pagecolor="#505050"
     bordercolor="#ffffff"
     borderopacity="1"
     inkscape:pageshadow="0"
     inkscape:pageopacity="0"
     inkscape:pagecheckerboard="1"
     showgrid="false"
     inkscape:zoom="23.03125"
     inkscape:cx="16.043419"
     inkscape:cy="16"
     inkscape:current-layer="g10" />
  <g
     id="g10">
    <circle
       style="fill:#607d8b"
       cx="16"
       cy="16"
       r="14"
       id="circle2" />
    <path
       id="path4"
       style="fill:#ffffff"
       d="M 12 11 A 5 5 0 0 0 7 16 A 5 5 0 0 0 12 21 A 5 5 0 0 0 16.886719 17 L 22 17 L 22 19 L 24 19 L 24 17 L 26 17 L 26 15 L 16.898438 15 A 5 5 0 0 0 12 11 z M 12 14 A 2 2 0 0 1 14 16 A 2 2 0 0 1 12 18 A 2 2 0 0 1 10 16 A 2 2 0 0 1 12 14 z " />
  </g>
</svg>
