<?xml version="1.0" encoding="UTF-8" standalone="no"?>
<svg
   width="32"
   height="32"
   version="1.1"
   id="svg6"
   sodipodi:docname="emblem-system.svg"
   inkscape:version="1.1.1 (3bf5ae0d25, 2021-09-20)"
   xmlns:inkscape="http://www.inkscape.org/namespaces/inkscape"
   xmlns:sodipodi="http://sodipodi.sourceforge.net/DTD/sodipodi-0.dtd"
   xmlns="http://www.w3.org/2000/svg"
   xmlns:svg="http://www.w3.org/2000/svg">
  <defs
     id="defs10" />
  <sodipodi:namedview
     id="namedview8"
     pagecolor="#505050"
     bordercolor="#ffffff"
     borderopacity="1"
     inkscape:pageshadow="0"
     inkscape:pageopacity="0"
     inkscape:pagecheckerboard="1"
     showgrid="false"
     inkscape:zoom="23.03125"
     inkscape:cx="16"
     inkscape:cy="16"
     inkscape:current-layer="svg6" />
  <circle
     style="fill:#607d8b"
     cx="16"
     cy="16"
     r="14"
     id="circle2" />
  <path
     style="fill:#ffffff"
     d="M 14 7 L 14 8.2597656 A 8 8 0 0 0 11.943359 9.1152344 L 11.050781 8.2226562 L 8.2226562 11.050781 L 9.1152344 11.943359 A 8 8 0 0 0 8.265625 14 L 7 14 L 7 18 L 8.2597656 18 A 8 8 0 0 0 9.1152344 20.056641 L 8.2226562 20.949219 L 11.050781 23.777344 L 11.943359 22.884766 A 8 8 0 0 0 14 23.734375 L 14 25 L 18 25 L 18 23.740234 A 8 8 0 0 0 20.056641 22.884766 L 20.949219 23.777344 L 23.777344 20.949219 L 22.884766 20.056641 A 8 8 0 0 0 23.734375 18 L 25 18 L 25 14 L 23.740234 14 A 8 8 0 0 0 22.884766 11.943359 L 23.777344 11.050781 L 20.949219 8.2226562 L 20.056641 9.1152344 A 8 8 0 0 0 18 8.265625 L 18 7 L 14 7 z M 16 12 A 4 4 0 0 1 20 16 A 4 4 0 0 1 16 20 A 4 4 0 0 1 12 16 A 4 4 0 0 1 16 12 z"
     id="path4" />
</svg>
