<?xml version="1.0" encoding="UTF-8" standalone="no"?>
<svg
   width="32"
   height="32"
   version="1.1"
   id="svg12"
   sodipodi:docname="emblem-encrypted-unlocked.svg"
   inkscape:version="1.1.1 (3bf5ae0d25, 2021-09-20)"
   xmlns:inkscape="http://www.inkscape.org/namespaces/inkscape"
   xmlns:sodipodi="http://sodipodi.sourceforge.net/DTD/sodipodi-0.dtd"
   xmlns="http://www.w3.org/2000/svg"
   xmlns:svg="http://www.w3.org/2000/svg">
  <defs
     id="defs16" />
  <sodipodi:namedview
     id="namedview14"
     pagecolor="#505050"
     bordercolor="#ffffff"
     borderopacity="1"
     inkscape:pageshadow="0"
     inkscape:pageopacity="0"
     inkscape:pagecheckerboard="1"
     showgrid="false"
     inkscape:zoom="23.03125"
     inkscape:cx="16.043419"
     inkscape:cy="16"
     inkscape:current-layer="g10" />
  <g
     transform="matrix(0,-1,1,0,0,32)"
     id="g10">
    <circle
       style="fill:#607d8b"
       cx="16"
       cy="16"
       r="14"
       id="circle2" />
    <path
       id="path4"
       style="fill:#ffffff"
       d="M 15 6 L 15 15.113281 A 5 5 0 0 0 11 20 A 5 5 0 0 0 16 25 A 5 5 0 0 0 21 20 A 5 5 0 0 0 17 15.101562 L 17 10 L 19 10 L 19 8 L 17 8 L 17 6 L 15 6 z M 16 18 A 2 2 0 0 1 18 20 A 2 2 0 0 1 16 22 A 2 2 0 0 1 14 20 A 2 2 0 0 1 16 18 z "
       transform="rotate(90,16,16)" />
  </g>
</svg>
