<?xml version="1.0" encoding="UTF-8" standalone="no"?>
<svg
   width="32"
   height="32"
   version="1.1"
   id="svg6"
   sodipodi:docname="emblem-photos.svg"
   inkscape:version="1.1.1 (3bf5ae0d25, 2021-09-20)"
   xmlns:inkscape="http://www.inkscape.org/namespaces/inkscape"
   xmlns:sodipodi="http://sodipodi.sourceforge.net/DTD/sodipodi-0.dtd"
   xmlns="http://www.w3.org/2000/svg"
   xmlns:svg="http://www.w3.org/2000/svg">
  <defs
     id="defs10" />
  <sodipodi:namedview
     id="namedview8"
     pagecolor="#505050"
     bordercolor="#ffffff"
     borderopacity="1"
     inkscape:pageshadow="0"
     inkscape:pageopacity="0"
     inkscape:pagecheckerboard="1"
     showgrid="false"
     inkscape:zoom="23.03125"
     inkscape:cx="16"
     inkscape:cy="16"
     inkscape:current-layer="svg6" />
  <circle
     style="fill:#e91e63"
     cx="16"
     cy="16"
     r="14"
     id="circle2" />
  <path
     style="fill:#ffffff"
     d="m 12,9 -1,2 -1,0 C 8.372112,10.98164 8,11.700781 8,12.4 l 0,9.199609 C 8,22.999609 8.7258503,23 10.285156,23 l 11.429688,0 C 23.505007,23.0041 24,22.999609 24,21.599609 L 24,12.4 C 24,11.599219 23.516812,11 22,11 l -1,0 -1,-2 z m 4,3 c 2.209067,0 4,1.790934 4,4 0,2.209067 -1.790933,4 -4,4 -2.209068,0 -4,-1.790933 -4,-4 0,-2.209066 1.790932,-4 4,-4 z"
     id="path4" />
</svg>
