<?xml version="1.0" encoding="UTF-8" standalone="no"?>
<svg
   width="32"
   height="32"
   version="1.1"
   id="svg6"
   sodipodi:docname="emblem-locked.svg"
   inkscape:version="1.1.1 (3bf5ae0d25, 2021-09-20)"
   xmlns:inkscape="http://www.inkscape.org/namespaces/inkscape"
   xmlns:sodipodi="http://sodipodi.sourceforge.net/DTD/sodipodi-0.dtd"
   xmlns="http://www.w3.org/2000/svg"
   xmlns:svg="http://www.w3.org/2000/svg">
  <defs
     id="defs10" />
  <sodipodi:namedview
     id="namedview8"
     pagecolor="#505050"
     bordercolor="#ffffff"
     borderopacity="1"
     inkscape:pageshadow="0"
     inkscape:pageopacity="0"
     inkscape:pagecheckerboard="1"
     showgrid="false"
     inkscape:zoom="23.03125"
     inkscape:cx="16"
     inkscape:cy="15.97829"
     inkscape:current-layer="svg6" />
  <circle
     style="fill:#ff9800"
     cx="16"
     cy="16"
     r="14"
     id="circle2" />
  <path
     style="fill:#ffffff"
     d="m 15.999999,7.000001 c -2.800001,0 -5.142726,1.3363885 -4.999996,4.666663 v 2.333337 h -0.833338 c -0.6463334,0 -1.1666667,0.466857 -1.1666667,1.1 v 6.757142 C 8.9999983,22.490286 9.5203316,23 10.166665,23 h 11.666667 c 0.646333,0 1.166667,-0.509714 1.166667,-1.142857 v -6.757142 c 0,-0.633143 -0.511059,-1.1 -1.166667,-1.1 h -0.833338 v -2.333337 c 0,-3.3333259 -2.199995,-4.666663 -4.999995,-4.666663 z m 0,2 c 1.4,0 3.000001,0.480743 3.000001,2.666663 v 2.333337 h -6.000003 v -2.333337 c 0,-2.164286 1.600001,-2.666663 3.000002,-2.666663 z"
     id="path4" />
</svg>
