<?xml version="1.0" encoding="UTF-8" standalone="no"?>
<svg
   width="32"
   height="32"
   version="1"
   id="svg14"
   sodipodi:docname="changes-prevent.svg"
   inkscape:version="1.1.1 (3bf5ae0d25, 2021-09-20)"
   xmlns:inkscape="http://www.inkscape.org/namespaces/inkscape"
   xmlns:sodipodi="http://sodipodi.sourceforge.net/DTD/sodipodi-0.dtd"
   xmlns="http://www.w3.org/2000/svg"
   xmlns:svg="http://www.w3.org/2000/svg">
  <defs
     id="defs18" />
  <sodipodi:namedview
     id="namedview16"
     pagecolor="#505050"
     bordercolor="#ffffff"
     borderopacity="1"
     inkscape:pageshadow="0"
     inkscape:pageopacity="0"
     inkscape:pagecheckerboard="1"
     showgrid="false"
     inkscape:zoom="23.03125"
     inkscape:cx="16"
     inkscape:cy="15.97829"
     inkscape:current-layer="svg14" />
  <path
     style="fill:#eceff1"
     d="M 16,2 C 11.568,2 8,5.568 8,10 V 13 H 11 V 10 C 11,7.23 13.23,5 16,5 18.77,5 21,7.23 21,10 V 13 H 24 V 10 C 24,5.568 20.432,2 16,2 Z"
     id="path2" />
  <rect
     style="fill:#f5a816"
     width="22"
     height="17"
     x="5"
     y="13"
     rx="1.4"
     ry="1.4"
     id="rect4" />
  <path
     style="opacity:0.2;fill:#ffffff"
     d="M 16,2 C 11.568,2 8,5.568 8,10 V 11 C 8,6.568 11.568,3 16,3 20.432,3 24,6.568 24,11 V 10 C 24,5.568 20.432,2 16,2 Z"
     id="path6" />
  <path
     style="opacity:0.2;fill:#ffffff"
     d="M 6.4004,13 C 5.6248,13 5,13.625 5,14.4 V 15.4 C 5,14.625 5.6248,14 6.4004,14 H 25.6 C 26.375,14 27,14.625 27,15.4 V 14.4 C 27,13.625 26.375,13 25.6,13 Z"
     id="path8" />
  <rect
     style="fill:#f9ce1d"
     width="22"
     height="10"
     x="5"
     y="16"
     rx="0"
     ry="0"
     id="rect10" />
  <path
     style="opacity:0.2"
     d="M 16,5 C 13.23,5 11,7.23 11,10 V 11 C 11,8.23 13.23,6 16,6 18.77,6 21,8.23 21,11 V 10 C 21,7.23 18.77,5 16,5 Z M 5,28.6 V 29.6 C 5,30.375 5.6248,31 6.4004,31 H 25.6 C 26.375,31 27,30.375 27,29.6 V 28.6 C 27,29.375 26.375,30 25.6,30 H 6.4004 C 5.6252,30 5.0004,29.375 5.0004,28.6 Z"
     id="path12" />
</svg>
