<?xml version="1.0" encoding="UTF-8" standalone="no"?>
<svg
   width="32"
   height="32"
   version="1"
   id="svg12"
   sodipodi:docname="dialog-warning.svg"
   inkscape:version="1.1.1 (3bf5ae0d25, 2021-09-20)"
   xmlns:inkscape="http://www.inkscape.org/namespaces/inkscape"
   xmlns:sodipodi="http://sodipodi.sourceforge.net/DTD/sodipodi-0.dtd"
   xmlns="http://www.w3.org/2000/svg"
   xmlns:svg="http://www.w3.org/2000/svg">
  <defs
     id="defs16" />
  <sodipodi:namedview
     id="namedview14"
     pagecolor="#505050"
     bordercolor="#ffffff"
     borderopacity="1"
     inkscape:pageshadow="0"
     inkscape:pageopacity="0"
     inkscape:pagecheckerboard="1"
     showgrid="false"
     inkscape:zoom="23.03125"
     inkscape:cx="16"
     inkscape:cy="15.97829"
     inkscape:current-layer="svg12" />
  <path
     sodipodi:nodetypes="cccccccc"
     inkscape:connector-curvature="0"
     id="path4436"
     d="m 15.9375,2.997726 c -0.51856,0.0216 -0.98911,0.30969 -1.24414,0.76172 L 1.193359,27.769206 c -0.560917,0.99939 0.160599,2.2332 1.306641,2.23438 h 27 c 1.14604,-10e-4 1.86756,-1.23499 1.30664,-2.23438 l -13.5,-24.00976 c -0.277,-0.49099 -0.80589,-0.78524 -1.36914,-0.76172 z"
     style="color:#000000;font-style:normal;font-variant:normal;font-weight:normal;font-stretch:normal;font-size:medium;line-height:normal;font-family:sans-serif;text-indent:0;text-align:start;text-decoration:none;text-decoration-line:none;text-decoration-style:solid;text-decoration-color:#000000;letter-spacing:normal;word-spacing:normal;text-transform:none;writing-mode:lr-tb;direction:ltr;baseline-shift:baseline;text-anchor:start;white-space:normal;clip-rule:nonzero;display:inline;overflow:visible;visibility:visible;opacity:0.2;isolation:auto;mix-blend-mode:normal;color-interpolation:sRGB;color-interpolation-filters:linearRGB;solid-color:#000000;solid-opacity:1;fill:#000000;fill-opacity:1;fill-rule:evenodd;stroke:none;stroke-width:3;stroke-linecap:butt;stroke-linejoin:round;stroke-miterlimit:4;stroke-dasharray:none;stroke-dashoffset:0;stroke-opacity:1;color-rendering:auto;image-rendering:auto;shape-rendering:auto;text-rendering:auto;enable-background:accumulate" />
  <path
     style="color:#000000;font-style:normal;font-variant:normal;font-weight:normal;font-stretch:normal;font-size:medium;line-height:normal;font-family:sans-serif;text-indent:0;text-align:start;text-decoration:none;text-decoration-line:none;text-decoration-style:solid;text-decoration-color:#000000;letter-spacing:normal;word-spacing:normal;text-transform:none;writing-mode:lr-tb;direction:ltr;baseline-shift:baseline;text-anchor:start;white-space:normal;clip-rule:nonzero;display:inline;overflow:visible;visibility:visible;isolation:auto;mix-blend-mode:normal;color-interpolation:sRGB;color-interpolation-filters:linearRGB;solid-color:#000000;solid-opacity:1;fill:#f9ce1d;fill-opacity:1;fill-rule:evenodd;stroke:none;stroke-width:3;stroke-linecap:butt;stroke-linejoin:round;stroke-miterlimit:4;stroke-dasharray:none;stroke-dashoffset:0;stroke-opacity:1;color-rendering:auto;image-rendering:auto;shape-rendering:auto;text-rendering:auto;enable-background:accumulate"
     d="m 15.9375,1.997726 c -0.51856,0.0216 -0.98911,0.30969 -1.24414,0.76172 L 1.193359,26.769206 c -0.560917,0.99939 0.160599,2.2332 1.306641,2.23438 h 27 c 1.14604,-10e-4 1.86756,-1.23499 1.30664,-2.23438 l -13.5,-24.00976 c -0.277,-0.49099 -0.80589,-0.78524 -1.36914,-0.76172 z"
     id="path4397"
     inkscape:connector-curvature="0"
     sodipodi:nodetypes="cccccccc" />
  <path
     inkscape:connector-curvature="0"
     d="m 15,10.003576 v 11.00001 l 2,1e-5 v -11.00001 z m 0,13.00001 v 1.99999 l 2,10e-6 v -1.99999 z"
     id="path4399"
     style="display:inline;fill:#ffffff;fill-opacity:1;stroke:none;enable-background:new"
     sodipodi:nodetypes="cccccccccc" />
  <path
     style="color:#000000;font-style:normal;font-variant:normal;font-weight:normal;font-stretch:normal;font-size:medium;line-height:normal;font-family:sans-serif;text-indent:0;text-align:start;text-decoration:none;text-decoration-line:none;text-decoration-style:solid;text-decoration-color:#000000;letter-spacing:normal;word-spacing:normal;text-transform:none;writing-mode:lr-tb;direction:ltr;baseline-shift:baseline;text-anchor:start;white-space:normal;clip-rule:nonzero;display:inline;overflow:visible;visibility:visible;opacity:0.2;isolation:auto;mix-blend-mode:normal;color-interpolation:sRGB;color-interpolation-filters:linearRGB;solid-color:#000000;solid-opacity:1;fill:#ffffff;fill-opacity:1;fill-rule:evenodd;stroke:none;stroke-width:3;stroke-linecap:butt;stroke-linejoin:round;stroke-miterlimit:4;stroke-dasharray:none;stroke-dashoffset:0;stroke-opacity:1;color-rendering:auto;image-rendering:auto;shape-rendering:auto;text-rendering:auto;enable-background:accumulate"
     d="m 15.9375,1.997726 c -0.51856,0.0216 -0.98911,0.30969 -1.24414,0.76172 L 1.193359,26.769206 c -0.228936,0.4079 -0.235701,0.85203 -0.0957,1.23829 0.02854,-0.08 0.052,-0.16043 0.0957,-0.23829 L 14.69336,3.759446 c 0.25503,-0.45203 0.72558,-0.74012 1.24414,-0.76172 0.56325,-0.0235 1.09214,0.27073 1.36914,0.76172 l 13.5,24.00976 c 0.0437,0.0779 0.0672,0.15828 0.0957,0.23829 0.14,-0.38628 0.13324,-0.83039 -0.0957,-1.23829 l -13.5,-24.00976 c -0.277,-0.49099 -0.80589,-0.78524 -1.36914,-0.76172 z"
     id="path4360" />
</svg>
