<?xml version="1.0" encoding="UTF-8" standalone="no"?>
<svg
   width="32"
   height="32"
   version="1"
   id="svg14"
   sodipodi:docname="image-missing.svg"
   inkscape:version="1.1.1 (3bf5ae0d25, 2021-09-20)"
   xmlns:inkscape="http://www.inkscape.org/namespaces/inkscape"
   xmlns:sodipodi="http://sodipodi.sourceforge.net/DTD/sodipodi-0.dtd"
   xmlns="http://www.w3.org/2000/svg"
   xmlns:svg="http://www.w3.org/2000/svg">
  <defs
     id="defs18">
    <clipPath
       clipPathUnits="userSpaceOnUse"
       id="clipPath4483">
      <path
         sodipodi:nodetypes="ssssccsss"
         inkscape:connector-curvature="0"
         id="path4485"
         d="m 91.5,254 c -0.831,0 -1.5,0.669 -1.5,1.5 v 25 c 0,0.831 0.669,1.5 1.5,1.5 H 108 l 10,-10 v -16.5 c 0,-0.831 -0.669,-1.5 -1.5,-1.5 z"
         style="fill:#fecd38;fill-opacity:1;stroke:none" />
    </clipPath>
  </defs>
  <sodipodi:namedview
     id="namedview16"
     pagecolor="#505050"
     bordercolor="#ffffff"
     borderopacity="1"
     inkscape:pageshadow="0"
     inkscape:pageopacity="0"
     inkscape:pagecheckerboard="1"
     showgrid="false"
     inkscape:zoom="23.03125"
     inkscape:cx="16"
     inkscape:cy="15.97829"
     inkscape:current-layer="svg14" />
  <path
     sodipodi:nodetypes="ssssccsss"
     inkscape:connector-curvature="0"
     id="path4517"
     d="m 3.49993,4.5 c -0.831,0 -1.5,0.669 -1.5,1.5 v 21 c 0,0.831 0.669,1.5 1.5,1.5 h 16.5 l 10,-10 V 6 c 0,-0.831 -0.669,-1.5 -1.5,-1.5 z"
     style="display:inline;opacity:0.2;fill:#000000;fill-opacity:1;stroke:none;enable-background:new" />
  <path
     style="display:inline;fill:#d8d8d8;fill-opacity:1;stroke:none;enable-background:new"
     d="m 3.49993,3.5 c -0.831,0 -1.5,0.669 -1.5,1.5 v 21 c 0,0.831 0.669,1.5 1.5,1.5 h 16.5 l 10,-10 V 5 c 0,-0.831 -0.669,-1.5 -1.5,-1.5 z"
     id="rect4255"
     inkscape:connector-curvature="0"
     sodipodi:nodetypes="ssssccsss" />
  <path
     style="color:#000000;font-style:normal;font-variant:normal;font-weight:normal;font-stretch:normal;font-size:medium;line-height:normal;font-family:Sans;-inkscape-font-specification:Sans;text-indent:0;text-align:start;text-decoration:none;text-decoration-line:none;letter-spacing:normal;word-spacing:normal;text-transform:none;writing-mode:lr-tb;direction:ltr;baseline-shift:baseline;text-anchor:start;display:inline;overflow:visible;visibility:visible;opacity:0.1;fill:#000000;fill-opacity:1;fill-rule:nonzero;stroke:none;stroke-width:2;marker:none;enable-background:new"
     d="m 10.99993,12.625 6.625,7.5 4.25,-4.125 4.125,4.125 -3,3.375 h -17 v -5 z"
     id="path4021"
     inkscape:connector-curvature="0"
     sodipodi:nodetypes="cccccccc" />
  <path
     transform="translate(-87.999931,-254.5)"
     style="display:inline;opacity:0.2;fill:#000000;fill-opacity:1;stroke:none;enable-background:new"
     d="m 118,272 h -8.5 c -0.82843,0 -1.5,0.67158 -1.5,1.5 v 8.5 z"
     id="path4365"
     inkscape:connector-curvature="0"
     sodipodi:nodetypes="csscc"
     clip-path="url(#clipPath4483)" />
  <path
     sodipodi:nodetypes="csscc"
     inkscape:connector-curvature="0"
     id="path4172"
     d="m 30.00007,17.5 h -8.5 c -0.82843,0 -1.5,0.67158 -1.5,1.5 v 8.5 z"
     style="display:inline;fill:#ebebeb;fill-opacity:1;stroke:none;enable-background:new" />
  <path
     inkscape:connector-curvature="0"
     style="display:inline;opacity:0.1;fill:#ffffff;fill-opacity:1;stroke:none;enable-background:new"
     d="m 21.50007,17.5 c -0.82843,0 -1.5,0.67158 -1.5,1.5 v 1 c 0,-0.82842 0.67157,-1.5 1.5,-1.5 h 7.5 l 1,-1 z"
     id="path4328" />
</svg>
