<?xml version="1.0" encoding="UTF-8" standalone="no"?>
<svg
   width="32"
   height="32"
   version="1"
   id="svg18"
   sodipodi:docname="offline.svg"
   inkscape:version="1.1.1 (3bf5ae0d25, 2021-09-20)"
   xmlns:inkscape="http://www.inkscape.org/namespaces/inkscape"
   xmlns:sodipodi="http://sodipodi.sourceforge.net/DTD/sodipodi-0.dtd"
   xmlns="http://www.w3.org/2000/svg"
   xmlns:svg="http://www.w3.org/2000/svg">
  <defs
     id="defs22">
    <clipPath
       clipPathUnits="userSpaceOnUse"
       id="clipPath4401">
      <circle
         style="opacity:1;fill:none;fill-opacity:1;stroke:#ffffff;stroke-width:2;stroke-linecap:round;stroke-linejoin:round;stroke-miterlimit:4;stroke-dasharray:none;stroke-opacity:1"
         id="circle4403"
         cx="160"
         cy="184"
         r="15" />
    </clipPath>
  </defs>
  <sodipodi:namedview
     id="namedview20"
     pagecolor="#505050"
     bordercolor="#ffffff"
     borderopacity="1"
     inkscape:pageshadow="0"
     inkscape:pageopacity="0"
     inkscape:pagecheckerboard="1"
     showgrid="false"
     inkscape:zoom="23.03125"
     inkscape:cx="39.185889"
     inkscape:cy="22.925373"
     inkscape:current-layer="svg18" />
  <g
     id="g1204"
     transform="translate(16.247238,3.8630122)">
    <rect
       fill="#02a8f3"
       width="28"
       height="28"
       x="-14.247634"
       y="-2.3630123"
       rx="14"
       ry="14"
       id="rect2-3"
       style="fill:#00bcd4" />
    <path
       fill="#ffffff"
       style="opacity:0.2"
       d="m -0.24763237,-2.3630122 c -7.75600003,0 -13.99999963,6.2439999 -13.99999963,14.0000002 0,0.16884 0.01952,0.33264 0.02539,0.5 0.2641,-7.5206003 6.3877996,-13.5000002 13.97499963,-13.5000002 7.58719997,0 13.71099937,5.9793999 13.97499937,13.5000002 0.006,-0.16736 0.0254,-0.33116 0.0254,-0.5 0,-7.7560003 -6.2439994,-14.0000002 -13.99999937,-14.0000002 z"
       id="path4-6" />
    <path
       opacity="0.2"
       d="m -14.222232,12.136988 c -0.0059,0.167 -0.0254,0.331 -0.0254,0.5 0,7.756 6.2439996,14 13.99999963,14 7.75599997,0 13.99999937,-6.244 13.99999937,-14 0,-0.16884 -0.01952,-0.33264 -0.02539,-0.5 -0.264,7.521 -6.3879994,13.5 -13.97499937,13.5 -7.58720003,0 -13.71099963,-5.979 -13.97499963,-13.5 z"
       id="path6-7" />
    <g
       id="g4583"
       transform="matrix(1.5378714,0,0,1.5378714,-247.84522,-398.97439)"
       style="display:inline;enable-background:new">
      <circle
         r="6.5024042"
         cy="266.99982"
         cx="161.00018"
         id="circle4585"
         style="opacity:1;fill:none;fill-opacity:1;stroke:#ffffff;stroke-width:0.650249;stroke-linecap:round;stroke-linejoin:round;stroke-miterlimit:4;stroke-dasharray:none;stroke-opacity:1" />
      <path
         inkscape:connector-curvature="0"
         id="path4587"
         d="m 154.49778,267.00324 h 12.99796"
         style="fill:none;fill-rule:evenodd;stroke:#ffffff;stroke-width:0.650249;stroke-linecap:butt;stroke-linejoin:miter;stroke-miterlimit:4;stroke-dasharray:none;stroke-opacity:1"
         sodipodi:nodetypes="cc" />
      <path
         clip-path="url(#clipPath4401)"
         id="path4589"
         transform="matrix(0.43766185,0,0,0.43766185,90.936478,186.57037)"
         d="m 160,163.84486 c -8.28427,0 -15,3.13401 -15,7 0,3.86599 6.71573,7 15,7 8.28427,0 15,-3.13401 15,-7 0,-3.86599 -6.71573,-7 -15,-7 z m 0,25.85178 c -8.28427,0 -15,3.134 -15,7 0,3.86599 6.71573,7 15,7 8.28427,0 15,-3.13401 15,-7 0,-3.866 -6.71573,-7 -15,-7 z"
         style="opacity:1;fill:none;fill-opacity:1;stroke:#ffffff;stroke-width:1.48573;stroke-linecap:round;stroke-linejoin:round;stroke-miterlimit:4;stroke-dasharray:none;stroke-opacity:1"
         inkscape:connector-curvature="0"
         sodipodi:nodetypes="ssssssssss" />
      <path
         style="fill:none;fill-rule:evenodd;stroke:#ffffff;stroke-width:0.650249;stroke-linecap:butt;stroke-linejoin:miter;stroke-miterlimit:4;stroke-dasharray:none;stroke-opacity:1"
         d="m 160.99676,260.50426 v 12.99796"
         id="path4591"
         inkscape:connector-curvature="0"
         sodipodi:nodetypes="cc" />
      <ellipse
         ry="6.4989824"
         rx="3.2512472"
         cy="267.00323"
         cx="161.00017"
         id="ellipse4593"
         style="opacity:1;fill:none;fill-opacity:1;stroke:#ffffff;stroke-width:0.650249;stroke-linecap:round;stroke-linejoin:round;stroke-miterlimit:4;stroke-dasharray:none;stroke-opacity:1" />
    </g>
  </g>
  <circle
     style="fill:#f44336"
     cx="25"
     cy="24"
     r="7"
     id="circle12" />
  <path
     style="opacity:0.2"
     d="M 31.977,24.459 A 7,7 0 0 1 25,31 7,7 0 0 1 18.023,24.541 7,7 0 0 0 18,25 a 7,7 0 0 0 7,7 7,7 0 0 0 7,-7 7,7 0 0 0 -0.02344,-0.54102 z"
     id="path14" />
  <path
     style="fill:#ffffff"
     d="M 22.878906 20.464844 L 21.464844 21.878906 L 23.585938 24 L 21.464844 26.121094 L 22.878906 27.535156 L 25 25.414062 L 27.121094 27.535156 L 28.535156 26.121094 L 26.414062 24 L 28.535156 21.878906 L 27.121094 20.464844 L 25 22.585938 L 22.878906 20.464844 z"
     id="path16" />
</svg>
