<?xml version="1.0" encoding="UTF-8" standalone="no"?>
<svg
   width="32"
   height="32"
   version="1.1"
   id="svg20"
   sodipodi:docname="state_running.svg"
   inkscape:version="1.1.1 (3bf5ae0d25, 2021-09-20)"
   xmlns:inkscape="http://www.inkscape.org/namespaces/inkscape"
   xmlns:sodipodi="http://sodipodi.sourceforge.net/DTD/sodipodi-0.dtd"
   xmlns="http://www.w3.org/2000/svg"
   xmlns:svg="http://www.w3.org/2000/svg">
  <defs
     id="defs24" />
  <sodipodi:namedview
     id="namedview22"
     pagecolor="#505050"
     bordercolor="#ffffff"
     borderopacity="1"
     inkscape:pageshadow="0"
     inkscape:pageopacity="0"
     inkscape:pagecheckerboard="1"
     showgrid="false"
     inkscape:zoom="23.03125"
     inkscape:cx="16"
     inkscape:cy="15.97829"
     inkscape:current-layer="svg20" />
  <rect
     style="opacity:0.2"
     width="16"
     height="21"
     x="8"
     y="8"
     rx="1.25"
     ry="1.25"
     id="rect2" />
  <rect
     style="fill:#8e8e8e"
     width="16"
     height="21"
     x="8"
     y="7"
     rx="1.25"
     ry="1.25"
     id="rect4" />
  <rect
     style="opacity:0.2"
     width="26"
     height="20"
     x="3"
     y="6"
     rx="1.25"
     ry="1.25"
     id="rect6" />
  <rect
     style="fill:#4f4f4f"
     width="26"
     height="20"
     x="3"
     y="5"
     rx="1.25"
     ry="1.25"
     id="rect8" />
  <rect
     style="fill:#1b5e20"
     width="22"
     height="16"
     x="5"
     y="7"
     rx="0"
     ry="0"
     id="rect10" />
  <rect
     style="opacity:0.1;fill:#ffffff"
     width="22"
     height="1"
     x="5"
     y="23"
     id="rect12" />
  <path
     style="fill:#ffffff;opacity:0.1"
     d="M 4.25 5 C 3.5575 5 3 5.5575 3 6.25 L 3 7.25 C 3 6.5575 3.5575 6 4.25 6 L 27.75 6 C 28.442 6 29 6.5575 29 7.25 L 29 6.25 C 29 5.5575 28.442 5 27.75 5 L 4.25 5 z"
     id="path14" />
  <path
     style="opacity:0.2"
     d="M 12,11 V 21 L 22,16 Z"
     id="path16" />
  <path
     style="fill:#66bb6a"
     d="M 12,10 V 20 L 22,15 Z"
     id="path18" />
</svg>
