<?xml version="1.0" encoding="UTF-8" standalone="no"?>
<svg
   width="32"
   height="32"
   version="1.1"
   id="svg26"
   sodipodi:docname="task-due.svg"
   inkscape:version="1.1.1 (3bf5ae0d25, 2021-09-20)"
   xmlns:inkscape="http://www.inkscape.org/namespaces/inkscape"
   xmlns:sodipodi="http://sodipodi.sourceforge.net/DTD/sodipodi-0.dtd"
   xmlns="http://www.w3.org/2000/svg"
   xmlns:svg="http://www.w3.org/2000/svg">
  <defs
     id="defs30" />
  <sodipodi:namedview
     id="namedview28"
     pagecolor="#505050"
     bordercolor="#ffffff"
     borderopacity="1"
     inkscape:pageshadow="0"
     inkscape:pageopacity="0"
     inkscape:pagecheckerboard="1"
     showgrid="false"
     inkscape:zoom="23.03125"
     inkscape:cx="16"
     inkscape:cy="15.97829"
     inkscape:current-layer="g24" />
  <g
     transform="translate(0,-288.53332)"
     id="g24">
    <rect
       style="opacity:0.2"
       width="26"
       height="24"
       x="-319.53"
       y="-28"
       rx="2"
       ry="2"
       transform="matrix(0,-1,-1,0,0,0)"
       id="rect2" />
    <rect
       style="fill:#6d4c41"
       width="26"
       height="24"
       x="-318.53"
       y="-28"
       rx="2"
       ry="2"
       transform="matrix(0,-1,-1,0,0,0)"
       id="rect4" />
    <path
       style="opacity:0.2;fill:#ffffff"
       d="m 6,292.53332 c -1.108,0 -2,0.892 -2,2 v 1 c 0,-1.108 0.892,-2 2,-2 h 20 c 1.108,0 2,0.892 2,2 v -1 c 0,-1.108 -0.892,-2 -2,-2 z"
       id="path6" />
    <rect
       style="fill:#ffffff"
       width="18"
       height="20"
       x="7"
       y="295.53"
       id="rect8" />
    <path
       style="fill:#cccccc"
       d="m 16,288.53332 c -1.662,0 -3,1.338 -3,3 v 2 h -2 c -0.554,0 -1,0.446 -1,1 v 3 h 12 v -3 c 0,-0.554 -0.446,-1 -1,-1 h -2 v -2 c 0,-1.662 -1.338,-3 -3,-3 z"
       id="path10" />
    <circle
       style="opacity:0.2"
       cx="16"
       cy="292.533"
       r="2"
       id="circle12" />
    <circle
       style="fill:#ffffff"
       cx="16"
       cy="291.533"
       r="2"
       id="circle14" />
    <path
       style="opacity:0.2;fill:#ffffff"
       d="m 16,288.53332 c -1.662,0 -3,1.338 -3,3 v 1 c 0,-1.662 1.338,-3 3,-3 1.662,0 3,1.338 3,3 v -1 c 0,-1.662 -1.338,-3 -3,-3 z m -5,5 c -0.554,0 -1,0.446 -1,1 v 1 c 0,-0.554 0.446,-1 1,-1 h 2 v -1 z m 8,0 v 1 h 2 c 0.554,0 1,0.446 1,1 v -1 c 0,-0.554 -0.446,-1 -1,-1 z"
       id="path16" />
    <path
       style="fill:#b3b3b3"
       d="m 10,296.53332 v 1 h 8 4 v -1 z"
       id="path18" />
    <path
       style="fill:#f44336"
       d="m 17.0003,300.53332 v 8 h -2 v -8 z m -3e-4,10 v 2 h -2 v -2 z"
       id="path20" />
    <rect
       style="opacity:0.2"
       width="18"
       height="1"
       x="7"
       y="315.53"
       id="rect22" />
  </g>
</svg>
