<?xml version="1.0" encoding="UTF-8" standalone="no"?>
<svg
   width="24"
   height="24"
   version="1.1"
   id="svg9"
   sodipodi:docname="gtk-about.svg"
   inkscape:version="1.1.1 (3bf5ae0d25, 2021-09-20)"
   xmlns:inkscape="http://www.inkscape.org/namespaces/inkscape"
   xmlns:sodipodi="http://sodipodi.sourceforge.net/DTD/sodipodi-0.dtd"
   xmlns="http://www.w3.org/2000/svg"
   xmlns:svg="http://www.w3.org/2000/svg">
  <sodipodi:namedview
     id="namedview11"
     pagecolor="#505050"
     bordercolor="#ffffff"
     borderopacity="1"
     inkscape:pageshadow="0"
     inkscape:pageopacity="0"
     inkscape:pagecheckerboard="1"
     showgrid="false"
     inkscape:zoom="21.714071"
     inkscape:cx="9.9935201"
     inkscape:cy="14.644882"
     inkscape:current-layer="g1101" />
  <defs
     id="defs3">
    <style
       id="current-color-scheme"
       type="text/css">
   .ColorScheme-Text { color:#444444; } .ColorScheme-Highlight { color:#4285f4; } .ColorScheme-NeutralText { color:#ff9800; } .ColorScheme-PositiveText { color:#4caf50; } .ColorScheme-NegativeText { color:#f44336; }
  </style>
  </defs>
  <g
     id="g1101"
     transform="translate(-7.0659774,-11.394969)">
    <circle
       r="11"
       cy="23.89497"
       cx="19.065977"
       id="circle4533"
       style="display:inline;opacity:0.2;fill:#000000;fill-opacity:1;stroke:none;stroke-width:2;stroke-miterlimit:4;stroke-dasharray:none;stroke-opacity:1;enable-background:new" />
    <circle
       style="display:inline;fill:#2196f3;fill-opacity:1;stroke:none;stroke-width:2;stroke-miterlimit:4;stroke-dasharray:none;stroke-opacity:1;enable-background:new"
       id="path4524"
       cx="19.065977"
       cy="22.89497"
       r="11" />
    <path
       style="display:inline;opacity:0.2;fill:#ffffff;fill-opacity:1;stroke:none;stroke-width:2;stroke-miterlimit:4;stroke-dasharray:none;stroke-opacity:1;enable-background:new"
       d="m 19.065977,11.894968 a 11,11 0 0 0 -10.9999999,11 11,11 0 0 0 0.02148,0.58594 11,11 0 0 1 10.9785199,-10.58594 11,11 0 0 1 10.978516,10.41406 11,11 0 0 0 0.02148,-0.41406 11,11 0 0 0 -11,-11 z"
       id="circle4545" />
    <g
       transform="rotate(180,286.03309,-162.05252)"
       style="display:inline;fill:#ffffff;fill-opacity:1;enable-background:new"
       inkscape:label="status"
       id="g4393">
      <path
         style="display:inline;fill:#ffffff;fill-opacity:1;stroke:none;enable-background:new"
         id="path4395"
         d="m 552.0002,-353 v 8 h 2 v -8 z m 0,10 v 2 h 2 v -2 z"
         inkscape:connector-curvature="0"
         sodipodi:nodetypes="cccccccccc" />
    </g>
  </g>
</svg>
