<?xml version="1.0" encoding="UTF-8" standalone="no"?>
<svg
   width="32"
   height="32"
   version="1"
   id="svg24"
   sodipodi:docname="accessories-calculator.svg"
   inkscape:version="1.1.1 (3bf5ae0d25, 2021-09-20)"
   xmlns:inkscape="http://www.inkscape.org/namespaces/inkscape"
   xmlns:sodipodi="http://sodipodi.sourceforge.net/DTD/sodipodi-0.dtd"
   xmlns="http://www.w3.org/2000/svg"
   xmlns:svg="http://www.w3.org/2000/svg">
  <defs
     id="defs28" />
  <sodipodi:namedview
     id="namedview26"
     pagecolor="#505050"
     bordercolor="#ffffff"
     borderopacity="1"
     inkscape:pageshadow="0"
     inkscape:pageopacity="0"
     inkscape:pagecheckerboard="1"
     showgrid="false"
     inkscape:zoom="23.03125"
     inkscape:cx="16"
     inkscape:cy="15.97829"
     inkscape:current-layer="svg24" />
  <path
     style="opacity:0.2"
     d="m 3.5,3 h 25 C 29.331,3 30,3.669 30,4.5 v 17.839157 l -2.517986,4.745632 c -0.38949,0.73407 -0.827994,1.011155 -1.5,1.5 L 22.661871,31 H 3.5 C 2.669,31 2,30.331 2,29.5 V 4.5 C 2,3.669 2.669,3 3.5,3 Z"
     id="path2" />
  <path
     style="fill:#4d4d4d"
     d="m 30,16 v 6.647482 l -1.541624,4.824769 c -0.252926,0.791574 -0.634728,1.53776 -1.448612,1.70555 L 23.021583,30 H 15 V 16 Z"
     id="path4" />
  <path
     style="fill:#808080"
     d="M 2,15 V 28.5 C 2,29.331 2.669,30 3.5,30 H 16 V 15 Z"
     id="path6" />
  <path
     style="fill:#999999"
     d="M 3.5,2 C 2.669,2 2,2.669 2,3.5 V 16 H 17 V 2 Z"
     id="path8" />
  <path
     style="fill:#666666"
     d="M 28.5,2 C 29.331,2 30,2.669 30,3.5 V 16 H 16 V 2 Z"
     id="path10" />
  <path
     style="opacity:0.2;fill:#ffffff"
     d="m3.5 2c-0.831 0-1.5 0.669-1.5 1.5v1c0-0.831 0.669-1.5 1.5-1.5h25c0.831 0 1.5 0.669 1.5 1.5v-1c0-0.831-0.669-1.5-1.5-1.5h-25z"
     id="path12" />
  <circle
     style="opacity:0.2"
     cx="23"
     cy="24"
     r="8"
     id="circle14" />
  <circle
     style="fill:#009688"
     cx="23"
     cy="23"
     r="8"
     id="circle16" />
  <path
     style="opacity:0.2"
     d="m 9,7.000484 v 3 H 6 v 1 h 3 v 3 h 1 v -3 h 3 v -1 h -3 v -3 z m 11,3 v 1 h 6 v -1 z M 6.3535156,20.646968 5.6464844,21.354 8.2929688,24.000484 5.6464844,26.646968 6.3535156,27.354 9,24.707515 11.646484,27.354 12.353516,26.646968 9.7070312,24.000484 12.353516,21.354 11.646484,20.646968 9,23.293453 Z"
     id="path18" />
  <path
     style="fill:#ffffff"
     d="M 9 6 L 9 9 L 6 9 L 6 10 L 9 10 L 9 13 L 10 13 L 10 10 L 13 10 L 13 9 L 10 9 L 10 6 L 9 6 z M 20 9 L 20 10 L 26 10 L 26 9 L 20 9 z M 6.3535156 19.646484 L 5.6464844 20.353516 L 8.2929688 23 L 5.6464844 25.646484 L 6.3535156 26.353516 L 9 23.707031 L 11.646484 26.353516 L 12.353516 25.646484 L 9.7070312 23 L 12.353516 20.353516 L 11.646484 19.646484 L 9 22.292969 L 6.3535156 19.646484 z"
     id="path20" />
  <path
     style="fill:#ffffff"
     d="M 20,21 V 22 H 26 V 21 Z M 20,24 V 25 H 26 V 24 Z"
     id="path22" />
</svg>
