<?xml version="1.0" encoding="UTF-8" standalone="no"?>
<svg
   width="32"
   height="32"
   version="1"
   id="svg20"
   sodipodi:docname="computer-laptop.svg"
   inkscape:version="1.1.1 (3bf5ae0d25, 2021-09-20)"
   xmlns:inkscape="http://www.inkscape.org/namespaces/inkscape"
   xmlns:sodipodi="http://sodipodi.sourceforge.net/DTD/sodipodi-0.dtd"
   xmlns="http://www.w3.org/2000/svg"
   xmlns:svg="http://www.w3.org/2000/svg">
  <defs
     id="defs24" />
  <sodipodi:namedview
     id="namedview22"
     pagecolor="#505050"
     bordercolor="#ffffff"
     borderopacity="1"
     inkscape:pageshadow="0"
     inkscape:pageopacity="0"
     inkscape:pagecheckerboard="1"
     showgrid="false"
     inkscape:zoom="23.03125"
     inkscape:cx="18.561737"
     inkscape:cy="15.457259"
     inkscape:current-layer="svg20" />
  <rect
     style="opacity:0.2"
     width="26"
     height="18"
     x="3"
     y="7"
     rx="1.25"
     ry="1.25"
     id="rect2" />
  <rect
     style="opacity:0.2"
     width="3"
     height="30"
     x="-28"
     y="-31"
     rx="1.25"
     ry="1.25"
     transform="matrix(0,-1,-1,0,0,0)"
     id="rect4" />
  <rect
     style="fill:#263238"
     width="3"
     height="30"
     x="-27"
     y="-31"
     rx="1.25"
     ry="1.25"
     transform="matrix(0,-1,-1,0,0,0)"
     id="rect6" />
  <path
     style="fill:#263238"
     d="M 4.25 6 C 3.5575 6 3 6.5575 3 7.25 L 3 9 L 29 9 L 29 7.25 C 29 6.5575 28.4425 6 27.75 6 L 4.25 6 z"
     id="path8" />
  <path
     style="opacity:0.1;fill:#ffffff"
     d="M 4.25 6 C 3.5575 6 3 6.5575 3 7.25 L 3 8.25 C 3 7.5575 3.5575 7 4.25 7 L 27.75 7 C 28.442 7 29 7.5575 29 8.25 L 29 7.25 C 29 6.5575 28.442 6 27.75 6 L 4.25 6 z"
     id="path10" />
  <path
     style="fill:#1a1a1a"
     d="M 3 9 L 3 22.75 C 3 23.4425 3.5575 24 4.25 24 L 27.75 24 C 28.4425 24 29 23.4425 29 22.75 L 29 9 L 3 9 z"
     id="path12" />
  <rect
     style="opacity:0.2"
     width="26"
     height="1"
     x="3"
     y="9"
     id="rect14" />
  <path
     style="fill:#ffffff;opacity:0.1"
     d="M 2.25 24 C 1.5575 24 1 24.5575 1 25.25 L 1 25.75 C 1 25.835234 1.0092872 25.917691 1.0253906 25.998047 C 1.1415674 25.427417 1.6440625 25 2.25 25 L 29.75 25 C 30.355937 25 30.858433 25.427417 30.974609 25.998047 C 30.990713 25.917691 31 25.835234 31 25.75 L 31 25.25 C 31 24.5575 30.4425 24 29.75 24 L 2.25 24 z"
     id="path18" />
</svg>
