<?xml version="1.0" encoding="UTF-8" standalone="no"?>
<svg
   width="32"
   height="32"
   version="1"
   id="svg16"
   sodipodi:docname="mail-client.svg"
   inkscape:version="1.1.1 (3bf5ae0d25, 2021-09-20)"
   xmlns:inkscape="http://www.inkscape.org/namespaces/inkscape"
   xmlns:sodipodi="http://sodipodi.sourceforge.net/DTD/sodipodi-0.dtd"
   xmlns="http://www.w3.org/2000/svg"
   xmlns:svg="http://www.w3.org/2000/svg">
  <defs
     id="defs20">
    <clipPath
       clipPathUnits="userSpaceOnUse"
       id="clipPath4403">
      <path
         sodipodi:nodetypes="cccccssscsscccc"
         id="path4405"
         d="m 159.99999,237.99999 -19.08983,14.32423 c -0.0411,0.0267 -0.0783,0.0583 -0.1172,0.0879 l -0.0234,0.0176 v 0.003 c -0.46558,0.36557 -0.76954,0.92787 -0.76954,1.56837 l 2e-5,17.4274 c 0,2.85714 2.25294,2.85714 2.85714,2.85714 h 34.28572 c 0,0 2.85714,0 2.85714,-2.85714 l -3e-5,-17.42739 c 0,-0.65501 -0.31697,-1.22937 -0.80077,-1.59375 l 0.009,-0.0114 -19.20721,-14.39455 z"
         style="fill:#fe9700;fill-opacity:1;stroke:none"
         inkscape:connector-curvature="0" />
    </clipPath>
    <filter
       inkscape:collect="always"
       style="color-interpolation-filters:sRGB"
       id="filter4507"
       x="-0.10875"
       width="1.2175"
       y="-0.13384616"
       height="1.2676923">
      <feGaussianBlur
         inkscape:collect="always"
         stdDeviation="1.45"
         id="feGaussianBlur4509" />
    </filter>
    <clipPath
       clipPathUnits="userSpaceOnUse"
       id="clipPath4446">
      <path
         id="path4448"
         d="m 160,238 -19.08984,14.32422 c -0.0411,0.0267 -0.0783,0.0583 -0.11719,0.0879 l -0.0234,0.0176 v 0.002 C 140.30396,252.7972 140,253.35949 140,254 v 24 c 0,1.108 0.892,2 2,2 h 36 c 1.108,0 2,-0.892 2,-2 v -24 c 0,-0.65501 -0.31697,-1.22937 -0.80078,-1.59375 l 0.008,-0.0117 z"
         style="fill:#fe9700;fill-opacity:1;stroke:none"
         inkscape:connector-curvature="0" />
    </clipPath>
    <filter
       inkscape:collect="always"
       style="color-interpolation-filters:sRGB"
       id="filter4456"
       x="-0.11372175"
       width="1.2274435"
       y="-0.16620872"
       height="1.3324174">
      <feGaussianBlur
         inkscape:collect="always"
         stdDeviation="1.8005944"
         id="feGaussianBlur4458" />
    </filter>
    <clipPath
       clipPathUnits="userSpaceOnUse"
       id="clipPath941">
      <path
         id="path939"
         d="m 160,238 -19.08984,14.32422 c -0.0411,0.0267 -0.0783,0.0583 -0.11719,0.0879 l -0.0234,0.0176 v 0.002 C 140.30396,252.7972 140,253.35949 140,254 v 24 c 0,1.108 0.892,2 2,2 h 36 c 1.108,0 2,-0.892 2,-2 v -24 c 0,-0.65501 -0.31697,-1.22937 -0.80078,-1.59375 l 0.008,-0.0117 z"
         style="fill:#fe9700;fill-opacity:1;stroke:none"
         inkscape:connector-curvature="0" />
    </clipPath>
    <filter
       inkscape:collect="always"
       style="color-interpolation-filters:sRGB"
       id="filter4524"
       x="-0.056860877"
       width="1.1137218"
       y="-0.083104359"
       height="1.1662087">
      <feGaussianBlur
         inkscape:collect="always"
         stdDeviation="0.90029722"
         id="feGaussianBlur4526" />
    </filter>
  </defs>
  <sodipodi:namedview
     id="namedview18"
     pagecolor="#505050"
     bordercolor="#ffffff"
     borderopacity="1"
     inkscape:pageshadow="0"
     inkscape:pageopacity="0"
     inkscape:pagecheckerboard="1"
     showgrid="false"
     inkscape:zoom="23.03125"
     inkscape:cx="16"
     inkscape:cy="16.02171"
     inkscape:current-layer="svg16" />
  <g
     id="g994"
     transform="translate(-6.0135695,12.6133)">
    <path
       style="display:inline;opacity:0.2;fill:#000000;fill-opacity:1;stroke:none;enable-background:new"
       d="M 22.013579,-10.81379 8.650298,-0.78645 c -0.02875,0.0187 -0.0548,0.0418 -0.08203,0.0625 l -0.01563,0.0117 v 0.002 c -0.325902,0.25587 -0.53906,0.64928 -0.539059,1.09763 v 12.19922 4 c 10e-7,1.23653 0.681547,1.7878 1.480469,1.94531 L 9.41397,18.5866 h 0.599609 24 0.59961 l -0.0957,-0.0664 c 1.4803,-0.31237 1.49609,-1.9336 1.49609,-1.9336 v -4 -12.19922 c 0,-0.45851 -0.22189,-0.86016 -0.56055,-1.11523 l 0.006,-0.008 -13.44545,-10.07599 v -0.002 z"
       id="path4539"
       inkscape:connector-curvature="0" />
    <path
       inkscape:connector-curvature="0"
       style="display:inline;fill:#f5a816;fill-opacity:1;stroke:none;enable-background:new"
       d="M 22.013569,-11.8132 8.650684,-1.78624 c -0.02875,0.0187 -0.05481,0.0408 -0.08204,0.0615 l -0.0164,0.0123 v 0.002 c -0.325905,0.2559 -0.538681,0.64951 -0.53868,1.09786 l 1.5e-5,12.19918 c 2e-6,2 1.577058,2 2,2 h 24 c 0,0 2,0 2,-2 l -2e-5,-12.19917 c 0,-0.45851 -0.22188,-0.86056 -0.56054,-1.11563 l 0.006,-0.008 -13.44505,-10.07618 z"
       id="path4428"
       sodipodi:nodetypes="cccccssscsscccc" />
    <rect
       transform="matrix(0.7,0,0,0.7,-89.986427,-178.4132)"
       ry="2"
       rx="2"
       y="243"
       x="144"
       height="26"
       width="32"
       id="rect4430"
       style="display:inline;opacity:0.2;fill:#000000;fill-opacity:1;stroke:none;stroke-width:2;stroke-linecap:round;stroke-linejoin:miter;stroke-miterlimit:4;stroke-dasharray:none;stroke-opacity:1;filter:url(#filter4507);enable-background:new"
       clip-path="url(#clipPath4403)" />
    <rect
       style="display:inline;fill:#ececec;fill-opacity:1;stroke:none;stroke-width:2;stroke-linecap:round;stroke-linejoin:miter;stroke-miterlimit:4;stroke-dasharray:none;stroke-opacity:1;enable-background:new"
       id="rect4435"
       width="21.999992"
       height="18"
       x="11.013572"
       y="-8.4133997"
       rx="1.4999924"
       ry="1.4987892" />
    <path
       transform="matrix(0.7,0,0,0.7,-89.986427,-178.4132)"
       sodipodi:nodetypes="ccssc"
       inkscape:connector-curvature="0"
       id="path4439"
       d="m 140,254 38,26 -34.28571,-1.71429 c -1.10662,-0.0553 -1.91502,-0.89526 -2,-2 z"
       style="display:inline;opacity:0.2;fill:#000000;fill-opacity:1;stroke:none;filter:url(#filter4456);enable-background:new"
       clip-path="url(#clipPath4446)" />
    <path
       style="display:inline;fill:#f6be1a;fill-opacity:1;stroke:none;enable-background:new"
       d="m 8.013569,-0.6132 26.6,18.2 -24.59999,-2e-4 c -1,0 -1.999999,-0.5 -2,-2 z"
       id="path4441"
       inkscape:connector-curvature="0"
       sodipodi:nodetypes="cccsc" />
    <path
       clip-path="url(#clipPath4446)"
       style="display:inline;opacity:0.1;fill:#000000;fill-opacity:1;stroke:none;filter:url(#filter4524);enable-background:new"
       d="m 140,254 38,26 -34.28571,-1.71429 c -1.10662,-0.0553 -1.91502,-0.89526 -2,-2 z"
       id="path4443"
       inkscape:connector-curvature="0"
       sodipodi:nodetypes="ccssc"
       transform="matrix(-0.7,0,0,0.7,134.01356,-178.4132)" />
    <path
       style="display:inline;fill:#f9ce1d;fill-opacity:1;stroke:none;enable-background:new"
       d="m 34.013579,17.5866 c 2,-2e-5 2,-2 2,-2 l -1e-5,-16.1998 v 0 l -26.599995,18.2 z"
       id="path4445"
       inkscape:connector-curvature="0"
       sodipodi:nodetypes="sccccs" />
    <path
       inkscape:connector-curvature="0"
       style="display:inline;opacity:0.1;fill:#ffffff;fill-opacity:1;stroke:none;enable-background:new"
       d="m 36.013569,-0.6132 -26.599995,18.2 h 1.022655 l 25.57734,-17.5 z"
       id="path4447" />
    <path
       style="display:inline;opacity:0.1;fill:#ffffff;fill-opacity:1;stroke:none;enable-background:new"
       d="m 8.013569,-0.6132 v 0.7 l 13.48867,9.22851 0.51133,-0.35 z"
       id="path4449"
       inkscape:connector-curvature="0"
       sodipodi:nodetypes="ccccc" />
    <path
       inkscape:connector-curvature="0"
       id="path4455"
       d="m 12.513569,-8.4134 c -0.831,0 -1.5,0.6687 -1.5,1.49903 v 0.5 c 0,-0.83033 0.669,-1.49903 1.5,-1.49903 h 19 c 0.83099,0 1.5,0.6687 1.5,1.49903 v -0.5 c 0,-0.83033 -0.66901,-1.49903 -1.5,-1.49903 z"
       style="display:inline;opacity:0.1;fill:#ffffff;fill-opacity:1;stroke:none;stroke-width:2;stroke-linecap:round;stroke-linejoin:miter;stroke-miterlimit:4;stroke-dasharray:none;stroke-opacity:1;enable-background:new" />
    <path
       style="display:inline;fill:#848484;fill-opacity:1;stroke:none;stroke-width:2;stroke-linecap:round;stroke-linejoin:round;stroke-miterlimit:4;stroke-dasharray:none;stroke-opacity:1;enable-background:new"
       d="m 22.013579,-5.4134 a 5,5 0 0 0 -5,5 5,5 0 0 0 5,5 h 2 1.5 c 0.277,0 0.5,-0.223 0.5,-0.5 0,-0.277 -0.223,-0.5 -0.5,-0.5 h -1.5 -2 a 4,4 0 0 1 -4,-4 4,4 0 0 1 4,-4 4,4 0 0 1 4,4 v 1 0.5 c 0,0.277 -0.223,0.5 -0.5,0.5 -0.277,0 -0.5,-0.223 -0.5,-0.5 v -0.5 -1 a 3,3 0 0 0 -3,-3 3,3 0 0 0 -3,3 3,3 0 0 0 3,3 3,3 0 0 0 2.13086,-0.89062 c 0.23321,0.5245 0.75618,0.89062 1.36914,0.89062 0.831,0 1.5,-0.669 1.5,-1.5 v -0.5 -1 a 5,5 0 0 0 -5,-5 z m 0,3 a 2,2 0 0 1 2,2 2,2 0 0 1 -2,2 2,2 0 0 1 -2,-2 2,2 0 0 1 2,-2 z"
       id="path4369"
       inkscape:connector-curvature="0" />
  </g>
</svg>
