<?xml version="1.0" encoding="UTF-8" standalone="no"?>
<svg
   width="32"
   height="32"
   version="1"
   id="svg26"
   sodipodi:docname="kdenlive.svg"
   inkscape:version="1.1.1 (3bf5ae0d25, 2021-09-20)"
   xmlns:inkscape="http://www.inkscape.org/namespaces/inkscape"
   xmlns:sodipodi="http://sodipodi.sourceforge.net/DTD/sodipodi-0.dtd"
   xmlns="http://www.w3.org/2000/svg"
   xmlns:svg="http://www.w3.org/2000/svg">
  <defs
     id="defs30" />
  <sodipodi:namedview
     id="namedview28"
     pagecolor="#505050"
     bordercolor="#ffffff"
     borderopacity="1"
     inkscape:pageshadow="0"
     inkscape:pageopacity="0"
     inkscape:pagecheckerboard="1"
     showgrid="false"
     inkscape:zoom="23.03125"
     inkscape:cx="16"
     inkscape:cy="15.97829"
     inkscape:current-layer="svg26" />
  <path
     style="opacity:0.2"
     d="M 30,27.611111 V 5.3888889 C 30,4.6194444 29.3756,4 28.6,4 H 3.4 C 2.6244,4 2,4.6194444 2,5.3888889 V 27.611111 C 2,28.380556 2.6244,29 3.4,29 h 25.2 c 0.7756,0 1.4,-0.619444 1.4,-1.388889 z"
     id="path2" />
  <path
     style="fill:#4f4f4f"
     d="M 30,26.611111 V 4.3888889 C 30,3.6194444 29.3756,3 28.6,3 H 3.4 C 2.6244,3 2,3.6194444 2,4.3888889 V 26.611111 C 2,27.380556 2.6244,28 3.4,28 h 25.2 c 0.7756,0 1.4,-0.619444 1.4,-1.388889 z"
     id="path4" />
  <path
     style="opacity:0.1;fill:#ffffff"
     d="M 3.4003906,3 C 2.6247906,3 2,3.6192274 2,4.3886719 v 1 C 2,4.6192274 2.6247906,4 3.4003906,4 H 28.599609 C 29.375209,4 30,4.6192274 30,5.3886719 v -1 C 30,3.6192274 29.375209,3 28.599609,3 Z"
     id="path6" />
  <path
     style="fill:#f44336"
     d="m 15,3 0.03906,25 H 17 V 3 Z"
     id="path8" />
  <path
     style="opacity:0.2;fill-rule:evenodd"
     d="m 11,8 v 2 h 2 V 8 Z m -2,3 v 2 h 4 v -2 z m -4,3 v 2 h 8 v -2 z m -2,3 v 2 h 10 v -2 z m 2,3 v 2 h 8 v -2 z m 4,3 v 2 h 4 v -2 z"
     id="path10" />
  <path
     style="fill:#4db6ac;fill-rule:evenodd"
     d="m 11,7 v 2 h 2 V 7 Z m -2,3 v 2 h 4 v -2 z m -4,3 v 2 h 8 v -2 z m -2,3 v 2 h 10 v -2 z m 2,3 v 2 h 8 v -2 z m 4,3 v 2 h 4 v -2 z"
     id="path12" />
  <path
     style="opacity:0.2"
     d="M 20,3 H 15.999999 12 L 14,5.9999999 15.999999,9 l 2,-2.9999999 z"
     id="path14" />
  <path
     style="fill:#e57373"
     d="M 20,2 H 15.999999 12 L 14,4.9999999 15.999999,8 l 2,-2.9999999 z"
     id="path16" />
  <path
     style="opacity:0.2"
     d="m 19.777647,10.700922 c -0.368264,0.01986 -0.764804,0.343662 -0.763877,0.702457 L 19,21.996751 c 0,0.478431 0.704159,0.894739 1.106979,0.610518 l 7.58928,-5.314795 c 0.40545,-0.280708 0.404525,-0.939186 0,-1.221139 l -7.575203,-5.278478 c -0.101115,-0.07043 -0.220352,-0.09849 -0.34316,-0.09193 z"
     id="path18" />
  <path
     style="fill:#3f51b5"
     d="m 19.777647,9.700922 c -0.368264,0.01986 -0.764804,0.343662 -0.763877,0.702457 L 19,20.996751 c 0,0.478431 0.704159,0.894739 1.106979,0.610518 l 7.58928,-5.314795 c 0.40545,-0.280708 0.404525,-0.939186 0,-1.221139 L 20.121056,9.792857 c -0.101115,-0.07043 -0.220352,-0.09849 -0.34316,-0.09193 z"
     id="path20" />
  <path
     style="opacity:0.1;fill:#ffffff;fill-rule:evenodd"
     d="m 11,7 v 1 h 2 V 7 Z m -2,3 v 1 h 4 v -1 h -2 z m -4,3 v 1 h 8 V 13 H 9 Z m -2,3 v 1 H 13 V 16 H 5 Z m 2,3 v 1 h 8 v -1 z m 4,3 v 1 h 4 v -1 z"
     id="path22" />
  <path
     style="opacity:0.1;fill:#ffffff"
     d="m 19.777344,9.701172 c -0.368264,0.01986 -0.764599,0.34433 -0.763672,0.703125 L 19,20.996094 c 0,0.0027 0.0019,0.0051 0.002,0.0078 l 0.01172,-9.599609 c -9.27e-4,-0.358795 0.395408,-0.683265 0.763672,-0.703125 0.122808,-0.0066 0.242635,0.02137 0.34375,0.0918 l 7.574218,5.279297 c 0.04165,0.02903 0.06066,0.07513 0.09375,0.111328 0.289765,-0.314217 0.269548,-0.858111 -0.09375,-1.111328 L 20.121094,9.792969 C 20.019979,9.722539 19.900152,9.694612 19.777344,9.701172 Z"
     id="path24" />
</svg>
