<?xml version="1.0" encoding="UTF-8" standalone="no"?>
<svg
   width="32"
   height="32"
   version="1"
   id="svg16"
   sodipodi:docname="cs-default-applications.svg"
   inkscape:version="1.1.1 (3bf5ae0d25, 2021-09-20)"
   xmlns:inkscape="http://www.inkscape.org/namespaces/inkscape"
   xmlns:sodipodi="http://sodipodi.sourceforge.net/DTD/sodipodi-0.dtd"
   xmlns="http://www.w3.org/2000/svg"
   xmlns:svg="http://www.w3.org/2000/svg">
  <defs
     id="defs20" />
  <sodipodi:namedview
     id="namedview18"
     pagecolor="#505050"
     bordercolor="#ffffff"
     borderopacity="1"
     inkscape:pageshadow="0"
     inkscape:pageopacity="0"
     inkscape:pagecheckerboard="1"
     showgrid="false"
     inkscape:zoom="16.285553"
     inkscape:cx="21.03091"
     inkscape:cy="15.351029"
     inkscape:current-layer="g1117" />
  <g
     id="g1130"
     transform="translate(18.611478,4.0900013)">
    <g
       id="g1487"
       transform="translate(-56.071136,-8.7464261)">
      <g
         id="g1313">
        <path
           inkscape:connector-curvature="0"
           id="path4465-3"
           d="m 39.959657,25.656425 c -0.830999,0 -1.499999,-0.669 -1.499999,-1.5 v -1 c 0,0.831 0.669,1.5 1.499999,1.5 h 16 c 0.831,0 1.5,-0.669 1.5,-1.5 v 1 c 0,0.831 -0.669,1.5 -1.5,1.5 z"
           style="display:inline;opacity:0.2;fill:#000000;fill-opacity:1;stroke:none;enable-background:new" />
        <rect
           ry="1.5"
           rx="1.5"
           y="-57.459663"
           x="5.6564269"
           height="19"
           width="19"
           id="rect4468-6"
           style="display:inline;fill:#e91e63;fill-opacity:1;stroke:none;enable-background:new"
           transform="rotate(90)" />
        <path
           style="display:inline;opacity:0.2;fill:#ffffff;fill-opacity:1;stroke:none;enable-background:new"
           d="m 39.959657,5.6564248 c -0.830999,0 -1.499999,0.669 -1.499999,1.5 v 1 c 0,-0.831 0.669,-1.5 1.499999,-1.5 h 16 c 0.831,0 1.5,0.669 1.5,1.5 v -1 c 0,-0.831 -0.669,-1.5 -1.5,-1.5 z"
           id="rect4576-5"
           inkscape:connector-curvature="0" />
      </g>
      <path
         inkscape:connector-curvature="0"
         id="path4900"
         d="m 42.816806,10.406425 c -0.857145,0 -0.857145,0.855877 -0.857145,0.855877 v 8.788246 c 0,0.855877 0.857145,0.855877 0.857145,0.855877 h 10.28571 c 0,0 0.857145,0 0.857145,-0.855877 v -8.788246 c 0,-0.855877 -0.857145,-0.855877 -0.857145,-0.855877 z m 3,4.134095 2.83929,3.209764 1.82142,-1.765378 1.982145,1.979422 v 1.444238 h -9 v -2.139693 z"
         style="color:#000000;font-style:normal;font-variant:normal;font-weight:normal;font-stretch:normal;font-size:medium;line-height:normal;font-family:Sans;-inkscape-font-specification:Sans;text-indent:0;text-align:start;text-decoration:none;text-decoration-line:none;letter-spacing:normal;word-spacing:normal;text-transform:none;writing-mode:lr-tb;direction:ltr;baseline-shift:baseline;text-anchor:start;display:inline;overflow:visible;visibility:visible;fill:#f8bbd0;fill-opacity:1;fill-rule:nonzero;stroke:none;stroke-width:2.99785;marker:none;enable-background:new"
         sodipodi:nodetypes="scsccsscscccccccc" />
    </g>
  </g>
  <g
     id="g1117"
     transform="translate(0.999998,2.5000002)">
    <g
       id="g1598" />
    <g
       id="g1661">
      <path
         inkscape:connector-curvature="0"
         id="path4465"
         d="m 12.500001,21.5 c -0.830999,0 -1.499999,-0.669 -1.499999,-1.5 v -1 c 0,0.831 0.669,1.5 1.499999,1.5 h 16 c 0.831,0 1.5,-0.669 1.5,-1.5 v 1 c 0,0.831 -0.669,1.5 -1.5,1.5 z"
         style="display:inline;opacity:0.2;fill:#000000;fill-opacity:1;stroke:none;enable-background:new" />
      <rect
         ry="1.5"
         rx="1.5"
         y="-30.000006"
         x="1.5000018"
         height="19"
         width="19"
         id="rect4468"
         style="display:inline;fill:#009688;fill-opacity:1;stroke:none;enable-background:new"
         transform="rotate(90)" />
      <path
         style="display:inline;opacity:0.2;fill:#ffffff;fill-opacity:1;stroke:none;enable-background:new"
         d="m 12.500001,1.4999998 c -0.830999,0 -1.499999,0.669 -1.499999,1.5 v 1 c 0,-0.831 0.669,-1.5 1.499999,-1.5 h 16 c 0.831,0 1.5,0.669 1.5,1.5 v -1 c 0,-0.831 -0.669,-1.5 -1.5,-1.5 z"
         id="rect4576"
         inkscape:connector-curvature="0" />
      <path
         sodipodi:nodetypes="csscscccc"
         inkscape:connector-curvature="0"
         id="path4846"
         d="m 17.165687,6.5058966 c 0,0 -0.665682,0 -0.665682,0.681497 V 15.818602 C 16.500005,16.5 17.165687,16.5 17.165687,16.5 h 6.656873 c 0.665692,0 0.665692,-0.681399 0.665692,-0.681399 0.01249,-0.03198 0.01329,-4.584695 0.01029,-6.3203704 l -2.997983,-2.998231 z"
         style="display:inline;fill:#e0f2f1;fill-opacity:1;stroke:none;stroke-width:0.999369;enable-background:new" />
    </g>
  </g>
  <g
     id="g1124"
     transform="translate(3.0000038,0.5)">
    <path
       inkscape:connector-curvature="0"
       id="path4467"
       d="m 3.5000016,30.5 c -0.831,0 -1.5,-0.669 -1.5,-1.5 v -1 c 0,0.831 0.669,1.5 1.5,1.5 H 19.500001 c 0.831,0 1.5,-0.669 1.5,-1.5 v 1 c 0,0.831 -0.669,1.5 -1.5,1.5 z"
       style="display:inline;opacity:0.2;fill:#000000;fill-opacity:1;stroke:none;enable-background:new" />
    <rect
       transform="rotate(90)"
       style="display:inline;fill:#fb8c00;fill-opacity:1;stroke:none;enable-background:new"
       id="rect4474"
       width="19.000002"
       height="19.000002"
       x="10.500002"
       y="-20.999998"
       rx="1.5"
       ry="1.5" />
    <path
       style="display:inline;opacity:0.2;fill:#ffffff;fill-opacity:1;stroke:none;enable-background:new"
       d="m 3.5000016,10.5 c -0.831,0 -1.5,0.669 -1.5,1.5 v 1 c 0,-0.831 0.669,-1.5 1.5,-1.5 H 19.500001 c 0.831,0 1.5,0.669 1.5,1.5 v -1 c 0,-0.831 -0.669,-1.5 -1.5,-1.5 z"
       id="rect4578"
       inkscape:connector-curvature="0" />
    <g
       id="g4991"
       inkscape:label="places"
       style="display:inline;fill:#fff3e0;fill-opacity:1;enable-background:new"
       transform="matrix(0.5,0,0,0.5,-234.5,-73)">
      <path
         style="fill:#fff3e0;fill-opacity:1;stroke:none"
         d="m 109,507 v 0.5 l -1e-5,5.76953 c -0.30389,-0.17609 -0.64878,-0.26905 -1,-0.26953 -1.10457,0 -2,0.89543 -2,2 0,1.10457 0.89543,2 2,2 1.10457,0 2,-0.89543 2,-2 l 1e-5,-5 h 5.00001 l -1e-5,3.26953 c -0.30389,-0.17609 -0.64878,-0.26905 -1,-0.26953 -1.10457,0 -2,0.89543 -2,2 0,1.10457 0.89543,2 2,2 1.10457,0 2,-0.89543 2,-2 l 1e-5,-8 h -0.5 z"
         transform="matrix(2,0,0,2,269,-837)"
         id="path4993"
         inkscape:connector-curvature="0"
         sodipodi:nodetypes="ccccsssccccsssccc" />
    </g>
  </g>
</svg>
