<?xml version="1.0" encoding="UTF-8" standalone="no"?>
<svg
   width="32"
   height="32"
   version="1"
   id="svg26"
   sodipodi:docname="system-file-manager.svg"
   inkscape:version="1.1.1 (3bf5ae0d25, 2021-09-20)"
   xmlns:inkscape="http://www.inkscape.org/namespaces/inkscape"
   xmlns:sodipodi="http://sodipodi.sourceforge.net/DTD/sodipodi-0.dtd"
   xmlns="http://www.w3.org/2000/svg"
   xmlns:svg="http://www.w3.org/2000/svg">
  <defs
     id="defs30" />
  <sodipodi:namedview
     id="namedview28"
     pagecolor="#505050"
     bordercolor="#ffffff"
     borderopacity="1"
     inkscape:pageshadow="0"
     inkscape:pageopacity="0"
     inkscape:pagecheckerboard="1"
     showgrid="false"
     inkscape:zoom="23.03125"
     inkscape:cx="16"
     inkscape:cy="16.02171"
     inkscape:current-layer="svg26" />
  <path
     style="display:inline;fill:#546e7a;fill-opacity:1;stroke:none;enable-background:new"
     d="M 2.97966,18.990105 V 3.007745 c 0,-0.83008 0.66826,-1.49834 1.49835,-1.49834 h 8.98787 l 2.99669,2.99669 h 10.98787 c 0.83008,0 1.49834,0.66826 1.49834,1.49835 v 12.98566 c 0,0.83009 -0.66826,1.49835 -1.49834,1.49835 H 4.47801 c -0.83009,0 -1.49835,-0.66826 -1.49835,-1.49835 z"
     id="path4112"
     inkscape:connector-curvature="0"
     sodipodi:nodetypes="sssccssssss" />
  <path
     style="display:inline;opacity:0.1;fill:#000000;fill-opacity:1;stroke:none;enable-background:new"
     d="m 15.46289,4.506215 -1.99609,1.9961 H 4.47852 c -0.83009,0 -1.498051,0.66796 -1.498051,1.49805 v 1 c 0,-0.83009 0.667961,-1.49805 1.498051,-1.49805 h 8.98828 l 2.49609,-2.4961 z"
     id="path4775"
     inkscape:connector-curvature="0"
     sodipodi:nodetypes="ccsscsccc" />
  <path
     style="display:inline;opacity:0.1;fill:#ffffff;fill-opacity:1;stroke:none;enable-background:new"
     d="m 4.47852,1.510125 c -0.83009,0 -1.498051,0.66797 -1.498051,1.49805 v 1 c 0,-0.83008 0.667961,-1.49805 1.498051,-1.49805 h 8.98828 l 2.49609,2.49609 0.5,-0.5 -2.99609,-2.99609 z"
     id="path4762"
     inkscape:connector-curvature="0"
     sodipodi:nodetypes="sscsccccs" />
  <path
     sodipodi:nodetypes="sssccssssss"
     inkscape:connector-curvature="0"
     id="path4114"
     d="M 28.94878,24.983495 V 6.004445 c 0,-0.83009 -0.66825,-1.49835 -1.49834,-1.49835 H 16.46257 l -2.99669,2.99669 H 4.47801 c -0.83009,0 -1.49835,0.66826 -1.49835,1.49835 v 15.98236 c 0,0.83008 0.66826,1.49834 1.49835,1.49834 h 22.97243 c 0.83008,0 1.49834,-0.66826 1.49834,-1.49834 z"
     style="display:inline;fill:#78909c;fill-opacity:1;stroke:none;enable-background:new" />
  <rect
     transform="scale(1,-1)"
     style="display:inline;fill:#f9f9f9;fill-opacity:1;stroke:none;enable-background:new"
     id="rect984"
     width="22"
     height="10"
     x="5"
     y="-16"
     rx="1.4999975"
     ry="1.4999975" />
  <path
     style="display:inline;opacity:0.1;fill:#ffffff;fill-opacity:1;stroke:none;enable-background:new"
     d="m 16.46289,4.506215 -2.99609,2.9961 H 4.47852 c -0.83009,0 -1.498051,0.66796 -1.498051,1.49805 v 1 c 0,-0.83009 0.667961,-1.49805 1.498051,-1.49805 h 8.98828 l 2.99609,-2.9961 h 10.98828 c 0.83009,0 1.49805,0.66796 1.49805,1.49805 v -1 c 0,-0.83009 -0.66796,-1.49805 -1.49805,-1.49805 z"
     id="path4764"
     inkscape:connector-curvature="0"
     sodipodi:nodetypes="ccsscsccscssc" />
  <rect
     transform="matrix(0,-1,-1,0,0,0)"
     style="display:inline;fill:#cfd8dc;fill-opacity:1;stroke:none;enable-background:new"
     id="rect4760"
     width="22.000025"
     height="28"
     x="-29.490595"
     y="-30"
     rx="1.4999975"
     ry="1.4999975" />
  <path
     style="display:inline;opacity:0.2;fill:#ffffff;fill-opacity:1;stroke:none;enable-background:new"
     d="m 3.5,7.490595 c -0.830999,0 -1.5,0.669 -1.5,1.5 v 1 c 0,-0.831 0.669001,-1.5 1.5,-1.5 h 25 c 0.831,0 1.5,0.669 1.5,1.5 v -1 c 0,-0.831 -0.669,-1.5 -1.5,-1.5 z"
     id="rect4780"
     inkscape:connector-curvature="0" />
  <rect
     ry="0.5"
     rx="0"
     y="11.490595"
     x="12"
     height="2"
     width="8"
     id="rect4803"
     style="display:inline;opacity:0.2;fill:#000000;fill-opacity:1;stroke:none;stroke-width:2;stroke-linecap:round;stroke-linejoin:round;stroke-miterlimit:4;stroke-dasharray:none;stroke-opacity:1;enable-background:new" />
  <rect
     style="display:inline;fill:#ffffff;fill-opacity:1;stroke:none;stroke-width:2;stroke-linecap:round;stroke-linejoin:round;stroke-miterlimit:4;stroke-dasharray:none;stroke-opacity:1;enable-background:new"
     id="rect4801"
     width="8"
     height="2"
     x="12"
     y="10.490595"
     rx="0"
     ry="0.5" />
  <path
     id="path4527"
     d="m 3.5,30.490595 c -0.830999,0 -1.5,-0.669 -1.5,-1.5 v -1 c 0,0.831 0.669001,1.5 1.5,1.5 h 25 c 0.831,0 1.5,-0.669 1.5,-1.5 v 1 c 0,0.831 -0.669,1.5 -1.5,1.5 z"
     style="display:inline;opacity:0.1;fill:#000000;fill-opacity:1;stroke:none;enable-background:new"
     inkscape:connector-curvature="0" />
  <path
     style="display:inline;opacity:0.2;fill:#ffffff;fill-opacity:1;stroke:none;enable-background:new"
     d="M 6.5,6 C 5.669001,6 5,6.669 5,7.5 v 1 C 5,7.669 5.669001,7 6.5,7 h 19 C 26.331,7 27,7.669 27,8.5 v -1 C 27,6.669 26.331,6 25.5,6 Z"
     id="path986"
     inkscape:connector-curvature="0"
     sodipodi:nodetypes="sscsscsss" />
</svg>
