<?xml version="1.0" encoding="UTF-8" standalone="no"?>
<svg
   width="32"
   height="32"
   version="1.1"
   id="svg12"
   sodipodi:docname="desktop.svg"
   inkscape:version="1.1.1 (3bf5ae0d25, 2021-09-20)"
   xmlns:inkscape="http://www.inkscape.org/namespaces/inkscape"
   xmlns:sodipodi="http://sodipodi.sourceforge.net/DTD/sodipodi-0.dtd"
   xmlns="http://www.w3.org/2000/svg"
   xmlns:svg="http://www.w3.org/2000/svg">
  <defs
     id="defs16" />
  <sodipodi:namedview
     id="namedview14"
     pagecolor="#505050"
     bordercolor="#ffffff"
     borderopacity="1"
     inkscape:pageshadow="0"
     inkscape:pageopacity="0"
     inkscape:pagecheckerboard="1"
     showgrid="false"
     inkscape:zoom="23.03125"
     inkscape:cx="16"
     inkscape:cy="16.02171"
     inkscape:current-layer="svg12" />
  <path
     inkscape:connector-curvature="0"
     id="rect4378"
     d="m 0.9970153,27 v 1 c 0,0.831 0.669,1.5 1.5,1.5 H 29.497015 c 0.831,0 1.5,-0.669 1.5,-1.5 v -1 c 0,0.831 -0.669,1.5 -1.5,1.5 H 2.4970153 c -0.831,0 -1.5,-0.669 -1.5,-1.5 z"
     style="display:inline;opacity:0.1;fill:#000000;fill-opacity:1;stroke:none;enable-background:new"
     sodipodi:nodetypes="csssscssc" />
  <path
     sodipodi:nodetypes="csssscc"
     inkscape:connector-curvature="0"
     id="rect4363"
     d="M 0.9970153,6.5 V 27 c 0,0.831 0.669,1.5 1.5,1.5 H 29.497015 c 0.831,0 1.58069,-0.67293 1.5,-1.5 V 6.5 Z"
     style="display:inline;fill:#00897b;fill-opacity:1;stroke:none;enable-background:new" />
  <path
     sodipodi:nodetypes="ssccsss"
     inkscape:connector-curvature="0"
     id="rect4509"
     d="m 2.4970153,2.5 c -0.831,0 -1.5,0.669 -1.5,1.5 V 6.5 H 30.997015 V 4 c 0,-0.831 -0.669,-1.5 -1.5,-1.5 z"
     style="display:inline;fill:#263238;fill-opacity:1;stroke:none;enable-background:new" />
</svg>
